%TF.GenerationSoftware,KiCad,Pcbnew,7.0.6*%
%TF.CreationDate,2023-08-03T00:29:09-04:00*%
%TF.ProjectId,esp32_rele_v1,65737033-325f-4726-956c-655f76312e6b,rev?*%
%TF.SameCoordinates,Original*%
%TF.FileFunction,Copper,L2,Bot*%
%TF.FilePolarity,Positive*%
%FSLAX46Y46*%
G04 Gerber Fmt 4.6, Leading zero omitted, Abs format (unit mm)*
G04 Created by KiCad (PCBNEW 7.0.6) date 2023-08-03 00:29:09*
%MOMM*%
%LPD*%
G01*
G04 APERTURE LIST*
%TA.AperFunction,ComponentPad*%
%ADD10R,2.300000X2.300000*%
%TD*%
%TA.AperFunction,ComponentPad*%
%ADD11C,2.300000*%
%TD*%
%TA.AperFunction,ComponentPad*%
%ADD12R,2.600000X2.600000*%
%TD*%
%TA.AperFunction,ComponentPad*%
%ADD13C,2.600000*%
%TD*%
%TA.AperFunction,ComponentPad*%
%ADD14C,3.800000*%
%TD*%
%TA.AperFunction,ViaPad*%
%ADD15C,0.800000*%
%TD*%
%TA.AperFunction,Conductor*%
%ADD16C,0.300000*%
%TD*%
%TA.AperFunction,Conductor*%
%ADD17C,0.500000*%
%TD*%
%TA.AperFunction,Conductor*%
%ADD18C,0.200000*%
%TD*%
G04 APERTURE END LIST*
D10*
%TO.P,K1,1*%
%TO.N,Net-(D5-K)*%
X34275000Y-22870000D03*
D11*
%TO.P,K1,2*%
%TO.N,/K2-in*%
X24115000Y-22870000D03*
%TO.P,K1,3*%
%TO.N,/K2-out*%
X16495000Y-22870000D03*
%TO.P,K1,5*%
%TO.N,+5V*%
X34275000Y-30490000D03*
%TD*%
D12*
%TO.P,J5,1,Pin_1*%
%TO.N,/K3-out*%
X7315000Y-36870000D03*
D13*
%TO.P,J5,2,Pin_2*%
%TO.N,/K3-in*%
X7315000Y-41870000D03*
%TD*%
D14*
%TO.P,H2,2*%
%TO.N,N/C*%
X96450000Y-3810000D03*
%TD*%
%TO.P,H1,1*%
%TO.N,N/C*%
X3810000Y-3810000D03*
%TD*%
D12*
%TO.P,J1,1,Pin_1*%
%TO.N,GND*%
X92505000Y-53840000D03*
D13*
%TO.P,J1,2,Pin_2*%
%TO.N,/V_EXT*%
X92505000Y-48840000D03*
%TD*%
D10*
%TO.P,K2,1*%
%TO.N,Net-(D10-A)*%
X34275000Y-35570000D03*
D11*
%TO.P,K2,2*%
%TO.N,/K3-in*%
X24115000Y-35570000D03*
%TO.P,K2,3*%
%TO.N,/K3-out*%
X16495000Y-35570000D03*
%TO.P,K2,5*%
%TO.N,+5V*%
X34275000Y-43190000D03*
%TD*%
D12*
%TO.P,J8,1,Pin_1*%
%TO.N,/K2-out*%
X7315000Y-24170000D03*
D13*
%TO.P,J8,2,Pin_2*%
%TO.N,/K2-in*%
X7315000Y-29170000D03*
%TD*%
D12*
%TO.P,J7,1,Pin_1*%
%TO.N,/K1-out*%
X7315000Y-11470000D03*
D13*
%TO.P,J7,2,Pin_2*%
%TO.N,/K1-in*%
X7315000Y-16470000D03*
%TD*%
D10*
%TO.P,K4,1*%
%TO.N,Net-(D12-A)*%
X34275000Y-48270000D03*
D11*
%TO.P,K4,2*%
%TO.N,/K4-in*%
X24115000Y-48270000D03*
%TO.P,K4,3*%
%TO.N,/K4-out*%
X16495000Y-48270000D03*
%TO.P,K4,5*%
%TO.N,+5V*%
X34275000Y-55890000D03*
%TD*%
D14*
%TO.P,H3,3*%
%TO.N,N/C*%
X96450000Y-62230000D03*
%TD*%
D10*
%TO.P,K3,1*%
%TO.N,Net-(D11-A)*%
X34290000Y-10160000D03*
D11*
%TO.P,K3,2*%
%TO.N,/K1-in*%
X24130000Y-10160000D03*
%TO.P,K3,3*%
%TO.N,/K1-out*%
X16510000Y-10160000D03*
%TO.P,K3,5*%
%TO.N,+5V*%
X34290000Y-17780000D03*
%TD*%
D12*
%TO.P,J6,1,Pin_1*%
%TO.N,/K4-out*%
X7315000Y-49570000D03*
D13*
%TO.P,J6,2,Pin_2*%
%TO.N,/K4-in*%
X7315000Y-54570000D03*
%TD*%
D14*
%TO.P,H4,4*%
%TO.N,N/C*%
X3810000Y-62230000D03*
%TD*%
D15*
%TO.N,GND*%
X89712800Y-45821600D03*
X93726000Y-45796200D03*
X83032600Y-18313400D03*
X79768700Y-18313400D03*
X76504800Y-18313400D03*
%TO.N,/GPIO0*%
X90551000Y-26568400D03*
X88773000Y-24993600D03*
%TO.N,/CHIP_PU*%
X63271400Y-14706600D03*
X67983100Y-12433300D03*
%TO.N,GND*%
X70612000Y-63500000D03*
X73152000Y-42672000D03*
X70104000Y-42672000D03*
%TO.N,/GPIO_10*%
X66929000Y-52146200D03*
X75641200Y-26568400D03*
%TO.N,/GPIO_11*%
X76784200Y-27305000D03*
X73583800Y-52882800D03*
%TO.N,/GPIO_12*%
X77851000Y-27914600D03*
X75260200Y-53670200D03*
%TO.N,/GPIO_13*%
X75285600Y-55180000D03*
X78892400Y-28651200D03*
%TO.N,/GPIO_39*%
X60604400Y-50723800D03*
X90093800Y-18262600D03*
%TO.N,/GPIO_40*%
X90246200Y-16764000D03*
X61010800Y-48183800D03*
%TO.N,/GPIO_41*%
X60655200Y-45567600D03*
X90271600Y-15417800D03*
%TO.N,/GPIO_42*%
X60858400Y-43053000D03*
X90576400Y-14071600D03*
%TO.N,/GPIO_35*%
X64185800Y-39547800D03*
X89662000Y-22148800D03*
%TO.N,/GPIO_36*%
X63398400Y-37998400D03*
X89712800Y-20955000D03*
%TO.N,/GPIO_37*%
X89733200Y-19680000D03*
X62001400Y-35433000D03*
%TO.N,/GPIO_19*%
X69164200Y-24511000D03*
X63195200Y-30632400D03*
%TO.N,/GPIO_15*%
X69062600Y-15951200D03*
X57099200Y-48412400D03*
%TO.N,/GPIO_07*%
X69138800Y-14706600D03*
X56337200Y-45948600D03*
%TO.N,/GPIO_06*%
X69138800Y-13360400D03*
X55295800Y-43357800D03*
%TO.N,/GPIO_05*%
X54508400Y-41859200D03*
X69265800Y-12217400D03*
%TO.N,/GPIO_04*%
X72491600Y-19558000D03*
X59004200Y-39522400D03*
%TO.N,/GPIO_18*%
X69215000Y-19812000D03*
X59258200Y-36982400D03*
%TO.N,/GPIO_17*%
X69113400Y-18440400D03*
X58801000Y-35712400D03*
%TO.N,/GPIO_20*%
X70180200Y-25730200D03*
X63271400Y-33096200D03*
%TO.N,/GPIO_14*%
X80924400Y-22910800D03*
X66344800Y-29819600D03*
%TO.N,/GPIO_21*%
X82550000Y-22631400D03*
X66979800Y-28854400D03*
%TO.N,/GPIO_47*%
X66116200Y-28244800D03*
X83718400Y-23164800D03*
%TO.N,/GPIO_48*%
X85090000Y-23291800D03*
X66395600Y-27076400D03*
%TD*%
D16*
%TO.N,/GPIO0*%
X90551000Y-26568400D02*
X90347800Y-26568400D01*
X90347800Y-26568400D02*
X88773000Y-24993600D01*
%TO.N,/CHIP_PU*%
X67983100Y-12433300D02*
X65709800Y-14706600D01*
X65709800Y-14706600D02*
X63271400Y-14706600D01*
D17*
%TO.N,GND*%
X92505000Y-53840000D02*
X82845000Y-63500000D01*
X82845000Y-63500000D02*
X70612000Y-63500000D01*
D16*
%TO.N,/GPIO_10*%
X66929000Y-52146200D02*
X71272400Y-52146200D01*
X73939400Y-28270200D02*
X75641200Y-26568400D01*
X71272400Y-52146200D02*
X73939400Y-49479200D01*
X73939400Y-49479200D02*
X73939400Y-28270200D01*
%TO.N,/GPIO_11*%
X75615800Y-50774600D02*
X73583800Y-52806600D01*
X75615800Y-28473400D02*
X75615800Y-50774600D01*
X76784200Y-27305000D02*
X75615800Y-28473400D01*
X73583800Y-52806600D02*
X73583800Y-52882800D01*
%TO.N,/GPIO_12*%
X76606400Y-52324000D02*
X75260200Y-53670200D01*
X77851000Y-27914600D02*
X76606400Y-29159200D01*
X76606400Y-29159200D02*
X76606400Y-52324000D01*
%TO.N,/GPIO_13*%
X77495400Y-30048200D02*
X77495400Y-52970200D01*
X78892400Y-28651200D02*
X77495400Y-30048200D01*
X77495400Y-52970200D02*
X75285600Y-55180000D01*
D18*
%TO.N,/GPIO_39*%
X94259400Y-30429200D02*
X81661000Y-43027600D01*
X90093800Y-18262600D02*
X94259400Y-22428200D01*
X81661000Y-55143400D02*
X77927200Y-58877200D01*
X60604400Y-52933600D02*
X60604400Y-50723800D01*
X81661000Y-43027600D02*
X81661000Y-55143400D01*
X66548000Y-58877200D02*
X60604400Y-52933600D01*
X77927200Y-58877200D02*
X66548000Y-58877200D01*
X94259400Y-22428200D02*
X94259400Y-30429200D01*
%TO.N,/GPIO_40*%
X61010800Y-48234600D02*
X61010800Y-48183800D01*
X59766200Y-53492400D02*
X59766200Y-49479200D01*
X95021400Y-21539200D02*
X95021400Y-31216600D01*
X95021400Y-31216600D02*
X82727800Y-43510200D01*
X90246200Y-16764000D02*
X95021400Y-21539200D01*
X66065400Y-59791600D02*
X59766200Y-53492400D01*
X78282800Y-59791600D02*
X66065400Y-59791600D01*
X59766200Y-49479200D02*
X61010800Y-48234600D01*
X82727800Y-43510200D02*
X82727800Y-55346600D01*
X82727800Y-55346600D02*
X78282800Y-59791600D01*
%TO.N,/GPIO_41*%
X59080400Y-46786800D02*
X60299600Y-45567600D01*
X83515200Y-55981600D02*
X78790800Y-60706000D01*
X78790800Y-60706000D02*
X65379600Y-60706000D01*
X96215200Y-21361400D02*
X96215200Y-31419800D01*
X83515200Y-44119800D02*
X83515200Y-55981600D01*
X60299600Y-45567600D02*
X60655200Y-45567600D01*
X96215200Y-31419800D02*
X83515200Y-44119800D01*
X65379600Y-60706000D02*
X59080400Y-54406800D01*
X59080400Y-54406800D02*
X59080400Y-46786800D01*
X90271600Y-15417800D02*
X96215200Y-21361400D01*
%TO.N,/GPIO_42*%
X97155000Y-31851600D02*
X84455000Y-44551600D01*
X84455000Y-44551600D02*
X84455000Y-56464200D01*
X79298800Y-61620400D02*
X64312800Y-61620400D01*
X58064400Y-45847000D02*
X60858400Y-43053000D01*
X84455000Y-56464200D02*
X79298800Y-61620400D01*
X58064400Y-55372000D02*
X58064400Y-45847000D01*
X90576400Y-14071600D02*
X97155000Y-20650200D01*
X64312800Y-61620400D02*
X58064400Y-55372000D01*
X97155000Y-20650200D02*
X97155000Y-31851600D01*
%TO.N,/GPIO_35*%
X64135000Y-52628800D02*
X64135000Y-39598600D01*
X78562200Y-41681400D02*
X78562200Y-54076600D01*
X78562200Y-54076600D02*
X76555600Y-56083200D01*
X76555600Y-56083200D02*
X67589400Y-56083200D01*
X89662000Y-22148800D02*
X91592400Y-24079200D01*
X91592400Y-24079200D02*
X91592400Y-28651200D01*
X67589400Y-56083200D02*
X64135000Y-52628800D01*
X64135000Y-39598600D02*
X64185800Y-39547800D01*
X91592400Y-28651200D02*
X78562200Y-41681400D01*
%TO.N,/GPIO_36*%
X67564000Y-57099200D02*
X63296800Y-52832000D01*
X63296800Y-38100000D02*
X63398400Y-37998400D01*
X79781400Y-42240200D02*
X79781400Y-54787800D01*
X79781400Y-54787800D02*
X77470000Y-57099200D01*
X92405200Y-29616400D02*
X79781400Y-42240200D01*
X92405200Y-23647400D02*
X92405200Y-29616400D01*
X77470000Y-57099200D02*
X67564000Y-57099200D01*
X63296800Y-52832000D02*
X63296800Y-38100000D01*
X89712800Y-20955000D02*
X92405200Y-23647400D01*
%TO.N,/GPIO_37*%
X93243400Y-23190200D02*
X93243400Y-30302200D01*
X77724000Y-58064400D02*
X67284600Y-58064400D01*
X93243400Y-30302200D02*
X80416400Y-43129200D01*
X80416400Y-43129200D02*
X80416400Y-55372000D01*
X80416400Y-55372000D02*
X77724000Y-58064400D01*
X89733200Y-19680000D02*
X93243400Y-23190200D01*
X62001400Y-52781200D02*
X62001400Y-35433000D01*
X67284600Y-58064400D02*
X62001400Y-52781200D01*
%TO.N,/GPIO_19*%
X63195200Y-30632400D02*
X63296800Y-30530800D01*
X63296800Y-30505400D02*
X63322200Y-30480000D01*
X65760600Y-24511000D02*
X69164200Y-24511000D01*
X63322200Y-30480000D02*
X63322200Y-26949400D01*
X63296800Y-30530800D02*
X63296800Y-30505400D01*
X63322200Y-26949400D02*
X65760600Y-24511000D01*
%TO.N,/GPIO_15*%
X57099200Y-27914600D02*
X57099200Y-48412400D01*
X69062600Y-15951200D02*
X57099200Y-27914600D01*
%TO.N,/GPIO_07*%
X69138800Y-14706600D02*
X56337200Y-27508200D01*
X56337200Y-27508200D02*
X56337200Y-45948600D01*
%TO.N,/GPIO_06*%
X55295800Y-27203400D02*
X55295800Y-43357800D01*
X69138800Y-13360400D02*
X55295800Y-27203400D01*
%TO.N,/GPIO_05*%
X54457600Y-27025600D02*
X54457600Y-41808400D01*
X54457600Y-41808400D02*
X54508400Y-41859200D01*
X69265800Y-12217400D02*
X54457600Y-27025600D01*
%TO.N,/GPIO_04*%
X68300600Y-20726400D02*
X60579000Y-28448000D01*
X71323200Y-20726400D02*
X68300600Y-20726400D01*
X72491600Y-19558000D02*
X71323200Y-20726400D01*
X60579000Y-28448000D02*
X60579000Y-37947600D01*
X60579000Y-37947600D02*
X59004200Y-39522400D01*
%TO.N,/GPIO_18*%
X59690000Y-28067000D02*
X59690000Y-36550600D01*
X59690000Y-36550600D02*
X59258200Y-36982400D01*
X67945000Y-19812000D02*
X59690000Y-28067000D01*
X69215000Y-19812000D02*
X67945000Y-19812000D01*
%TO.N,/GPIO_17*%
X69113400Y-18440400D02*
X67894200Y-18440400D01*
X67894200Y-18440400D02*
X58826400Y-27508200D01*
X58826400Y-27508200D02*
X58826400Y-35687000D01*
X58826400Y-35687000D02*
X58801000Y-35712400D01*
%TO.N,/GPIO_20*%
X70180200Y-25730200D02*
X66103500Y-25730200D01*
X64312800Y-32105600D02*
X63322200Y-33096200D01*
X64312800Y-27520900D02*
X64312800Y-32105600D01*
X66103500Y-25730200D02*
X64312800Y-27520900D01*
X63322200Y-33096200D02*
X63271400Y-33096200D01*
%TO.N,/GPIO_14*%
X77901800Y-22910800D02*
X80924400Y-22910800D01*
X70993000Y-29819600D02*
X77901800Y-22910800D01*
X66344800Y-29819600D02*
X70993000Y-29819600D01*
%TO.N,/GPIO_21*%
X70916800Y-28854400D02*
X77622400Y-22148800D01*
X66979800Y-28854400D02*
X70916800Y-28854400D01*
X82473800Y-22631400D02*
X82550000Y-22631400D01*
X81991200Y-22148800D02*
X82473800Y-22631400D01*
X77622400Y-22148800D02*
X81991200Y-22148800D01*
%TO.N,/GPIO_47*%
X83693000Y-22631400D02*
X83693000Y-23139400D01*
X77393800Y-21336000D02*
X82397600Y-21336000D01*
X70764400Y-27965400D02*
X77393800Y-21336000D01*
X66116200Y-28244800D02*
X66395600Y-27965400D01*
X82397600Y-21336000D02*
X83693000Y-22631400D01*
X83693000Y-23139400D02*
X83718400Y-23164800D01*
X66395600Y-27965400D02*
X70764400Y-27965400D01*
%TO.N,/GPIO_48*%
X77089000Y-20472400D02*
X82499200Y-20472400D01*
X82499200Y-20472400D02*
X85090000Y-23063200D01*
X70485000Y-27076400D02*
X77089000Y-20472400D01*
X85090000Y-23063200D02*
X85090000Y-23291800D01*
X66395600Y-27076400D02*
X70485000Y-27076400D01*
%TD*%
%TA.AperFunction,Conductor*%
%TO.N,GND*%
G36*
X65475382Y-27310065D02*
G01*
X65531315Y-27351937D01*
X65549978Y-27387927D01*
X65562929Y-27427784D01*
X65564926Y-27497625D01*
X65528846Y-27557459D01*
X65517889Y-27566419D01*
X65510328Y-27571912D01*
X65383666Y-27712585D01*
X65289021Y-27876515D01*
X65289018Y-27876522D01*
X65235133Y-28042365D01*
X65230526Y-28056544D01*
X65210740Y-28244800D01*
X65230526Y-28433056D01*
X65230527Y-28433059D01*
X65289018Y-28613077D01*
X65289021Y-28613084D01*
X65383667Y-28777016D01*
X65508293Y-28915427D01*
X65510329Y-28917688D01*
X65661771Y-29027717D01*
X65704437Y-29083047D01*
X65710416Y-29152660D01*
X65681037Y-29211006D01*
X65612266Y-29287385D01*
X65517621Y-29451315D01*
X65517618Y-29451322D01*
X65484083Y-29554534D01*
X65459126Y-29631344D01*
X65439340Y-29819600D01*
X65459126Y-30007856D01*
X65459127Y-30007859D01*
X65517618Y-30187877D01*
X65517621Y-30187884D01*
X65612267Y-30351816D01*
X65736689Y-30490000D01*
X65738929Y-30492488D01*
X65892065Y-30603748D01*
X65892070Y-30603751D01*
X66064992Y-30680742D01*
X66064997Y-30680744D01*
X66250154Y-30720100D01*
X66250155Y-30720100D01*
X66439444Y-30720100D01*
X66439446Y-30720100D01*
X66624603Y-30680744D01*
X66797530Y-30603751D01*
X66950671Y-30492488D01*
X66978908Y-30461127D01*
X67038395Y-30424479D01*
X67071058Y-30420100D01*
X70949572Y-30420100D01*
X70957670Y-30420630D01*
X70993000Y-30425282D01*
X70993001Y-30425282D01*
X71045253Y-30418402D01*
X71149762Y-30404644D01*
X71295841Y-30344136D01*
X71350493Y-30302200D01*
X71421282Y-30247882D01*
X71442984Y-30219598D01*
X71448310Y-30213523D01*
X73077220Y-28584613D01*
X73138542Y-28551130D01*
X73208234Y-28556114D01*
X73264167Y-28597986D01*
X73288584Y-28663450D01*
X73288900Y-28672296D01*
X73288900Y-49158392D01*
X73269215Y-49225431D01*
X73252581Y-49246073D01*
X71039273Y-51459381D01*
X70977950Y-51492866D01*
X70951592Y-51495700D01*
X67605975Y-51495700D01*
X67538936Y-51476015D01*
X67533090Y-51472018D01*
X67381734Y-51362051D01*
X67381729Y-51362048D01*
X67208807Y-51285057D01*
X67208802Y-51285055D01*
X67063000Y-51254065D01*
X67023646Y-51245700D01*
X66834354Y-51245700D01*
X66801897Y-51252598D01*
X66649197Y-51285055D01*
X66649192Y-51285057D01*
X66476270Y-51362048D01*
X66476265Y-51362051D01*
X66323129Y-51473311D01*
X66196466Y-51613985D01*
X66101821Y-51777915D01*
X66101818Y-51777922D01*
X66043764Y-51956596D01*
X66043326Y-51957944D01*
X66023540Y-52146200D01*
X66043326Y-52334456D01*
X66043327Y-52334459D01*
X66101818Y-52514477D01*
X66101821Y-52514484D01*
X66196467Y-52678416D01*
X66300357Y-52793797D01*
X66323129Y-52819088D01*
X66476265Y-52930348D01*
X66476270Y-52930351D01*
X66649192Y-53007342D01*
X66649197Y-53007344D01*
X66834354Y-53046700D01*
X66834355Y-53046700D01*
X67023644Y-53046700D01*
X67023646Y-53046700D01*
X67208803Y-53007344D01*
X67381730Y-52930351D01*
X67533089Y-52820382D01*
X67598896Y-52796902D01*
X67605975Y-52796700D01*
X71186895Y-52796700D01*
X71202905Y-52798467D01*
X71202928Y-52798226D01*
X71210689Y-52798958D01*
X71210696Y-52798960D01*
X71282603Y-52796700D01*
X71313325Y-52796700D01*
X71320590Y-52795781D01*
X71326416Y-52795322D01*
X71374969Y-52793797D01*
X71395356Y-52787873D01*
X71414396Y-52783931D01*
X71435458Y-52781271D01*
X71480635Y-52763383D01*
X71486135Y-52761500D01*
X71532798Y-52747944D01*
X71551065Y-52737139D01*
X71568536Y-52728580D01*
X71588271Y-52720768D01*
X71627577Y-52692210D01*
X71632443Y-52689013D01*
X71674265Y-52664281D01*
X71689270Y-52649275D01*
X71704068Y-52636636D01*
X71721237Y-52624163D01*
X71752209Y-52586722D01*
X71756123Y-52582421D01*
X74338913Y-49999631D01*
X74351479Y-49989565D01*
X74351325Y-49989378D01*
X74357337Y-49984404D01*
X74357337Y-49984403D01*
X74357340Y-49984402D01*
X74406590Y-49931955D01*
X74428312Y-49910234D01*
X74432802Y-49904444D01*
X74436584Y-49900014D01*
X74469848Y-49864593D01*
X74480074Y-49845989D01*
X74490747Y-49829741D01*
X74503763Y-49812963D01*
X74523051Y-49768387D01*
X74525624Y-49763136D01*
X74532400Y-49750811D01*
X74549027Y-49720568D01*
X74554304Y-49700008D01*
X74560606Y-49681603D01*
X74569036Y-49662126D01*
X74576635Y-49614145D01*
X74577817Y-49608434D01*
X74589900Y-49561377D01*
X74589900Y-49540154D01*
X74591427Y-49520755D01*
X74594747Y-49499795D01*
X74590175Y-49451427D01*
X74589900Y-49445589D01*
X74589900Y-28591008D01*
X74609585Y-28523969D01*
X74626213Y-28503332D01*
X74749621Y-28379924D01*
X74810940Y-28346442D01*
X74880632Y-28351426D01*
X74936566Y-28393297D01*
X74960749Y-28455937D01*
X74965025Y-28501167D01*
X74965300Y-28507005D01*
X74965300Y-50453790D01*
X74945615Y-50520829D01*
X74928981Y-50541471D01*
X73513856Y-51956596D01*
X73452533Y-51990081D01*
X73451957Y-51990205D01*
X73303996Y-52021656D01*
X73303992Y-52021657D01*
X73131070Y-52098648D01*
X73131065Y-52098651D01*
X72977929Y-52209911D01*
X72851266Y-52350585D01*
X72756621Y-52514515D01*
X72756618Y-52514522D01*
X72698881Y-52692219D01*
X72698126Y-52694544D01*
X72678340Y-52882800D01*
X72698126Y-53071056D01*
X72698127Y-53071059D01*
X72756618Y-53251077D01*
X72756621Y-53251084D01*
X72851267Y-53415016D01*
X72977445Y-53555151D01*
X72977929Y-53555688D01*
X73131065Y-53666948D01*
X73131070Y-53666951D01*
X73303992Y-53743942D01*
X73303997Y-53743944D01*
X73489154Y-53783300D01*
X73489155Y-53783300D01*
X73678444Y-53783300D01*
X73678446Y-53783300D01*
X73863603Y-53743944D01*
X74036530Y-53666951D01*
X74158094Y-53578629D01*
X74223896Y-53555151D01*
X74291950Y-53570976D01*
X74340645Y-53621081D01*
X74354297Y-53665987D01*
X74354739Y-53670200D01*
X74354740Y-53670200D01*
X74374526Y-53858456D01*
X74374527Y-53858459D01*
X74433018Y-54038477D01*
X74433021Y-54038484D01*
X74527667Y-54202416D01*
X74629423Y-54315427D01*
X74654331Y-54343090D01*
X74657766Y-54346183D01*
X74694417Y-54405668D01*
X74693089Y-54475525D01*
X74666947Y-54521307D01*
X74553066Y-54647785D01*
X74458421Y-54811715D01*
X74458418Y-54811722D01*
X74399927Y-54991740D01*
X74399926Y-54991744D01*
X74380140Y-55180000D01*
X74397559Y-55345740D01*
X74384990Y-55414468D01*
X74337258Y-55465492D01*
X74274239Y-55482700D01*
X67889497Y-55482700D01*
X67822458Y-55463015D01*
X67801816Y-55446381D01*
X64771819Y-52416384D01*
X64738334Y-52355061D01*
X64735500Y-52328703D01*
X64735500Y-40324679D01*
X64755185Y-40257640D01*
X64786617Y-40224359D01*
X64791671Y-40220688D01*
X64918333Y-40080016D01*
X65012979Y-39916084D01*
X65071474Y-39736056D01*
X65091260Y-39547800D01*
X65071474Y-39359544D01*
X65012979Y-39179516D01*
X64918333Y-39015584D01*
X64791671Y-38874912D01*
X64756711Y-38849512D01*
X64638534Y-38763651D01*
X64638529Y-38763648D01*
X64465607Y-38686657D01*
X64465602Y-38686655D01*
X64319801Y-38655665D01*
X64280446Y-38647300D01*
X64278340Y-38647300D01*
X64277165Y-38646955D01*
X64273978Y-38646620D01*
X64274039Y-38646037D01*
X64211301Y-38627615D01*
X64165546Y-38574811D01*
X64155602Y-38505653D01*
X64170952Y-38461301D01*
X64194900Y-38419821D01*
X64225579Y-38366684D01*
X64284074Y-38186656D01*
X64303860Y-37998400D01*
X64284074Y-37810144D01*
X64225579Y-37630116D01*
X64130933Y-37466184D01*
X64004271Y-37325512D01*
X64004270Y-37325511D01*
X63851134Y-37214251D01*
X63851129Y-37214248D01*
X63678207Y-37137257D01*
X63678202Y-37137255D01*
X63532401Y-37106265D01*
X63493046Y-37097900D01*
X63303754Y-37097900D01*
X63271297Y-37104798D01*
X63118597Y-37137255D01*
X63118592Y-37137257D01*
X62945670Y-37214248D01*
X62945665Y-37214251D01*
X62798784Y-37320967D01*
X62732978Y-37344447D01*
X62664924Y-37328621D01*
X62616229Y-37278516D01*
X62601899Y-37220649D01*
X62601899Y-36159453D01*
X62621584Y-36092414D01*
X62633749Y-36076481D01*
X62733933Y-35965216D01*
X62828579Y-35801284D01*
X62887074Y-35621256D01*
X62906860Y-35433000D01*
X62887074Y-35244744D01*
X62828579Y-35064716D01*
X62733933Y-34900784D01*
X62607271Y-34760112D01*
X62513940Y-34692303D01*
X62454134Y-34648851D01*
X62454129Y-34648848D01*
X62281207Y-34571857D01*
X62281202Y-34571855D01*
X62135401Y-34540865D01*
X62096046Y-34532500D01*
X61906754Y-34532500D01*
X61874297Y-34539398D01*
X61721597Y-34571855D01*
X61721592Y-34571857D01*
X61548670Y-34648848D01*
X61548665Y-34648851D01*
X61395529Y-34760111D01*
X61390700Y-34764460D01*
X61389871Y-34763539D01*
X61336155Y-34796628D01*
X61266298Y-34795293D01*
X61208252Y-34756402D01*
X61180447Y-34692303D01*
X61179500Y-34677005D01*
X61179500Y-28748097D01*
X61199185Y-28681058D01*
X61215819Y-28660416D01*
X62510019Y-27366216D01*
X62571342Y-27332731D01*
X62641034Y-27337715D01*
X62696967Y-27379587D01*
X62721384Y-27445051D01*
X62721700Y-27453897D01*
X62721700Y-29800158D01*
X62702015Y-29867197D01*
X62670585Y-29900476D01*
X62589329Y-29959511D01*
X62462666Y-30100185D01*
X62368021Y-30264115D01*
X62368018Y-30264122D01*
X62309527Y-30444140D01*
X62309526Y-30444144D01*
X62289740Y-30632400D01*
X62309526Y-30820656D01*
X62309527Y-30820659D01*
X62368018Y-31000677D01*
X62368021Y-31000684D01*
X62462667Y-31164616D01*
X62532005Y-31241623D01*
X62589329Y-31305288D01*
X62742465Y-31416548D01*
X62742470Y-31416551D01*
X62915392Y-31493542D01*
X62915397Y-31493544D01*
X63100554Y-31532900D01*
X63100555Y-31532900D01*
X63289844Y-31532900D01*
X63289846Y-31532900D01*
X63475003Y-31493544D01*
X63537864Y-31465555D01*
X63607113Y-31456270D01*
X63670390Y-31485898D01*
X63707604Y-31545033D01*
X63712300Y-31578835D01*
X63712300Y-31805502D01*
X63692615Y-31872541D01*
X63675981Y-31893183D01*
X63409783Y-32159381D01*
X63348460Y-32192866D01*
X63322102Y-32195700D01*
X63176754Y-32195700D01*
X63144297Y-32202598D01*
X62991597Y-32235055D01*
X62991592Y-32235057D01*
X62818670Y-32312048D01*
X62818665Y-32312051D01*
X62665529Y-32423311D01*
X62538866Y-32563985D01*
X62444221Y-32727915D01*
X62444218Y-32727922D01*
X62385727Y-32907940D01*
X62385726Y-32907944D01*
X62365940Y-33096200D01*
X62385726Y-33284456D01*
X62385727Y-33284459D01*
X62444218Y-33464477D01*
X62444221Y-33464484D01*
X62538867Y-33628416D01*
X62665529Y-33769088D01*
X62818665Y-33880348D01*
X62818670Y-33880351D01*
X62991592Y-33957342D01*
X62991597Y-33957344D01*
X63176754Y-33996700D01*
X63176755Y-33996700D01*
X63366044Y-33996700D01*
X63366046Y-33996700D01*
X63551203Y-33957344D01*
X63724130Y-33880351D01*
X63877271Y-33769088D01*
X64003933Y-33628416D01*
X64098579Y-33464484D01*
X64157074Y-33284456D01*
X64172907Y-33133804D01*
X64199491Y-33069191D01*
X64208538Y-33059095D01*
X64706722Y-32560911D01*
X64712799Y-32555583D01*
X64741082Y-32533882D01*
X64837336Y-32408441D01*
X64897844Y-32262362D01*
X64913300Y-32144961D01*
X64918482Y-32105600D01*
X64913830Y-32070269D01*
X64913300Y-32062171D01*
X64913300Y-27820995D01*
X64932985Y-27753956D01*
X64949614Y-27733319D01*
X65344369Y-27338564D01*
X65405690Y-27305081D01*
X65475382Y-27310065D01*
G37*
%TD.AperFunction*%
%TA.AperFunction,Conductor*%
G36*
X57904903Y-35926219D02*
G01*
X57941631Y-35981614D01*
X57973818Y-36080678D01*
X57973821Y-36080684D01*
X58068467Y-36244616D01*
X58195128Y-36385288D01*
X58195129Y-36385288D01*
X58348265Y-36496548D01*
X58348267Y-36496549D01*
X58348270Y-36496551D01*
X58351933Y-36498182D01*
X58353707Y-36499690D01*
X58353893Y-36499797D01*
X58353873Y-36499830D01*
X58405170Y-36543428D01*
X58425495Y-36610276D01*
X58419432Y-36649780D01*
X58372527Y-36794140D01*
X58372526Y-36794144D01*
X58352740Y-36982400D01*
X58372526Y-37170656D01*
X58372527Y-37170659D01*
X58431018Y-37350677D01*
X58431021Y-37350684D01*
X58525667Y-37514616D01*
X58652329Y-37655287D01*
X58652329Y-37655288D01*
X58805465Y-37766548D01*
X58805470Y-37766551D01*
X58978392Y-37843542D01*
X58978397Y-37843544D01*
X59163554Y-37882900D01*
X59163555Y-37882900D01*
X59352844Y-37882900D01*
X59352846Y-37882900D01*
X59504204Y-37850728D01*
X59573870Y-37856044D01*
X59629604Y-37898181D01*
X59653709Y-37963761D01*
X59638532Y-38031962D01*
X59617665Y-38059699D01*
X59091784Y-38585581D01*
X59030461Y-38619066D01*
X59004103Y-38621900D01*
X58909554Y-38621900D01*
X58882667Y-38627615D01*
X58724397Y-38661255D01*
X58724392Y-38661257D01*
X58551470Y-38738248D01*
X58551465Y-38738251D01*
X58398329Y-38849511D01*
X58271666Y-38990185D01*
X58177021Y-39154115D01*
X58177018Y-39154122D01*
X58118527Y-39334140D01*
X58118526Y-39334144D01*
X58098740Y-39522400D01*
X58118526Y-39710656D01*
X58118527Y-39710659D01*
X58177018Y-39890677D01*
X58177021Y-39890684D01*
X58271667Y-40054616D01*
X58398329Y-40195287D01*
X58398329Y-40195288D01*
X58551465Y-40306548D01*
X58551470Y-40306551D01*
X58724392Y-40383542D01*
X58724397Y-40383544D01*
X58909554Y-40422900D01*
X58909555Y-40422900D01*
X59098844Y-40422900D01*
X59098846Y-40422900D01*
X59284003Y-40383544D01*
X59456930Y-40306551D01*
X59610071Y-40195288D01*
X59736733Y-40054616D01*
X59831379Y-39890684D01*
X59889874Y-39710656D01*
X59909660Y-39522400D01*
X59909660Y-39522397D01*
X59909660Y-39517535D01*
X59929345Y-39450496D01*
X59945974Y-39429859D01*
X60972922Y-38402911D01*
X60978999Y-38397583D01*
X61007282Y-38375882D01*
X61103536Y-38250441D01*
X61162340Y-38108475D01*
X61206178Y-38054074D01*
X61272472Y-38032009D01*
X61340172Y-38049288D01*
X61387783Y-38100425D01*
X61400899Y-38155930D01*
X61400900Y-42117873D01*
X61381215Y-42184912D01*
X61328411Y-42230667D01*
X61259253Y-42240611D01*
X61226464Y-42231152D01*
X61138207Y-42191857D01*
X61138202Y-42191855D01*
X60992400Y-42160865D01*
X60953046Y-42152500D01*
X60763754Y-42152500D01*
X60731297Y-42159398D01*
X60578597Y-42191855D01*
X60578592Y-42191857D01*
X60405670Y-42268848D01*
X60405665Y-42268851D01*
X60252529Y-42380111D01*
X60125866Y-42520785D01*
X60031221Y-42684715D01*
X60031218Y-42684722D01*
X59972727Y-42864740D01*
X59972726Y-42864744D01*
X59959612Y-42989518D01*
X59952940Y-43053002D01*
X59952940Y-43057862D01*
X59933255Y-43124901D01*
X59916621Y-43145543D01*
X57911381Y-45150783D01*
X57850058Y-45184268D01*
X57780366Y-45179284D01*
X57724433Y-45137412D01*
X57700016Y-45071948D01*
X57699700Y-45063102D01*
X57699700Y-36019932D01*
X57719385Y-35952893D01*
X57772189Y-35907138D01*
X57841347Y-35897194D01*
X57904903Y-35926219D01*
G37*
%TD.AperFunction*%
%TA.AperFunction,Conductor*%
G36*
X65982913Y-5607685D02*
G01*
X66003576Y-5624339D01*
X66009617Y-5630383D01*
X66010000Y-5630541D01*
X66010002Y-5630539D01*
X66034616Y-5630524D01*
X66034616Y-5630528D01*
X66034760Y-5630500D01*
X93025240Y-5630500D01*
X93025383Y-5630528D01*
X93025384Y-5630524D01*
X93049997Y-5630539D01*
X93050000Y-5630541D01*
X93050383Y-5630383D01*
X93050383Y-5630381D01*
X93056424Y-5624339D01*
X93117740Y-5590840D01*
X93144126Y-5588000D01*
X94787585Y-5588000D01*
X94854624Y-5607685D01*
X94872465Y-5621605D01*
X94916838Y-5663274D01*
X94916840Y-5663275D01*
X94916845Y-5663280D01*
X95161193Y-5840808D01*
X95161198Y-5840810D01*
X95161205Y-5840816D01*
X95425896Y-5986332D01*
X95425901Y-5986334D01*
X95425903Y-5986335D01*
X95425904Y-5986336D01*
X95706734Y-6097524D01*
X95706737Y-6097525D01*
X95804259Y-6122564D01*
X95999302Y-6172642D01*
X96146039Y-6191179D01*
X96298963Y-6210499D01*
X96298969Y-6210499D01*
X96298973Y-6210500D01*
X96298975Y-6210500D01*
X96601025Y-6210500D01*
X96601027Y-6210500D01*
X96601032Y-6210499D01*
X96601036Y-6210499D01*
X96680591Y-6200448D01*
X96900698Y-6172642D01*
X97193262Y-6097525D01*
X97193265Y-6097524D01*
X97474095Y-5986336D01*
X97474096Y-5986335D01*
X97474094Y-5986335D01*
X97474104Y-5986332D01*
X97738795Y-5840816D01*
X97983162Y-5663274D01*
X98027532Y-5621607D01*
X98089876Y-5590066D01*
X98112415Y-5588000D01*
X99444000Y-5588000D01*
X99511039Y-5607685D01*
X99556794Y-5660489D01*
X99568000Y-5712000D01*
X99568000Y-65408000D01*
X99548315Y-65475039D01*
X99495511Y-65520794D01*
X99444000Y-65532000D01*
X29588000Y-65532000D01*
X29520961Y-65512315D01*
X29475206Y-65459511D01*
X29464000Y-65408000D01*
X29464000Y-62230005D01*
X94044754Y-62230005D01*
X94063718Y-62531446D01*
X94063719Y-62531453D01*
X94120320Y-62828164D01*
X94213659Y-63115431D01*
X94213661Y-63115436D01*
X94342265Y-63388732D01*
X94342268Y-63388738D01*
X94504111Y-63643763D01*
X94696652Y-63876505D01*
X94916836Y-64083272D01*
X94916846Y-64083280D01*
X95161193Y-64260808D01*
X95161198Y-64260810D01*
X95161205Y-64260816D01*
X95425896Y-64406332D01*
X95425901Y-64406334D01*
X95425903Y-64406335D01*
X95425904Y-64406336D01*
X95706734Y-64517524D01*
X95706737Y-64517525D01*
X95804259Y-64542563D01*
X95999302Y-64592642D01*
X96146039Y-64611179D01*
X96298963Y-64630499D01*
X96298969Y-64630499D01*
X96298973Y-64630500D01*
X96298975Y-64630500D01*
X96601025Y-64630500D01*
X96601027Y-64630500D01*
X96601032Y-64630499D01*
X96601036Y-64630499D01*
X96680591Y-64620448D01*
X96900698Y-64592642D01*
X97193262Y-64517525D01*
X97193265Y-64517524D01*
X97474095Y-64406336D01*
X97474096Y-64406335D01*
X97474094Y-64406335D01*
X97474104Y-64406332D01*
X97738795Y-64260816D01*
X97983162Y-64083274D01*
X98203349Y-63876504D01*
X98395885Y-63643768D01*
X98557733Y-63388736D01*
X98686341Y-63115430D01*
X98779681Y-62828160D01*
X98836280Y-62531457D01*
X98855246Y-62230000D01*
X98854673Y-62220900D01*
X98836281Y-61928553D01*
X98836280Y-61928546D01*
X98836280Y-61928543D01*
X98779681Y-61631840D01*
X98686341Y-61344570D01*
X98557733Y-61071264D01*
X98395885Y-60816232D01*
X98203349Y-60583496D01*
X97983162Y-60376726D01*
X97983159Y-60376724D01*
X97983153Y-60376719D01*
X97738806Y-60199191D01*
X97738799Y-60199186D01*
X97738795Y-60199184D01*
X97474104Y-60053668D01*
X97474101Y-60053666D01*
X97474096Y-60053664D01*
X97474095Y-60053663D01*
X97193265Y-59942475D01*
X97193262Y-59942474D01*
X96900695Y-59867357D01*
X96601036Y-59829500D01*
X96601027Y-59829500D01*
X96298973Y-59829500D01*
X96298963Y-59829500D01*
X95999304Y-59867357D01*
X95706737Y-59942474D01*
X95706734Y-59942475D01*
X95425904Y-60053663D01*
X95425903Y-60053664D01*
X95161205Y-60199184D01*
X95161193Y-60199191D01*
X94916846Y-60376719D01*
X94916836Y-60376727D01*
X94696652Y-60583494D01*
X94504111Y-60816236D01*
X94342268Y-61071261D01*
X94342265Y-61071267D01*
X94213661Y-61344563D01*
X94213659Y-61344568D01*
X94120320Y-61631835D01*
X94063719Y-61928546D01*
X94063718Y-61928553D01*
X94044754Y-62229994D01*
X94044754Y-62230005D01*
X29464000Y-62230005D01*
X29464000Y-55889999D01*
X32619396Y-55889999D01*
X32639778Y-56148990D01*
X32700427Y-56401610D01*
X32799843Y-56641623D01*
X32799845Y-56641627D01*
X32799846Y-56641628D01*
X32935588Y-56863140D01*
X33104311Y-57060689D01*
X33301860Y-57229412D01*
X33523372Y-57365154D01*
X33523374Y-57365154D01*
X33523376Y-57365156D01*
X33584693Y-57390554D01*
X33763390Y-57464573D01*
X34016006Y-57525221D01*
X34275000Y-57545604D01*
X34533994Y-57525221D01*
X34786610Y-57464573D01*
X35026628Y-57365154D01*
X35248140Y-57229412D01*
X35445689Y-57060689D01*
X35614412Y-56863140D01*
X35750154Y-56641628D01*
X35849573Y-56401610D01*
X35910221Y-56148994D01*
X35930604Y-55890000D01*
X35910221Y-55631006D01*
X35849573Y-55378390D01*
X35750154Y-55138372D01*
X35614412Y-54916860D01*
X35445689Y-54719311D01*
X35248140Y-54550588D01*
X35026628Y-54414846D01*
X35026627Y-54414845D01*
X35026623Y-54414843D01*
X34853389Y-54343088D01*
X34786610Y-54315427D01*
X34786611Y-54315427D01*
X34545823Y-54257619D01*
X34533994Y-54254779D01*
X34533992Y-54254778D01*
X34533991Y-54254778D01*
X34299189Y-54236299D01*
X34275000Y-54234396D01*
X34274999Y-54234396D01*
X34016009Y-54254778D01*
X33763389Y-54315427D01*
X33523376Y-54414843D01*
X33301859Y-54550588D01*
X33104311Y-54719311D01*
X32935588Y-54916859D01*
X32799843Y-55138376D01*
X32700427Y-55378389D01*
X32639778Y-55631009D01*
X32619396Y-55889999D01*
X29464000Y-55889999D01*
X29464000Y-49467870D01*
X32624500Y-49467870D01*
X32624501Y-49467876D01*
X32630908Y-49527483D01*
X32681202Y-49662328D01*
X32681206Y-49662335D01*
X32767452Y-49777544D01*
X32767455Y-49777547D01*
X32882664Y-49863793D01*
X32882671Y-49863797D01*
X33017517Y-49914091D01*
X33017516Y-49914091D01*
X33024444Y-49914835D01*
X33077127Y-49920500D01*
X35472872Y-49920499D01*
X35532483Y-49914091D01*
X35667331Y-49863796D01*
X35782546Y-49777546D01*
X35868796Y-49662331D01*
X35919091Y-49527483D01*
X35925500Y-49467873D01*
X35925499Y-47072128D01*
X35919091Y-47012517D01*
X35904389Y-46973100D01*
X35868797Y-46877671D01*
X35868793Y-46877664D01*
X35782547Y-46762455D01*
X35782544Y-46762452D01*
X35667335Y-46676206D01*
X35667328Y-46676202D01*
X35532482Y-46625908D01*
X35532483Y-46625908D01*
X35472883Y-46619501D01*
X35472881Y-46619500D01*
X35472873Y-46619500D01*
X35472864Y-46619500D01*
X33077129Y-46619500D01*
X33077123Y-46619501D01*
X33017516Y-46625908D01*
X32882671Y-46676202D01*
X32882664Y-46676206D01*
X32767455Y-46762452D01*
X32767452Y-46762455D01*
X32681206Y-46877664D01*
X32681202Y-46877671D01*
X32630908Y-47012517D01*
X32624501Y-47072116D01*
X32624501Y-47072123D01*
X32624500Y-47072135D01*
X32624500Y-49467870D01*
X29464000Y-49467870D01*
X29464000Y-43190000D01*
X32619396Y-43190000D01*
X32639778Y-43448990D01*
X32700427Y-43701610D01*
X32799843Y-43941623D01*
X32799845Y-43941627D01*
X32799846Y-43941628D01*
X32935588Y-44163140D01*
X33104311Y-44360689D01*
X33301860Y-44529412D01*
X33523372Y-44665154D01*
X33523374Y-44665154D01*
X33523376Y-44665156D01*
X33584693Y-44690554D01*
X33763390Y-44764573D01*
X34016006Y-44825221D01*
X34275000Y-44845604D01*
X34533994Y-44825221D01*
X34786610Y-44764573D01*
X35026628Y-44665154D01*
X35248140Y-44529412D01*
X35445689Y-44360689D01*
X35614412Y-44163140D01*
X35750154Y-43941628D01*
X35849573Y-43701610D01*
X35910221Y-43448994D01*
X35930604Y-43190000D01*
X35910221Y-42931006D01*
X35849573Y-42678390D01*
X35750154Y-42438372D01*
X35614412Y-42216860D01*
X35445689Y-42019311D01*
X35258223Y-41859200D01*
X53602940Y-41859200D01*
X53622726Y-42047456D01*
X53622727Y-42047459D01*
X53681218Y-42227477D01*
X53681221Y-42227484D01*
X53775867Y-42391416D01*
X53892351Y-42520784D01*
X53902529Y-42532088D01*
X54055665Y-42643348D01*
X54055670Y-42643351D01*
X54228592Y-42720342D01*
X54228597Y-42720344D01*
X54413754Y-42759700D01*
X54413755Y-42759700D01*
X54413863Y-42759723D01*
X54475345Y-42792915D01*
X54509121Y-42854078D01*
X54504469Y-42923793D01*
X54495470Y-42943012D01*
X54468620Y-42989518D01*
X54468618Y-42989522D01*
X54424631Y-43124901D01*
X54410126Y-43169544D01*
X54390340Y-43357800D01*
X54410126Y-43546056D01*
X54410127Y-43546059D01*
X54468618Y-43726077D01*
X54468621Y-43726084D01*
X54563267Y-43890016D01*
X54689928Y-44030688D01*
X54689929Y-44030688D01*
X54843065Y-44141948D01*
X54843070Y-44141951D01*
X55015992Y-44218942D01*
X55015997Y-44218944D01*
X55201154Y-44258300D01*
X55201155Y-44258300D01*
X55390444Y-44258300D01*
X55390446Y-44258300D01*
X55518523Y-44231076D01*
X55581960Y-44217593D01*
X55582284Y-44219117D01*
X55644207Y-44217341D01*
X55704045Y-44253413D01*
X55734881Y-44316110D01*
X55736700Y-44337271D01*
X55736700Y-45222147D01*
X55717015Y-45289186D01*
X55704850Y-45305119D01*
X55604666Y-45416385D01*
X55510021Y-45580315D01*
X55510018Y-45580322D01*
X55451527Y-45760340D01*
X55451526Y-45760344D01*
X55431740Y-45948600D01*
X55451526Y-46136856D01*
X55451527Y-46136859D01*
X55510018Y-46316877D01*
X55510021Y-46316884D01*
X55604667Y-46480816D01*
X55729539Y-46619500D01*
X55731329Y-46621488D01*
X55884465Y-46732748D01*
X55884470Y-46732751D01*
X56057392Y-46809742D01*
X56057397Y-46809744D01*
X56242554Y-46849100D01*
X56242555Y-46849100D01*
X56374700Y-46849100D01*
X56441739Y-46868785D01*
X56487494Y-46921589D01*
X56498700Y-46973100D01*
X56498700Y-47685947D01*
X56479015Y-47752986D01*
X56466850Y-47768919D01*
X56366666Y-47880185D01*
X56272021Y-48044115D01*
X56272018Y-48044122D01*
X56226634Y-48183801D01*
X56213526Y-48224144D01*
X56193740Y-48412400D01*
X56213526Y-48600656D01*
X56213527Y-48600659D01*
X56272018Y-48780677D01*
X56272021Y-48780684D01*
X56366667Y-48944616D01*
X56412786Y-48995836D01*
X56493329Y-49085288D01*
X56646465Y-49196548D01*
X56646470Y-49196551D01*
X56819392Y-49273542D01*
X56819397Y-49273544D01*
X57004554Y-49312900D01*
X57004555Y-49312900D01*
X57193844Y-49312900D01*
X57193846Y-49312900D01*
X57314120Y-49287335D01*
X57383785Y-49292651D01*
X57439519Y-49334788D01*
X57463624Y-49400368D01*
X57463899Y-49408625D01*
X57463899Y-55328567D01*
X57463368Y-55336666D01*
X57458718Y-55371998D01*
X57469985Y-55457601D01*
X57469991Y-55457631D01*
X57479356Y-55528760D01*
X57479356Y-55528762D01*
X57522780Y-55633598D01*
X57539864Y-55674841D01*
X57636118Y-55800282D01*
X57664395Y-55821980D01*
X57670485Y-55827320D01*
X61672665Y-59829500D01*
X63857469Y-62014304D01*
X63862822Y-62020407D01*
X63884518Y-62048682D01*
X64010137Y-62145074D01*
X64011832Y-62145712D01*
X64156038Y-62205444D01*
X64234419Y-62215763D01*
X64312799Y-62226082D01*
X64312800Y-62226082D01*
X64348129Y-62221430D01*
X64356228Y-62220900D01*
X79255372Y-62220900D01*
X79263470Y-62221430D01*
X79298800Y-62226082D01*
X79298801Y-62226082D01*
X79351054Y-62219202D01*
X79455562Y-62205444D01*
X79601641Y-62144936D01*
X79727082Y-62048682D01*
X79748783Y-62020399D01*
X79754111Y-62014322D01*
X84848922Y-56919511D01*
X84854999Y-56914183D01*
X84883282Y-56892482D01*
X84979536Y-56767041D01*
X85040044Y-56620962D01*
X85055500Y-56503561D01*
X85060682Y-56464200D01*
X85056030Y-56428869D01*
X85055500Y-56420771D01*
X85055500Y-55187844D01*
X90705000Y-55187844D01*
X90711401Y-55247372D01*
X90711403Y-55247379D01*
X90761645Y-55382086D01*
X90761649Y-55382093D01*
X90847809Y-55497187D01*
X90847812Y-55497190D01*
X90962906Y-55583350D01*
X90962913Y-55583354D01*
X91097620Y-55633596D01*
X91097627Y-55633598D01*
X91157155Y-55639999D01*
X91157172Y-55640000D01*
X92255000Y-55640000D01*
X92255000Y-54444310D01*
X92263817Y-54449158D01*
X92422886Y-54490000D01*
X92545894Y-54490000D01*
X92667933Y-54474583D01*
X92755000Y-54440110D01*
X92755000Y-55640000D01*
X93852828Y-55640000D01*
X93852844Y-55639999D01*
X93912372Y-55633598D01*
X93912379Y-55633596D01*
X94047086Y-55583354D01*
X94047093Y-55583350D01*
X94162187Y-55497190D01*
X94162190Y-55497187D01*
X94248350Y-55382093D01*
X94248354Y-55382086D01*
X94298596Y-55247379D01*
X94298598Y-55247372D01*
X94304999Y-55187844D01*
X94305000Y-55187827D01*
X94305000Y-54090000D01*
X93105728Y-54090000D01*
X93128100Y-54042457D01*
X93158873Y-53881138D01*
X93148561Y-53717234D01*
X93107220Y-53590000D01*
X94305000Y-53590000D01*
X94305000Y-52492172D01*
X94304999Y-52492155D01*
X94298598Y-52432627D01*
X94298596Y-52432620D01*
X94248354Y-52297913D01*
X94248350Y-52297906D01*
X94162190Y-52182812D01*
X94162187Y-52182809D01*
X94047093Y-52096649D01*
X94047086Y-52096645D01*
X93912379Y-52046403D01*
X93912372Y-52046401D01*
X93852844Y-52040000D01*
X92755000Y-52040000D01*
X92755000Y-53235689D01*
X92746183Y-53230842D01*
X92587114Y-53190000D01*
X92464106Y-53190000D01*
X92342067Y-53205417D01*
X92255000Y-53239889D01*
X92255000Y-52040000D01*
X91157155Y-52040000D01*
X91097627Y-52046401D01*
X91097620Y-52046403D01*
X90962913Y-52096645D01*
X90962906Y-52096649D01*
X90847812Y-52182809D01*
X90847809Y-52182812D01*
X90761649Y-52297906D01*
X90761645Y-52297913D01*
X90711403Y-52432620D01*
X90711401Y-52432627D01*
X90705000Y-52492155D01*
X90705000Y-53590000D01*
X91904272Y-53590000D01*
X91881900Y-53637543D01*
X91851127Y-53798862D01*
X91861439Y-53962766D01*
X91902780Y-54090000D01*
X90705000Y-54090000D01*
X90705000Y-55187844D01*
X85055500Y-55187844D01*
X85055500Y-48840004D01*
X90699451Y-48840004D01*
X90719616Y-49109101D01*
X90779664Y-49372188D01*
X90779666Y-49372195D01*
X90872378Y-49608420D01*
X90878257Y-49623398D01*
X91013185Y-49857102D01*
X91118672Y-49989378D01*
X91181442Y-50068089D01*
X91314539Y-50191584D01*
X91379259Y-50251635D01*
X91602226Y-50403651D01*
X91845359Y-50520738D01*
X92103228Y-50600280D01*
X92103229Y-50600280D01*
X92103232Y-50600281D01*
X92370063Y-50640499D01*
X92370068Y-50640499D01*
X92370071Y-50640500D01*
X92370072Y-50640500D01*
X92639928Y-50640500D01*
X92639929Y-50640500D01*
X92639936Y-50640499D01*
X92906767Y-50600281D01*
X92906768Y-50600280D01*
X92906772Y-50600280D01*
X93164641Y-50520738D01*
X93407775Y-50403651D01*
X93630741Y-50251635D01*
X93828561Y-50068085D01*
X93996815Y-49857102D01*
X94131743Y-49623398D01*
X94230334Y-49372195D01*
X94290383Y-49109103D01*
X94302709Y-48944616D01*
X94310549Y-48840004D01*
X94310549Y-48839995D01*
X94290383Y-48570898D01*
X94254207Y-48412399D01*
X94230334Y-48307805D01*
X94131743Y-48056602D01*
X93996815Y-47822898D01*
X93828561Y-47611915D01*
X93828560Y-47611914D01*
X93828557Y-47611910D01*
X93630741Y-47428365D01*
X93547721Y-47371763D01*
X93407775Y-47276349D01*
X93407769Y-47276346D01*
X93407768Y-47276345D01*
X93407767Y-47276344D01*
X93164643Y-47159263D01*
X93164645Y-47159263D01*
X92906773Y-47079720D01*
X92906767Y-47079718D01*
X92639936Y-47039500D01*
X92639929Y-47039500D01*
X92370071Y-47039500D01*
X92370063Y-47039500D01*
X92103232Y-47079718D01*
X92103226Y-47079720D01*
X91845358Y-47159262D01*
X91602230Y-47276346D01*
X91379258Y-47428365D01*
X91181442Y-47611910D01*
X91013185Y-47822898D01*
X90878258Y-48056599D01*
X90878256Y-48056603D01*
X90779666Y-48307804D01*
X90779664Y-48307811D01*
X90719616Y-48570898D01*
X90699451Y-48839995D01*
X90699451Y-48840004D01*
X85055500Y-48840004D01*
X85055500Y-44851696D01*
X85075185Y-44784657D01*
X85091814Y-44764020D01*
X97548923Y-32306910D01*
X97554998Y-32301584D01*
X97583282Y-32279882D01*
X97679536Y-32154441D01*
X97740044Y-32008362D01*
X97755500Y-31890961D01*
X97760682Y-31851600D01*
X97756030Y-31816269D01*
X97755500Y-31808171D01*
X97755500Y-20693628D01*
X97756031Y-20685526D01*
X97760682Y-20650199D01*
X97760682Y-20650198D01*
X97740044Y-20493439D01*
X97740042Y-20493434D01*
X97679538Y-20347363D01*
X97679538Y-20347362D01*
X97679536Y-20347359D01*
X97607450Y-20253415D01*
X97590165Y-20230888D01*
X97583283Y-20221918D01*
X97555009Y-20200223D01*
X97548912Y-20194877D01*
X91518179Y-14164143D01*
X91484694Y-14102821D01*
X91481860Y-14076463D01*
X91481860Y-14071602D01*
X91478162Y-14036415D01*
X91462074Y-13883344D01*
X91403579Y-13703316D01*
X91308933Y-13539384D01*
X91182271Y-13398712D01*
X91182270Y-13398711D01*
X91029134Y-13287451D01*
X91029129Y-13287448D01*
X90856207Y-13210457D01*
X90856202Y-13210455D01*
X90710400Y-13179465D01*
X90671046Y-13171100D01*
X90481754Y-13171100D01*
X90449297Y-13177998D01*
X90296597Y-13210455D01*
X90296592Y-13210457D01*
X90123670Y-13287448D01*
X90123665Y-13287451D01*
X89970529Y-13398711D01*
X89843866Y-13539385D01*
X89749221Y-13703315D01*
X89749218Y-13703322D01*
X89703036Y-13845457D01*
X89690726Y-13883344D01*
X89670940Y-14071600D01*
X89690726Y-14259856D01*
X89690727Y-14259859D01*
X89749218Y-14439877D01*
X89749221Y-14439884D01*
X89792789Y-14515346D01*
X89809262Y-14583247D01*
X89786409Y-14649273D01*
X89758288Y-14677664D01*
X89665727Y-14744913D01*
X89539066Y-14885585D01*
X89444421Y-15049515D01*
X89444418Y-15049522D01*
X89385927Y-15229540D01*
X89385926Y-15229544D01*
X89366140Y-15417800D01*
X89385926Y-15606056D01*
X89385927Y-15606059D01*
X89444418Y-15786077D01*
X89444421Y-15786084D01*
X89539067Y-15950016D01*
X89578511Y-15993823D01*
X89608741Y-16056814D01*
X89600116Y-16126150D01*
X89578511Y-16159767D01*
X89513666Y-16231785D01*
X89419021Y-16395715D01*
X89419018Y-16395722D01*
X89390525Y-16483416D01*
X89360526Y-16575744D01*
X89340740Y-16764000D01*
X89360526Y-16952256D01*
X89360527Y-16952259D01*
X89419018Y-17132277D01*
X89419021Y-17132284D01*
X89513667Y-17296216D01*
X89568768Y-17357412D01*
X89571094Y-17359995D01*
X89601324Y-17422986D01*
X89592699Y-17492322D01*
X89551830Y-17543285D01*
X89487927Y-17589713D01*
X89361266Y-17730385D01*
X89266621Y-17894315D01*
X89266618Y-17894322D01*
X89219613Y-18038990D01*
X89208126Y-18074344D01*
X89188340Y-18262600D01*
X89208126Y-18450856D01*
X89208127Y-18450859D01*
X89266618Y-18630877D01*
X89266621Y-18630884D01*
X89322816Y-18728217D01*
X89339289Y-18796118D01*
X89316436Y-18862144D01*
X89284867Y-18890845D01*
X89285727Y-18892029D01*
X89127329Y-19007111D01*
X89000666Y-19147785D01*
X88906021Y-19311715D01*
X88906018Y-19311722D01*
X88863131Y-19443716D01*
X88847526Y-19491744D01*
X88827740Y-19680000D01*
X88847526Y-19868256D01*
X88847527Y-19868259D01*
X88906018Y-20048277D01*
X88906021Y-20048284D01*
X88950832Y-20125900D01*
X89000667Y-20212216D01*
X89010557Y-20223200D01*
X89040786Y-20286191D01*
X89032160Y-20355526D01*
X89010557Y-20389142D01*
X88980270Y-20422778D01*
X88980265Y-20422785D01*
X88885621Y-20586715D01*
X88885618Y-20586722D01*
X88827127Y-20766740D01*
X88827126Y-20766744D01*
X88807340Y-20955000D01*
X88827126Y-21143256D01*
X88827127Y-21143259D01*
X88885618Y-21323277D01*
X88885621Y-21323284D01*
X88960883Y-21453642D01*
X88977356Y-21521543D01*
X88954503Y-21587569D01*
X88945648Y-21598611D01*
X88929472Y-21616576D01*
X88929464Y-21616587D01*
X88834821Y-21780515D01*
X88834818Y-21780522D01*
X88776327Y-21960540D01*
X88776326Y-21960544D01*
X88756540Y-22148800D01*
X88776326Y-22337056D01*
X88776327Y-22337059D01*
X88834818Y-22517077D01*
X88834821Y-22517084D01*
X88929467Y-22681016D01*
X89000211Y-22759585D01*
X89056129Y-22821688D01*
X89209265Y-22932948D01*
X89209270Y-22932951D01*
X89382192Y-23009942D01*
X89382197Y-23009944D01*
X89567354Y-23049300D01*
X89661903Y-23049300D01*
X89728942Y-23068985D01*
X89749584Y-23085619D01*
X90955581Y-24291616D01*
X90989066Y-24352939D01*
X90991900Y-24379297D01*
X90991900Y-25588928D01*
X90972215Y-25655967D01*
X90919411Y-25701722D01*
X90850253Y-25711666D01*
X90836425Y-25708451D01*
X90804767Y-25701722D01*
X90645646Y-25667900D01*
X90456354Y-25667900D01*
X90456352Y-25667900D01*
X90448716Y-25669523D01*
X90379049Y-25664204D01*
X90335259Y-25635913D01*
X89707808Y-25008462D01*
X89674323Y-24947139D01*
X89672168Y-24933741D01*
X89658674Y-24805345D01*
X89658672Y-24805340D01*
X89600179Y-24625316D01*
X89505533Y-24461384D01*
X89378871Y-24320712D01*
X89298522Y-24262335D01*
X89225734Y-24209451D01*
X89225729Y-24209448D01*
X89052807Y-24132457D01*
X89052802Y-24132455D01*
X88907001Y-24101465D01*
X88867646Y-24093100D01*
X88678354Y-24093100D01*
X88645897Y-24099998D01*
X88493197Y-24132455D01*
X88493192Y-24132457D01*
X88320270Y-24209448D01*
X88320265Y-24209451D01*
X88167129Y-24320711D01*
X88040466Y-24461385D01*
X87945821Y-24625315D01*
X87945818Y-24625322D01*
X87921796Y-24699256D01*
X87887326Y-24805344D01*
X87867540Y-24993600D01*
X87887326Y-25181856D01*
X87887327Y-25181859D01*
X87945818Y-25361877D01*
X87945821Y-25361884D01*
X88040467Y-25525816D01*
X88098972Y-25590792D01*
X88167129Y-25666488D01*
X88320265Y-25777748D01*
X88320270Y-25777751D01*
X88493192Y-25854742D01*
X88493197Y-25854744D01*
X88678354Y-25894100D01*
X88702192Y-25894100D01*
X88769231Y-25913785D01*
X88789873Y-25930419D01*
X89667963Y-26808509D01*
X89698213Y-26857872D01*
X89723818Y-26936677D01*
X89723821Y-26936684D01*
X89818467Y-27100616D01*
X89891498Y-27181725D01*
X89945129Y-27241288D01*
X90098265Y-27352548D01*
X90098270Y-27352551D01*
X90271192Y-27429542D01*
X90271197Y-27429544D01*
X90456354Y-27468900D01*
X90456355Y-27468900D01*
X90645644Y-27468900D01*
X90645646Y-27468900D01*
X90773723Y-27441676D01*
X90837160Y-27428193D01*
X90837484Y-27429717D01*
X90899407Y-27427941D01*
X90959245Y-27464013D01*
X90990081Y-27526710D01*
X90991900Y-27547871D01*
X90991900Y-28351102D01*
X90972215Y-28418141D01*
X90955581Y-28438783D01*
X78357581Y-41036783D01*
X78296258Y-41070268D01*
X78226566Y-41065284D01*
X78170633Y-41023412D01*
X78146216Y-40957948D01*
X78145900Y-40949102D01*
X78145900Y-30369008D01*
X78165585Y-30301969D01*
X78182219Y-30281327D01*
X78875527Y-29588019D01*
X78936850Y-29554534D01*
X78963208Y-29551700D01*
X78987044Y-29551700D01*
X78987046Y-29551700D01*
X79172203Y-29512344D01*
X79345130Y-29435351D01*
X79498271Y-29324088D01*
X79624933Y-29183416D01*
X79719579Y-29019484D01*
X79778074Y-28839456D01*
X79797860Y-28651200D01*
X79778074Y-28462944D01*
X79719579Y-28282916D01*
X79624933Y-28118984D01*
X79498271Y-27978312D01*
X79498270Y-27978311D01*
X79345134Y-27867051D01*
X79345129Y-27867048D01*
X79172207Y-27790057D01*
X79172202Y-27790055D01*
X79002364Y-27753956D01*
X78987046Y-27750700D01*
X78834679Y-27750700D01*
X78767640Y-27731015D01*
X78721885Y-27678211D01*
X78716748Y-27665018D01*
X78678181Y-27546322D01*
X78678180Y-27546321D01*
X78678179Y-27546316D01*
X78583533Y-27382384D01*
X78456871Y-27241712D01*
X78456870Y-27241711D01*
X78303734Y-27130451D01*
X78303729Y-27130448D01*
X78130807Y-27053457D01*
X78130802Y-27053455D01*
X77948840Y-27014779D01*
X77945646Y-27014100D01*
X77756354Y-27014100D01*
X77753469Y-27014713D01*
X77751762Y-27014582D01*
X77749896Y-27014779D01*
X77749860Y-27014437D01*
X77683802Y-27009394D01*
X77628070Y-26967255D01*
X77615141Y-26942162D01*
X77614025Y-26942659D01*
X77611380Y-26936720D01*
X77611379Y-26936716D01*
X77516733Y-26772784D01*
X77390071Y-26632112D01*
X77390070Y-26632111D01*
X77236934Y-26520851D01*
X77236929Y-26520848D01*
X77064007Y-26443857D01*
X77064002Y-26443855D01*
X76914404Y-26412058D01*
X76878846Y-26404500D01*
X76689554Y-26404500D01*
X76653994Y-26412058D01*
X76584327Y-26406741D01*
X76528593Y-26364603D01*
X76510283Y-26329084D01*
X76468382Y-26200124D01*
X76468380Y-26200120D01*
X76468379Y-26200116D01*
X76373733Y-26036184D01*
X76247071Y-25895512D01*
X76245128Y-25894100D01*
X76088673Y-25780429D01*
X76089911Y-25778724D01*
X76048497Y-25735275D01*
X76035285Y-25666665D01*
X76061264Y-25601805D01*
X76071032Y-25590801D01*
X78114215Y-23547619D01*
X78175539Y-23514134D01*
X78201897Y-23511300D01*
X80198142Y-23511300D01*
X80265181Y-23530985D01*
X80290291Y-23552327D01*
X80318528Y-23583687D01*
X80318535Y-23583693D01*
X80471665Y-23694948D01*
X80471670Y-23694951D01*
X80644592Y-23771942D01*
X80644597Y-23771944D01*
X80829754Y-23811300D01*
X80829755Y-23811300D01*
X81019044Y-23811300D01*
X81019046Y-23811300D01*
X81204203Y-23771944D01*
X81377130Y-23694951D01*
X81530271Y-23583688D01*
X81656933Y-23443016D01*
X81732606Y-23311945D01*
X81783171Y-23263732D01*
X81851778Y-23250508D01*
X81916643Y-23276476D01*
X81932142Y-23290975D01*
X81944129Y-23304288D01*
X82097265Y-23415548D01*
X82097270Y-23415551D01*
X82270192Y-23492542D01*
X82270197Y-23492544D01*
X82455354Y-23531900D01*
X82455355Y-23531900D01*
X82644644Y-23531900D01*
X82644646Y-23531900D01*
X82775538Y-23504078D01*
X82845204Y-23509394D01*
X82900938Y-23551531D01*
X82908705Y-23563368D01*
X82985865Y-23697014D01*
X83112529Y-23837688D01*
X83265665Y-23948948D01*
X83265670Y-23948951D01*
X83438592Y-24025942D01*
X83438597Y-24025944D01*
X83623754Y-24065300D01*
X83623755Y-24065300D01*
X83813044Y-24065300D01*
X83813046Y-24065300D01*
X83998203Y-24025944D01*
X84171130Y-23948951D01*
X84261455Y-23883326D01*
X84327260Y-23859847D01*
X84395314Y-23875672D01*
X84426487Y-23900670D01*
X84484129Y-23964688D01*
X84484132Y-23964690D01*
X84637265Y-24075948D01*
X84637270Y-24075951D01*
X84810192Y-24152942D01*
X84810197Y-24152944D01*
X84995354Y-24192300D01*
X84995355Y-24192300D01*
X85184644Y-24192300D01*
X85184646Y-24192300D01*
X85369803Y-24152944D01*
X85542730Y-24075951D01*
X85695871Y-23964688D01*
X85822533Y-23824016D01*
X85917179Y-23660084D01*
X85975674Y-23480056D01*
X85995460Y-23291800D01*
X85975674Y-23103544D01*
X85917179Y-22923516D01*
X85822533Y-22759584D01*
X85695871Y-22618912D01*
X85695870Y-22618911D01*
X85542734Y-22507651D01*
X85542729Y-22507648D01*
X85369807Y-22430657D01*
X85369803Y-22430656D01*
X85325582Y-22421256D01*
X85264100Y-22388063D01*
X85263683Y-22387647D01*
X84836576Y-21960540D01*
X82954520Y-20078485D01*
X82949179Y-20072394D01*
X82927482Y-20044118D01*
X82802041Y-19947864D01*
X82749942Y-19926284D01*
X82655962Y-19887356D01*
X82655960Y-19887355D01*
X82538561Y-19871900D01*
X82499200Y-19866718D01*
X82463870Y-19871369D01*
X82455772Y-19871900D01*
X77132428Y-19871900D01*
X77124329Y-19871369D01*
X77089000Y-19866718D01*
X77049639Y-19871900D01*
X76932239Y-19887355D01*
X76932237Y-19887356D01*
X76786157Y-19947864D01*
X76660719Y-20044116D01*
X76639019Y-20072394D01*
X76633668Y-20078496D01*
X71234546Y-25477617D01*
X71173223Y-25511102D01*
X71103531Y-25506118D01*
X71047598Y-25464246D01*
X71028934Y-25428254D01*
X71007381Y-25361922D01*
X71007380Y-25361921D01*
X71007379Y-25361916D01*
X70912733Y-25197984D01*
X70786071Y-25057312D01*
X70786070Y-25057311D01*
X70632934Y-24946051D01*
X70632929Y-24946048D01*
X70460007Y-24869057D01*
X70460002Y-24869055D01*
X70314201Y-24838065D01*
X70274846Y-24829700D01*
X70173879Y-24829700D01*
X70106840Y-24810015D01*
X70061085Y-24757211D01*
X70050558Y-24692741D01*
X70069660Y-24511000D01*
X70049874Y-24322744D01*
X69991379Y-24142716D01*
X69896733Y-23978784D01*
X69770071Y-23838112D01*
X69769932Y-23838011D01*
X69616934Y-23726851D01*
X69616929Y-23726848D01*
X69444007Y-23649857D01*
X69444002Y-23649855D01*
X69298201Y-23618865D01*
X69258846Y-23610500D01*
X69069554Y-23610500D01*
X69037097Y-23617398D01*
X68884397Y-23649855D01*
X68884392Y-23649857D01*
X68711470Y-23726848D01*
X68711465Y-23726851D01*
X68558335Y-23838106D01*
X68558328Y-23838112D01*
X68530091Y-23869473D01*
X68470605Y-23906121D01*
X68437942Y-23910500D01*
X66265098Y-23910500D01*
X66198059Y-23890815D01*
X66152304Y-23838011D01*
X66142360Y-23768853D01*
X66171385Y-23705297D01*
X66177417Y-23698819D01*
X68513017Y-21363219D01*
X68574340Y-21329734D01*
X68600698Y-21326900D01*
X71279772Y-21326900D01*
X71287870Y-21327430D01*
X71323200Y-21332082D01*
X71323201Y-21332082D01*
X71390081Y-21323277D01*
X71479962Y-21311444D01*
X71626041Y-21250936D01*
X71686378Y-21204638D01*
X71751482Y-21154682D01*
X71773184Y-21126398D01*
X71778510Y-21120323D01*
X72404015Y-20494819D01*
X72465339Y-20461334D01*
X72491697Y-20458500D01*
X72586244Y-20458500D01*
X72586246Y-20458500D01*
X72771403Y-20419144D01*
X72944330Y-20342151D01*
X73097471Y-20230888D01*
X73224133Y-20090216D01*
X73318779Y-19926284D01*
X73377274Y-19746256D01*
X73397060Y-19558000D01*
X73377274Y-19369744D01*
X73318779Y-19189716D01*
X73224133Y-19025784D01*
X73097471Y-18885112D01*
X73097470Y-18885111D01*
X72944334Y-18773851D01*
X72944329Y-18773848D01*
X72771407Y-18696857D01*
X72771402Y-18696855D01*
X72625601Y-18665865D01*
X72586246Y-18657500D01*
X72396954Y-18657500D01*
X72364497Y-18664398D01*
X72211797Y-18696855D01*
X72211792Y-18696857D01*
X72038870Y-18773848D01*
X72038865Y-18773851D01*
X71885729Y-18885111D01*
X71759066Y-19025785D01*
X71664421Y-19189715D01*
X71664418Y-19189722D01*
X71610855Y-19354573D01*
X71605926Y-19369744D01*
X71598151Y-19443722D01*
X71586140Y-19558002D01*
X71586140Y-19562862D01*
X71566455Y-19629901D01*
X71549821Y-19650543D01*
X71110784Y-20089581D01*
X71049461Y-20123066D01*
X71023103Y-20125900D01*
X70225184Y-20125900D01*
X70158145Y-20106215D01*
X70112390Y-20053411D01*
X70101863Y-19988939D01*
X70106180Y-19947864D01*
X70120460Y-19812000D01*
X70100674Y-19623744D01*
X70042179Y-19443716D01*
X69947533Y-19279784D01*
X69833152Y-19152751D01*
X69802923Y-19089762D01*
X69811548Y-19020427D01*
X69833150Y-18986811D01*
X69845933Y-18972616D01*
X69940579Y-18808684D01*
X69999074Y-18628656D01*
X70018860Y-18440400D01*
X69999074Y-18252144D01*
X69940579Y-18072116D01*
X69845933Y-17908184D01*
X69719271Y-17767512D01*
X69719132Y-17767411D01*
X69566134Y-17656251D01*
X69566129Y-17656248D01*
X69393207Y-17579257D01*
X69393202Y-17579255D01*
X69223971Y-17543285D01*
X69208046Y-17539900D01*
X69018754Y-17539900D01*
X69002829Y-17543285D01*
X68833597Y-17579255D01*
X68833592Y-17579257D01*
X68660670Y-17656248D01*
X68660665Y-17656251D01*
X68507535Y-17767506D01*
X68507528Y-17767512D01*
X68479291Y-17798873D01*
X68419805Y-17835521D01*
X68387142Y-17839900D01*
X68322497Y-17839900D01*
X68255458Y-17820215D01*
X68209703Y-17767411D01*
X68199759Y-17698253D01*
X68228784Y-17634697D01*
X68234816Y-17628219D01*
X68975016Y-16888019D01*
X69036339Y-16854534D01*
X69062697Y-16851700D01*
X69157244Y-16851700D01*
X69157246Y-16851700D01*
X69342403Y-16812344D01*
X69515330Y-16735351D01*
X69668471Y-16624088D01*
X69795133Y-16483416D01*
X69889779Y-16319484D01*
X69948274Y-16139456D01*
X69968060Y-15951200D01*
X69948274Y-15762944D01*
X69889779Y-15582916D01*
X69806568Y-15438791D01*
X69790096Y-15370892D01*
X69812949Y-15304865D01*
X69821802Y-15293824D01*
X69871333Y-15238816D01*
X69965979Y-15074884D01*
X70024474Y-14894856D01*
X70044260Y-14706600D01*
X70024474Y-14518344D01*
X69965979Y-14338316D01*
X69871333Y-14174384D01*
X69819188Y-14116471D01*
X69788958Y-14053479D01*
X69797583Y-13984144D01*
X69819183Y-13950534D01*
X69871333Y-13892616D01*
X69965979Y-13728684D01*
X70024474Y-13548656D01*
X70044260Y-13360400D01*
X70024474Y-13172144D01*
X69965979Y-12992116D01*
X69938356Y-12944272D01*
X69921884Y-12876374D01*
X69944737Y-12810347D01*
X69953578Y-12799321D01*
X69998333Y-12749616D01*
X70092979Y-12585684D01*
X70151474Y-12405656D01*
X70171260Y-12217400D01*
X70151474Y-12029144D01*
X70092979Y-11849116D01*
X69998333Y-11685184D01*
X69871671Y-11544512D01*
X69855551Y-11532800D01*
X69718534Y-11433251D01*
X69718529Y-11433248D01*
X69545607Y-11356257D01*
X69545602Y-11356255D01*
X69399801Y-11325265D01*
X69360446Y-11316900D01*
X69171154Y-11316900D01*
X69138697Y-11323798D01*
X68985997Y-11356255D01*
X68985992Y-11356257D01*
X68813070Y-11433248D01*
X68813065Y-11433251D01*
X68659929Y-11544511D01*
X68659928Y-11544512D01*
X68588476Y-11623867D01*
X68528989Y-11660515D01*
X68459132Y-11659184D01*
X68441855Y-11651591D01*
X68441766Y-11651792D01*
X68262907Y-11572157D01*
X68262902Y-11572155D01*
X68117101Y-11541165D01*
X68077746Y-11532800D01*
X67888454Y-11532800D01*
X67855997Y-11539698D01*
X67703297Y-11572155D01*
X67703292Y-11572157D01*
X67530370Y-11649148D01*
X67530365Y-11649151D01*
X67377229Y-11760411D01*
X67250566Y-11901085D01*
X67155921Y-12065015D01*
X67155918Y-12065022D01*
X67097427Y-12245039D01*
X67097426Y-12245041D01*
X67083931Y-12373442D01*
X67057346Y-12438057D01*
X67048291Y-12448161D01*
X65476673Y-14019781D01*
X65415350Y-14053266D01*
X65388992Y-14056100D01*
X63948375Y-14056100D01*
X63881336Y-14036415D01*
X63875490Y-14032418D01*
X63724134Y-13922451D01*
X63724129Y-13922448D01*
X63551207Y-13845457D01*
X63551202Y-13845455D01*
X63405400Y-13814465D01*
X63366046Y-13806100D01*
X63176754Y-13806100D01*
X63144297Y-13812998D01*
X62991597Y-13845455D01*
X62991592Y-13845457D01*
X62818670Y-13922448D01*
X62818665Y-13922451D01*
X62665529Y-14033711D01*
X62538866Y-14174385D01*
X62444221Y-14338315D01*
X62444218Y-14338322D01*
X62411219Y-14439884D01*
X62385726Y-14518344D01*
X62365940Y-14706600D01*
X62385726Y-14894856D01*
X62385727Y-14894859D01*
X62444218Y-15074877D01*
X62444221Y-15074884D01*
X62538867Y-15238816D01*
X62598338Y-15304865D01*
X62665529Y-15379488D01*
X62818665Y-15490748D01*
X62818670Y-15490751D01*
X62991592Y-15567742D01*
X62991597Y-15567744D01*
X63176754Y-15607100D01*
X63176755Y-15607100D01*
X63366044Y-15607100D01*
X63366046Y-15607100D01*
X63551203Y-15567744D01*
X63724130Y-15490751D01*
X63875489Y-15380782D01*
X63941296Y-15357302D01*
X63948375Y-15357100D01*
X64977503Y-15357100D01*
X65044542Y-15376785D01*
X65090297Y-15429589D01*
X65100241Y-15498747D01*
X65071216Y-15562303D01*
X65065184Y-15568781D01*
X54063696Y-26570268D01*
X54057594Y-26575619D01*
X54029320Y-26597315D01*
X54029317Y-26597318D01*
X54029318Y-26597318D01*
X53959664Y-26688093D01*
X53939252Y-26714694D01*
X53933063Y-26722760D01*
X53872556Y-26868837D01*
X53872555Y-26868839D01*
X53851918Y-27025598D01*
X53856568Y-27060928D01*
X53857099Y-27069028D01*
X53857100Y-41189165D01*
X53837415Y-41256204D01*
X53825250Y-41272137D01*
X53775870Y-41326978D01*
X53775865Y-41326985D01*
X53681221Y-41490915D01*
X53681218Y-41490922D01*
X53622727Y-41670940D01*
X53622726Y-41670944D01*
X53602940Y-41859200D01*
X35258223Y-41859200D01*
X35248140Y-41850588D01*
X35026628Y-41714846D01*
X35026627Y-41714845D01*
X35026623Y-41714843D01*
X34860627Y-41646086D01*
X34786610Y-41615427D01*
X34786611Y-41615427D01*
X34648921Y-41582370D01*
X34533994Y-41554779D01*
X34533992Y-41554778D01*
X34533991Y-41554778D01*
X34299189Y-41536299D01*
X34275000Y-41534396D01*
X34274999Y-41534396D01*
X34016009Y-41554778D01*
X33763389Y-41615427D01*
X33523376Y-41714843D01*
X33301859Y-41850588D01*
X33104311Y-42019311D01*
X32935588Y-42216859D01*
X32799843Y-42438376D01*
X32700427Y-42678389D01*
X32639778Y-42931009D01*
X32619396Y-43190000D01*
X29464000Y-43190000D01*
X29464000Y-36767870D01*
X32624500Y-36767870D01*
X32624501Y-36767876D01*
X32630908Y-36827483D01*
X32681202Y-36962328D01*
X32681206Y-36962335D01*
X32767452Y-37077544D01*
X32767455Y-37077547D01*
X32882664Y-37163793D01*
X32882671Y-37163797D01*
X33017517Y-37214091D01*
X33017516Y-37214091D01*
X33024444Y-37214835D01*
X33077127Y-37220500D01*
X35472872Y-37220499D01*
X35532483Y-37214091D01*
X35667331Y-37163796D01*
X35782546Y-37077546D01*
X35868796Y-36962331D01*
X35919091Y-36827483D01*
X35925500Y-36767873D01*
X35925499Y-34372128D01*
X35919091Y-34312517D01*
X35868796Y-34177669D01*
X35868795Y-34177668D01*
X35868793Y-34177664D01*
X35782547Y-34062455D01*
X35782544Y-34062452D01*
X35667335Y-33976206D01*
X35667328Y-33976202D01*
X35532482Y-33925908D01*
X35532483Y-33925908D01*
X35472883Y-33919501D01*
X35472881Y-33919500D01*
X35472873Y-33919500D01*
X35472864Y-33919500D01*
X33077129Y-33919500D01*
X33077123Y-33919501D01*
X33017516Y-33925908D01*
X32882671Y-33976202D01*
X32882664Y-33976206D01*
X32767455Y-34062452D01*
X32767452Y-34062455D01*
X32681206Y-34177664D01*
X32681202Y-34177671D01*
X32630908Y-34312517D01*
X32624501Y-34372116D01*
X32624501Y-34372123D01*
X32624500Y-34372135D01*
X32624500Y-36767870D01*
X29464000Y-36767870D01*
X29464000Y-30490000D01*
X32619396Y-30490000D01*
X32639778Y-30748990D01*
X32700427Y-31001610D01*
X32799843Y-31241623D01*
X32799845Y-31241627D01*
X32799846Y-31241628D01*
X32935588Y-31463140D01*
X33104311Y-31660689D01*
X33301860Y-31829412D01*
X33523372Y-31965154D01*
X33523374Y-31965154D01*
X33523376Y-31965156D01*
X33584693Y-31990554D01*
X33763390Y-32064573D01*
X34016006Y-32125221D01*
X34275000Y-32145604D01*
X34533994Y-32125221D01*
X34786610Y-32064573D01*
X35026628Y-31965154D01*
X35248140Y-31829412D01*
X35445689Y-31660689D01*
X35614412Y-31463140D01*
X35750154Y-31241628D01*
X35849573Y-31001610D01*
X35910221Y-30748994D01*
X35930604Y-30490000D01*
X35910221Y-30231006D01*
X35849573Y-29978390D01*
X35750154Y-29738372D01*
X35614412Y-29516860D01*
X35445689Y-29319311D01*
X35248140Y-29150588D01*
X35026628Y-29014846D01*
X35026627Y-29014845D01*
X35026623Y-29014843D01*
X34860627Y-28946086D01*
X34786610Y-28915427D01*
X34786611Y-28915427D01*
X34648921Y-28882370D01*
X34533994Y-28854779D01*
X34533992Y-28854778D01*
X34533991Y-28854778D01*
X34299189Y-28836299D01*
X34275000Y-28834396D01*
X34274999Y-28834396D01*
X34016009Y-28854778D01*
X33763389Y-28915427D01*
X33523376Y-29014843D01*
X33301859Y-29150588D01*
X33104311Y-29319311D01*
X32935588Y-29516859D01*
X32799843Y-29738376D01*
X32700427Y-29978389D01*
X32639778Y-30231009D01*
X32619396Y-30490000D01*
X29464000Y-30490000D01*
X29464000Y-24067870D01*
X32624500Y-24067870D01*
X32624501Y-24067876D01*
X32630908Y-24127483D01*
X32681202Y-24262328D01*
X32681206Y-24262335D01*
X32767452Y-24377544D01*
X32767455Y-24377547D01*
X32882664Y-24463793D01*
X32882671Y-24463797D01*
X33017517Y-24514091D01*
X33017516Y-24514091D01*
X33024444Y-24514835D01*
X33077127Y-24520500D01*
X35472872Y-24520499D01*
X35532483Y-24514091D01*
X35667331Y-24463796D01*
X35782546Y-24377546D01*
X35868796Y-24262331D01*
X35919091Y-24127483D01*
X35925500Y-24067873D01*
X35925499Y-21672128D01*
X35919091Y-21612517D01*
X35913904Y-21598611D01*
X35868797Y-21477671D01*
X35868793Y-21477664D01*
X35782547Y-21362455D01*
X35782544Y-21362452D01*
X35667335Y-21276206D01*
X35667328Y-21276202D01*
X35532482Y-21225908D01*
X35532483Y-21225908D01*
X35472883Y-21219501D01*
X35472881Y-21219500D01*
X35472873Y-21219500D01*
X35472864Y-21219500D01*
X33077129Y-21219500D01*
X33077123Y-21219501D01*
X33017516Y-21225908D01*
X32882671Y-21276202D01*
X32882664Y-21276206D01*
X32767455Y-21362452D01*
X32767452Y-21362455D01*
X32681206Y-21477664D01*
X32681202Y-21477671D01*
X32630908Y-21612517D01*
X32624501Y-21672116D01*
X32624501Y-21672123D01*
X32624500Y-21672135D01*
X32624500Y-24067870D01*
X29464000Y-24067870D01*
X29464000Y-17780000D01*
X32634396Y-17780000D01*
X32654778Y-18038990D01*
X32715427Y-18291610D01*
X32814843Y-18531623D01*
X32814845Y-18531627D01*
X32814846Y-18531628D01*
X32950588Y-18753140D01*
X33119311Y-18950689D01*
X33316860Y-19119412D01*
X33538372Y-19255154D01*
X33538374Y-19255154D01*
X33538376Y-19255156D01*
X33597834Y-19279784D01*
X33778390Y-19354573D01*
X34031006Y-19415221D01*
X34290000Y-19435604D01*
X34548994Y-19415221D01*
X34801610Y-19354573D01*
X35041628Y-19255154D01*
X35263140Y-19119412D01*
X35460689Y-18950689D01*
X35629412Y-18753140D01*
X35765154Y-18531628D01*
X35864573Y-18291610D01*
X35925221Y-18038994D01*
X35945604Y-17780000D01*
X35925221Y-17521006D01*
X35864573Y-17268390D01*
X35765154Y-17028372D01*
X35629412Y-16806860D01*
X35460689Y-16609311D01*
X35263140Y-16440588D01*
X35041628Y-16304846D01*
X35041627Y-16304845D01*
X35041623Y-16304843D01*
X34865241Y-16231784D01*
X34801610Y-16205427D01*
X34801611Y-16205427D01*
X34611423Y-16159767D01*
X34548994Y-16144779D01*
X34548992Y-16144778D01*
X34548991Y-16144778D01*
X34290000Y-16124396D01*
X34031009Y-16144778D01*
X33778389Y-16205427D01*
X33538376Y-16304843D01*
X33316859Y-16440588D01*
X33119311Y-16609311D01*
X32950588Y-16806859D01*
X32814843Y-17028376D01*
X32715427Y-17268389D01*
X32654778Y-17521009D01*
X32634396Y-17780000D01*
X29464000Y-17780000D01*
X29464000Y-11357870D01*
X32639500Y-11357870D01*
X32639501Y-11357876D01*
X32645908Y-11417483D01*
X32696202Y-11552328D01*
X32696206Y-11552335D01*
X32782452Y-11667544D01*
X32782455Y-11667547D01*
X32897664Y-11753793D01*
X32897671Y-11753797D01*
X33032517Y-11804091D01*
X33032516Y-11804091D01*
X33039444Y-11804835D01*
X33092127Y-11810500D01*
X35487872Y-11810499D01*
X35547483Y-11804091D01*
X35682331Y-11753796D01*
X35797546Y-11667546D01*
X35883796Y-11552331D01*
X35934091Y-11417483D01*
X35940500Y-11357873D01*
X35940499Y-8962128D01*
X35934091Y-8902517D01*
X35883796Y-8767669D01*
X35883795Y-8767668D01*
X35883793Y-8767664D01*
X35797547Y-8652455D01*
X35797544Y-8652452D01*
X35682335Y-8566206D01*
X35682328Y-8566202D01*
X35547482Y-8515908D01*
X35547483Y-8515908D01*
X35487883Y-8509501D01*
X35487881Y-8509500D01*
X35487873Y-8509500D01*
X35487864Y-8509500D01*
X33092129Y-8509500D01*
X33092123Y-8509501D01*
X33032516Y-8515908D01*
X32897671Y-8566202D01*
X32897664Y-8566206D01*
X32782455Y-8652452D01*
X32782452Y-8652455D01*
X32696206Y-8767664D01*
X32696202Y-8767671D01*
X32645908Y-8902517D01*
X32639501Y-8962116D01*
X32639501Y-8962123D01*
X32639500Y-8962135D01*
X32639500Y-11357870D01*
X29464000Y-11357870D01*
X29464000Y-5712000D01*
X29483685Y-5644961D01*
X29536489Y-5599206D01*
X29588000Y-5588000D01*
X65915874Y-5588000D01*
X65982913Y-5607685D01*
G37*
%TD.AperFunction*%
%TD*%
M02*
