M48
; DRILL file {KiCad 7.0.6} date Thu Aug  3 00:29:44 2023
; FORMAT={-:-/ absolute / inch / decimal}
; #@! TF.CreationDate,2023-08-03T00:29:44-04:00
; #@! TF.GenerationSoftware,Kicad,Pcbnew,7.0.6
; #@! TF.FileFunction,Plated,1,2,PTH
FMAT,2
INCH
; #@! TA.AperFunction,Plated,PTH,ViaDrill
T1C0.0157
; #@! TA.AperFunction,Plated,PTH,ComponentDrill
T2C0.0512
; #@! TA.AperFunction,Plated,PTH,ComponentDrill
T3C0.0866
%
G90
G05
T1
X2.146Y-1.648
X2.177Y-1.707
X2.218Y-1.809
X2.248Y-1.906
X2.315Y-1.406
X2.323Y-1.556
X2.333Y-1.456
X2.386Y-1.997
X2.388Y-1.794
X2.396Y-1.695
X2.402Y-1.897
X2.441Y-1.395
X2.488Y-1.206
X2.491Y-0.579
X2.491Y-1.303
X2.496Y-1.496
X2.527Y-1.557
X2.603Y-1.112
X2.612Y-1.174
X2.614Y-1.066
X2.635Y-2.053
X2.637Y-1.136
X2.6765Y-0.4895
X2.719Y-0.628
X2.721Y-0.726
X2.722Y-0.526
X2.722Y-0.579
X2.723Y-0.965
X2.725Y-0.78
X2.727Y-0.481
X2.76Y-1.68
X2.763Y-1.013
X2.78Y-2.5
X2.854Y-0.77
X2.88Y-1.68
X2.897Y-2.082
X2.963Y-2.113
X2.964Y-2.1724
X2.978Y-1.046
X3.012Y-0.721
X3.023Y-1.075
X3.065Y-1.099
X3.106Y-1.128
X3.1405Y-0.721
X3.186Y-0.902
X3.25Y-0.891
X3.269Y-0.721
X3.296Y-0.912
X3.35Y-0.917
X3.495Y-0.984
X3.53Y-0.872
X3.532Y-0.825
X3.532Y-1.804
X3.5328Y-0.7748
X3.547Y-0.719
X3.553Y-0.66
X3.554Y-0.607
X3.565Y-1.046
X3.566Y-0.554
X3.69Y-1.803
T2
X0.288Y-0.4516
X0.288Y-0.6484
X0.288Y-0.9516
X0.288Y-1.1484
X0.288Y-1.4516
X0.288Y-1.6484
X0.288Y-1.9516
X0.288Y-2.1484
X0.6494Y-0.9004
X0.6494Y-1.4004
X0.6494Y-1.9004
X0.65Y-0.4
X0.9494Y-0.9004
X0.9494Y-1.4004
X0.9494Y-1.9004
X0.95Y-0.4
X1.3494Y-0.9004
X1.3494Y-1.2004
X1.3494Y-1.4004
X1.3494Y-1.7004
X1.3494Y-1.9004
X1.3494Y-2.2004
X1.35Y-0.4
X1.35Y-0.7
X3.6419Y-1.9228
X3.6419Y-2.1197
T3
X0.15Y-0.15
X0.15Y-2.45
X3.7972Y-0.15
X3.7972Y-2.45
T0
M30
