%TF.GenerationSoftware,KiCad,Pcbnew,7.0.6*%
%TF.CreationDate,2024-05-05T09:17:33-05:00*%
%TF.ProjectId,BOARD_ESP32_S3,424f4152-445f-4455-9350-33325f53332e,rev?*%
%TF.SameCoordinates,Original*%
%TF.FileFunction,Soldermask,Bot*%
%TF.FilePolarity,Negative*%
%FSLAX46Y46*%
G04 Gerber Fmt 4.6, Leading zero omitted, Abs format (unit mm)*
G04 Created by KiCad (PCBNEW 7.0.6) date 2024-05-05 09:17:33*
%MOMM*%
%LPD*%
G01*
G04 APERTURE LIST*
%ADD10C,3.500000*%
%ADD11C,2.300000*%
%ADD12R,1.520000X1.520000*%
%ADD13C,1.520000*%
%ADD14R,3.960000X1.980000*%
%ADD15O,3.960000X1.980000*%
%ADD16R,1.700000X1.700000*%
%ADD17O,1.700000X1.700000*%
%ADD18C,1.440000*%
G04 APERTURE END LIST*
D10*
%TO.C,GND*%
X195224400Y-124104400D03*
%TD*%
%TO.C,GND*%
X140233400Y-124231400D03*
%TD*%
D11*
%TO.C,PLUVIOMETER1*%
X140092400Y-88011400D03*
X140092400Y-100011400D03*
D12*
X144932400Y-96561400D03*
D13*
X142392400Y-95541400D03*
X144932400Y-94521400D03*
X142392400Y-93501400D03*
X144932400Y-92481400D03*
X142392400Y-91461400D03*
%TD*%
D11*
%TO.C,TEMP_5CM*%
X145505400Y-124231400D03*
X157505400Y-124231400D03*
D12*
X154055400Y-119391400D03*
D13*
X153035400Y-121931400D03*
X152015400Y-119391400D03*
X150995400Y-121931400D03*
X149975400Y-119391400D03*
X148955400Y-121931400D03*
%TD*%
D10*
%TO.C,GND*%
X140360400Y-36474400D03*
%TD*%
D11*
%TO.C,BUS_I2C1*%
X140114400Y-56509400D03*
X140114400Y-68509400D03*
D12*
X144954400Y-65059400D03*
D13*
X142414400Y-64039400D03*
X144954400Y-63019400D03*
X142414400Y-61999400D03*
X144954400Y-60979400D03*
X142414400Y-59959400D03*
%TD*%
D11*
%TO.C,TEMP_10CM*%
X161126400Y-124231400D03*
X173126400Y-124231400D03*
D12*
X169676400Y-119391400D03*
D13*
X168656400Y-121931400D03*
X167636400Y-119391400D03*
X166616400Y-121931400D03*
X165596400Y-119391400D03*
X164576400Y-121931400D03*
%TD*%
D14*
%TO.C,VBAT*%
X194056000Y-42193000D03*
D15*
X194056000Y-47193000D03*
%TD*%
D11*
%TO.C,W_SPEED/W_DIR1*%
X140092400Y-72247400D03*
X140092400Y-84247400D03*
D12*
X144932400Y-80797400D03*
D13*
X142392400Y-79777400D03*
X144932400Y-78757400D03*
X142392400Y-77737400D03*
X144932400Y-76717400D03*
X142392400Y-75697400D03*
%TD*%
D16*
%TO.C,J3*%
X160680400Y-74574400D03*
D17*
X160680400Y-72034400D03*
%TD*%
D18*
%TO.C,RV1*%
X155346400Y-72557400D03*
X155346400Y-70017400D03*
X155346400Y-67477400D03*
%TD*%
D10*
%TO.C,GND*%
X195478400Y-36093400D03*
%TD*%
D18*
%TO.C,RV2*%
X161188400Y-112166400D03*
X161188400Y-109626400D03*
X161188400Y-107086400D03*
%TD*%
D11*
%TO.C,TEMP_15CM*%
X176778400Y-124223400D03*
X188778400Y-124223400D03*
D12*
X185328400Y-119383400D03*
D13*
X184308400Y-121923400D03*
X183288400Y-119383400D03*
X182268400Y-121923400D03*
X181248400Y-119383400D03*
X180228400Y-121923400D03*
%TD*%
D14*
%TO.C,J4*%
X193446400Y-100943200D03*
D15*
X193446400Y-105943200D03*
%TD*%
%TO.C,J5*%
X141020800Y-106658400D03*
D14*
X141020800Y-111658400D03*
%TD*%
D11*
%TO.C,EXTERNAL_I2C1*%
X140092400Y-40755400D03*
X140092400Y-52755400D03*
D12*
X144932400Y-49305400D03*
D13*
X142392400Y-48285400D03*
X144932400Y-47265400D03*
X142392400Y-46245400D03*
X144932400Y-45225400D03*
X142392400Y-44205400D03*
%TD*%
D15*
%TO.C,J1*%
X193446400Y-94614800D03*
D14*
X193446400Y-89614800D03*
%TD*%
M02*
