%TF.GenerationSoftware,KiCad,Pcbnew,7.0.6*%
%TF.CreationDate,2024-05-05T09:17:32-05:00*%
%TF.ProjectId,BOARD_ESP32_S3,424f4152-445f-4455-9350-33325f53332e,rev?*%
%TF.SameCoordinates,Original*%
%TF.FileFunction,Copper,L2,Bot*%
%TF.FilePolarity,Positive*%
%FSLAX46Y46*%
G04 Gerber Fmt 4.6, Leading zero omitted, Abs format (unit mm)*
G04 Created by KiCad (PCBNEW 7.0.6) date 2024-05-05 09:17:32*
%MOMM*%
%LPD*%
G01*
G04 APERTURE LIST*
%TA.AperFunction,ComponentPad*%
%ADD10C,3.500000*%
%TD*%
%TA.AperFunction,ComponentPad*%
%ADD11R,1.520000X1.520000*%
%TD*%
%TA.AperFunction,ComponentPad*%
%ADD12C,1.520000*%
%TD*%
%TA.AperFunction,ComponentPad*%
%ADD13R,3.960000X1.980000*%
%TD*%
%TA.AperFunction,ComponentPad*%
%ADD14O,3.960000X1.980000*%
%TD*%
%TA.AperFunction,ComponentPad*%
%ADD15R,1.700000X1.700000*%
%TD*%
%TA.AperFunction,ComponentPad*%
%ADD16O,1.700000X1.700000*%
%TD*%
%TA.AperFunction,ComponentPad*%
%ADD17C,1.440000*%
%TD*%
%TA.AperFunction,ViaPad*%
%ADD18C,0.800000*%
%TD*%
%TA.AperFunction,Conductor*%
%ADD19C,0.500000*%
%TD*%
%TA.AperFunction,Conductor*%
%ADD20C,0.250000*%
%TD*%
%TA.AperFunction,Conductor*%
%ADD21C,0.350000*%
%TD*%
G04 APERTURE END LIST*
D10*
%TO.P,GND,1*%
%TO.N,N/C*%
X195224400Y-124104400D03*
%TD*%
%TO.P,GND,1*%
%TO.N,N/C*%
X140233400Y-124231400D03*
%TD*%
D11*
%TO.P,PLUVIOMETER1,1*%
%TO.N,/+3v3*%
X144932400Y-96561400D03*
D12*
%TO.P,PLUVIOMETER1,2*%
X142392400Y-95541400D03*
%TO.P,PLUVIOMETER1,3*%
%TO.N,/GPIO06*%
X144932400Y-94521400D03*
%TO.P,PLUVIOMETER1,4*%
%TO.N,GND*%
X142392400Y-93501400D03*
%TO.P,PLUVIOMETER1,5*%
X144932400Y-92481400D03*
%TO.P,PLUVIOMETER1,6*%
X142392400Y-91461400D03*
%TD*%
D11*
%TO.P,TEMP_5CM,1*%
%TO.N,/+3v3*%
X154055400Y-119391400D03*
D12*
%TO.P,TEMP_5CM,2*%
X153035400Y-121931400D03*
%TO.P,TEMP_5CM,3*%
%TO.N,/DSB_SIGNAL01*%
X152015400Y-119391400D03*
%TO.P,TEMP_5CM,4*%
%TO.N,unconnected-(TEMP_5CM1-Pad4)*%
X150995400Y-121931400D03*
%TO.P,TEMP_5CM,5*%
%TO.N,GND*%
X149975400Y-119391400D03*
%TO.P,TEMP_5CM,6*%
X148955400Y-121931400D03*
%TD*%
D10*
%TO.P,GND,1*%
%TO.N,N/C*%
X140360400Y-36474400D03*
%TD*%
D11*
%TO.P,BUS_I2C1,1*%
%TO.N,/+3v3*%
X144954400Y-65059400D03*
D12*
%TO.P,BUS_I2C1,2*%
X142414400Y-64039400D03*
%TO.P,BUS_I2C1,3*%
%TO.N,/GPIO36*%
X144954400Y-63019400D03*
%TO.P,BUS_I2C1,4*%
%TO.N,/GPIO37*%
X142414400Y-61999400D03*
%TO.P,BUS_I2C1,5*%
%TO.N,GND*%
X144954400Y-60979400D03*
%TO.P,BUS_I2C1,6*%
X142414400Y-59959400D03*
%TD*%
D11*
%TO.P,TEMP_10CM,1*%
%TO.N,/+3v3*%
X169676400Y-119391400D03*
D12*
%TO.P,TEMP_10CM,2*%
X168656400Y-121931400D03*
%TO.P,TEMP_10CM,3*%
%TO.N,/DSB_SIGNAL02*%
X167636400Y-119391400D03*
%TO.P,TEMP_10CM,4*%
%TO.N,unconnected-(TEMP_10CM1-Pad4)*%
X166616400Y-121931400D03*
%TO.P,TEMP_10CM,5*%
%TO.N,GND*%
X165596400Y-119391400D03*
%TO.P,TEMP_10CM,6*%
X164576400Y-121931400D03*
%TD*%
D13*
%TO.P,VBAT,1,Pin_1*%
%TO.N,/VBAT*%
X194056000Y-42193000D03*
D14*
%TO.P,VBAT,2,Pin_2*%
%TO.N,GND*%
X194056000Y-47193000D03*
%TD*%
D11*
%TO.P,W_SPEED/W_DIR1,1*%
%TO.N,/+3v3*%
X144932400Y-80797400D03*
D12*
%TO.P,W_SPEED/W_DIR1,2*%
%TO.N,/GPIO05*%
X142392400Y-79777400D03*
%TO.P,W_SPEED/W_DIR1,3*%
%TO.N,/GPIO04*%
X144932400Y-78757400D03*
%TO.P,W_SPEED/W_DIR1,4*%
%TO.N,GND*%
X142392400Y-77737400D03*
%TO.P,W_SPEED/W_DIR1,5*%
X144932400Y-76717400D03*
%TO.P,W_SPEED/W_DIR1,6*%
X142392400Y-75697400D03*
%TD*%
D15*
%TO.P,J3,1,Pin_1*%
%TO.N,/GPIO05*%
X160680400Y-74574400D03*
D16*
%TO.P,J3,2,Pin_2*%
%TO.N,Net-(J3-Pin_2)*%
X160680400Y-72034400D03*
%TD*%
D17*
%TO.P,RV1,3,3*%
%TO.N,/GPIO05*%
X155346400Y-72557400D03*
%TO.P,RV1,2,2*%
X155346400Y-70017400D03*
%TO.P,RV1,1,1*%
%TO.N,Net-(J3-Pin_2)*%
X155346400Y-67477400D03*
%TD*%
D10*
%TO.P,GND,1*%
%TO.N,N/C*%
X195478400Y-36093400D03*
%TD*%
D17*
%TO.P,RV2,1,1*%
%TO.N,/+3v3*%
X161188400Y-112166400D03*
%TO.P,RV2,2,2*%
%TO.N,Net-(U6-1IN-)*%
X161188400Y-109626400D03*
%TO.P,RV2,3,3*%
%TO.N,GND*%
X161188400Y-107086400D03*
%TD*%
D11*
%TO.P,TEMP_15CM,1*%
%TO.N,/+3v3*%
X185328400Y-119383400D03*
D12*
%TO.P,TEMP_15CM,2*%
X184308400Y-121923400D03*
%TO.P,TEMP_15CM,3*%
%TO.N,/DSB_SIGNAL03*%
X183288400Y-119383400D03*
%TO.P,TEMP_15CM,4*%
%TO.N,unconnected-(TEMP_15CM1-Pad4)*%
X182268400Y-121923400D03*
%TO.P,TEMP_15CM,5*%
%TO.N,GND*%
X181248400Y-119383400D03*
%TO.P,TEMP_15CM,6*%
X180228400Y-121923400D03*
%TD*%
D13*
%TO.P,J4,1,Pin_1*%
%TO.N,/-P*%
X193446400Y-100943200D03*
D14*
%TO.P,J4,2,Pin_2*%
%TO.N,/+P*%
X193446400Y-105943200D03*
%TD*%
%TO.P,J5,2,Pin_2*%
%TO.N,/GPIO08*%
X141020800Y-106658400D03*
D13*
%TO.P,J5,1,Pin_1*%
%TO.N,GND*%
X141020800Y-111658400D03*
%TD*%
D11*
%TO.P,EXTERNAL_I2C1,1*%
%TO.N,/+3v3*%
X144932400Y-49305400D03*
D12*
%TO.P,EXTERNAL_I2C1,2*%
X142392400Y-48285400D03*
%TO.P,EXTERNAL_I2C1,3*%
%TO.N,/GPIO36*%
X144932400Y-47265400D03*
%TO.P,EXTERNAL_I2C1,4*%
%TO.N,/GPIO37*%
X142392400Y-46245400D03*
%TO.P,EXTERNAL_I2C1,5*%
%TO.N,GND*%
X144932400Y-45225400D03*
%TO.P,EXTERNAL_I2C1,6*%
X142392400Y-44205400D03*
%TD*%
D14*
%TO.P,J1,2,Pin_2*%
%TO.N,GND*%
X193446400Y-94614800D03*
D13*
%TO.P,J1,1,Pin_1*%
%TO.N,/V_EXT*%
X193446400Y-89614800D03*
%TD*%
D18*
%TO.N,GND*%
X157810200Y-55676800D03*
X174574200Y-76504800D03*
%TO.N,/+3v3*%
X159766000Y-95453200D03*
X166014400Y-112826800D03*
X155448000Y-95554800D03*
%TO.N,/GPIO0*%
X183819800Y-59080400D03*
X186588400Y-60477400D03*
X177927000Y-69621400D03*
%TO.N,/GPIO04*%
X162077400Y-45110400D03*
X158521400Y-66573400D03*
%TO.N,/GPIO05*%
X166395400Y-46380400D03*
%TO.N,/GPIO08*%
X170459400Y-52603400D03*
X165100000Y-104419400D03*
X157734000Y-97434400D03*
%TO.N,/GPIO36*%
X179349400Y-55272200D03*
%TO.N,/GPIO37*%
X179374800Y-54000829D03*
%TO.N,/GPIO01*%
X173939200Y-99364800D03*
X178816000Y-42572200D03*
%TO.N,/DSB_SIGNAL01*%
X164363400Y-78130400D03*
X166141400Y-48920400D03*
%TO.N,/DSB_SIGNAL02*%
X166006400Y-78130400D03*
X166014400Y-50317400D03*
%TO.N,/DSB_SIGNAL03*%
X167538400Y-78130400D03*
X167538400Y-51460400D03*
%TO.N,/GPIO06*%
X161442400Y-64414400D03*
X153187400Y-87528400D03*
%TD*%
D19*
%TO.N,/+3v3*%
X148091400Y-104530400D02*
X157378400Y-113817400D01*
X168073400Y-112828400D02*
X166016000Y-112828400D01*
X147980400Y-80797400D02*
X144932400Y-80797400D01*
D20*
X168073400Y-112828400D02*
X168100400Y-112801400D01*
D19*
X159689800Y-95529400D02*
X159766000Y-95453200D01*
X144932400Y-96561400D02*
X148091400Y-96561400D01*
X148091400Y-96561400D02*
X148091400Y-104530400D01*
X157378400Y-113817400D02*
X163020400Y-113817400D01*
X148091400Y-96561400D02*
X149123400Y-95529400D01*
X155422600Y-95529400D02*
X155448000Y-95554800D01*
X149123400Y-81940400D02*
X147980400Y-80797400D01*
X159766000Y-95453200D02*
X159715200Y-95504000D01*
X163020400Y-113817400D02*
X164009400Y-112828400D01*
X169676400Y-114431400D02*
X168073400Y-112828400D01*
X166016000Y-112828400D02*
X166014400Y-112826800D01*
X185328400Y-114843400D02*
X185328400Y-119383400D01*
X168100400Y-112801400D02*
X183286400Y-112801400D01*
X166014400Y-112826800D02*
X166012800Y-112828400D01*
X183286400Y-112801400D02*
X185328400Y-114843400D01*
X155473400Y-95529400D02*
X159689800Y-95529400D01*
X149123400Y-95529400D02*
X149123400Y-81940400D01*
X149123400Y-95529400D02*
X155422600Y-95529400D01*
X169676400Y-119391400D02*
X169676400Y-114431400D01*
X154055400Y-119391400D02*
X154055400Y-117140400D01*
X166012800Y-112828400D02*
X164009400Y-112828400D01*
X155448000Y-95554800D02*
X155473400Y-95529400D01*
X154055400Y-117140400D02*
X157378400Y-113817400D01*
D21*
%TO.N,/GPIO0*%
X180898800Y-61722000D02*
X182321200Y-61722000D01*
X182321200Y-61722000D02*
X183819800Y-60223400D01*
X183819800Y-60223400D02*
X183819800Y-59080400D01*
D20*
X177927000Y-69621400D02*
X177952400Y-69621400D01*
D21*
X186588400Y-60477400D02*
X184073800Y-60477400D01*
X178536600Y-69037200D02*
X178536600Y-64084200D01*
X184073800Y-60477400D02*
X183819800Y-60223400D01*
X178536600Y-64084200D02*
X180898800Y-61722000D01*
X177952400Y-69621400D02*
X178536600Y-69037200D01*
%TO.N,/GPIO04*%
X158750000Y-66344800D02*
X158750000Y-47548800D01*
X161188400Y-45110400D02*
X162077400Y-45110400D01*
X158750000Y-47548800D02*
X161188400Y-45110400D01*
D20*
X158521400Y-66573400D02*
X158535200Y-66559600D01*
D21*
X158535200Y-66559600D02*
X158750000Y-66344800D01*
%TO.N,/GPIO05*%
X157363400Y-74574400D02*
X155346400Y-72557400D01*
X142885400Y-72557400D02*
X155346400Y-72557400D01*
X162204400Y-68478400D02*
X160020000Y-66294000D01*
X162204400Y-73812400D02*
X162204400Y-68478400D01*
X161442400Y-74574400D02*
X162204400Y-73812400D01*
X160020000Y-48514000D02*
X162153600Y-46380400D01*
X160680400Y-74574400D02*
X157363400Y-74574400D01*
X142392400Y-79777400D02*
X140229400Y-79777400D01*
X162153600Y-46380400D02*
X166395400Y-46380400D01*
X139217400Y-76225400D02*
X142885400Y-72557400D01*
D20*
X160680400Y-74574400D02*
X161442400Y-74574400D01*
D21*
X155346400Y-70017400D02*
X155346400Y-72557400D01*
X140229400Y-79777400D02*
X139217400Y-78765400D01*
X139217400Y-78765400D02*
X139217400Y-76225400D01*
X160020000Y-66294000D02*
X160020000Y-48514000D01*
%TO.N,/GPIO08*%
X167487600Y-97434400D02*
X163906200Y-97434400D01*
D20*
X164388800Y-97434400D02*
X163906200Y-97434400D01*
D21*
X165100000Y-104419400D02*
X165100000Y-98145600D01*
X170459400Y-94462600D02*
X167487600Y-97434400D01*
X170459400Y-52603400D02*
X170459400Y-94462600D01*
X165100000Y-98145600D02*
X164388800Y-97434400D01*
X163906200Y-97434400D02*
X157734000Y-97434400D01*
D20*
%TO.N,/GPIO36*%
X146456400Y-61517400D02*
X144954400Y-63019400D01*
X143662400Y-54635400D02*
X146456400Y-57429400D01*
X177776400Y-55272200D02*
X165074600Y-42570400D01*
X146456400Y-57429400D02*
X146456400Y-61517400D01*
X144932400Y-47265400D02*
X144174400Y-47265400D01*
X152069800Y-42570400D02*
X147374800Y-47265400D01*
X144174400Y-47265400D02*
X143662400Y-47777400D01*
X143662400Y-47777400D02*
X143662400Y-54635400D01*
X179349400Y-55272200D02*
X177776400Y-55272200D01*
X147374800Y-47265400D02*
X144932400Y-47265400D01*
X165074600Y-42570400D02*
X152069800Y-42570400D01*
%TO.N,/GPIO37*%
X140868400Y-47269400D02*
X140868400Y-50825400D01*
X144322800Y-41960800D02*
X143637000Y-42646600D01*
X140868400Y-50825400D02*
X142138400Y-52095400D01*
X143637000Y-45415200D02*
X142806800Y-46245400D01*
X143637000Y-42646600D02*
X143637000Y-45415200D01*
X177825829Y-54000829D02*
X165785800Y-41960800D01*
X140868400Y-59207400D02*
X140868400Y-60453400D01*
X140868400Y-60453400D02*
X142414400Y-61999400D01*
X142806800Y-46245400D02*
X142392400Y-46245400D01*
X141892400Y-46245400D02*
X140868400Y-47269400D01*
X179374800Y-54000829D02*
X177825829Y-54000829D01*
X165785800Y-41960800D02*
X144322800Y-41960800D01*
X142138400Y-57937400D02*
X140868400Y-59207400D01*
X142138400Y-52095400D02*
X142138400Y-57937400D01*
X142392400Y-46245400D02*
X141892400Y-46245400D01*
D21*
%TO.N,/GPIO01*%
X178816000Y-42572200D02*
X182018200Y-42572200D01*
D20*
X173849200Y-99274800D02*
X173939200Y-99364800D01*
D21*
X173799200Y-67500800D02*
X173799200Y-99224800D01*
X183642000Y-57658000D02*
X173799200Y-67500800D01*
X182018200Y-42572200D02*
X183642000Y-44196000D01*
X183642000Y-44196000D02*
X183642000Y-57658000D01*
X173799200Y-99224800D02*
X173849200Y-99274800D01*
%TO.N,Net-(J3-Pin_2)*%
X160680400Y-72034400D02*
X160680400Y-68478400D01*
X160680400Y-68478400D02*
X159679400Y-67477400D01*
X159679400Y-67477400D02*
X155346400Y-67477400D01*
%TO.N,/DSB_SIGNAL01*%
X164363400Y-49555400D02*
X164363400Y-78130400D01*
X164998400Y-48920400D02*
X164363400Y-49555400D01*
X166141400Y-48920400D02*
X164998400Y-48920400D01*
D20*
%TO.N,/DSB_SIGNAL02*%
X166014400Y-50317400D02*
X166006400Y-50325400D01*
D21*
X166006400Y-50325400D02*
X166006400Y-78130400D01*
%TO.N,/DSB_SIGNAL03*%
X167538400Y-78130400D02*
X167538400Y-51460400D01*
%TO.N,/GPIO06*%
X163220400Y-76352400D02*
X159156400Y-80416400D01*
X163220400Y-66192400D02*
X163220400Y-76352400D01*
X161442400Y-64414400D02*
X163220400Y-66192400D01*
X153187400Y-82956400D02*
X153187400Y-87528400D01*
X155727400Y-80416400D02*
X153187400Y-82956400D01*
X159156400Y-80416400D02*
X155727400Y-80416400D01*
%TD*%
%TA.AperFunction,Conductor*%
%TO.N,GND*%
G36*
X151661250Y-42305985D02*
G01*
X151707005Y-42358789D01*
X151716949Y-42427947D01*
X151687924Y-42491503D01*
X151681892Y-42497981D01*
X147276293Y-46903581D01*
X147214970Y-46937066D01*
X147188612Y-46939900D01*
X145921839Y-46939900D01*
X145854800Y-46920215D01*
X145812481Y-46874354D01*
X145777378Y-46808682D01*
X145734890Y-46729193D01*
X145734887Y-46729189D01*
X145614862Y-46582937D01*
X145468610Y-46462912D01*
X145468608Y-46462911D01*
X145468607Y-46462910D01*
X145301746Y-46373720D01*
X145211218Y-46346258D01*
X145120689Y-46318797D01*
X144932400Y-46300253D01*
X144744110Y-46318797D01*
X144563051Y-46373721D01*
X144396189Y-46462912D01*
X144249937Y-46582937D01*
X144129912Y-46729189D01*
X144040719Y-46896055D01*
X144028954Y-46934839D01*
X143990656Y-46993278D01*
X143972299Y-47006227D01*
X143961950Y-47012202D01*
X143961942Y-47012209D01*
X143935923Y-47043215D01*
X143932269Y-47047203D01*
X143444203Y-47535270D01*
X143440214Y-47538925D01*
X143409205Y-47564945D01*
X143388962Y-47600006D01*
X143386056Y-47604566D01*
X143362846Y-47637713D01*
X143360603Y-47642523D01*
X143350921Y-47665898D01*
X143347837Y-47671240D01*
X143297271Y-47719457D01*
X143228665Y-47732682D01*
X143163799Y-47706716D01*
X143144594Y-47687907D01*
X143074861Y-47602937D01*
X142928610Y-47482912D01*
X142928608Y-47482911D01*
X142928607Y-47482910D01*
X142837484Y-47434203D01*
X142761747Y-47393720D01*
X142744696Y-47388548D01*
X142729901Y-47384060D01*
X142671464Y-47345764D01*
X142643007Y-47281952D01*
X142653566Y-47212885D01*
X142699790Y-47160491D01*
X142729900Y-47146740D01*
X142761746Y-47137080D01*
X142928607Y-47047890D01*
X143074862Y-46927862D01*
X143194890Y-46781607D01*
X143284080Y-46614746D01*
X143339002Y-46433691D01*
X143357547Y-46245400D01*
X143355188Y-46221453D01*
X143368204Y-46152808D01*
X143390906Y-46121618D01*
X143855204Y-45657320D01*
X143859166Y-45653689D01*
X143890194Y-45627655D01*
X143910438Y-45592590D01*
X143913335Y-45588041D01*
X143936554Y-45554884D01*
X143936554Y-45554881D01*
X143938819Y-45550024D01*
X143945747Y-45533299D01*
X143947587Y-45528246D01*
X143947588Y-45528245D01*
X143954621Y-45488350D01*
X143955777Y-45483137D01*
X143966263Y-45444007D01*
X143962735Y-45403689D01*
X143962500Y-45398286D01*
X143962500Y-42832787D01*
X143982185Y-42765748D01*
X143998819Y-42745106D01*
X144421307Y-42322619D01*
X144482630Y-42289134D01*
X144508988Y-42286300D01*
X151594211Y-42286300D01*
X151661250Y-42305985D01*
G37*
%TD.AperFunction*%
%TA.AperFunction,Conductor*%
G36*
X197707100Y-33446585D02*
G01*
X197752855Y-33499389D01*
X197764060Y-33551233D01*
X197655260Y-73535531D01*
X197510737Y-126647237D01*
X197490870Y-126714223D01*
X197437941Y-126759834D01*
X197386737Y-126770900D01*
X137944740Y-126770900D01*
X137877701Y-126751215D01*
X137831946Y-126698411D01*
X137820740Y-126646562D01*
X137822209Y-126107672D01*
X137827321Y-124231401D01*
X138277918Y-124231401D01*
X138297822Y-124509699D01*
X138349549Y-124747479D01*
X138357129Y-124782323D01*
X138417666Y-124944630D01*
X138454631Y-125043738D01*
X138454633Y-125043742D01*
X138588340Y-125288607D01*
X138588345Y-125288615D01*
X138755538Y-125511960D01*
X138755554Y-125511978D01*
X138952821Y-125709245D01*
X138952839Y-125709261D01*
X139176184Y-125876454D01*
X139176192Y-125876459D01*
X139421057Y-126010166D01*
X139421061Y-126010168D01*
X139421063Y-126010169D01*
X139682477Y-126107671D01*
X139818791Y-126137324D01*
X139955100Y-126166977D01*
X139955102Y-126166977D01*
X139955106Y-126166978D01*
X140202414Y-126184665D01*
X140233399Y-126186882D01*
X140233400Y-126186882D01*
X140233401Y-126186882D01*
X140261281Y-126184887D01*
X140511694Y-126166978D01*
X140784323Y-126107671D01*
X141045737Y-126010169D01*
X141290613Y-125876456D01*
X141513968Y-125709255D01*
X141711255Y-125511968D01*
X141878456Y-125288613D01*
X142012169Y-125043737D01*
X142109671Y-124782323D01*
X142168978Y-124509694D01*
X142188882Y-124231400D01*
X142184615Y-124171746D01*
X144101102Y-124171746D01*
X144111219Y-124409928D01*
X144111219Y-124409932D01*
X144161445Y-124642980D01*
X144247120Y-124856188D01*
X144250336Y-124864190D01*
X144375331Y-125067195D01*
X144532836Y-125246155D01*
X144718320Y-125395923D01*
X144906673Y-125501144D01*
X144926066Y-125511978D01*
X144926446Y-125512190D01*
X145052351Y-125556675D01*
X145151229Y-125591611D01*
X145386190Y-125631899D01*
X145386198Y-125631899D01*
X145386200Y-125631900D01*
X145386201Y-125631900D01*
X145564902Y-125631900D01*
X145742936Y-125616747D01*
X145742939Y-125616746D01*
X145742941Y-125616746D01*
X145973649Y-125556675D01*
X146106373Y-125496679D01*
X146190880Y-125458480D01*
X146190881Y-125458478D01*
X146190886Y-125458477D01*
X146388403Y-125324979D01*
X146560518Y-125160021D01*
X146702279Y-124968347D01*
X146809607Y-124755474D01*
X146879416Y-124527523D01*
X146909698Y-124291054D01*
X146904630Y-124171746D01*
X156101102Y-124171746D01*
X156111219Y-124409928D01*
X156111219Y-124409932D01*
X156161445Y-124642980D01*
X156247120Y-124856188D01*
X156250336Y-124864190D01*
X156375331Y-125067195D01*
X156532836Y-125246155D01*
X156718320Y-125395923D01*
X156906673Y-125501144D01*
X156926066Y-125511978D01*
X156926446Y-125512190D01*
X157052351Y-125556675D01*
X157151229Y-125591611D01*
X157386190Y-125631899D01*
X157386198Y-125631899D01*
X157386200Y-125631900D01*
X157386201Y-125631900D01*
X157564902Y-125631900D01*
X157742936Y-125616747D01*
X157742939Y-125616746D01*
X157742941Y-125616746D01*
X157973649Y-125556675D01*
X158106373Y-125496679D01*
X158190880Y-125458480D01*
X158190881Y-125458478D01*
X158190886Y-125458477D01*
X158388403Y-125324979D01*
X158560518Y-125160021D01*
X158702279Y-124968347D01*
X158809607Y-124755474D01*
X158879416Y-124527523D01*
X158909698Y-124291054D01*
X158904630Y-124171746D01*
X159722102Y-124171746D01*
X159732219Y-124409928D01*
X159732219Y-124409932D01*
X159782445Y-124642980D01*
X159868120Y-124856188D01*
X159871336Y-124864190D01*
X159996331Y-125067195D01*
X160153836Y-125246155D01*
X160339320Y-125395923D01*
X160527673Y-125501144D01*
X160547066Y-125511978D01*
X160547446Y-125512190D01*
X160673351Y-125556675D01*
X160772229Y-125591611D01*
X161007190Y-125631899D01*
X161007198Y-125631899D01*
X161007200Y-125631900D01*
X161007201Y-125631900D01*
X161185902Y-125631900D01*
X161363936Y-125616747D01*
X161363939Y-125616746D01*
X161363941Y-125616746D01*
X161594649Y-125556675D01*
X161727373Y-125496679D01*
X161811880Y-125458480D01*
X161811881Y-125458478D01*
X161811886Y-125458477D01*
X162009403Y-125324979D01*
X162181518Y-125160021D01*
X162323279Y-124968347D01*
X162430607Y-124755474D01*
X162500416Y-124527523D01*
X162530698Y-124291054D01*
X162525630Y-124171746D01*
X171722102Y-124171746D01*
X171732219Y-124409928D01*
X171732219Y-124409932D01*
X171782445Y-124642980D01*
X171868120Y-124856188D01*
X171871336Y-124864190D01*
X171996331Y-125067195D01*
X172153836Y-125246155D01*
X172339320Y-125395923D01*
X172527673Y-125501144D01*
X172547066Y-125511978D01*
X172547446Y-125512190D01*
X172673351Y-125556675D01*
X172772229Y-125591611D01*
X173007190Y-125631899D01*
X173007198Y-125631899D01*
X173007200Y-125631900D01*
X173007201Y-125631900D01*
X173185902Y-125631900D01*
X173363936Y-125616747D01*
X173363939Y-125616746D01*
X173363941Y-125616746D01*
X173594649Y-125556675D01*
X173727373Y-125496679D01*
X173811880Y-125458480D01*
X173811881Y-125458478D01*
X173811886Y-125458477D01*
X174009403Y-125324979D01*
X174181518Y-125160021D01*
X174323279Y-124968347D01*
X174430607Y-124755474D01*
X174500416Y-124527523D01*
X174530698Y-124291054D01*
X174525290Y-124163746D01*
X175374102Y-124163746D01*
X175384219Y-124401928D01*
X175384219Y-124401932D01*
X175434445Y-124634980D01*
X175493653Y-124782323D01*
X175523336Y-124856190D01*
X175648331Y-125059195D01*
X175805836Y-125238155D01*
X175991320Y-125387923D01*
X176199446Y-125504190D01*
X176325351Y-125548675D01*
X176424229Y-125583611D01*
X176659190Y-125623899D01*
X176659198Y-125623899D01*
X176659200Y-125623900D01*
X176659201Y-125623900D01*
X176837902Y-125623900D01*
X177015936Y-125608747D01*
X177015939Y-125608746D01*
X177015941Y-125608746D01*
X177246649Y-125548675D01*
X177379373Y-125488679D01*
X177463880Y-125450480D01*
X177463881Y-125450478D01*
X177463886Y-125450477D01*
X177607834Y-125353184D01*
X177661393Y-125316986D01*
X177661394Y-125316984D01*
X177661403Y-125316979D01*
X177833518Y-125152021D01*
X177975279Y-124960347D01*
X178082607Y-124747474D01*
X178152416Y-124519523D01*
X178182698Y-124283054D01*
X178177630Y-124163746D01*
X187374102Y-124163746D01*
X187384219Y-124401928D01*
X187384219Y-124401932D01*
X187434445Y-124634980D01*
X187493653Y-124782323D01*
X187523336Y-124856190D01*
X187648331Y-125059195D01*
X187805836Y-125238155D01*
X187991320Y-125387923D01*
X188199446Y-125504190D01*
X188325351Y-125548675D01*
X188424229Y-125583611D01*
X188659190Y-125623899D01*
X188659198Y-125623899D01*
X188659200Y-125623900D01*
X188659201Y-125623900D01*
X188837902Y-125623900D01*
X189015936Y-125608747D01*
X189015939Y-125608746D01*
X189015941Y-125608746D01*
X189246649Y-125548675D01*
X189379373Y-125488679D01*
X189463880Y-125450480D01*
X189463881Y-125450478D01*
X189463886Y-125450477D01*
X189607834Y-125353184D01*
X189661393Y-125316986D01*
X189661394Y-125316984D01*
X189661403Y-125316979D01*
X189833518Y-125152021D01*
X189975279Y-124960347D01*
X190082607Y-124747474D01*
X190152416Y-124519523D01*
X190182698Y-124283054D01*
X190175109Y-124104401D01*
X193268918Y-124104401D01*
X193288822Y-124382699D01*
X193345444Y-124642981D01*
X193348129Y-124655323D01*
X193385483Y-124755473D01*
X193445631Y-124916738D01*
X193445633Y-124916742D01*
X193579340Y-125161607D01*
X193579345Y-125161615D01*
X193746538Y-125384960D01*
X193746554Y-125384978D01*
X193943821Y-125582245D01*
X193943839Y-125582261D01*
X194167184Y-125749454D01*
X194167192Y-125749459D01*
X194412057Y-125883166D01*
X194412061Y-125883168D01*
X194412063Y-125883169D01*
X194673477Y-125980671D01*
X194809063Y-126010166D01*
X194946100Y-126039977D01*
X194946102Y-126039977D01*
X194946106Y-126039978D01*
X195193414Y-126057665D01*
X195224399Y-126059882D01*
X195224400Y-126059882D01*
X195224401Y-126059882D01*
X195252281Y-126057887D01*
X195502694Y-126039978D01*
X195775323Y-125980671D01*
X196036737Y-125883169D01*
X196281613Y-125749456D01*
X196504968Y-125582255D01*
X196702255Y-125384968D01*
X196869456Y-125161613D01*
X197003169Y-124916737D01*
X197100671Y-124655323D01*
X197159978Y-124382694D01*
X197179882Y-124104400D01*
X197159978Y-123826106D01*
X197158610Y-123819819D01*
X197100672Y-123553483D01*
X197100671Y-123553477D01*
X197003169Y-123292063D01*
X196961987Y-123216645D01*
X196869459Y-123047192D01*
X196869454Y-123047184D01*
X196702261Y-122823839D01*
X196702245Y-122823821D01*
X196504978Y-122626554D01*
X196504960Y-122626538D01*
X196281615Y-122459345D01*
X196281607Y-122459340D01*
X196036742Y-122325633D01*
X196036738Y-122325631D01*
X195937630Y-122288666D01*
X195775323Y-122228129D01*
X195775319Y-122228128D01*
X195775316Y-122228127D01*
X195502699Y-122168822D01*
X195224401Y-122148918D01*
X195224399Y-122148918D01*
X194946100Y-122168822D01*
X194673483Y-122228127D01*
X194673478Y-122228128D01*
X194673477Y-122228129D01*
X194666343Y-122230790D01*
X194412061Y-122325631D01*
X194412057Y-122325633D01*
X194167192Y-122459340D01*
X194167184Y-122459345D01*
X193943839Y-122626538D01*
X193943821Y-122626554D01*
X193746554Y-122823821D01*
X193746538Y-122823839D01*
X193579345Y-123047184D01*
X193579340Y-123047192D01*
X193445633Y-123292057D01*
X193445631Y-123292061D01*
X193348127Y-123553483D01*
X193288822Y-123826100D01*
X193268918Y-124104398D01*
X193268918Y-124104401D01*
X190175109Y-124104401D01*
X190172580Y-124044868D01*
X190152802Y-123953100D01*
X190122354Y-123811819D01*
X190036679Y-123598611D01*
X190033464Y-123590610D01*
X189908469Y-123387605D01*
X189750964Y-123208645D01*
X189565480Y-123058877D01*
X189451530Y-122995220D01*
X189357355Y-122942610D01*
X189132570Y-122863188D01*
X188897609Y-122822900D01*
X188897600Y-122822900D01*
X188718903Y-122822900D01*
X188718898Y-122822900D01*
X188540863Y-122838052D01*
X188310151Y-122898124D01*
X188092919Y-122996319D01*
X188092911Y-122996324D01*
X187895406Y-123129813D01*
X187895397Y-123129821D01*
X187723281Y-123294779D01*
X187581523Y-123486450D01*
X187581520Y-123486454D01*
X187474196Y-123699320D01*
X187474193Y-123699326D01*
X187404383Y-123927278D01*
X187374102Y-124163746D01*
X178177630Y-124163746D01*
X178172580Y-124044868D01*
X178152802Y-123953100D01*
X178122354Y-123811819D01*
X178036679Y-123598611D01*
X178033464Y-123590610D01*
X177908469Y-123387605D01*
X177750964Y-123208645D01*
X177565480Y-123058877D01*
X177451530Y-122995220D01*
X177357355Y-122942610D01*
X177132570Y-122863188D01*
X176897609Y-122822900D01*
X176897600Y-122822900D01*
X176718903Y-122822900D01*
X176718898Y-122822900D01*
X176540863Y-122838052D01*
X176310151Y-122898124D01*
X176092919Y-122996319D01*
X176092911Y-122996324D01*
X175895406Y-123129813D01*
X175895397Y-123129821D01*
X175723281Y-123294779D01*
X175581523Y-123486450D01*
X175581520Y-123486454D01*
X175474196Y-123699320D01*
X175474193Y-123699326D01*
X175404383Y-123927278D01*
X175374102Y-124163746D01*
X174525290Y-124163746D01*
X174520580Y-124052868D01*
X174470354Y-123819819D01*
X174381464Y-123598610D01*
X174256469Y-123395605D01*
X174098964Y-123216645D01*
X173913480Y-123066877D01*
X173787185Y-122996324D01*
X173705355Y-122950610D01*
X173480570Y-122871188D01*
X173245609Y-122830900D01*
X173245600Y-122830900D01*
X173066903Y-122830900D01*
X173066898Y-122830900D01*
X172888863Y-122846052D01*
X172658151Y-122906124D01*
X172440919Y-123004319D01*
X172440911Y-123004324D01*
X172243406Y-123137813D01*
X172243397Y-123137821D01*
X172071281Y-123302779D01*
X171929523Y-123494450D01*
X171929520Y-123494454D01*
X171822196Y-123707320D01*
X171822193Y-123707326D01*
X171752383Y-123935278D01*
X171722102Y-124171746D01*
X162525630Y-124171746D01*
X162520580Y-124052868D01*
X162470354Y-123819819D01*
X162381464Y-123598610D01*
X162256469Y-123395605D01*
X162098964Y-123216645D01*
X161913480Y-123066877D01*
X161787185Y-122996324D01*
X161705355Y-122950610D01*
X161480570Y-122871188D01*
X161245609Y-122830900D01*
X161245600Y-122830900D01*
X161066903Y-122830900D01*
X161066898Y-122830900D01*
X160888863Y-122846052D01*
X160658151Y-122906124D01*
X160440919Y-123004319D01*
X160440911Y-123004324D01*
X160243406Y-123137813D01*
X160243397Y-123137821D01*
X160071281Y-123302779D01*
X159929523Y-123494450D01*
X159929520Y-123494454D01*
X159822196Y-123707320D01*
X159822193Y-123707326D01*
X159752383Y-123935278D01*
X159722102Y-124171746D01*
X158904630Y-124171746D01*
X158899580Y-124052868D01*
X158849354Y-123819819D01*
X158760464Y-123598610D01*
X158635469Y-123395605D01*
X158477964Y-123216645D01*
X158292480Y-123066877D01*
X158166185Y-122996324D01*
X158084355Y-122950610D01*
X157859570Y-122871188D01*
X157624609Y-122830900D01*
X157624600Y-122830900D01*
X157445903Y-122830900D01*
X157445898Y-122830900D01*
X157267863Y-122846052D01*
X157037151Y-122906124D01*
X156819919Y-123004319D01*
X156819911Y-123004324D01*
X156622406Y-123137813D01*
X156622397Y-123137821D01*
X156450281Y-123302779D01*
X156308523Y-123494450D01*
X156308520Y-123494454D01*
X156201196Y-123707320D01*
X156201193Y-123707326D01*
X156131383Y-123935278D01*
X156101102Y-124171746D01*
X146904630Y-124171746D01*
X146899580Y-124052868D01*
X146849354Y-123819819D01*
X146760464Y-123598610D01*
X146635469Y-123395605D01*
X146477964Y-123216645D01*
X146292480Y-123066877D01*
X146166185Y-122996324D01*
X146084355Y-122950610D01*
X145859570Y-122871188D01*
X145624609Y-122830900D01*
X145624600Y-122830900D01*
X145445903Y-122830900D01*
X145445898Y-122830900D01*
X145267863Y-122846052D01*
X145037151Y-122906124D01*
X144819919Y-123004319D01*
X144819911Y-123004324D01*
X144622406Y-123137813D01*
X144622397Y-123137821D01*
X144450281Y-123302779D01*
X144308523Y-123494450D01*
X144308520Y-123494454D01*
X144201196Y-123707320D01*
X144201193Y-123707326D01*
X144131383Y-123935278D01*
X144101102Y-124171746D01*
X142184615Y-124171746D01*
X142168978Y-123953106D01*
X142163359Y-123927278D01*
X142138243Y-123811819D01*
X142109671Y-123680477D01*
X142012169Y-123419063D01*
X141994990Y-123387603D01*
X141878459Y-123174192D01*
X141878454Y-123174184D01*
X141711261Y-122950839D01*
X141711245Y-122950821D01*
X141513978Y-122753554D01*
X141513960Y-122753538D01*
X141290615Y-122586345D01*
X141290607Y-122586340D01*
X141045742Y-122452633D01*
X141045738Y-122452631D01*
X140946630Y-122415666D01*
X140784323Y-122355129D01*
X140784319Y-122355128D01*
X140784316Y-122355127D01*
X140511699Y-122295822D01*
X140233401Y-122275918D01*
X140233399Y-122275918D01*
X139955100Y-122295822D01*
X139682483Y-122355127D01*
X139682478Y-122355128D01*
X139682477Y-122355129D01*
X139619275Y-122378701D01*
X139421061Y-122452631D01*
X139421057Y-122452633D01*
X139176192Y-122586340D01*
X139176184Y-122586345D01*
X138952839Y-122753538D01*
X138952821Y-122753554D01*
X138755554Y-122950821D01*
X138755538Y-122950839D01*
X138588345Y-123174184D01*
X138588340Y-123174192D01*
X138454633Y-123419057D01*
X138454631Y-123419061D01*
X138357127Y-123680483D01*
X138297822Y-123953100D01*
X138277918Y-124231398D01*
X138277918Y-124231401D01*
X137827321Y-124231401D01*
X137833588Y-121931399D01*
X150030253Y-121931399D01*
X150048797Y-122119689D01*
X150065274Y-122174007D01*
X150103720Y-122300746D01*
X150188635Y-122459610D01*
X150192912Y-122467610D01*
X150312937Y-122613862D01*
X150449441Y-122725887D01*
X150459193Y-122733890D01*
X150626054Y-122823080D01*
X150807109Y-122878002D01*
X150995400Y-122896547D01*
X151183691Y-122878002D01*
X151364746Y-122823080D01*
X151531607Y-122733890D01*
X151677862Y-122613862D01*
X151797890Y-122467607D01*
X151887080Y-122300746D01*
X151896739Y-122268901D01*
X151935036Y-122210464D01*
X151998848Y-122182007D01*
X152067915Y-122192566D01*
X152120309Y-122238790D01*
X152134061Y-122268903D01*
X152143720Y-122300747D01*
X152194929Y-122396551D01*
X152228635Y-122459610D01*
X152232912Y-122467610D01*
X152352937Y-122613862D01*
X152489441Y-122725887D01*
X152499193Y-122733890D01*
X152666054Y-122823080D01*
X152847109Y-122878002D01*
X153035400Y-122896547D01*
X153223691Y-122878002D01*
X153404746Y-122823080D01*
X153571607Y-122733890D01*
X153717862Y-122613862D01*
X153837890Y-122467607D01*
X153927080Y-122300746D01*
X153982002Y-122119691D01*
X154000547Y-121931400D01*
X165651253Y-121931400D01*
X165669797Y-122119689D01*
X165686274Y-122174007D01*
X165724720Y-122300746D01*
X165809635Y-122459610D01*
X165813912Y-122467610D01*
X165933937Y-122613862D01*
X166070441Y-122725887D01*
X166080193Y-122733890D01*
X166247054Y-122823080D01*
X166428109Y-122878002D01*
X166616400Y-122896547D01*
X166804691Y-122878002D01*
X166985746Y-122823080D01*
X167152607Y-122733890D01*
X167298862Y-122613862D01*
X167418890Y-122467607D01*
X167508080Y-122300746D01*
X167517739Y-122268901D01*
X167556036Y-122210464D01*
X167619848Y-122182007D01*
X167688915Y-122192566D01*
X167741309Y-122238790D01*
X167755061Y-122268903D01*
X167764720Y-122300747D01*
X167815929Y-122396551D01*
X167849635Y-122459610D01*
X167853912Y-122467610D01*
X167973937Y-122613862D01*
X168110441Y-122725887D01*
X168120193Y-122733890D01*
X168287054Y-122823080D01*
X168468109Y-122878002D01*
X168656400Y-122896547D01*
X168844691Y-122878002D01*
X169025746Y-122823080D01*
X169192607Y-122733890D01*
X169338862Y-122613862D01*
X169458890Y-122467607D01*
X169548080Y-122300746D01*
X169603002Y-122119691D01*
X169621547Y-121931400D01*
X169620759Y-121923399D01*
X181303253Y-121923399D01*
X181321797Y-122111689D01*
X181339128Y-122168822D01*
X181376720Y-122292746D01*
X181465769Y-122459344D01*
X181465912Y-122459610D01*
X181585937Y-122605862D01*
X181732189Y-122725887D01*
X181732193Y-122725890D01*
X181899054Y-122815080D01*
X182080109Y-122870002D01*
X182268400Y-122888547D01*
X182456691Y-122870002D01*
X182637746Y-122815080D01*
X182804607Y-122725890D01*
X182950862Y-122605862D01*
X183070890Y-122459607D01*
X183160080Y-122292746D01*
X183169739Y-122260901D01*
X183208036Y-122202464D01*
X183271848Y-122174007D01*
X183340915Y-122184566D01*
X183393309Y-122230790D01*
X183407059Y-122260900D01*
X183411615Y-122275918D01*
X183416720Y-122292747D01*
X183450064Y-122355127D01*
X183505769Y-122459344D01*
X183505912Y-122459610D01*
X183625937Y-122605862D01*
X183772189Y-122725887D01*
X183772193Y-122725890D01*
X183939054Y-122815080D01*
X184120109Y-122870002D01*
X184308400Y-122888547D01*
X184496691Y-122870002D01*
X184677746Y-122815080D01*
X184844607Y-122725890D01*
X184990862Y-122605862D01*
X185110890Y-122459607D01*
X185200080Y-122292746D01*
X185255002Y-122111691D01*
X185273547Y-121923400D01*
X185255002Y-121735109D01*
X185200080Y-121554054D01*
X185110890Y-121387193D01*
X185110887Y-121387189D01*
X184990862Y-121240937D01*
X184844610Y-121120912D01*
X184844608Y-121120911D01*
X184844607Y-121120910D01*
X184677746Y-121031720D01*
X184587218Y-121004258D01*
X184496689Y-120976797D01*
X184308400Y-120958253D01*
X184120110Y-120976797D01*
X183939051Y-121031721D01*
X183772189Y-121120912D01*
X183625937Y-121240937D01*
X183505912Y-121387189D01*
X183416721Y-121554051D01*
X183407061Y-121585897D01*
X183368763Y-121644336D01*
X183304951Y-121672792D01*
X183235884Y-121662232D01*
X183183490Y-121616008D01*
X183169739Y-121585897D01*
X183160080Y-121554054D01*
X183070890Y-121387193D01*
X183070887Y-121387189D01*
X182950862Y-121240937D01*
X182804610Y-121120912D01*
X182804608Y-121120911D01*
X182804607Y-121120910D01*
X182637746Y-121031720D01*
X182547218Y-121004258D01*
X182456689Y-120976797D01*
X182268400Y-120958253D01*
X182080110Y-120976797D01*
X181899051Y-121031721D01*
X181732189Y-121120912D01*
X181585937Y-121240937D01*
X181465912Y-121387189D01*
X181376721Y-121554051D01*
X181321797Y-121735110D01*
X181303253Y-121923399D01*
X169620759Y-121923399D01*
X169603002Y-121743109D01*
X169548080Y-121562054D01*
X169458890Y-121395193D01*
X169452325Y-121387193D01*
X169338862Y-121248937D01*
X169192610Y-121128912D01*
X169192608Y-121128911D01*
X169192607Y-121128910D01*
X169025746Y-121039720D01*
X168935218Y-121012258D01*
X168844689Y-120984797D01*
X168676969Y-120968278D01*
X168656400Y-120966253D01*
X168656399Y-120966253D01*
X168468110Y-120984797D01*
X168287051Y-121039721D01*
X168120189Y-121128912D01*
X167973937Y-121248937D01*
X167853912Y-121395189D01*
X167764721Y-121562051D01*
X167764720Y-121562053D01*
X167764720Y-121562054D01*
X167757488Y-121585897D01*
X167755061Y-121593897D01*
X167716763Y-121652336D01*
X167652951Y-121680792D01*
X167583884Y-121670232D01*
X167531490Y-121624008D01*
X167517739Y-121593897D01*
X167508080Y-121562054D01*
X167418890Y-121395193D01*
X167412325Y-121387193D01*
X167298862Y-121248937D01*
X167152610Y-121128912D01*
X167152608Y-121128911D01*
X167152607Y-121128910D01*
X166985746Y-121039720D01*
X166895218Y-121012258D01*
X166804689Y-120984797D01*
X166616400Y-120966253D01*
X166428110Y-120984797D01*
X166247051Y-121039721D01*
X166080189Y-121128912D01*
X165933937Y-121248937D01*
X165813912Y-121395189D01*
X165724721Y-121562051D01*
X165669797Y-121743110D01*
X165651253Y-121931400D01*
X154000547Y-121931400D01*
X153982002Y-121743109D01*
X153927080Y-121562054D01*
X153837890Y-121395193D01*
X153831325Y-121387193D01*
X153717862Y-121248937D01*
X153571610Y-121128912D01*
X153571608Y-121128911D01*
X153571607Y-121128910D01*
X153404746Y-121039720D01*
X153314218Y-121012259D01*
X153223689Y-120984797D01*
X153035400Y-120966253D01*
X152847110Y-120984797D01*
X152666051Y-121039721D01*
X152499189Y-121128912D01*
X152352937Y-121248937D01*
X152232912Y-121395189D01*
X152143721Y-121562051D01*
X152143720Y-121562053D01*
X152143720Y-121562054D01*
X152136488Y-121585897D01*
X152134061Y-121593897D01*
X152095763Y-121652336D01*
X152031951Y-121680792D01*
X151962884Y-121670232D01*
X151910490Y-121624008D01*
X151896739Y-121593897D01*
X151887080Y-121562054D01*
X151797890Y-121395193D01*
X151791325Y-121387193D01*
X151677862Y-121248937D01*
X151531610Y-121128912D01*
X151531608Y-121128911D01*
X151531607Y-121128910D01*
X151364746Y-121039720D01*
X151274218Y-121012259D01*
X151183689Y-120984797D01*
X150995400Y-120966253D01*
X150807110Y-120984797D01*
X150626051Y-121039721D01*
X150459189Y-121128912D01*
X150312937Y-121248937D01*
X150192912Y-121395189D01*
X150103721Y-121562051D01*
X150048797Y-121743110D01*
X150030253Y-121931399D01*
X137833588Y-121931399D01*
X137874903Y-106768716D01*
X138840300Y-106768716D01*
X138880841Y-106985591D01*
X138908918Y-107058065D01*
X138960542Y-107191324D01*
X138960543Y-107191326D01*
X139061114Y-107353753D01*
X139076691Y-107378910D01*
X139225329Y-107541959D01*
X139401398Y-107674920D01*
X139502632Y-107725328D01*
X139598888Y-107773259D01*
X139598892Y-107773260D01*
X139598899Y-107773264D01*
X139811109Y-107833643D01*
X139975761Y-107848900D01*
X139975765Y-107848900D01*
X142065835Y-107848900D01*
X142065839Y-107848900D01*
X142230491Y-107833643D01*
X142442701Y-107773264D01*
X142640202Y-107674920D01*
X142816271Y-107541959D01*
X142964909Y-107378910D01*
X143081057Y-107191325D01*
X143160759Y-106985591D01*
X143201300Y-106768716D01*
X143201300Y-106548084D01*
X143160759Y-106331209D01*
X143081057Y-106125475D01*
X142964909Y-105937890D01*
X142816271Y-105774841D01*
X142640202Y-105641880D01*
X142640201Y-105641879D01*
X142442711Y-105543540D01*
X142442696Y-105543534D01*
X142230492Y-105483157D01*
X142230490Y-105483156D01*
X142113589Y-105472324D01*
X142065839Y-105467900D01*
X139975761Y-105467900D01*
X139931239Y-105472025D01*
X139811109Y-105483156D01*
X139811107Y-105483157D01*
X139598903Y-105543534D01*
X139598888Y-105543540D01*
X139401397Y-105641880D01*
X139225330Y-105774840D01*
X139225329Y-105774841D01*
X139076691Y-105937890D01*
X139076689Y-105937892D01*
X139076688Y-105937894D01*
X138960543Y-106125473D01*
X138960542Y-106125475D01*
X138904403Y-106270388D01*
X138880841Y-106331209D01*
X138840300Y-106548084D01*
X138840300Y-106768716D01*
X137874903Y-106768716D01*
X137893478Y-99951746D01*
X138688102Y-99951746D01*
X138698219Y-100189928D01*
X138698219Y-100189932D01*
X138748445Y-100422980D01*
X138837335Y-100644188D01*
X138837336Y-100644190D01*
X138962331Y-100847195D01*
X139119836Y-101026155D01*
X139305320Y-101175923D01*
X139513446Y-101292190D01*
X139639351Y-101336675D01*
X139738229Y-101371611D01*
X139973190Y-101411899D01*
X139973198Y-101411899D01*
X139973200Y-101411900D01*
X139973201Y-101411900D01*
X140151902Y-101411900D01*
X140329936Y-101396747D01*
X140329939Y-101396746D01*
X140329941Y-101396746D01*
X140560649Y-101336675D01*
X140693373Y-101276679D01*
X140777880Y-101238480D01*
X140777881Y-101238478D01*
X140777886Y-101238477D01*
X140975403Y-101104979D01*
X141147518Y-100940021D01*
X141289279Y-100748347D01*
X141396607Y-100535474D01*
X141466416Y-100307523D01*
X141496698Y-100071054D01*
X141486580Y-99832868D01*
X141478005Y-99793082D01*
X141436354Y-99599819D01*
X141404907Y-99521562D01*
X141347464Y-99378610D01*
X141222469Y-99175605D01*
X141064964Y-98996645D01*
X140879480Y-98846877D01*
X140765530Y-98783220D01*
X140671355Y-98730610D01*
X140446570Y-98651188D01*
X140211609Y-98610900D01*
X140211600Y-98610900D01*
X140032903Y-98610900D01*
X140032898Y-98610900D01*
X139854863Y-98626052D01*
X139624151Y-98686124D01*
X139406919Y-98784319D01*
X139406911Y-98784324D01*
X139209406Y-98917813D01*
X139209397Y-98917821D01*
X139037281Y-99082779D01*
X138895523Y-99274450D01*
X138895520Y-99274454D01*
X138788196Y-99487320D01*
X138788193Y-99487326D01*
X138718383Y-99715278D01*
X138688102Y-99951746D01*
X137893478Y-99951746D01*
X137905495Y-95541399D01*
X141427253Y-95541399D01*
X141445797Y-95729689D01*
X141461559Y-95781649D01*
X141500720Y-95910746D01*
X141579901Y-96058882D01*
X141589912Y-96077610D01*
X141709937Y-96223862D01*
X141856189Y-96343887D01*
X141856193Y-96343890D01*
X142023054Y-96433080D01*
X142204109Y-96488002D01*
X142392400Y-96506547D01*
X142580691Y-96488002D01*
X142761746Y-96433080D01*
X142928607Y-96343890D01*
X143074862Y-96223862D01*
X143194890Y-96077607D01*
X143284080Y-95910746D01*
X143339002Y-95729691D01*
X143357547Y-95541400D01*
X143339002Y-95353109D01*
X143284080Y-95172054D01*
X143194890Y-95005193D01*
X143148871Y-94949118D01*
X143074862Y-94858937D01*
X142928610Y-94738912D01*
X142928608Y-94738911D01*
X142928607Y-94738910D01*
X142761746Y-94649720D01*
X142671218Y-94622259D01*
X142580689Y-94594797D01*
X142392400Y-94576253D01*
X142204110Y-94594797D01*
X142023051Y-94649721D01*
X141856189Y-94738912D01*
X141709937Y-94858937D01*
X141589912Y-95005189D01*
X141500721Y-95172051D01*
X141445797Y-95353110D01*
X141427253Y-95541399D01*
X137905495Y-95541399D01*
X137908274Y-94521399D01*
X143967253Y-94521399D01*
X143985797Y-94709689D01*
X144013258Y-94800218D01*
X144033867Y-94868156D01*
X144040721Y-94890748D01*
X144129912Y-95057610D01*
X144249937Y-95203862D01*
X144396189Y-95323887D01*
X144396193Y-95323890D01*
X144477860Y-95367542D01*
X144527704Y-95416505D01*
X144543164Y-95484643D01*
X144519332Y-95550322D01*
X144463774Y-95592691D01*
X144419406Y-95600900D01*
X144152647Y-95600900D01*
X144094170Y-95612531D01*
X144094169Y-95612532D01*
X144027847Y-95656847D01*
X143983532Y-95723169D01*
X143983531Y-95723170D01*
X143971900Y-95781647D01*
X143971900Y-97341152D01*
X143983531Y-97399629D01*
X143983532Y-97399630D01*
X144027847Y-97465952D01*
X144094169Y-97510267D01*
X144094170Y-97510268D01*
X144152647Y-97521899D01*
X144152650Y-97521900D01*
X144152652Y-97521900D01*
X145712150Y-97521900D01*
X145712151Y-97521899D01*
X145726968Y-97518952D01*
X145770629Y-97510268D01*
X145770629Y-97510267D01*
X145770631Y-97510267D01*
X145836952Y-97465952D01*
X145881267Y-97399631D01*
X145881267Y-97399629D01*
X145881268Y-97399629D01*
X145892899Y-97341152D01*
X145892900Y-97341150D01*
X145892900Y-97135900D01*
X145912585Y-97068861D01*
X145965389Y-97023106D01*
X146016900Y-97011900D01*
X147516900Y-97011900D01*
X147583939Y-97031585D01*
X147629694Y-97084389D01*
X147640900Y-97135900D01*
X147640900Y-104501617D01*
X147640510Y-104508555D01*
X147639124Y-104520854D01*
X147636129Y-104547434D01*
X147647188Y-104605879D01*
X147656052Y-104664690D01*
X147658562Y-104672827D01*
X147661378Y-104680875D01*
X147689177Y-104733472D01*
X147714976Y-104787044D01*
X147719762Y-104794065D01*
X147724831Y-104800932D01*
X147724834Y-104800938D01*
X147724838Y-104800942D01*
X147766896Y-104843000D01*
X147807347Y-104886596D01*
X147814610Y-104892388D01*
X147814089Y-104893041D01*
X147826330Y-104902434D01*
X156653615Y-113729719D01*
X156687100Y-113791042D01*
X156682116Y-113860734D01*
X156653615Y-113905081D01*
X153757204Y-116801492D01*
X153752017Y-116806127D01*
X153721433Y-116830517D01*
X153721429Y-116830521D01*
X153687919Y-116879671D01*
X153652606Y-116927518D01*
X153648616Y-116935067D01*
X153644928Y-116942726D01*
X153627392Y-116999577D01*
X153607753Y-117055701D01*
X153606171Y-117064059D01*
X153604900Y-117072500D01*
X153604900Y-117131973D01*
X153602675Y-117191409D01*
X153603716Y-117200643D01*
X153602885Y-117200736D01*
X153604900Y-117216035D01*
X153604900Y-118306900D01*
X153585215Y-118373939D01*
X153532411Y-118419694D01*
X153480900Y-118430900D01*
X153275647Y-118430900D01*
X153217170Y-118442531D01*
X153217169Y-118442532D01*
X153150847Y-118486847D01*
X153106532Y-118553169D01*
X153106531Y-118553170D01*
X153094900Y-118611647D01*
X153094900Y-118878405D01*
X153075215Y-118945444D01*
X153022411Y-118991199D01*
X152953253Y-119001143D01*
X152889697Y-118972118D01*
X152861542Y-118936859D01*
X152830297Y-118878405D01*
X152817890Y-118855193D01*
X152811325Y-118847193D01*
X152697862Y-118708937D01*
X152551610Y-118588912D01*
X152551608Y-118588911D01*
X152551607Y-118588910D01*
X152384746Y-118499720D01*
X152294218Y-118472258D01*
X152203689Y-118444797D01*
X152015400Y-118426253D01*
X151827110Y-118444797D01*
X151646051Y-118499721D01*
X151479189Y-118588912D01*
X151332937Y-118708937D01*
X151212912Y-118855189D01*
X151123721Y-119022051D01*
X151068797Y-119203110D01*
X151050253Y-119391400D01*
X151068797Y-119579689D01*
X151068798Y-119579691D01*
X151123720Y-119760746D01*
X151208635Y-119919610D01*
X151212912Y-119927610D01*
X151332937Y-120073862D01*
X151469441Y-120185887D01*
X151479193Y-120193890D01*
X151646054Y-120283080D01*
X151827109Y-120338002D01*
X152015400Y-120356547D01*
X152203691Y-120338002D01*
X152384746Y-120283080D01*
X152551607Y-120193890D01*
X152697862Y-120073862D01*
X152817890Y-119927607D01*
X152861542Y-119845939D01*
X152910505Y-119796096D01*
X152978643Y-119780636D01*
X153044322Y-119804468D01*
X153086691Y-119860026D01*
X153094900Y-119904394D01*
X153094900Y-120171152D01*
X153106531Y-120229629D01*
X153106532Y-120229630D01*
X153150847Y-120295952D01*
X153217169Y-120340267D01*
X153217170Y-120340268D01*
X153275647Y-120351899D01*
X153275650Y-120351900D01*
X153275652Y-120351900D01*
X154835150Y-120351900D01*
X154835151Y-120351899D01*
X154852010Y-120348546D01*
X154893629Y-120340268D01*
X154893629Y-120340267D01*
X154893631Y-120340267D01*
X154959952Y-120295952D01*
X155004267Y-120229631D01*
X155004267Y-120229629D01*
X155004268Y-120229629D01*
X155015899Y-120171152D01*
X155015900Y-120171150D01*
X155015900Y-118611649D01*
X155015899Y-118611647D01*
X155004268Y-118553170D01*
X155004267Y-118553169D01*
X154959952Y-118486847D01*
X154893630Y-118442532D01*
X154893629Y-118442531D01*
X154835152Y-118430900D01*
X154835148Y-118430900D01*
X154629900Y-118430900D01*
X154562861Y-118411215D01*
X154517106Y-118358411D01*
X154505900Y-118306900D01*
X154505900Y-117378364D01*
X154525585Y-117311325D01*
X154542214Y-117290688D01*
X157528684Y-114304218D01*
X157590007Y-114270734D01*
X157616365Y-114267900D01*
X162991617Y-114267900D01*
X162998555Y-114268289D01*
X163030450Y-114271883D01*
X163037434Y-114272670D01*
X163037434Y-114272669D01*
X163037435Y-114272670D01*
X163095879Y-114261611D01*
X163154687Y-114252748D01*
X163154690Y-114252746D01*
X163162847Y-114250230D01*
X163170869Y-114247423D01*
X163170872Y-114247423D01*
X163223472Y-114219622D01*
X163277042Y-114193825D01*
X163277042Y-114193824D01*
X163277044Y-114193824D01*
X163284095Y-114189016D01*
X163290938Y-114183966D01*
X163332999Y-114141904D01*
X163332998Y-114141903D01*
X163376594Y-114101455D01*
X163376596Y-114101450D01*
X163382387Y-114094190D01*
X163383043Y-114094713D01*
X163392432Y-114082470D01*
X164159684Y-113315219D01*
X164221007Y-113281734D01*
X164247365Y-113278900D01*
X165575066Y-113278900D01*
X165642105Y-113298585D01*
X165650552Y-113304524D01*
X165711557Y-113351335D01*
X165711558Y-113351335D01*
X165711559Y-113351336D01*
X165857638Y-113411844D01*
X165936019Y-113422162D01*
X166014399Y-113432482D01*
X166014400Y-113432482D01*
X166014401Y-113432482D01*
X166066654Y-113425602D01*
X166171162Y-113411844D01*
X166317241Y-113351336D01*
X166378247Y-113304524D01*
X166443417Y-113279330D01*
X166453734Y-113278900D01*
X167835434Y-113278900D01*
X167902473Y-113298585D01*
X167923115Y-113315219D01*
X169189581Y-114581685D01*
X169223066Y-114643008D01*
X169225900Y-114669366D01*
X169225900Y-118306900D01*
X169206215Y-118373939D01*
X169153411Y-118419694D01*
X169101900Y-118430900D01*
X168896647Y-118430900D01*
X168838170Y-118442531D01*
X168838169Y-118442532D01*
X168771847Y-118486847D01*
X168727532Y-118553169D01*
X168727531Y-118553170D01*
X168715900Y-118611647D01*
X168715900Y-118878405D01*
X168696215Y-118945444D01*
X168643411Y-118991199D01*
X168574253Y-119001143D01*
X168510697Y-118972118D01*
X168482542Y-118936859D01*
X168451297Y-118878405D01*
X168438890Y-118855193D01*
X168432325Y-118847193D01*
X168318862Y-118708937D01*
X168172610Y-118588912D01*
X168172608Y-118588911D01*
X168172607Y-118588910D01*
X168005746Y-118499720D01*
X167915218Y-118472258D01*
X167824689Y-118444797D01*
X167656969Y-118428278D01*
X167636400Y-118426253D01*
X167636399Y-118426253D01*
X167448110Y-118444797D01*
X167267051Y-118499721D01*
X167100189Y-118588912D01*
X166953937Y-118708937D01*
X166833912Y-118855189D01*
X166744721Y-119022051D01*
X166689797Y-119203110D01*
X166671253Y-119391399D01*
X166689797Y-119579689D01*
X166689798Y-119579691D01*
X166744720Y-119760746D01*
X166829635Y-119919610D01*
X166833912Y-119927610D01*
X166953937Y-120073862D01*
X167090441Y-120185887D01*
X167100193Y-120193890D01*
X167267054Y-120283080D01*
X167448109Y-120338002D01*
X167636400Y-120356547D01*
X167824691Y-120338002D01*
X168005746Y-120283080D01*
X168172607Y-120193890D01*
X168318862Y-120073862D01*
X168438890Y-119927607D01*
X168482542Y-119845939D01*
X168531505Y-119796096D01*
X168599643Y-119780636D01*
X168665322Y-119804468D01*
X168707691Y-119860026D01*
X168715900Y-119904394D01*
X168715900Y-120171152D01*
X168727531Y-120229629D01*
X168727532Y-120229630D01*
X168771847Y-120295952D01*
X168838169Y-120340267D01*
X168838170Y-120340268D01*
X168896647Y-120351899D01*
X168896650Y-120351900D01*
X168896652Y-120351900D01*
X170456150Y-120351900D01*
X170456151Y-120351899D01*
X170473010Y-120348546D01*
X170514629Y-120340268D01*
X170514629Y-120340267D01*
X170514631Y-120340267D01*
X170580952Y-120295952D01*
X170625267Y-120229631D01*
X170625267Y-120229629D01*
X170625268Y-120229629D01*
X170636899Y-120171152D01*
X170636900Y-120171150D01*
X170636900Y-118611649D01*
X170636899Y-118611647D01*
X170625268Y-118553170D01*
X170625267Y-118553169D01*
X170580952Y-118486847D01*
X170514630Y-118442532D01*
X170514629Y-118442531D01*
X170456152Y-118430900D01*
X170456148Y-118430900D01*
X170250900Y-118430900D01*
X170183861Y-118411215D01*
X170138106Y-118358411D01*
X170126900Y-118306900D01*
X170126900Y-114460182D01*
X170127289Y-114453243D01*
X170131670Y-114414365D01*
X170120611Y-114355920D01*
X170111748Y-114297113D01*
X170111747Y-114297111D01*
X170109236Y-114288971D01*
X170106424Y-114280933D01*
X170106423Y-114280928D01*
X170078626Y-114228336D01*
X170052825Y-114174758D01*
X170052822Y-114174755D01*
X170052821Y-114174752D01*
X170048042Y-114167742D01*
X170042968Y-114160869D01*
X170042965Y-114160862D01*
X170000916Y-114118813D01*
X169960455Y-114075206D01*
X169953192Y-114069414D01*
X169953712Y-114068761D01*
X169941467Y-114059364D01*
X169345684Y-113463581D01*
X169312199Y-113402258D01*
X169317183Y-113332566D01*
X169359055Y-113276633D01*
X169424519Y-113252216D01*
X169433365Y-113251900D01*
X183048434Y-113251900D01*
X183115473Y-113271585D01*
X183136115Y-113288219D01*
X184841581Y-114993684D01*
X184875066Y-115055007D01*
X184877900Y-115081365D01*
X184877900Y-118298900D01*
X184858215Y-118365939D01*
X184805411Y-118411694D01*
X184753900Y-118422900D01*
X184548647Y-118422900D01*
X184490170Y-118434531D01*
X184490169Y-118434532D01*
X184423847Y-118478847D01*
X184379532Y-118545169D01*
X184379531Y-118545170D01*
X184367900Y-118603647D01*
X184367900Y-118870405D01*
X184348215Y-118937444D01*
X184295411Y-118983199D01*
X184226253Y-118993143D01*
X184162697Y-118964118D01*
X184134542Y-118928859D01*
X184103297Y-118870405D01*
X184090890Y-118847193D01*
X184090887Y-118847189D01*
X183970862Y-118700937D01*
X183824610Y-118580912D01*
X183824608Y-118580911D01*
X183824607Y-118580910D01*
X183657746Y-118491720D01*
X183567218Y-118464258D01*
X183476689Y-118436797D01*
X183288400Y-118418253D01*
X183100110Y-118436797D01*
X182919051Y-118491721D01*
X182752189Y-118580912D01*
X182605937Y-118700937D01*
X182485912Y-118847189D01*
X182396721Y-119014051D01*
X182341797Y-119195110D01*
X182323253Y-119383400D01*
X182341797Y-119571689D01*
X182369259Y-119662218D01*
X182396720Y-119752746D01*
X182477778Y-119904394D01*
X182485912Y-119919610D01*
X182605937Y-120065862D01*
X182752189Y-120185887D01*
X182752193Y-120185890D01*
X182919054Y-120275080D01*
X183100109Y-120330002D01*
X183288400Y-120348547D01*
X183476691Y-120330002D01*
X183657746Y-120275080D01*
X183824607Y-120185890D01*
X183970862Y-120065862D01*
X184090890Y-119919607D01*
X184134542Y-119837939D01*
X184183505Y-119788096D01*
X184251643Y-119772636D01*
X184317322Y-119796468D01*
X184359691Y-119852026D01*
X184367900Y-119896394D01*
X184367900Y-120163152D01*
X184379531Y-120221629D01*
X184379532Y-120221630D01*
X184423847Y-120287952D01*
X184490169Y-120332267D01*
X184490170Y-120332268D01*
X184548647Y-120343899D01*
X184548650Y-120343900D01*
X184548652Y-120343900D01*
X186108150Y-120343900D01*
X186108151Y-120343899D01*
X186122968Y-120340952D01*
X186166629Y-120332268D01*
X186166629Y-120332267D01*
X186166631Y-120332267D01*
X186232952Y-120287952D01*
X186277267Y-120221631D01*
X186277267Y-120221629D01*
X186277268Y-120221629D01*
X186288899Y-120163152D01*
X186288900Y-120163150D01*
X186288900Y-118603649D01*
X186288899Y-118603647D01*
X186277268Y-118545170D01*
X186277267Y-118545169D01*
X186232952Y-118478847D01*
X186166630Y-118434532D01*
X186166629Y-118434531D01*
X186108152Y-118422900D01*
X186108148Y-118422900D01*
X185902900Y-118422900D01*
X185835861Y-118403215D01*
X185790106Y-118350411D01*
X185778900Y-118298900D01*
X185778900Y-114872182D01*
X185779289Y-114865243D01*
X185783670Y-114826365D01*
X185772611Y-114767920D01*
X185763748Y-114709113D01*
X185763747Y-114709111D01*
X185761233Y-114700961D01*
X185758421Y-114692923D01*
X185732039Y-114643008D01*
X185730622Y-114640327D01*
X185704825Y-114586758D01*
X185704823Y-114586756D01*
X185700024Y-114579716D01*
X185694967Y-114572865D01*
X185694966Y-114572862D01*
X185652904Y-114530800D01*
X185612455Y-114487206D01*
X185612454Y-114487205D01*
X185612453Y-114487204D01*
X185605190Y-114481412D01*
X185605710Y-114480759D01*
X185593470Y-114471366D01*
X183625308Y-112503205D01*
X183620671Y-112498017D01*
X183596278Y-112467429D01*
X183547128Y-112433919D01*
X183499282Y-112398607D01*
X183491697Y-112394598D01*
X183484077Y-112390929D01*
X183459561Y-112383367D01*
X183427222Y-112373392D01*
X183406242Y-112366051D01*
X183371095Y-112353752D01*
X183362726Y-112352168D01*
X183354304Y-112350900D01*
X183354302Y-112350900D01*
X183294826Y-112350900D01*
X183235390Y-112348675D01*
X183226156Y-112349716D01*
X183226062Y-112348886D01*
X183210764Y-112350900D01*
X168066632Y-112350900D01*
X167966113Y-112366051D01*
X167957234Y-112368791D01*
X167956963Y-112367912D01*
X167913209Y-112377900D01*
X166457904Y-112377900D01*
X166390865Y-112358215D01*
X166382429Y-112352284D01*
X166317241Y-112302264D01*
X166171162Y-112241756D01*
X166171160Y-112241755D01*
X166014401Y-112221118D01*
X166014399Y-112221118D01*
X165857639Y-112241755D01*
X165857637Y-112241756D01*
X165711560Y-112302263D01*
X165711558Y-112302264D01*
X165711559Y-112302264D01*
X165646380Y-112352276D01*
X165581213Y-112377470D01*
X165570896Y-112377900D01*
X164038183Y-112377900D01*
X164031244Y-112377510D01*
X164016969Y-112375902D01*
X163992364Y-112373129D01*
X163941943Y-112382670D01*
X163933920Y-112384188D01*
X163921232Y-112386100D01*
X163875116Y-112393051D01*
X163866932Y-112395575D01*
X163858928Y-112398376D01*
X163806336Y-112426173D01*
X163752757Y-112451974D01*
X163745738Y-112456759D01*
X163738861Y-112461835D01*
X163696813Y-112503883D01*
X163653203Y-112544347D01*
X163647413Y-112551608D01*
X163646762Y-112551088D01*
X163637367Y-112563328D01*
X162870116Y-113330581D01*
X162808793Y-113364066D01*
X162782435Y-113366900D01*
X157616365Y-113366900D01*
X157549326Y-113347215D01*
X157528684Y-113330581D01*
X156364503Y-112166400D01*
X160262830Y-112166400D01*
X160283056Y-112358839D01*
X160283057Y-112358841D01*
X160342847Y-112542856D01*
X160342850Y-112542863D01*
X160439597Y-112710435D01*
X160569067Y-112854228D01*
X160569074Y-112854234D01*
X160725610Y-112967964D01*
X160725611Y-112967964D01*
X160725615Y-112967967D01*
X160869777Y-113032152D01*
X160902378Y-113046667D01*
X160902383Y-113046669D01*
X161091652Y-113086900D01*
X161285148Y-113086900D01*
X161474417Y-113046669D01*
X161651185Y-112967967D01*
X161807727Y-112854233D01*
X161937202Y-112710436D01*
X162033950Y-112542863D01*
X162093744Y-112358837D01*
X162113970Y-112166400D01*
X162093744Y-111973963D01*
X162033950Y-111789937D01*
X161937202Y-111622364D01*
X161937202Y-111622363D01*
X161807732Y-111478571D01*
X161807725Y-111478565D01*
X161651189Y-111364835D01*
X161651186Y-111364833D01*
X161651185Y-111364833D01*
X161586998Y-111336255D01*
X161474421Y-111286132D01*
X161474416Y-111286130D01*
X161285148Y-111245900D01*
X161091652Y-111245900D01*
X160902383Y-111286130D01*
X160902378Y-111286132D01*
X160725615Y-111364833D01*
X160725610Y-111364835D01*
X160569074Y-111478565D01*
X160569067Y-111478571D01*
X160439597Y-111622364D01*
X160342850Y-111789936D01*
X160342847Y-111789943D01*
X160283057Y-111973958D01*
X160283056Y-111973960D01*
X160262830Y-112166400D01*
X156364503Y-112166400D01*
X153824502Y-109626399D01*
X160262830Y-109626399D01*
X160283056Y-109818839D01*
X160283057Y-109818841D01*
X160342847Y-110002856D01*
X160342850Y-110002863D01*
X160439597Y-110170435D01*
X160569067Y-110314228D01*
X160569074Y-110314234D01*
X160725610Y-110427964D01*
X160725611Y-110427964D01*
X160725615Y-110427967D01*
X160869777Y-110492152D01*
X160902378Y-110506667D01*
X160902383Y-110506669D01*
X161091652Y-110546900D01*
X161285148Y-110546900D01*
X161474417Y-110506669D01*
X161651185Y-110427967D01*
X161807727Y-110314233D01*
X161937202Y-110170436D01*
X162033950Y-110002863D01*
X162093744Y-109818837D01*
X162113970Y-109626400D01*
X162093744Y-109433963D01*
X162033950Y-109249937D01*
X161937202Y-109082364D01*
X161937201Y-109082363D01*
X161807732Y-108938571D01*
X161807725Y-108938565D01*
X161651189Y-108824835D01*
X161651186Y-108824833D01*
X161651185Y-108824833D01*
X161586998Y-108796255D01*
X161474421Y-108746132D01*
X161474416Y-108746130D01*
X161285148Y-108705900D01*
X161091652Y-108705900D01*
X160902383Y-108746130D01*
X160902378Y-108746132D01*
X160725615Y-108824833D01*
X160725610Y-108824835D01*
X160569074Y-108938565D01*
X160569067Y-108938571D01*
X160439597Y-109082364D01*
X160342850Y-109249936D01*
X160342847Y-109249943D01*
X160283057Y-109433958D01*
X160283056Y-109433960D01*
X160262830Y-109626399D01*
X153824502Y-109626399D01*
X150251620Y-106053516D01*
X191265900Y-106053516D01*
X191306441Y-106270391D01*
X191330003Y-106331211D01*
X191386142Y-106476124D01*
X191386143Y-106476126D01*
X191430698Y-106548084D01*
X191502291Y-106663710D01*
X191650929Y-106826759D01*
X191826998Y-106959720D01*
X191878948Y-106985588D01*
X192024488Y-107058059D01*
X192024492Y-107058060D01*
X192024499Y-107058064D01*
X192236709Y-107118443D01*
X192401361Y-107133700D01*
X192401365Y-107133700D01*
X194491435Y-107133700D01*
X194491439Y-107133700D01*
X194656091Y-107118443D01*
X194868301Y-107058064D01*
X195065802Y-106959720D01*
X195241871Y-106826759D01*
X195390509Y-106663710D01*
X195506657Y-106476125D01*
X195586359Y-106270391D01*
X195626900Y-106053516D01*
X195626900Y-105832884D01*
X195586359Y-105616009D01*
X195506657Y-105410275D01*
X195390509Y-105222690D01*
X195241871Y-105059641D01*
X195065802Y-104926680D01*
X195017110Y-104902434D01*
X194868311Y-104828340D01*
X194868296Y-104828334D01*
X194656092Y-104767957D01*
X194656090Y-104767956D01*
X194539189Y-104757124D01*
X194491439Y-104752700D01*
X192401361Y-104752700D01*
X192356839Y-104756825D01*
X192236709Y-104767956D01*
X192236707Y-104767957D01*
X192024503Y-104828334D01*
X192024488Y-104828340D01*
X191826997Y-104926680D01*
X191650930Y-105059640D01*
X191650929Y-105059641D01*
X191502291Y-105222690D01*
X191502289Y-105222692D01*
X191502288Y-105222694D01*
X191386143Y-105410273D01*
X191386142Y-105410275D01*
X191357908Y-105483157D01*
X191306441Y-105616009D01*
X191265900Y-105832884D01*
X191265900Y-106053516D01*
X150251620Y-106053516D01*
X148578219Y-104380115D01*
X148544734Y-104318792D01*
X148541900Y-104292434D01*
X148541900Y-97434401D01*
X157128318Y-97434401D01*
X157148955Y-97591160D01*
X157148956Y-97591162D01*
X157208459Y-97734816D01*
X157209464Y-97737241D01*
X157305718Y-97862682D01*
X157431159Y-97958936D01*
X157577238Y-98019444D01*
X157653166Y-98029440D01*
X157733999Y-98040082D01*
X157734000Y-98040082D01*
X157734001Y-98040082D01*
X157786254Y-98033202D01*
X157890762Y-98019444D01*
X158036841Y-97958936D01*
X158162282Y-97862682D01*
X158164490Y-97859804D01*
X158165559Y-97858412D01*
X158221987Y-97817210D01*
X158263933Y-97809900D01*
X163843540Y-97809900D01*
X164181901Y-97809900D01*
X164248940Y-97829585D01*
X164269581Y-97846219D01*
X164688182Y-98264819D01*
X164721666Y-98326140D01*
X164724500Y-98352498D01*
X164724500Y-103889467D01*
X164704815Y-103956506D01*
X164675988Y-103987841D01*
X164671721Y-103991115D01*
X164671719Y-103991116D01*
X164671718Y-103991118D01*
X164599527Y-104085198D01*
X164575463Y-104116560D01*
X164514956Y-104262637D01*
X164514955Y-104262639D01*
X164494318Y-104419398D01*
X164494318Y-104419401D01*
X164514955Y-104576160D01*
X164514956Y-104576162D01*
X164558329Y-104680875D01*
X164575464Y-104722241D01*
X164671718Y-104847682D01*
X164797159Y-104943936D01*
X164943238Y-105004444D01*
X165021619Y-105014763D01*
X165099999Y-105025082D01*
X165100000Y-105025082D01*
X165100001Y-105025082D01*
X165152253Y-105018202D01*
X165256762Y-105004444D01*
X165402841Y-104943936D01*
X165528282Y-104847682D01*
X165624536Y-104722241D01*
X165685044Y-104576162D01*
X165705682Y-104419400D01*
X165685044Y-104262638D01*
X165624536Y-104116559D01*
X165528282Y-103991118D01*
X165527774Y-103990728D01*
X165524012Y-103987841D01*
X165482810Y-103931413D01*
X165475500Y-103889467D01*
X165475500Y-101952952D01*
X191265900Y-101952952D01*
X191277531Y-102011429D01*
X191277532Y-102011430D01*
X191321847Y-102077752D01*
X191388169Y-102122067D01*
X191388170Y-102122068D01*
X191446647Y-102133699D01*
X191446650Y-102133700D01*
X191446652Y-102133700D01*
X195446150Y-102133700D01*
X195446151Y-102133699D01*
X195460968Y-102130752D01*
X195504629Y-102122068D01*
X195504629Y-102122067D01*
X195504631Y-102122067D01*
X195570952Y-102077752D01*
X195615267Y-102011431D01*
X195615267Y-102011429D01*
X195615268Y-102011429D01*
X195626899Y-101952952D01*
X195626900Y-101952950D01*
X195626900Y-99933449D01*
X195626899Y-99933447D01*
X195615268Y-99874970D01*
X195615267Y-99874969D01*
X195570952Y-99808647D01*
X195504630Y-99764332D01*
X195504629Y-99764331D01*
X195446152Y-99752700D01*
X195446148Y-99752700D01*
X191446652Y-99752700D01*
X191446647Y-99752700D01*
X191388170Y-99764331D01*
X191388169Y-99764332D01*
X191321847Y-99808647D01*
X191277532Y-99874969D01*
X191277531Y-99874970D01*
X191265900Y-99933447D01*
X191265900Y-101952952D01*
X165475500Y-101952952D01*
X165475500Y-99364801D01*
X173333518Y-99364801D01*
X173354155Y-99521560D01*
X173354156Y-99521562D01*
X173414664Y-99667641D01*
X173510918Y-99793082D01*
X173636359Y-99889336D01*
X173782438Y-99949844D01*
X173860819Y-99960163D01*
X173939199Y-99970482D01*
X173939200Y-99970482D01*
X173939201Y-99970482D01*
X173991454Y-99963602D01*
X174095962Y-99949844D01*
X174242041Y-99889336D01*
X174367482Y-99793082D01*
X174463736Y-99667641D01*
X174524244Y-99521562D01*
X174544882Y-99364800D01*
X174524244Y-99208038D01*
X174463736Y-99061959D01*
X174367482Y-98936518D01*
X174367480Y-98936517D01*
X174367480Y-98936516D01*
X174242038Y-98840261D01*
X174236691Y-98837174D01*
X174188480Y-98786603D01*
X174174700Y-98729792D01*
X174174700Y-90624552D01*
X191265900Y-90624552D01*
X191277531Y-90683029D01*
X191277532Y-90683030D01*
X191321847Y-90749352D01*
X191388169Y-90793667D01*
X191388170Y-90793668D01*
X191446647Y-90805299D01*
X191446650Y-90805300D01*
X191446652Y-90805300D01*
X195446150Y-90805300D01*
X195446151Y-90805299D01*
X195460968Y-90802352D01*
X195504629Y-90793668D01*
X195504629Y-90793667D01*
X195504631Y-90793667D01*
X195570952Y-90749352D01*
X195615267Y-90683031D01*
X195615267Y-90683029D01*
X195615268Y-90683029D01*
X195626899Y-90624552D01*
X195626900Y-90624550D01*
X195626900Y-88605049D01*
X195626899Y-88605047D01*
X195615268Y-88546570D01*
X195615267Y-88546569D01*
X195570952Y-88480247D01*
X195504630Y-88435932D01*
X195504629Y-88435931D01*
X195446152Y-88424300D01*
X195446148Y-88424300D01*
X191446652Y-88424300D01*
X191446647Y-88424300D01*
X191388170Y-88435931D01*
X191388169Y-88435932D01*
X191321847Y-88480247D01*
X191277532Y-88546569D01*
X191277531Y-88546570D01*
X191265900Y-88605047D01*
X191265900Y-90624552D01*
X174174700Y-90624552D01*
X174174700Y-67707698D01*
X174194385Y-67640659D01*
X174211019Y-67620017D01*
X175991888Y-65839148D01*
X177965913Y-63865122D01*
X178027234Y-63831639D01*
X178096926Y-63836623D01*
X178152859Y-63878495D01*
X178177276Y-63943959D01*
X178170875Y-63993064D01*
X178161099Y-64021541D01*
X178159807Y-64029284D01*
X178158832Y-64037111D01*
X178161099Y-64091956D01*
X178161099Y-68830298D01*
X178141414Y-68897337D01*
X178124780Y-68917979D01*
X178058643Y-68984116D01*
X177997320Y-69017601D01*
X177954779Y-69019375D01*
X177927000Y-69015718D01*
X177926998Y-69015718D01*
X177926997Y-69015718D01*
X177770239Y-69036355D01*
X177770237Y-69036356D01*
X177624160Y-69096863D01*
X177498718Y-69193118D01*
X177402463Y-69318560D01*
X177341956Y-69464637D01*
X177341955Y-69464639D01*
X177321318Y-69621398D01*
X177321318Y-69621401D01*
X177341955Y-69778160D01*
X177341956Y-69778162D01*
X177402464Y-69924241D01*
X177498718Y-70049682D01*
X177624159Y-70145936D01*
X177770238Y-70206444D01*
X177848618Y-70216763D01*
X177926999Y-70227082D01*
X177927000Y-70227082D01*
X177927001Y-70227082D01*
X177979254Y-70220202D01*
X178083762Y-70206444D01*
X178229841Y-70145936D01*
X178355282Y-70049682D01*
X178451536Y-69924241D01*
X178512044Y-69778162D01*
X178532682Y-69621400D01*
X178532682Y-69621398D01*
X178533743Y-69613342D01*
X178535597Y-69613586D01*
X178552367Y-69556477D01*
X178569001Y-69535835D01*
X178666816Y-69438020D01*
X178765489Y-69339346D01*
X178785346Y-69323222D01*
X178794436Y-69317284D01*
X178816251Y-69289254D01*
X178821319Y-69283516D01*
X178824120Y-69280717D01*
X178837688Y-69261713D01*
X178871409Y-69218389D01*
X178871410Y-69218383D01*
X178875143Y-69211487D01*
X178878606Y-69204403D01*
X178878610Y-69204399D01*
X178894273Y-69151787D01*
X178912100Y-69099860D01*
X178912100Y-69099855D01*
X178913395Y-69092095D01*
X178914369Y-69084286D01*
X178912100Y-69029431D01*
X178912100Y-64291099D01*
X178931785Y-64224060D01*
X178948419Y-64203418D01*
X181018018Y-62133819D01*
X181079341Y-62100334D01*
X181105699Y-62097500D01*
X182269396Y-62097500D01*
X182294841Y-62100139D01*
X182298640Y-62100935D01*
X182305468Y-62102367D01*
X182326425Y-62099754D01*
X182340692Y-62097977D01*
X182348368Y-62097500D01*
X182352312Y-62097500D01*
X182352314Y-62097500D01*
X182352316Y-62097499D01*
X182352322Y-62097499D01*
X182367687Y-62094934D01*
X182375340Y-62093657D01*
X182429826Y-62086866D01*
X182429827Y-62086865D01*
X182429829Y-62086865D01*
X182437341Y-62084628D01*
X182444806Y-62082066D01*
X182444806Y-62082065D01*
X182444810Y-62082065D01*
X182493077Y-62055944D01*
X182542411Y-62031826D01*
X182542413Y-62031823D01*
X182548794Y-62027268D01*
X182555019Y-62022422D01*
X182555026Y-62022419D01*
X182592208Y-61982028D01*
X183742501Y-60831734D01*
X183803822Y-60798251D01*
X183873514Y-60803235D01*
X183889192Y-60810359D01*
X183899532Y-60815954D01*
X183906600Y-60819410D01*
X183948003Y-60831736D01*
X183959205Y-60835071D01*
X184011140Y-60852900D01*
X184011142Y-60852900D01*
X184018879Y-60854191D01*
X184026709Y-60855167D01*
X184026711Y-60855168D01*
X184026712Y-60855167D01*
X184026713Y-60855168D01*
X184081555Y-60852900D01*
X186058467Y-60852900D01*
X186125506Y-60872585D01*
X186156841Y-60901412D01*
X186159728Y-60905174D01*
X186160118Y-60905682D01*
X186285559Y-61001936D01*
X186431638Y-61062444D01*
X186485971Y-61069597D01*
X186588399Y-61083082D01*
X186588400Y-61083082D01*
X186588401Y-61083082D01*
X186640654Y-61076202D01*
X186745162Y-61062444D01*
X186891241Y-61001936D01*
X187016682Y-60905682D01*
X187112936Y-60780241D01*
X187173444Y-60634162D01*
X187194082Y-60477400D01*
X187189406Y-60441885D01*
X187173444Y-60320639D01*
X187173444Y-60320638D01*
X187112936Y-60174559D01*
X187016682Y-60049118D01*
X186891241Y-59952864D01*
X186745162Y-59892356D01*
X186745160Y-59892355D01*
X186588401Y-59871718D01*
X186588399Y-59871718D01*
X186431639Y-59892355D01*
X186431637Y-59892356D01*
X186285560Y-59952863D01*
X186285558Y-59952864D01*
X186285559Y-59952864D01*
X186160118Y-60049118D01*
X186160116Y-60049119D01*
X186160115Y-60049121D01*
X186156841Y-60053388D01*
X186100413Y-60094590D01*
X186058467Y-60101900D01*
X184319300Y-60101900D01*
X184252261Y-60082215D01*
X184206506Y-60029411D01*
X184195300Y-59977900D01*
X184195300Y-59610332D01*
X184214985Y-59543293D01*
X184243815Y-59511955D01*
X184248082Y-59508682D01*
X184344336Y-59383241D01*
X184404844Y-59237162D01*
X184425482Y-59080400D01*
X184419155Y-59032345D01*
X184404844Y-58923639D01*
X184404844Y-58923638D01*
X184344336Y-58777559D01*
X184248082Y-58652118D01*
X184122641Y-58555864D01*
X183976562Y-58495356D01*
X183976560Y-58495355D01*
X183819801Y-58474718D01*
X183819799Y-58474718D01*
X183663036Y-58495356D01*
X183662855Y-58495405D01*
X183662695Y-58495401D01*
X183654980Y-58496417D01*
X183654821Y-58495213D01*
X183593005Y-58493738D01*
X183535145Y-58454571D01*
X183507645Y-58390341D01*
X183519236Y-58321440D01*
X183543085Y-58287950D01*
X183870889Y-57960146D01*
X183890746Y-57944022D01*
X183899836Y-57938084D01*
X183921638Y-57910071D01*
X183926733Y-57904303D01*
X183929519Y-57901518D01*
X183929528Y-57901506D01*
X183943086Y-57882516D01*
X183976807Y-57839192D01*
X183980547Y-57832278D01*
X183984006Y-57825203D01*
X183984010Y-57825199D01*
X183994433Y-57790189D01*
X183999672Y-57772593D01*
X184017500Y-57720661D01*
X184018791Y-57712924D01*
X184019768Y-57705086D01*
X184017500Y-57650244D01*
X184017500Y-44247804D01*
X184020139Y-44222359D01*
X184020785Y-44219275D01*
X184022367Y-44211732D01*
X184020498Y-44196740D01*
X184017977Y-44176506D01*
X184017500Y-44168830D01*
X184017500Y-44164889D01*
X184017498Y-44164876D01*
X184013657Y-44141859D01*
X184006866Y-44087376D01*
X184006866Y-44087374D01*
X184006864Y-44087370D01*
X184004622Y-44079840D01*
X184002065Y-44072392D01*
X184002065Y-44072390D01*
X183975944Y-44024122D01*
X183951826Y-43974789D01*
X183951824Y-43974787D01*
X183951824Y-43974786D01*
X183947276Y-43968416D01*
X183942420Y-43962176D01*
X183942419Y-43962174D01*
X183902029Y-43924992D01*
X183179789Y-43202752D01*
X191875500Y-43202752D01*
X191887131Y-43261229D01*
X191887132Y-43261230D01*
X191931447Y-43327552D01*
X191997769Y-43371867D01*
X191997770Y-43371868D01*
X192056247Y-43383499D01*
X192056250Y-43383500D01*
X192056252Y-43383500D01*
X196055750Y-43383500D01*
X196055751Y-43383499D01*
X196070568Y-43380552D01*
X196114229Y-43371868D01*
X196114229Y-43371867D01*
X196114231Y-43371867D01*
X196180552Y-43327552D01*
X196224867Y-43261231D01*
X196224867Y-43261229D01*
X196224868Y-43261229D01*
X196236499Y-43202752D01*
X196236500Y-43202750D01*
X196236500Y-41183249D01*
X196236499Y-41183247D01*
X196224868Y-41124770D01*
X196224867Y-41124769D01*
X196180552Y-41058447D01*
X196114230Y-41014132D01*
X196114229Y-41014131D01*
X196055752Y-41002500D01*
X196055748Y-41002500D01*
X192056252Y-41002500D01*
X192056247Y-41002500D01*
X191997770Y-41014131D01*
X191997769Y-41014132D01*
X191931447Y-41058447D01*
X191887132Y-41124769D01*
X191887131Y-41124770D01*
X191875500Y-41183247D01*
X191875500Y-43202752D01*
X183179789Y-43202752D01*
X182320349Y-42343311D01*
X182304222Y-42323452D01*
X182298286Y-42314367D01*
X182298283Y-42314363D01*
X182283323Y-42302719D01*
X182270272Y-42292561D01*
X182264510Y-42287472D01*
X182261715Y-42284677D01*
X182242705Y-42271106D01*
X182199389Y-42237390D01*
X182192474Y-42233648D01*
X182185400Y-42230190D01*
X182132796Y-42214529D01*
X182080858Y-42196699D01*
X182073123Y-42195408D01*
X182065285Y-42194431D01*
X182010444Y-42196700D01*
X179345933Y-42196700D01*
X179278894Y-42177015D01*
X179247559Y-42148188D01*
X179244284Y-42143921D01*
X179244282Y-42143918D01*
X179118841Y-42047664D01*
X179091140Y-42036190D01*
X178972762Y-41987156D01*
X178972760Y-41987155D01*
X178816001Y-41966518D01*
X178815999Y-41966518D01*
X178659239Y-41987155D01*
X178659237Y-41987156D01*
X178513160Y-42047663D01*
X178387718Y-42143918D01*
X178291463Y-42269360D01*
X178230956Y-42415437D01*
X178230955Y-42415439D01*
X178210318Y-42572198D01*
X178210318Y-42572201D01*
X178230955Y-42728960D01*
X178230956Y-42728962D01*
X178291464Y-42875041D01*
X178387718Y-43000482D01*
X178513159Y-43096736D01*
X178659238Y-43157244D01*
X178737619Y-43167563D01*
X178815999Y-43177882D01*
X178816000Y-43177882D01*
X178816001Y-43177882D01*
X178868254Y-43171002D01*
X178972762Y-43157244D01*
X179118841Y-43096736D01*
X179244282Y-43000482D01*
X179246490Y-42997604D01*
X179247559Y-42996212D01*
X179303987Y-42955010D01*
X179345933Y-42947700D01*
X181811301Y-42947700D01*
X181878340Y-42967385D01*
X181898982Y-42984019D01*
X183230181Y-44315218D01*
X183263666Y-44376541D01*
X183266500Y-44402899D01*
X183266500Y-57451099D01*
X183246815Y-57518138D01*
X183230181Y-57538780D01*
X173570308Y-67198652D01*
X173550454Y-67214776D01*
X173541365Y-67220714D01*
X173541364Y-67220715D01*
X173519563Y-67248723D01*
X173514486Y-67254474D01*
X173511684Y-67257277D01*
X173511674Y-67257288D01*
X173498105Y-67276295D01*
X173464392Y-67319608D01*
X173460647Y-67326529D01*
X173457188Y-67333604D01*
X173441529Y-67386203D01*
X173423700Y-67438138D01*
X173422406Y-67445892D01*
X173421431Y-67453711D01*
X173423700Y-67508555D01*
X173423700Y-99015479D01*
X173414261Y-99062932D01*
X173354156Y-99208037D01*
X173354155Y-99208039D01*
X173333518Y-99364798D01*
X173333518Y-99364801D01*
X165475500Y-99364801D01*
X165475500Y-98197403D01*
X165478139Y-98171958D01*
X165478177Y-98171775D01*
X165480367Y-98161332D01*
X165478325Y-98144953D01*
X165475977Y-98126107D01*
X165475500Y-98118431D01*
X165475500Y-98114489D01*
X165475498Y-98114476D01*
X165471657Y-98091459D01*
X165464866Y-98036976D01*
X165464866Y-98036974D01*
X165464864Y-98036970D01*
X165462622Y-98029440D01*
X165460065Y-98021993D01*
X165460065Y-98021990D01*
X165444331Y-97992915D01*
X165429737Y-97924586D01*
X165454402Y-97859215D01*
X165510493Y-97817555D01*
X165553387Y-97809900D01*
X167435796Y-97809900D01*
X167461241Y-97812539D01*
X167465040Y-97813335D01*
X167471868Y-97814767D01*
X167492825Y-97812154D01*
X167507092Y-97810377D01*
X167514768Y-97809900D01*
X167518712Y-97809900D01*
X167518714Y-97809900D01*
X167518716Y-97809899D01*
X167518722Y-97809899D01*
X167534087Y-97807334D01*
X167541740Y-97806057D01*
X167596226Y-97799266D01*
X167596227Y-97799265D01*
X167596229Y-97799265D01*
X167603741Y-97797028D01*
X167611206Y-97794466D01*
X167611206Y-97794465D01*
X167611210Y-97794465D01*
X167659477Y-97768344D01*
X167708811Y-97744226D01*
X167708813Y-97744223D01*
X167715194Y-97739668D01*
X167721419Y-97734822D01*
X167721426Y-97734819D01*
X167758608Y-97694428D01*
X170688292Y-94764744D01*
X170708141Y-94748625D01*
X170717236Y-94742684D01*
X170739044Y-94714662D01*
X170744121Y-94708916D01*
X170746920Y-94706118D01*
X170760494Y-94687104D01*
X170794209Y-94643789D01*
X170794209Y-94643787D01*
X170797947Y-94636880D01*
X170801403Y-94629807D01*
X170801410Y-94629799D01*
X170817070Y-94577196D01*
X170834900Y-94525260D01*
X170834900Y-94525255D01*
X170836190Y-94517524D01*
X170837168Y-94509685D01*
X170834900Y-94454844D01*
X170834900Y-53133332D01*
X170854585Y-53066293D01*
X170883415Y-53034955D01*
X170887682Y-53031682D01*
X170983936Y-52906241D01*
X171044444Y-52760162D01*
X171065082Y-52603400D01*
X171061589Y-52576871D01*
X171044444Y-52446639D01*
X171044444Y-52446638D01*
X170983936Y-52300559D01*
X170887682Y-52175118D01*
X170762241Y-52078864D01*
X170732616Y-52066593D01*
X170616162Y-52018356D01*
X170616160Y-52018355D01*
X170459401Y-51997718D01*
X170459399Y-51997718D01*
X170302639Y-52018355D01*
X170302637Y-52018356D01*
X170156560Y-52078863D01*
X170031118Y-52175118D01*
X169934863Y-52300560D01*
X169874356Y-52446637D01*
X169874355Y-52446639D01*
X169853718Y-52603398D01*
X169853718Y-52603401D01*
X169874355Y-52760160D01*
X169874356Y-52760162D01*
X169934864Y-52906242D01*
X170031115Y-53031679D01*
X170031116Y-53031680D01*
X170031118Y-53031682D01*
X170035382Y-53034954D01*
X170076587Y-53091378D01*
X170083900Y-53133332D01*
X170083900Y-94255700D01*
X170064215Y-94322739D01*
X170047581Y-94343381D01*
X167368381Y-97022581D01*
X167307058Y-97056066D01*
X167280700Y-97058900D01*
X164461573Y-97058900D01*
X164446237Y-97056663D01*
X164446083Y-97057903D01*
X164435885Y-97056631D01*
X164381044Y-97058900D01*
X158263933Y-97058900D01*
X158196894Y-97039215D01*
X158165559Y-97010388D01*
X158162284Y-97006121D01*
X158162282Y-97006118D01*
X158036841Y-96909864D01*
X157890762Y-96849356D01*
X157890760Y-96849355D01*
X157734001Y-96828718D01*
X157733999Y-96828718D01*
X157577239Y-96849355D01*
X157577237Y-96849356D01*
X157431160Y-96909863D01*
X157305718Y-97006118D01*
X157209463Y-97131560D01*
X157148956Y-97277637D01*
X157148955Y-97277639D01*
X157128318Y-97434398D01*
X157128318Y-97434401D01*
X148541900Y-97434401D01*
X148541900Y-96799366D01*
X148561585Y-96732327D01*
X148578219Y-96711685D01*
X149273685Y-96016219D01*
X149335008Y-95982734D01*
X149361366Y-95979900D01*
X154973479Y-95979900D01*
X155040518Y-95999585D01*
X155048965Y-96005524D01*
X155145157Y-96079335D01*
X155145158Y-96079335D01*
X155145159Y-96079336D01*
X155291238Y-96139844D01*
X155369619Y-96150163D01*
X155447999Y-96160482D01*
X155448000Y-96160482D01*
X155448001Y-96160482D01*
X155500253Y-96153602D01*
X155604762Y-96139844D01*
X155750841Y-96079336D01*
X155847034Y-96005524D01*
X155912204Y-95980330D01*
X155922521Y-95979900D01*
X159443718Y-95979900D01*
X159491170Y-95989338D01*
X159609238Y-96038244D01*
X159687619Y-96048563D01*
X159765999Y-96058882D01*
X159766000Y-96058882D01*
X159766001Y-96058882D01*
X159818254Y-96052002D01*
X159922762Y-96038244D01*
X160068841Y-95977736D01*
X160194282Y-95881482D01*
X160290536Y-95756041D01*
X160351044Y-95609962D01*
X160367292Y-95486547D01*
X160371682Y-95453201D01*
X160371682Y-95453198D01*
X160351044Y-95296439D01*
X160351044Y-95296438D01*
X160290536Y-95150359D01*
X160194282Y-95024918D01*
X160068841Y-94928664D01*
X159922762Y-94868156D01*
X159922760Y-94868155D01*
X159766001Y-94847518D01*
X159765999Y-94847518D01*
X159609239Y-94868155D01*
X159609237Y-94868156D01*
X159463160Y-94928663D01*
X159337716Y-95024919D01*
X159333520Y-95030389D01*
X159277091Y-95071590D01*
X159235146Y-95078900D01*
X155856317Y-95078900D01*
X155789278Y-95059215D01*
X155780841Y-95053284D01*
X155750841Y-95030264D01*
X155690314Y-95005193D01*
X155604762Y-94969756D01*
X155604760Y-94969755D01*
X155448001Y-94949118D01*
X155447999Y-94949118D01*
X155291239Y-94969755D01*
X155291237Y-94969756D01*
X155145160Y-95030263D01*
X155145158Y-95030264D01*
X155145159Y-95030264D01*
X155115168Y-95053276D01*
X155050001Y-95078470D01*
X155039683Y-95078900D01*
X149697900Y-95078900D01*
X149630861Y-95059215D01*
X149585106Y-95006411D01*
X149573900Y-94954900D01*
X149573900Y-87528401D01*
X152581718Y-87528401D01*
X152602355Y-87685160D01*
X152602356Y-87685162D01*
X152662864Y-87831241D01*
X152759118Y-87956682D01*
X152884559Y-88052936D01*
X153030638Y-88113444D01*
X153109018Y-88123763D01*
X153187399Y-88134082D01*
X153187400Y-88134082D01*
X153187401Y-88134082D01*
X153239653Y-88127202D01*
X153344162Y-88113444D01*
X153490241Y-88052936D01*
X153615682Y-87956682D01*
X153711936Y-87831241D01*
X153772444Y-87685162D01*
X153793082Y-87528400D01*
X153772444Y-87371638D01*
X153711936Y-87225559D01*
X153615682Y-87100118D01*
X153615174Y-87099728D01*
X153611412Y-87096841D01*
X153570210Y-87040413D01*
X153562900Y-86998467D01*
X153562900Y-83163299D01*
X153582585Y-83096260D01*
X153599219Y-83075618D01*
X155846618Y-80828219D01*
X155907941Y-80794734D01*
X155934299Y-80791900D01*
X159104596Y-80791900D01*
X159130041Y-80794539D01*
X159133840Y-80795335D01*
X159140668Y-80796767D01*
X159161625Y-80794154D01*
X159175892Y-80792377D01*
X159183568Y-80791900D01*
X159187512Y-80791900D01*
X159187514Y-80791900D01*
X159187516Y-80791899D01*
X159187522Y-80791899D01*
X159202887Y-80789334D01*
X159210540Y-80788057D01*
X159265026Y-80781266D01*
X159265027Y-80781265D01*
X159265029Y-80781265D01*
X159272541Y-80779028D01*
X159280006Y-80776466D01*
X159280006Y-80776465D01*
X159280010Y-80776465D01*
X159328277Y-80750344D01*
X159377611Y-80726226D01*
X159377613Y-80726223D01*
X159383994Y-80721668D01*
X159390219Y-80716822D01*
X159390226Y-80716819D01*
X159427408Y-80676428D01*
X161973435Y-78130401D01*
X163757718Y-78130401D01*
X163778355Y-78287160D01*
X163778356Y-78287162D01*
X163838864Y-78433241D01*
X163935118Y-78558682D01*
X164060559Y-78654936D01*
X164206638Y-78715444D01*
X164285018Y-78725763D01*
X164363399Y-78736082D01*
X164363400Y-78736082D01*
X164363401Y-78736082D01*
X164436517Y-78726456D01*
X164520162Y-78715444D01*
X164666241Y-78654936D01*
X164791682Y-78558682D01*
X164887936Y-78433241D01*
X164948444Y-78287162D01*
X164969082Y-78130400D01*
X164948444Y-77973638D01*
X164887936Y-77827559D01*
X164791682Y-77702118D01*
X164791174Y-77701728D01*
X164787412Y-77698841D01*
X164746210Y-77642413D01*
X164738900Y-77600467D01*
X164738900Y-49762298D01*
X164758585Y-49695259D01*
X164775214Y-49674622D01*
X165117617Y-49332219D01*
X165178941Y-49298734D01*
X165205299Y-49295900D01*
X165611467Y-49295900D01*
X165678506Y-49315585D01*
X165709841Y-49344412D01*
X165712728Y-49348174D01*
X165713118Y-49348682D01*
X165838559Y-49444936D01*
X165942153Y-49487846D01*
X165996556Y-49531685D01*
X166018621Y-49597979D01*
X166001342Y-49665679D01*
X165950205Y-49713290D01*
X165910887Y-49725345D01*
X165857638Y-49732356D01*
X165857637Y-49732356D01*
X165711560Y-49792863D01*
X165586118Y-49889118D01*
X165489863Y-50014560D01*
X165429356Y-50160637D01*
X165429355Y-50160639D01*
X165408718Y-50317398D01*
X165408718Y-50317401D01*
X165429355Y-50474160D01*
X165429356Y-50474162D01*
X165489864Y-50620241D01*
X165586118Y-50745682D01*
X165586121Y-50745684D01*
X165586124Y-50745688D01*
X165591869Y-50751434D01*
X165590020Y-50753282D01*
X165623579Y-50799217D01*
X165630900Y-50841194D01*
X165630900Y-77600467D01*
X165611215Y-77667506D01*
X165582388Y-77698841D01*
X165578121Y-77702115D01*
X165578119Y-77702116D01*
X165578118Y-77702118D01*
X165508955Y-77792253D01*
X165481863Y-77827560D01*
X165421356Y-77973637D01*
X165421355Y-77973639D01*
X165400718Y-78130398D01*
X165400718Y-78130401D01*
X165421355Y-78287160D01*
X165421356Y-78287162D01*
X165481864Y-78433241D01*
X165578118Y-78558682D01*
X165703559Y-78654936D01*
X165849638Y-78715444D01*
X165928019Y-78725763D01*
X166006399Y-78736082D01*
X166006400Y-78736082D01*
X166006401Y-78736082D01*
X166079517Y-78726456D01*
X166163162Y-78715444D01*
X166309241Y-78654936D01*
X166434682Y-78558682D01*
X166530936Y-78433241D01*
X166591444Y-78287162D01*
X166612082Y-78130401D01*
X166932718Y-78130401D01*
X166953355Y-78287160D01*
X166953356Y-78287162D01*
X167013864Y-78433241D01*
X167110118Y-78558682D01*
X167235559Y-78654936D01*
X167381638Y-78715444D01*
X167460019Y-78725763D01*
X167538399Y-78736082D01*
X167538400Y-78736082D01*
X167538401Y-78736082D01*
X167611517Y-78726456D01*
X167695162Y-78715444D01*
X167841241Y-78654936D01*
X167966682Y-78558682D01*
X168062936Y-78433241D01*
X168123444Y-78287162D01*
X168144082Y-78130400D01*
X168123444Y-77973638D01*
X168062936Y-77827559D01*
X167966682Y-77702118D01*
X167966174Y-77701728D01*
X167962412Y-77698841D01*
X167921210Y-77642413D01*
X167913900Y-77600467D01*
X167913900Y-51990332D01*
X167933585Y-51923293D01*
X167962415Y-51891955D01*
X167966682Y-51888682D01*
X168062936Y-51763241D01*
X168123444Y-51617162D01*
X168144082Y-51460400D01*
X168123444Y-51303638D01*
X168062936Y-51157559D01*
X167966682Y-51032118D01*
X167841241Y-50935864D01*
X167695162Y-50875356D01*
X167695160Y-50875355D01*
X167538401Y-50854718D01*
X167538399Y-50854718D01*
X167381639Y-50875355D01*
X167381637Y-50875356D01*
X167235560Y-50935863D01*
X167110118Y-51032118D01*
X167013863Y-51157560D01*
X166953356Y-51303637D01*
X166953355Y-51303639D01*
X166932718Y-51460398D01*
X166932718Y-51460401D01*
X166953355Y-51617160D01*
X166953356Y-51617162D01*
X167013864Y-51763242D01*
X167110115Y-51888679D01*
X167110116Y-51888680D01*
X167110118Y-51888682D01*
X167114382Y-51891954D01*
X167155587Y-51948378D01*
X167162900Y-51990332D01*
X167162900Y-77600467D01*
X167143215Y-77667506D01*
X167114388Y-77698841D01*
X167110121Y-77702115D01*
X167110119Y-77702116D01*
X167110118Y-77702118D01*
X167040955Y-77792253D01*
X167013863Y-77827560D01*
X166953356Y-77973637D01*
X166953355Y-77973639D01*
X166932718Y-78130398D01*
X166932718Y-78130401D01*
X166612082Y-78130401D01*
X166612082Y-78130400D01*
X166591444Y-77973638D01*
X166530936Y-77827559D01*
X166434682Y-77702118D01*
X166434174Y-77701728D01*
X166430412Y-77698841D01*
X166389210Y-77642413D01*
X166381900Y-77600467D01*
X166381900Y-50853471D01*
X166401585Y-50786432D01*
X166430418Y-50755092D01*
X166432777Y-50753282D01*
X166442682Y-50745682D01*
X166538936Y-50620241D01*
X166599444Y-50474162D01*
X166620082Y-50317400D01*
X166611770Y-50254267D01*
X166599444Y-50160639D01*
X166599444Y-50160638D01*
X166538936Y-50014559D01*
X166442682Y-49889118D01*
X166317241Y-49792864D01*
X166317240Y-49792863D01*
X166317238Y-49792862D01*
X166213647Y-49749954D01*
X166159243Y-49706113D01*
X166137178Y-49639819D01*
X166154457Y-49572120D01*
X166205594Y-49524509D01*
X166244912Y-49512454D01*
X166298162Y-49505444D01*
X166444241Y-49444936D01*
X166569682Y-49348682D01*
X166665936Y-49223241D01*
X166726444Y-49077162D01*
X166747082Y-48920400D01*
X166746563Y-48916460D01*
X166726444Y-48763639D01*
X166726444Y-48763638D01*
X166665936Y-48617559D01*
X166569682Y-48492118D01*
X166444241Y-48395864D01*
X166298162Y-48335356D01*
X166298160Y-48335355D01*
X166141401Y-48314718D01*
X166141399Y-48314718D01*
X165984639Y-48335355D01*
X165984637Y-48335356D01*
X165838560Y-48395863D01*
X165807198Y-48419927D01*
X165713118Y-48492118D01*
X165713116Y-48492119D01*
X165713115Y-48492121D01*
X165709841Y-48496388D01*
X165653413Y-48537590D01*
X165611467Y-48544900D01*
X165050203Y-48544900D01*
X165024758Y-48542261D01*
X165014132Y-48540033D01*
X165014129Y-48540033D01*
X164978907Y-48544423D01*
X164971231Y-48544900D01*
X164967286Y-48544900D01*
X164955771Y-48546821D01*
X164944256Y-48548742D01*
X164926096Y-48551006D01*
X164889775Y-48555534D01*
X164889771Y-48555535D01*
X164882242Y-48557777D01*
X164874783Y-48560337D01*
X164826518Y-48586458D01*
X164777191Y-48610572D01*
X164770781Y-48615148D01*
X164764575Y-48619979D01*
X164727392Y-48660370D01*
X164134508Y-49253252D01*
X164114654Y-49269376D01*
X164105565Y-49275314D01*
X164105564Y-49275315D01*
X164083763Y-49303323D01*
X164078686Y-49309074D01*
X164075884Y-49311877D01*
X164075874Y-49311888D01*
X164062305Y-49330895D01*
X164028592Y-49374208D01*
X164024847Y-49381129D01*
X164021388Y-49388204D01*
X164005729Y-49440803D01*
X163987900Y-49492738D01*
X163986606Y-49500492D01*
X163985631Y-49508311D01*
X163987900Y-49563155D01*
X163987900Y-77600467D01*
X163968215Y-77667506D01*
X163939388Y-77698841D01*
X163935121Y-77702115D01*
X163935119Y-77702116D01*
X163935118Y-77702118D01*
X163865955Y-77792253D01*
X163838863Y-77827560D01*
X163778356Y-77973637D01*
X163778355Y-77973639D01*
X163757718Y-78130398D01*
X163757718Y-78130401D01*
X161973435Y-78130401D01*
X163449292Y-76654544D01*
X163469141Y-76638425D01*
X163478236Y-76632484D01*
X163500044Y-76604462D01*
X163505121Y-76598716D01*
X163507920Y-76595918D01*
X163521494Y-76576904D01*
X163555209Y-76533589D01*
X163555209Y-76533587D01*
X163558947Y-76526680D01*
X163562403Y-76519607D01*
X163562410Y-76519599D01*
X163578070Y-76466996D01*
X163595900Y-76415060D01*
X163595900Y-76415055D01*
X163597190Y-76407324D01*
X163598168Y-76399485D01*
X163595900Y-76344644D01*
X163595900Y-66244203D01*
X163598539Y-66218758D01*
X163598577Y-66218575D01*
X163600767Y-66208132D01*
X163598725Y-66191753D01*
X163596377Y-66172907D01*
X163595900Y-66165231D01*
X163595900Y-66161289D01*
X163595898Y-66161276D01*
X163592057Y-66138259D01*
X163588966Y-66113458D01*
X163585266Y-66083774D01*
X163585264Y-66083770D01*
X163583022Y-66076240D01*
X163580465Y-66068792D01*
X163580465Y-66068790D01*
X163554344Y-66020522D01*
X163530226Y-65971189D01*
X163530224Y-65971187D01*
X163530224Y-65971186D01*
X163525676Y-65964816D01*
X163520820Y-65958576D01*
X163520819Y-65958574D01*
X163480429Y-65921392D01*
X162082635Y-64523597D01*
X162049152Y-64462277D01*
X162047380Y-64419730D01*
X162048082Y-64414400D01*
X162027444Y-64257638D01*
X161966936Y-64111559D01*
X161870682Y-63986118D01*
X161745241Y-63889864D01*
X161685513Y-63865124D01*
X161599162Y-63829356D01*
X161599160Y-63829355D01*
X161442401Y-63808718D01*
X161442399Y-63808718D01*
X161285639Y-63829355D01*
X161285637Y-63829356D01*
X161139560Y-63889863D01*
X161014118Y-63986118D01*
X160917863Y-64111560D01*
X160857356Y-64257637D01*
X160857355Y-64257639D01*
X160836718Y-64414398D01*
X160836718Y-64414401D01*
X160857355Y-64571160D01*
X160857356Y-64571162D01*
X160917864Y-64717241D01*
X161014118Y-64842682D01*
X161139559Y-64938936D01*
X161285638Y-64999444D01*
X161442400Y-65020082D01*
X161447727Y-65019380D01*
X161516760Y-65030141D01*
X161551600Y-65054637D01*
X162808581Y-66311618D01*
X162842066Y-66372941D01*
X162844900Y-66399299D01*
X162844900Y-76145499D01*
X162825215Y-76212538D01*
X162808581Y-76233180D01*
X159037181Y-80004581D01*
X158975858Y-80038066D01*
X158949500Y-80040900D01*
X155779204Y-80040900D01*
X155753757Y-80038261D01*
X155751113Y-80037706D01*
X155743129Y-80036032D01*
X155707909Y-80040423D01*
X155700232Y-80040900D01*
X155696286Y-80040900D01*
X155679006Y-80043783D01*
X155673246Y-80044744D01*
X155618768Y-80051535D01*
X155611244Y-80053775D01*
X155603792Y-80056334D01*
X155603790Y-80056334D01*
X155603790Y-80056335D01*
X155587928Y-80064919D01*
X155555519Y-80082457D01*
X155506190Y-80106572D01*
X155499798Y-80111135D01*
X155493574Y-80115980D01*
X155456403Y-80156358D01*
X152958508Y-82654252D01*
X152938654Y-82670376D01*
X152929565Y-82676314D01*
X152929564Y-82676315D01*
X152907763Y-82704323D01*
X152902686Y-82710074D01*
X152899884Y-82712877D01*
X152899874Y-82712888D01*
X152886305Y-82731895D01*
X152852592Y-82775208D01*
X152848847Y-82782129D01*
X152845388Y-82789204D01*
X152829729Y-82841803D01*
X152811900Y-82893738D01*
X152810606Y-82901492D01*
X152809631Y-82909311D01*
X152811900Y-82964155D01*
X152811900Y-86998467D01*
X152792215Y-87065506D01*
X152763388Y-87096841D01*
X152759121Y-87100115D01*
X152759119Y-87100116D01*
X152759118Y-87100118D01*
X152701195Y-87175605D01*
X152662863Y-87225560D01*
X152602356Y-87371637D01*
X152602355Y-87371639D01*
X152581718Y-87528398D01*
X152581718Y-87528401D01*
X149573900Y-87528401D01*
X149573900Y-81969182D01*
X149574289Y-81962243D01*
X149578670Y-81923365D01*
X149567611Y-81864920D01*
X149558748Y-81806113D01*
X149558747Y-81806111D01*
X149556236Y-81797971D01*
X149553424Y-81789933D01*
X149553423Y-81789928D01*
X149525626Y-81737336D01*
X149499825Y-81683758D01*
X149499822Y-81683755D01*
X149499821Y-81683752D01*
X149495042Y-81676742D01*
X149489968Y-81669869D01*
X149489965Y-81669862D01*
X149447916Y-81627813D01*
X149407455Y-81584206D01*
X149400192Y-81578414D01*
X149400712Y-81577761D01*
X149388467Y-81568364D01*
X148319308Y-80499205D01*
X148314671Y-80494017D01*
X148290278Y-80463429D01*
X148241128Y-80429919D01*
X148193282Y-80394607D01*
X148185697Y-80390598D01*
X148178077Y-80386929D01*
X148153561Y-80379367D01*
X148121222Y-80369392D01*
X148100554Y-80362160D01*
X148065095Y-80349752D01*
X148056726Y-80348168D01*
X148048304Y-80346900D01*
X148048302Y-80346900D01*
X147988826Y-80346900D01*
X147929390Y-80344675D01*
X147920156Y-80345716D01*
X147920062Y-80344886D01*
X147904764Y-80346900D01*
X146016900Y-80346900D01*
X145949861Y-80327215D01*
X145904106Y-80274411D01*
X145892900Y-80222900D01*
X145892900Y-80017649D01*
X145892899Y-80017647D01*
X145881268Y-79959170D01*
X145881267Y-79959169D01*
X145836952Y-79892847D01*
X145770630Y-79848532D01*
X145770629Y-79848531D01*
X145712152Y-79836900D01*
X145712148Y-79836900D01*
X145445394Y-79836900D01*
X145378355Y-79817215D01*
X145332600Y-79764411D01*
X145322656Y-79695253D01*
X145351681Y-79631697D01*
X145386938Y-79603543D01*
X145468607Y-79559890D01*
X145614862Y-79439862D01*
X145734890Y-79293607D01*
X145824080Y-79126746D01*
X145879002Y-78945691D01*
X145897547Y-78757400D01*
X145879002Y-78569109D01*
X145824080Y-78388054D01*
X145734890Y-78221193D01*
X145734887Y-78221189D01*
X145614862Y-78074937D01*
X145468610Y-77954912D01*
X145468608Y-77954911D01*
X145468607Y-77954910D01*
X145301746Y-77865720D01*
X145211218Y-77838259D01*
X145120689Y-77810797D01*
X144932400Y-77792253D01*
X144744110Y-77810797D01*
X144563051Y-77865721D01*
X144396189Y-77954912D01*
X144249937Y-78074937D01*
X144129912Y-78221189D01*
X144040721Y-78388051D01*
X143985797Y-78569110D01*
X143967253Y-78757399D01*
X143985797Y-78945689D01*
X144040721Y-79126748D01*
X144129912Y-79293610D01*
X144249937Y-79439862D01*
X144396189Y-79559887D01*
X144396193Y-79559890D01*
X144477860Y-79603542D01*
X144527704Y-79652505D01*
X144543164Y-79720643D01*
X144519332Y-79786322D01*
X144463774Y-79828691D01*
X144419406Y-79836900D01*
X144152647Y-79836900D01*
X144094170Y-79848531D01*
X144094169Y-79848532D01*
X144027847Y-79892847D01*
X143983532Y-79959169D01*
X143983531Y-79959170D01*
X143971900Y-80017647D01*
X143971900Y-81577152D01*
X143983531Y-81635629D01*
X143983532Y-81635630D01*
X144027847Y-81701952D01*
X144094169Y-81746267D01*
X144094170Y-81746268D01*
X144152647Y-81757899D01*
X144152650Y-81757900D01*
X144152652Y-81757900D01*
X145712150Y-81757900D01*
X145712151Y-81757899D01*
X145726968Y-81754952D01*
X145770629Y-81746268D01*
X145770629Y-81746267D01*
X145770631Y-81746267D01*
X145836952Y-81701952D01*
X145881267Y-81635631D01*
X145881267Y-81635629D01*
X145881268Y-81635629D01*
X145892899Y-81577152D01*
X145892900Y-81577150D01*
X145892900Y-81371900D01*
X145912585Y-81304861D01*
X145965389Y-81259106D01*
X146016900Y-81247900D01*
X147742434Y-81247900D01*
X147809473Y-81267585D01*
X147830115Y-81284219D01*
X148636580Y-82090684D01*
X148670065Y-82152007D01*
X148672899Y-82178365D01*
X148672899Y-95291435D01*
X148653214Y-95358474D01*
X148636580Y-95379116D01*
X147941116Y-96074581D01*
X147879793Y-96108066D01*
X147853435Y-96110900D01*
X146016900Y-96110900D01*
X145949861Y-96091215D01*
X145904106Y-96038411D01*
X145892900Y-95986900D01*
X145892900Y-95781649D01*
X145892899Y-95781647D01*
X145881268Y-95723170D01*
X145881267Y-95723169D01*
X145836952Y-95656847D01*
X145770630Y-95612532D01*
X145770629Y-95612531D01*
X145712152Y-95600900D01*
X145712148Y-95600900D01*
X145445394Y-95600900D01*
X145378355Y-95581215D01*
X145332600Y-95528411D01*
X145322656Y-95459253D01*
X145351681Y-95395697D01*
X145386938Y-95367543D01*
X145468607Y-95323890D01*
X145614862Y-95203862D01*
X145734890Y-95057607D01*
X145824080Y-94890746D01*
X145879002Y-94709691D01*
X145897547Y-94521400D01*
X145879002Y-94333109D01*
X145824080Y-94152054D01*
X145734890Y-93985193D01*
X145734887Y-93985189D01*
X145614862Y-93838937D01*
X145468610Y-93718912D01*
X145468608Y-93718911D01*
X145468607Y-93718910D01*
X145301746Y-93629720D01*
X145211218Y-93602259D01*
X145120689Y-93574797D01*
X144932400Y-93556253D01*
X144744110Y-93574797D01*
X144563051Y-93629721D01*
X144396189Y-93718912D01*
X144249937Y-93838937D01*
X144129912Y-93985189D01*
X144040721Y-94152051D01*
X143985797Y-94333110D01*
X143967253Y-94521399D01*
X137908274Y-94521399D01*
X137926176Y-87951746D01*
X138688102Y-87951746D01*
X138698219Y-88189928D01*
X138698219Y-88189932D01*
X138748445Y-88422980D01*
X138821609Y-88605052D01*
X138837336Y-88644190D01*
X138962331Y-88847195D01*
X139119836Y-89026155D01*
X139305320Y-89175923D01*
X139513446Y-89292190D01*
X139639351Y-89336675D01*
X139738229Y-89371611D01*
X139973190Y-89411899D01*
X139973198Y-89411899D01*
X139973200Y-89411900D01*
X139973201Y-89411900D01*
X140151902Y-89411900D01*
X140329936Y-89396747D01*
X140329939Y-89396746D01*
X140329941Y-89396746D01*
X140560649Y-89336675D01*
X140693373Y-89276679D01*
X140777880Y-89238480D01*
X140777881Y-89238478D01*
X140777886Y-89238477D01*
X140975403Y-89104979D01*
X141147518Y-88940021D01*
X141289279Y-88748347D01*
X141396607Y-88535474D01*
X141466416Y-88307523D01*
X141496698Y-88071054D01*
X141495928Y-88052936D01*
X141486580Y-87832871D01*
X141486580Y-87832867D01*
X141436354Y-87599819D01*
X141347464Y-87378610D01*
X141222469Y-87175605D01*
X141064964Y-86996645D01*
X140879480Y-86846877D01*
X140765530Y-86783220D01*
X140671355Y-86730610D01*
X140446570Y-86651188D01*
X140211609Y-86610900D01*
X140211600Y-86610900D01*
X140032903Y-86610900D01*
X140032898Y-86610900D01*
X139854863Y-86626052D01*
X139624151Y-86686124D01*
X139406919Y-86784319D01*
X139406911Y-86784324D01*
X139209406Y-86917813D01*
X139209397Y-86917821D01*
X139037281Y-87082779D01*
X138895523Y-87274450D01*
X138895520Y-87274454D01*
X138788196Y-87487320D01*
X138788193Y-87487326D01*
X138718383Y-87715278D01*
X138688102Y-87951746D01*
X137926176Y-87951746D01*
X137936432Y-84187746D01*
X138688102Y-84187746D01*
X138698219Y-84425928D01*
X138698219Y-84425932D01*
X138748445Y-84658980D01*
X138837335Y-84880188D01*
X138837336Y-84880190D01*
X138962331Y-85083195D01*
X139119836Y-85262155D01*
X139305320Y-85411923D01*
X139513446Y-85528190D01*
X139639351Y-85572675D01*
X139738229Y-85607611D01*
X139973190Y-85647899D01*
X139973198Y-85647899D01*
X139973200Y-85647900D01*
X139973201Y-85647900D01*
X140151902Y-85647900D01*
X140329936Y-85632747D01*
X140329939Y-85632746D01*
X140329941Y-85632746D01*
X140560649Y-85572675D01*
X140693373Y-85512679D01*
X140777880Y-85474480D01*
X140777881Y-85474478D01*
X140777886Y-85474477D01*
X140975403Y-85340979D01*
X141147518Y-85176021D01*
X141289279Y-84984347D01*
X141396607Y-84771474D01*
X141466416Y-84543523D01*
X141496698Y-84307054D01*
X141486580Y-84068868D01*
X141436354Y-83835819D01*
X141347464Y-83614610D01*
X141222469Y-83411605D01*
X141064964Y-83232645D01*
X140879480Y-83082877D01*
X140765530Y-83019220D01*
X140671355Y-82966610D01*
X140446570Y-82887188D01*
X140211609Y-82846900D01*
X140211600Y-82846900D01*
X140032903Y-82846900D01*
X140032898Y-82846900D01*
X139854863Y-82862052D01*
X139624151Y-82922124D01*
X139406919Y-83020319D01*
X139406911Y-83020324D01*
X139209406Y-83153813D01*
X139209397Y-83153821D01*
X139037281Y-83318779D01*
X138895523Y-83510450D01*
X138895520Y-83510454D01*
X138788196Y-83723320D01*
X138788193Y-83723326D01*
X138718383Y-83951278D01*
X138688102Y-84187746D01*
X137936432Y-84187746D01*
X137951249Y-78749671D01*
X138837033Y-78749671D01*
X138841423Y-78784891D01*
X138841900Y-78792567D01*
X138841900Y-78796516D01*
X138845742Y-78819541D01*
X138852534Y-78874027D01*
X138854773Y-78881547D01*
X138857334Y-78889008D01*
X138857335Y-78889010D01*
X138883455Y-78937276D01*
X138883455Y-78937277D01*
X138907574Y-78986611D01*
X138912142Y-78993009D01*
X138916982Y-78999227D01*
X138957371Y-79036409D01*
X139927249Y-80006286D01*
X139943377Y-80026145D01*
X139949316Y-80035236D01*
X139977332Y-80057041D01*
X139983093Y-80062130D01*
X139985882Y-80064919D01*
X140004883Y-80078485D01*
X140040969Y-80106572D01*
X140048211Y-80112209D01*
X140055104Y-80115939D01*
X140062196Y-80119406D01*
X140062201Y-80119410D01*
X140114802Y-80135070D01*
X140114803Y-80135070D01*
X140166738Y-80152900D01*
X140174472Y-80154190D01*
X140182310Y-80155167D01*
X140182312Y-80155168D01*
X140182313Y-80155167D01*
X140182314Y-80155168D01*
X140237156Y-80152900D01*
X141429687Y-80152900D01*
X141496726Y-80172585D01*
X141539044Y-80218444D01*
X141541425Y-80222900D01*
X141589912Y-80313610D01*
X141709937Y-80459862D01*
X141856189Y-80579887D01*
X141856193Y-80579890D01*
X142023054Y-80669080D01*
X142204109Y-80724002D01*
X142392400Y-80742547D01*
X142580691Y-80724002D01*
X142761746Y-80669080D01*
X142928607Y-80579890D01*
X143074862Y-80459862D01*
X143194890Y-80313607D01*
X143284080Y-80146746D01*
X143339002Y-79965691D01*
X143357547Y-79777400D01*
X143339002Y-79589109D01*
X143284080Y-79408054D01*
X143194890Y-79241193D01*
X143100968Y-79126748D01*
X143074862Y-79094937D01*
X142928610Y-78974912D01*
X142928608Y-78974911D01*
X142928607Y-78974910D01*
X142761746Y-78885720D01*
X142671218Y-78858259D01*
X142580689Y-78830797D01*
X142412969Y-78814278D01*
X142392400Y-78812253D01*
X142392399Y-78812253D01*
X142204110Y-78830797D01*
X142061604Y-78874026D01*
X142038054Y-78881170D01*
X142023051Y-78885721D01*
X141856189Y-78974912D01*
X141709937Y-79094937D01*
X141589912Y-79241189D01*
X141539045Y-79336354D01*
X141490082Y-79386198D01*
X141429687Y-79401900D01*
X140436299Y-79401900D01*
X140369260Y-79382215D01*
X140348618Y-79365581D01*
X139629219Y-78646181D01*
X139595734Y-78584858D01*
X139592900Y-78558500D01*
X139592900Y-76432299D01*
X139612585Y-76365260D01*
X139629219Y-76344618D01*
X143004618Y-72969219D01*
X143065941Y-72935734D01*
X143092299Y-72932900D01*
X154428702Y-72932900D01*
X154495741Y-72952585D01*
X154536089Y-72994900D01*
X154544595Y-73009632D01*
X154597598Y-73101436D01*
X154642698Y-73151525D01*
X154727067Y-73245228D01*
X154727074Y-73245234D01*
X154883610Y-73358964D01*
X154883611Y-73358964D01*
X154883615Y-73358967D01*
X155027777Y-73423152D01*
X155060378Y-73437667D01*
X155060383Y-73437669D01*
X155249652Y-73477900D01*
X155443147Y-73477900D01*
X155443148Y-73477900D01*
X155618697Y-73440585D01*
X155688361Y-73445901D01*
X155732157Y-73474194D01*
X157061250Y-74803288D01*
X157077375Y-74823144D01*
X157083313Y-74832232D01*
X157083316Y-74832236D01*
X157111325Y-74854036D01*
X157117087Y-74859125D01*
X157119882Y-74861920D01*
X157138895Y-74875494D01*
X157182211Y-74909209D01*
X157182218Y-74909211D01*
X157189120Y-74912947D01*
X157196196Y-74916406D01*
X157196201Y-74916410D01*
X157248802Y-74932070D01*
X157248803Y-74932070D01*
X157300738Y-74949900D01*
X157308472Y-74951190D01*
X157316310Y-74952167D01*
X157316312Y-74952168D01*
X157316313Y-74952167D01*
X157316314Y-74952168D01*
X157371156Y-74949900D01*
X159505900Y-74949900D01*
X159572939Y-74969585D01*
X159618694Y-75022389D01*
X159629900Y-75073900D01*
X159629900Y-75444152D01*
X159641531Y-75502629D01*
X159641532Y-75502630D01*
X159685847Y-75568952D01*
X159752169Y-75613267D01*
X159752170Y-75613268D01*
X159810647Y-75624899D01*
X159810650Y-75624900D01*
X159810652Y-75624900D01*
X161550150Y-75624900D01*
X161550151Y-75624899D01*
X161564968Y-75621952D01*
X161608629Y-75613268D01*
X161608629Y-75613267D01*
X161608631Y-75613267D01*
X161674952Y-75568952D01*
X161719267Y-75502631D01*
X161719267Y-75502629D01*
X161719268Y-75502629D01*
X161730899Y-75444152D01*
X161730900Y-75444150D01*
X161730900Y-74868298D01*
X161750585Y-74801259D01*
X161767215Y-74780621D01*
X162433289Y-74114546D01*
X162453146Y-74098422D01*
X162462236Y-74092484D01*
X162484051Y-74064454D01*
X162489119Y-74058716D01*
X162491920Y-74055917D01*
X162505488Y-74036913D01*
X162539209Y-73993589D01*
X162539210Y-73993583D01*
X162542942Y-73986689D01*
X162546403Y-73979607D01*
X162546410Y-73979599D01*
X162562070Y-73926996D01*
X162579900Y-73875060D01*
X162579900Y-73875055D01*
X162581190Y-73867324D01*
X162582168Y-73859485D01*
X162579900Y-73804644D01*
X162579900Y-68530204D01*
X162582539Y-68504759D01*
X162583185Y-68501675D01*
X162584767Y-68494132D01*
X162582898Y-68479140D01*
X162580377Y-68458906D01*
X162579900Y-68451230D01*
X162579900Y-68447289D01*
X162579898Y-68447276D01*
X162576057Y-68424259D01*
X162569266Y-68369774D01*
X162569264Y-68369770D01*
X162567022Y-68362240D01*
X162564465Y-68354792D01*
X162564465Y-68354790D01*
X162538344Y-68306522D01*
X162514226Y-68257189D01*
X162514224Y-68257187D01*
X162514224Y-68257186D01*
X162509676Y-68250816D01*
X162504820Y-68244576D01*
X162504819Y-68244574D01*
X162464429Y-68207392D01*
X161449709Y-67192672D01*
X160431819Y-66174781D01*
X160398334Y-66113458D01*
X160395500Y-66087100D01*
X160395500Y-48720899D01*
X160415185Y-48653860D01*
X160431819Y-48633218D01*
X162272818Y-46792219D01*
X162334141Y-46758734D01*
X162360499Y-46755900D01*
X165865467Y-46755900D01*
X165932506Y-46775585D01*
X165963841Y-46804412D01*
X165966728Y-46808174D01*
X165967118Y-46808682D01*
X166092559Y-46904936D01*
X166238638Y-46965444D01*
X166317019Y-46975763D01*
X166395399Y-46986082D01*
X166395400Y-46986082D01*
X166395401Y-46986082D01*
X166447653Y-46979202D01*
X166552162Y-46965444D01*
X166698241Y-46904936D01*
X166823682Y-46808682D01*
X166919936Y-46683241D01*
X166980444Y-46537162D01*
X167001082Y-46380400D01*
X166980444Y-46223638D01*
X166919936Y-46077559D01*
X166823682Y-45952118D01*
X166698241Y-45855864D01*
X166552162Y-45795356D01*
X166552160Y-45795355D01*
X166395401Y-45774718D01*
X166395399Y-45774718D01*
X166238639Y-45795355D01*
X166238637Y-45795356D01*
X166092560Y-45855863D01*
X166092558Y-45855864D01*
X166092559Y-45855864D01*
X165967118Y-45952118D01*
X165967116Y-45952119D01*
X165967115Y-45952121D01*
X165963841Y-45956388D01*
X165907413Y-45997590D01*
X165865467Y-46004900D01*
X162205404Y-46004900D01*
X162179959Y-46002261D01*
X162169333Y-46000033D01*
X162169330Y-46000033D01*
X162134108Y-46004423D01*
X162126432Y-46004900D01*
X162122486Y-46004900D01*
X162105215Y-46007781D01*
X162099458Y-46008742D01*
X162044970Y-46015534D01*
X162037457Y-46017771D01*
X162029987Y-46020336D01*
X161981722Y-46046455D01*
X161932392Y-46070571D01*
X161925975Y-46075153D01*
X161919775Y-46079979D01*
X161882592Y-46120370D01*
X159791108Y-48211852D01*
X159771254Y-48227976D01*
X159762165Y-48233914D01*
X159762164Y-48233915D01*
X159740363Y-48261923D01*
X159735286Y-48267674D01*
X159732484Y-48270477D01*
X159732474Y-48270488D01*
X159718905Y-48289495D01*
X159685192Y-48332808D01*
X159681447Y-48339729D01*
X159677988Y-48346804D01*
X159662329Y-48399403D01*
X159644500Y-48451338D01*
X159643206Y-48459092D01*
X159642231Y-48466911D01*
X159644500Y-48521755D01*
X159644500Y-66242196D01*
X159641862Y-66267634D01*
X159639633Y-66278268D01*
X159639633Y-66278269D01*
X159639633Y-66278271D01*
X159644023Y-66313491D01*
X159644500Y-66321167D01*
X159644500Y-66325116D01*
X159648342Y-66348141D01*
X159655134Y-66402627D01*
X159657373Y-66410147D01*
X159659934Y-66417608D01*
X159659935Y-66417610D01*
X159677531Y-66450126D01*
X159686055Y-66465877D01*
X159710174Y-66515211D01*
X159714742Y-66521609D01*
X159719582Y-66527827D01*
X159759971Y-66565009D01*
X161792581Y-68597617D01*
X161826066Y-68658940D01*
X161828900Y-68685298D01*
X161828900Y-71459573D01*
X161809215Y-71526612D01*
X161756411Y-71572367D01*
X161687253Y-71582311D01*
X161623697Y-71553286D01*
X161595542Y-71518027D01*
X161591494Y-71510454D01*
X161558085Y-71447950D01*
X161452078Y-71318779D01*
X161426810Y-71287989D01*
X161266852Y-71156717D01*
X161266853Y-71156717D01*
X161266850Y-71156715D01*
X161128710Y-71082877D01*
X161121446Y-71078994D01*
X161071602Y-71030031D01*
X161055900Y-70969636D01*
X161055900Y-68530203D01*
X161058539Y-68504758D01*
X161058577Y-68504575D01*
X161060767Y-68494132D01*
X161058725Y-68477753D01*
X161056377Y-68458907D01*
X161055900Y-68451231D01*
X161055900Y-68447289D01*
X161055898Y-68447276D01*
X161052057Y-68424259D01*
X161045266Y-68369774D01*
X161045264Y-68369770D01*
X161043022Y-68362240D01*
X161040465Y-68354792D01*
X161040465Y-68354790D01*
X161014344Y-68306522D01*
X160990226Y-68257189D01*
X160990224Y-68257187D01*
X160990224Y-68257186D01*
X160985676Y-68250816D01*
X160980820Y-68244576D01*
X160980819Y-68244574D01*
X160940429Y-68207392D01*
X159981549Y-67248511D01*
X159965422Y-67228652D01*
X159959486Y-67219567D01*
X159959483Y-67219563D01*
X159931474Y-67197763D01*
X159925710Y-67192672D01*
X159922915Y-67189877D01*
X159903905Y-67176306D01*
X159860589Y-67142590D01*
X159853674Y-67138848D01*
X159846600Y-67135390D01*
X159793996Y-67119729D01*
X159742058Y-67101899D01*
X159734323Y-67100608D01*
X159726485Y-67099631D01*
X159671644Y-67101900D01*
X159124229Y-67101900D01*
X159057190Y-67082215D01*
X159011435Y-67029411D01*
X159001491Y-66960253D01*
X159025853Y-66902414D01*
X159045935Y-66876242D01*
X159045934Y-66876242D01*
X159045936Y-66876241D01*
X159106444Y-66730162D01*
X159127082Y-66573400D01*
X159114655Y-66479013D01*
X159120313Y-66422566D01*
X159125500Y-66407460D01*
X159125500Y-66407457D01*
X159125501Y-66407455D01*
X159126790Y-66399729D01*
X159127768Y-66391885D01*
X159125500Y-66337044D01*
X159125500Y-47755698D01*
X159145185Y-47688659D01*
X159161819Y-47668017D01*
X161307618Y-45522219D01*
X161368941Y-45488734D01*
X161395299Y-45485900D01*
X161547467Y-45485900D01*
X161614506Y-45505585D01*
X161645841Y-45534412D01*
X161648728Y-45538174D01*
X161649118Y-45538682D01*
X161774559Y-45634936D01*
X161920638Y-45695444D01*
X161999018Y-45705763D01*
X162077399Y-45716082D01*
X162077400Y-45716082D01*
X162077401Y-45716082D01*
X162129758Y-45709189D01*
X162234162Y-45695444D01*
X162380241Y-45634936D01*
X162505682Y-45538682D01*
X162601936Y-45413241D01*
X162662444Y-45267162D01*
X162683082Y-45110400D01*
X162662444Y-44953638D01*
X162601936Y-44807559D01*
X162505682Y-44682118D01*
X162380241Y-44585864D01*
X162234162Y-44525356D01*
X162234160Y-44525355D01*
X162077401Y-44504718D01*
X162077399Y-44504718D01*
X161920639Y-44525355D01*
X161920637Y-44525356D01*
X161774560Y-44585863D01*
X161774558Y-44585864D01*
X161774559Y-44585864D01*
X161649118Y-44682118D01*
X161649116Y-44682119D01*
X161649115Y-44682121D01*
X161645841Y-44686388D01*
X161589413Y-44727590D01*
X161547467Y-44734900D01*
X161240204Y-44734900D01*
X161214757Y-44732261D01*
X161212113Y-44731706D01*
X161204129Y-44730032D01*
X161168909Y-44734423D01*
X161161232Y-44734900D01*
X161157286Y-44734900D01*
X161140006Y-44737783D01*
X161134246Y-44738744D01*
X161079768Y-44745535D01*
X161072244Y-44747775D01*
X161064792Y-44750334D01*
X161016519Y-44776457D01*
X160967190Y-44800572D01*
X160960798Y-44805135D01*
X160954574Y-44809980D01*
X160917403Y-44850358D01*
X158521108Y-47246652D01*
X158501254Y-47262776D01*
X158492165Y-47268714D01*
X158492164Y-47268715D01*
X158470363Y-47296723D01*
X158465286Y-47302474D01*
X158462484Y-47305277D01*
X158462474Y-47305288D01*
X158448905Y-47324295D01*
X158415192Y-47367608D01*
X158411447Y-47374529D01*
X158407988Y-47381604D01*
X158392329Y-47434203D01*
X158374500Y-47486138D01*
X158373206Y-47493892D01*
X158372231Y-47501711D01*
X158374500Y-47556555D01*
X158374500Y-65901417D01*
X158354815Y-65968456D01*
X158302011Y-66014211D01*
X158297953Y-66015978D01*
X158218560Y-66048863D01*
X158093118Y-66145118D01*
X157996863Y-66270560D01*
X157936356Y-66416637D01*
X157936355Y-66416639D01*
X157915718Y-66573398D01*
X157915718Y-66573401D01*
X157936355Y-66730160D01*
X157936356Y-66730162D01*
X157996864Y-66876242D01*
X158016947Y-66902414D01*
X158042141Y-66967583D01*
X158028103Y-67036028D01*
X157979289Y-67086017D01*
X157918571Y-67101900D01*
X156264098Y-67101900D01*
X156197059Y-67082215D01*
X156156711Y-67039900D01*
X156110726Y-66960253D01*
X156095202Y-66933364D01*
X156043768Y-66876241D01*
X155965732Y-66789571D01*
X155965725Y-66789565D01*
X155809189Y-66675835D01*
X155809186Y-66675833D01*
X155809185Y-66675833D01*
X155744998Y-66647255D01*
X155632421Y-66597132D01*
X155632416Y-66597130D01*
X155443148Y-66556900D01*
X155249652Y-66556900D01*
X155060383Y-66597130D01*
X155060378Y-66597132D01*
X154883615Y-66675833D01*
X154883610Y-66675835D01*
X154727074Y-66789565D01*
X154727067Y-66789571D01*
X154597597Y-66933364D01*
X154500850Y-67100936D01*
X154500847Y-67100943D01*
X154441057Y-67284958D01*
X154441056Y-67284960D01*
X154420830Y-67477399D01*
X154441056Y-67669839D01*
X154441057Y-67669841D01*
X154500847Y-67853856D01*
X154500850Y-67853863D01*
X154597597Y-68021435D01*
X154727067Y-68165228D01*
X154727074Y-68165234D01*
X154883610Y-68278964D01*
X154883611Y-68278964D01*
X154883615Y-68278967D01*
X155000185Y-68330867D01*
X155060378Y-68357667D01*
X155060383Y-68357669D01*
X155249652Y-68397900D01*
X155443148Y-68397900D01*
X155632417Y-68357669D01*
X155809185Y-68278967D01*
X155965727Y-68165233D01*
X156095202Y-68021436D01*
X156135380Y-67951845D01*
X156156711Y-67914900D01*
X156207278Y-67866684D01*
X156264098Y-67852900D01*
X159472501Y-67852900D01*
X159539540Y-67872585D01*
X159560182Y-67889219D01*
X160268581Y-68597618D01*
X160302066Y-68658941D01*
X160304900Y-68685299D01*
X160304899Y-70969636D01*
X160285214Y-71036676D01*
X160239353Y-71078994D01*
X160142310Y-71130865D01*
X160093950Y-71156715D01*
X160093948Y-71156716D01*
X160093947Y-71156717D01*
X159933989Y-71287989D01*
X159832542Y-71411605D01*
X159802715Y-71447950D01*
X159769308Y-71510450D01*
X159705169Y-71630443D01*
X159645099Y-71828467D01*
X159624817Y-72034399D01*
X159645099Y-72240332D01*
X159662398Y-72297358D01*
X159705168Y-72438354D01*
X159802715Y-72620850D01*
X159802716Y-72620851D01*
X159802717Y-72620852D01*
X159933989Y-72780810D01*
X160030609Y-72860102D01*
X160093950Y-72912085D01*
X160276446Y-73009632D01*
X160474466Y-73069700D01*
X160474465Y-73069700D01*
X160492929Y-73071518D01*
X160680400Y-73089983D01*
X160886334Y-73069700D01*
X161084354Y-73009632D01*
X161266850Y-72912085D01*
X161426810Y-72780810D01*
X161558085Y-72620850D01*
X161595542Y-72550772D01*
X161644504Y-72500928D01*
X161712642Y-72485468D01*
X161778322Y-72509300D01*
X161820690Y-72564857D01*
X161828900Y-72609226D01*
X161828900Y-73450724D01*
X161809215Y-73517763D01*
X161756411Y-73563518D01*
X161687253Y-73573462D01*
X161636009Y-73553826D01*
X161608630Y-73535532D01*
X161608629Y-73535531D01*
X161550152Y-73523900D01*
X161550148Y-73523900D01*
X159810652Y-73523900D01*
X159810647Y-73523900D01*
X159752170Y-73535531D01*
X159752169Y-73535532D01*
X159685847Y-73579847D01*
X159641532Y-73646169D01*
X159641531Y-73646170D01*
X159629900Y-73704647D01*
X159629900Y-74074900D01*
X159610215Y-74141939D01*
X159557411Y-74187694D01*
X159505900Y-74198900D01*
X157570299Y-74198900D01*
X157503260Y-74179215D01*
X157482618Y-74162581D01*
X156260873Y-72940835D01*
X156227388Y-72879512D01*
X156230623Y-72814836D01*
X156251744Y-72749837D01*
X156271970Y-72557400D01*
X156251744Y-72364963D01*
X156191950Y-72180937D01*
X156095202Y-72013364D01*
X156039299Y-71951277D01*
X155965732Y-71869571D01*
X155965725Y-71869565D01*
X155809189Y-71755835D01*
X155809184Y-71755832D01*
X155795459Y-71749721D01*
X155742224Y-71704468D01*
X155721906Y-71637618D01*
X155721900Y-71636444D01*
X155721900Y-70938355D01*
X155741585Y-70871316D01*
X155794389Y-70825561D01*
X155795386Y-70825110D01*
X155809185Y-70818967D01*
X155965727Y-70705233D01*
X156095202Y-70561436D01*
X156191950Y-70393863D01*
X156251744Y-70209837D01*
X156271970Y-70017400D01*
X156251744Y-69824963D01*
X156191950Y-69640937D01*
X156095202Y-69473364D01*
X156063379Y-69438021D01*
X155965732Y-69329571D01*
X155965725Y-69329565D01*
X155809189Y-69215835D01*
X155809186Y-69215833D01*
X155809185Y-69215833D01*
X155744998Y-69187255D01*
X155632421Y-69137132D01*
X155632416Y-69137130D01*
X155443148Y-69096900D01*
X155249652Y-69096900D01*
X155060383Y-69137130D01*
X155060378Y-69137132D01*
X154883615Y-69215833D01*
X154883610Y-69215835D01*
X154727074Y-69329565D01*
X154727067Y-69329571D01*
X154597597Y-69473364D01*
X154500850Y-69640936D01*
X154500847Y-69640943D01*
X154441057Y-69824958D01*
X154441056Y-69824960D01*
X154420830Y-70017400D01*
X154441056Y-70209839D01*
X154441057Y-70209841D01*
X154500847Y-70393856D01*
X154500850Y-70393863D01*
X154597597Y-70561435D01*
X154727067Y-70705228D01*
X154727074Y-70705234D01*
X154883611Y-70818965D01*
X154883614Y-70818966D01*
X154883615Y-70818967D01*
X154897334Y-70825075D01*
X154950571Y-70870324D01*
X154970894Y-70937172D01*
X154970900Y-70938355D01*
X154970900Y-71636444D01*
X154951215Y-71703483D01*
X154898411Y-71749238D01*
X154897341Y-71749721D01*
X154883615Y-71755832D01*
X154883610Y-71755835D01*
X154727074Y-71869565D01*
X154727067Y-71869571D01*
X154597597Y-72013365D01*
X154536089Y-72119900D01*
X154485522Y-72168116D01*
X154428702Y-72181900D01*
X142937204Y-72181900D01*
X142911757Y-72179261D01*
X142909113Y-72178706D01*
X142901129Y-72177032D01*
X142865909Y-72181423D01*
X142858232Y-72181900D01*
X142854286Y-72181900D01*
X142837006Y-72184783D01*
X142831246Y-72185744D01*
X142776768Y-72192535D01*
X142769244Y-72194775D01*
X142761792Y-72197334D01*
X142713519Y-72223457D01*
X142664190Y-72247572D01*
X142657798Y-72252135D01*
X142651574Y-72256980D01*
X142614403Y-72297358D01*
X138988508Y-75923252D01*
X138968654Y-75939376D01*
X138959565Y-75945314D01*
X138959564Y-75945315D01*
X138937763Y-75973323D01*
X138932686Y-75979074D01*
X138929884Y-75981877D01*
X138929874Y-75981888D01*
X138916305Y-76000895D01*
X138882592Y-76044208D01*
X138878847Y-76051129D01*
X138875388Y-76058204D01*
X138859729Y-76110803D01*
X138841900Y-76162738D01*
X138840606Y-76170492D01*
X138839631Y-76178311D01*
X138841900Y-76233155D01*
X138841900Y-78713596D01*
X138839262Y-78739034D01*
X138837033Y-78749668D01*
X138837033Y-78749669D01*
X138837033Y-78749671D01*
X137951249Y-78749671D01*
X137969129Y-72187746D01*
X138688102Y-72187746D01*
X138698219Y-72425928D01*
X138698219Y-72425932D01*
X138748445Y-72658980D01*
X138837335Y-72880188D01*
X138837336Y-72880190D01*
X138962331Y-73083195D01*
X139119836Y-73262155D01*
X139305320Y-73411923D01*
X139493673Y-73517144D01*
X139505766Y-73523900D01*
X139513446Y-73528190D01*
X139659652Y-73579848D01*
X139738229Y-73607611D01*
X139973190Y-73647899D01*
X139973198Y-73647899D01*
X139973200Y-73647900D01*
X139973201Y-73647900D01*
X140151902Y-73647900D01*
X140329936Y-73632747D01*
X140329939Y-73632746D01*
X140329941Y-73632746D01*
X140560649Y-73572675D01*
X140770314Y-73477900D01*
X140777880Y-73474480D01*
X140777881Y-73474478D01*
X140777886Y-73474477D01*
X140948789Y-73358967D01*
X140975393Y-73340986D01*
X140975394Y-73340984D01*
X140975403Y-73340979D01*
X141147518Y-73176021D01*
X141289279Y-72984347D01*
X141396607Y-72771474D01*
X141466416Y-72543523D01*
X141496698Y-72307054D01*
X141486580Y-72068868D01*
X141479151Y-72034399D01*
X141436354Y-71835819D01*
X141404212Y-71755832D01*
X141347464Y-71614610D01*
X141222469Y-71411605D01*
X141064964Y-71232645D01*
X140879480Y-71082877D01*
X140765530Y-71019220D01*
X140671355Y-70966610D01*
X140446570Y-70887188D01*
X140211609Y-70846900D01*
X140211600Y-70846900D01*
X140032903Y-70846900D01*
X140032898Y-70846900D01*
X139854863Y-70862052D01*
X139624151Y-70922124D01*
X139406919Y-71020319D01*
X139406911Y-71020324D01*
X139209406Y-71153813D01*
X139209397Y-71153821D01*
X139037281Y-71318779D01*
X138895523Y-71510450D01*
X138895520Y-71510454D01*
X138788196Y-71723320D01*
X138788193Y-71723326D01*
X138718383Y-71951278D01*
X138688102Y-72187746D01*
X137969129Y-72187746D01*
X137979314Y-68449746D01*
X138710102Y-68449746D01*
X138720219Y-68687928D01*
X138720219Y-68687932D01*
X138770445Y-68920980D01*
X138859335Y-69142188D01*
X138859336Y-69142190D01*
X138984331Y-69345195D01*
X139141836Y-69524155D01*
X139327320Y-69673923D01*
X139535446Y-69790190D01*
X139661351Y-69834675D01*
X139760229Y-69869611D01*
X139995190Y-69909899D01*
X139995198Y-69909899D01*
X139995200Y-69909900D01*
X139995201Y-69909900D01*
X140173902Y-69909900D01*
X140351936Y-69894747D01*
X140351939Y-69894746D01*
X140351941Y-69894746D01*
X140582649Y-69834675D01*
X140715373Y-69774679D01*
X140799880Y-69736480D01*
X140799881Y-69736478D01*
X140799886Y-69736477D01*
X140970151Y-69621398D01*
X140997393Y-69602986D01*
X140997394Y-69602984D01*
X140997403Y-69602979D01*
X141169518Y-69438021D01*
X141311279Y-69246347D01*
X141418607Y-69033474D01*
X141488416Y-68805523D01*
X141518698Y-68569054D01*
X141513525Y-68447289D01*
X141508580Y-68330871D01*
X141508580Y-68330867D01*
X141458354Y-68097819D01*
X141384850Y-67914900D01*
X141369464Y-67876610D01*
X141244469Y-67673605D01*
X141086964Y-67494645D01*
X140901480Y-67344877D01*
X140787530Y-67281220D01*
X140693355Y-67228610D01*
X140468570Y-67149188D01*
X140233609Y-67108900D01*
X140233600Y-67108900D01*
X140054903Y-67108900D01*
X140054898Y-67108900D01*
X139876863Y-67124052D01*
X139646151Y-67184124D01*
X139428919Y-67282319D01*
X139428911Y-67282324D01*
X139231406Y-67415813D01*
X139231397Y-67415821D01*
X139059281Y-67580779D01*
X138917523Y-67772450D01*
X138917520Y-67772454D01*
X138810196Y-67985320D01*
X138810193Y-67985326D01*
X138740383Y-68213278D01*
X138710102Y-68449746D01*
X137979314Y-68449746D01*
X138012012Y-56449746D01*
X138710102Y-56449746D01*
X138720219Y-56687928D01*
X138720219Y-56687932D01*
X138770445Y-56920980D01*
X138859335Y-57142188D01*
X138859336Y-57142190D01*
X138984331Y-57345195D01*
X139141836Y-57524155D01*
X139327320Y-57673923D01*
X139535446Y-57790190D01*
X139674135Y-57839192D01*
X139760229Y-57869611D01*
X139995190Y-57909899D01*
X139995198Y-57909899D01*
X139995200Y-57909900D01*
X139995201Y-57909900D01*
X140173902Y-57909900D01*
X140351936Y-57894747D01*
X140351939Y-57894746D01*
X140351941Y-57894746D01*
X140582649Y-57834675D01*
X140767291Y-57751211D01*
X140799880Y-57736480D01*
X140799881Y-57736478D01*
X140799886Y-57736477D01*
X140997403Y-57602979D01*
X141169518Y-57438021D01*
X141311279Y-57246347D01*
X141418607Y-57033474D01*
X141488416Y-56805523D01*
X141518698Y-56569054D01*
X141508580Y-56330868D01*
X141458354Y-56097819D01*
X141369464Y-55876610D01*
X141244469Y-55673605D01*
X141086964Y-55494645D01*
X140901480Y-55344877D01*
X140771380Y-55272198D01*
X140693355Y-55228610D01*
X140468570Y-55149188D01*
X140233609Y-55108900D01*
X140233600Y-55108900D01*
X140054903Y-55108900D01*
X140054898Y-55108900D01*
X139876863Y-55124052D01*
X139646151Y-55184124D01*
X139428919Y-55282319D01*
X139428911Y-55282324D01*
X139231406Y-55415813D01*
X139231397Y-55415821D01*
X139059281Y-55580779D01*
X138917523Y-55772450D01*
X138917520Y-55772454D01*
X138810196Y-55985320D01*
X138810193Y-55985326D01*
X138740383Y-56213278D01*
X138710102Y-56449746D01*
X138012012Y-56449746D01*
X138022241Y-52695746D01*
X138688102Y-52695746D01*
X138698219Y-52933928D01*
X138698219Y-52933932D01*
X138748445Y-53166980D01*
X138837335Y-53388188D01*
X138837336Y-53388190D01*
X138962331Y-53591195D01*
X139119836Y-53770155D01*
X139305320Y-53919923D01*
X139513446Y-54036190D01*
X139639351Y-54080675D01*
X139738229Y-54115611D01*
X139973190Y-54155899D01*
X139973198Y-54155899D01*
X139973200Y-54155900D01*
X139973201Y-54155900D01*
X140151902Y-54155900D01*
X140329936Y-54140747D01*
X140329939Y-54140746D01*
X140329941Y-54140746D01*
X140560649Y-54080675D01*
X140737287Y-54000829D01*
X140777880Y-53982480D01*
X140777881Y-53982478D01*
X140777886Y-53982477D01*
X140975403Y-53848979D01*
X141147518Y-53684021D01*
X141289279Y-53492347D01*
X141396607Y-53279474D01*
X141466416Y-53051523D01*
X141496698Y-52815054D01*
X141486580Y-52576868D01*
X141458513Y-52446639D01*
X141436354Y-52343819D01*
X141418971Y-52300560D01*
X141347464Y-52122610D01*
X141328468Y-52091759D01*
X141310082Y-52024354D01*
X141331057Y-51957707D01*
X141384734Y-51912980D01*
X141454071Y-51904373D01*
X141517055Y-51934618D01*
X141521739Y-51939065D01*
X141776582Y-52193908D01*
X141810066Y-52255229D01*
X141812900Y-52281587D01*
X141812900Y-57751211D01*
X141793215Y-57818250D01*
X141776581Y-57838892D01*
X140650203Y-58965270D01*
X140646214Y-58968925D01*
X140615205Y-58994945D01*
X140594962Y-59030006D01*
X140592056Y-59034566D01*
X140568846Y-59067713D01*
X140566606Y-59072517D01*
X140559629Y-59089361D01*
X140557810Y-59094359D01*
X140550783Y-59134211D01*
X140549612Y-59139491D01*
X140539135Y-59178591D01*
X140542664Y-59218913D01*
X140542900Y-59224320D01*
X140542900Y-60436478D01*
X140542664Y-60441885D01*
X140539135Y-60482208D01*
X140549612Y-60521310D01*
X140550783Y-60526590D01*
X140557811Y-60566443D01*
X140559635Y-60571455D01*
X140566597Y-60588261D01*
X140568845Y-60593081D01*
X140568846Y-60593084D01*
X140582852Y-60613087D01*
X140592055Y-60626231D01*
X140594961Y-60630792D01*
X140615206Y-60665855D01*
X140646215Y-60691875D01*
X140650205Y-60695531D01*
X141484597Y-61529924D01*
X141518082Y-61591247D01*
X141515577Y-61653600D01*
X141467797Y-61811110D01*
X141449253Y-61999400D01*
X141467797Y-62187689D01*
X141522721Y-62368748D01*
X141611912Y-62535610D01*
X141731937Y-62681862D01*
X141878189Y-62801887D01*
X141878193Y-62801890D01*
X142045054Y-62891080D01*
X142076895Y-62900738D01*
X142135334Y-62939034D01*
X142163792Y-63002845D01*
X142153233Y-63071912D01*
X142107010Y-63124307D01*
X142076900Y-63138059D01*
X142045052Y-63147720D01*
X141878189Y-63236912D01*
X141731937Y-63356937D01*
X141611912Y-63503189D01*
X141522721Y-63670051D01*
X141467797Y-63851110D01*
X141449253Y-64039400D01*
X141467797Y-64227689D01*
X141483559Y-64279649D01*
X141522720Y-64408746D01*
X141584111Y-64523600D01*
X141611912Y-64575610D01*
X141731937Y-64721862D01*
X141878189Y-64841887D01*
X141878193Y-64841890D01*
X142045054Y-64931080D01*
X142226109Y-64986002D01*
X142414400Y-65004547D01*
X142602691Y-64986002D01*
X142783746Y-64931080D01*
X142950607Y-64841890D01*
X143096862Y-64721862D01*
X143216890Y-64575607D01*
X143306080Y-64408746D01*
X143361002Y-64227691D01*
X143379547Y-64039400D01*
X143361002Y-63851109D01*
X143306080Y-63670054D01*
X143216890Y-63503193D01*
X143122968Y-63388748D01*
X143096862Y-63356937D01*
X142950610Y-63236912D01*
X142950608Y-63236911D01*
X142950607Y-63236910D01*
X142879551Y-63198929D01*
X142783747Y-63147720D01*
X142769858Y-63143507D01*
X142751901Y-63138060D01*
X142693464Y-63099764D01*
X142665007Y-63035952D01*
X142675566Y-62966885D01*
X142721790Y-62914491D01*
X142751900Y-62900740D01*
X142783746Y-62891080D01*
X142950607Y-62801890D01*
X143096862Y-62681862D01*
X143216890Y-62535607D01*
X143306080Y-62368746D01*
X143361002Y-62187691D01*
X143379547Y-61999400D01*
X143361002Y-61811109D01*
X143306080Y-61630054D01*
X143216890Y-61463193D01*
X143216887Y-61463189D01*
X143096862Y-61316937D01*
X142950610Y-61196912D01*
X142950608Y-61196911D01*
X142950607Y-61196910D01*
X142783746Y-61107720D01*
X142693218Y-61080259D01*
X142602689Y-61052797D01*
X142414400Y-61034253D01*
X142226110Y-61052797D01*
X142068600Y-61100577D01*
X141998733Y-61101200D01*
X141944924Y-61069597D01*
X141230219Y-60354891D01*
X141196734Y-60293568D01*
X141193900Y-60267210D01*
X141193900Y-59393588D01*
X141213585Y-59326549D01*
X141230219Y-59305907D01*
X141506120Y-59030006D01*
X142356621Y-58179504D01*
X142360572Y-58175884D01*
X142391594Y-58149855D01*
X142411844Y-58114779D01*
X142414728Y-58110252D01*
X142437954Y-58077084D01*
X142437954Y-58077081D01*
X142440219Y-58072224D01*
X142447147Y-58055499D01*
X142448987Y-58050446D01*
X142448988Y-58050445D01*
X142456021Y-58010550D01*
X142457177Y-58005337D01*
X142467663Y-57966207D01*
X142464135Y-57925889D01*
X142463900Y-57920486D01*
X142463900Y-52112312D01*
X142464136Y-52106906D01*
X142466590Y-52078863D01*
X142467663Y-52066593D01*
X142467662Y-52066592D01*
X142467663Y-52066591D01*
X142457185Y-52027490D01*
X142456018Y-52022230D01*
X142448988Y-51982355D01*
X142448987Y-51982353D01*
X142447160Y-51977333D01*
X142440220Y-51960576D01*
X142437954Y-51955719D01*
X142437954Y-51955716D01*
X142414737Y-51922559D01*
X142411835Y-51918005D01*
X142391594Y-51882945D01*
X142360582Y-51856922D01*
X142356610Y-51853283D01*
X141230219Y-50726892D01*
X141196734Y-50665569D01*
X141193900Y-50639211D01*
X141193900Y-48440206D01*
X141213585Y-48373167D01*
X141266389Y-48327412D01*
X141335547Y-48317468D01*
X141399103Y-48346493D01*
X141436877Y-48405271D01*
X141441303Y-48428052D01*
X141445797Y-48473689D01*
X141461559Y-48525649D01*
X141500451Y-48653860D01*
X141500721Y-48654748D01*
X141589912Y-48821610D01*
X141709937Y-48967862D01*
X141856189Y-49087887D01*
X141856193Y-49087890D01*
X142023054Y-49177080D01*
X142204109Y-49232002D01*
X142392400Y-49250547D01*
X142580691Y-49232002D01*
X142761746Y-49177080D01*
X142928607Y-49087890D01*
X143074862Y-48967862D01*
X143117046Y-48916459D01*
X143174791Y-48877125D01*
X143244636Y-48875254D01*
X143304405Y-48911441D01*
X143335121Y-48974196D01*
X143336900Y-48995124D01*
X143336900Y-54618478D01*
X143336664Y-54623885D01*
X143333135Y-54664208D01*
X143343612Y-54703310D01*
X143344783Y-54708590D01*
X143351811Y-54748443D01*
X143353635Y-54753455D01*
X143360597Y-54770261D01*
X143362845Y-54775081D01*
X143362846Y-54775084D01*
X143376852Y-54795087D01*
X143386055Y-54808231D01*
X143388961Y-54812792D01*
X143409206Y-54847855D01*
X143440215Y-54873875D01*
X143444204Y-54877530D01*
X146094582Y-57527908D01*
X146128066Y-57589229D01*
X146130900Y-57615587D01*
X146130900Y-61331210D01*
X146111215Y-61398249D01*
X146094581Y-61418891D01*
X145423875Y-62089597D01*
X145362552Y-62123082D01*
X145300199Y-62120577D01*
X145142689Y-62072797D01*
X144954400Y-62054253D01*
X144766110Y-62072797D01*
X144585051Y-62127721D01*
X144418189Y-62216912D01*
X144271937Y-62336937D01*
X144151912Y-62483189D01*
X144062721Y-62650051D01*
X144007797Y-62831110D01*
X143989253Y-63019400D01*
X144007797Y-63207689D01*
X144062721Y-63388748D01*
X144151912Y-63555610D01*
X144271937Y-63701862D01*
X144418189Y-63821887D01*
X144418193Y-63821890D01*
X144499860Y-63865542D01*
X144549704Y-63914505D01*
X144565164Y-63982643D01*
X144541332Y-64048322D01*
X144485774Y-64090691D01*
X144441406Y-64098900D01*
X144174647Y-64098900D01*
X144116170Y-64110531D01*
X144116169Y-64110532D01*
X144049847Y-64154847D01*
X144005532Y-64221169D01*
X144005531Y-64221170D01*
X143993900Y-64279647D01*
X143993900Y-65839152D01*
X144005531Y-65897629D01*
X144005532Y-65897630D01*
X144049847Y-65963952D01*
X144116169Y-66008267D01*
X144116170Y-66008268D01*
X144174647Y-66019899D01*
X144174650Y-66019900D01*
X144174652Y-66019900D01*
X145734150Y-66019900D01*
X145734151Y-66019899D01*
X145748968Y-66016952D01*
X145792629Y-66008268D01*
X145792629Y-66008267D01*
X145792631Y-66008267D01*
X145858952Y-65963952D01*
X145903267Y-65897631D01*
X145903267Y-65897629D01*
X145903268Y-65897629D01*
X145914899Y-65839152D01*
X145914900Y-65839150D01*
X145914900Y-64279649D01*
X145914899Y-64279647D01*
X145903268Y-64221170D01*
X145903267Y-64221169D01*
X145858952Y-64154847D01*
X145792630Y-64110532D01*
X145792629Y-64110531D01*
X145734152Y-64098900D01*
X145734148Y-64098900D01*
X145467394Y-64098900D01*
X145400355Y-64079215D01*
X145354600Y-64026411D01*
X145344656Y-63957253D01*
X145373681Y-63893697D01*
X145408938Y-63865543D01*
X145490607Y-63821890D01*
X145636862Y-63701862D01*
X145756890Y-63555607D01*
X145846080Y-63388746D01*
X145901002Y-63207691D01*
X145919547Y-63019400D01*
X145901002Y-62831109D01*
X145853221Y-62673598D01*
X145852598Y-62603733D01*
X145884199Y-62549925D01*
X146674604Y-61759520D01*
X146678566Y-61755889D01*
X146709594Y-61729855D01*
X146729838Y-61694790D01*
X146732735Y-61690241D01*
X146755954Y-61657084D01*
X146755954Y-61657081D01*
X146758219Y-61652224D01*
X146765147Y-61635499D01*
X146766984Y-61630450D01*
X146766988Y-61630445D01*
X146774019Y-61590562D01*
X146775177Y-61585340D01*
X146785664Y-61546207D01*
X146782135Y-61505878D01*
X146781900Y-61500475D01*
X146781900Y-57446320D01*
X146782136Y-57440913D01*
X146785664Y-57400593D01*
X146785664Y-57400592D01*
X146775182Y-57361476D01*
X146774016Y-57356218D01*
X146766988Y-57316355D01*
X146766986Y-57316352D01*
X146766986Y-57316350D01*
X146765160Y-57311333D01*
X146758220Y-57294576D01*
X146755954Y-57289719D01*
X146755954Y-57289716D01*
X146732739Y-57256562D01*
X146729833Y-57251999D01*
X146709596Y-57216948D01*
X146709595Y-57216947D01*
X146709594Y-57216945D01*
X146678577Y-57190918D01*
X146674593Y-57187267D01*
X144024219Y-54536893D01*
X143990734Y-54475570D01*
X143987900Y-54449212D01*
X143987900Y-50384223D01*
X144007585Y-50317184D01*
X144060389Y-50271429D01*
X144129547Y-50261485D01*
X144136079Y-50262603D01*
X144152652Y-50265900D01*
X145712150Y-50265900D01*
X145712151Y-50265899D01*
X145734344Y-50261485D01*
X145770629Y-50254268D01*
X145770629Y-50254267D01*
X145770631Y-50254267D01*
X145836952Y-50209952D01*
X145881267Y-50143631D01*
X145881267Y-50143629D01*
X145881268Y-50143629D01*
X145892899Y-50085152D01*
X145892900Y-50085150D01*
X145892900Y-48525649D01*
X145892899Y-48525647D01*
X145881268Y-48467170D01*
X145881267Y-48467169D01*
X145836952Y-48400847D01*
X145770630Y-48356532D01*
X145770629Y-48356531D01*
X145712152Y-48344900D01*
X145712148Y-48344900D01*
X145445394Y-48344900D01*
X145378355Y-48325215D01*
X145332600Y-48272411D01*
X145322656Y-48203253D01*
X145351681Y-48139697D01*
X145386938Y-48111543D01*
X145468607Y-48067890D01*
X145614862Y-47947862D01*
X145734890Y-47801607D01*
X145812480Y-47656446D01*
X145861444Y-47606602D01*
X145921839Y-47590900D01*
X147357878Y-47590900D01*
X147363281Y-47591135D01*
X147403607Y-47594664D01*
X147442740Y-47584177D01*
X147447962Y-47583019D01*
X147487845Y-47575988D01*
X147487850Y-47575984D01*
X147492899Y-47574147D01*
X147509624Y-47567219D01*
X147514481Y-47564954D01*
X147514484Y-47564954D01*
X147547641Y-47541735D01*
X147552190Y-47538838D01*
X147587255Y-47518594D01*
X147613281Y-47487576D01*
X147616922Y-47483602D01*
X152168306Y-42932219D01*
X152229630Y-42898734D01*
X152255988Y-42895900D01*
X164888412Y-42895900D01*
X164955451Y-42915585D01*
X164976093Y-42932219D01*
X177534263Y-55490389D01*
X177537918Y-55494378D01*
X177563941Y-55525390D01*
X177563943Y-55525391D01*
X177563945Y-55525394D01*
X177563947Y-55525395D01*
X177563948Y-55525396D01*
X177598999Y-55545633D01*
X177603562Y-55548539D01*
X177636716Y-55571754D01*
X177636719Y-55571754D01*
X177641576Y-55574020D01*
X177658333Y-55580960D01*
X177663353Y-55582787D01*
X177663355Y-55582788D01*
X177699206Y-55589109D01*
X177703208Y-55589815D01*
X177708480Y-55590983D01*
X177747593Y-55601464D01*
X177787922Y-55597935D01*
X177793324Y-55597700D01*
X178781101Y-55597700D01*
X178848140Y-55617385D01*
X178879477Y-55646214D01*
X178900494Y-55673605D01*
X178921118Y-55700482D01*
X179046559Y-55796736D01*
X179192638Y-55857244D01*
X179271018Y-55867563D01*
X179349399Y-55877882D01*
X179349400Y-55877882D01*
X179349401Y-55877882D01*
X179401654Y-55871002D01*
X179506162Y-55857244D01*
X179652241Y-55796736D01*
X179777682Y-55700482D01*
X179873936Y-55575041D01*
X179934444Y-55428962D01*
X179955082Y-55272200D01*
X179934444Y-55115438D01*
X179873936Y-54969359D01*
X179777682Y-54843918D01*
X179652241Y-54747664D01*
X179652239Y-54747663D01*
X179645792Y-54742716D01*
X179647400Y-54740619D01*
X179608199Y-54699499D01*
X179594983Y-54630891D01*
X179620957Y-54566028D01*
X179670973Y-54528126D01*
X179677641Y-54525365D01*
X179803082Y-54429111D01*
X179899336Y-54303670D01*
X179959844Y-54157591D01*
X179980482Y-54000829D01*
X179978066Y-53982480D01*
X179966723Y-53896321D01*
X179959844Y-53844067D01*
X179899336Y-53697988D01*
X179803082Y-53572547D01*
X179677641Y-53476293D01*
X179531562Y-53415785D01*
X179531560Y-53415784D01*
X179374801Y-53395147D01*
X179374799Y-53395147D01*
X179218039Y-53415784D01*
X179218037Y-53415785D01*
X179071960Y-53476292D01*
X178946516Y-53572548D01*
X178904877Y-53626815D01*
X178848449Y-53668018D01*
X178806501Y-53675329D01*
X178012018Y-53675329D01*
X177944979Y-53655644D01*
X177924337Y-53639010D01*
X174950896Y-50665569D01*
X166027919Y-41742593D01*
X166024274Y-41738614D01*
X165998256Y-41707607D01*
X165998255Y-41707606D01*
X165986858Y-41701026D01*
X165963192Y-41687361D01*
X165958631Y-41684455D01*
X165945487Y-41675252D01*
X165925484Y-41661246D01*
X165925481Y-41661245D01*
X165920661Y-41658997D01*
X165903855Y-41652035D01*
X165898843Y-41650211D01*
X165858990Y-41643183D01*
X165853710Y-41642012D01*
X165814608Y-41631535D01*
X165779692Y-41634590D01*
X165774281Y-41635064D01*
X165768878Y-41635300D01*
X144339722Y-41635300D01*
X144334318Y-41635064D01*
X144328907Y-41634590D01*
X144293992Y-41631535D01*
X144293991Y-41631535D01*
X144254891Y-41642012D01*
X144249611Y-41643183D01*
X144209759Y-41650210D01*
X144204761Y-41652029D01*
X144187917Y-41659006D01*
X144183113Y-41661246D01*
X144149966Y-41684456D01*
X144145406Y-41687362D01*
X144110348Y-41707604D01*
X144110340Y-41707610D01*
X144084323Y-41738615D01*
X144080669Y-41742604D01*
X143418803Y-42404470D01*
X143414814Y-42408125D01*
X143383805Y-42434145D01*
X143363562Y-42469206D01*
X143360656Y-42473766D01*
X143337446Y-42506913D01*
X143335206Y-42511717D01*
X143328229Y-42528561D01*
X143326410Y-42533559D01*
X143319383Y-42573411D01*
X143318212Y-42578691D01*
X143307735Y-42617791D01*
X143311264Y-42658113D01*
X143311500Y-42663520D01*
X143311500Y-45229011D01*
X143291815Y-45296050D01*
X143275185Y-45316687D01*
X143193587Y-45398286D01*
X143129106Y-45462767D01*
X143067783Y-45496251D01*
X142998091Y-45491267D01*
X142962761Y-45470939D01*
X142948712Y-45459410D01*
X142928607Y-45442910D01*
X142761746Y-45353720D01*
X142671218Y-45326258D01*
X142580689Y-45298797D01*
X142392400Y-45280253D01*
X142204110Y-45298797D01*
X142023051Y-45353721D01*
X141856189Y-45442912D01*
X141709937Y-45562937D01*
X141589912Y-45709189D01*
X141500721Y-45876051D01*
X141445797Y-46057110D01*
X141431075Y-46206592D01*
X141404914Y-46271379D01*
X141395353Y-46282119D01*
X140650203Y-47027270D01*
X140646214Y-47030925D01*
X140615205Y-47056945D01*
X140594962Y-47092006D01*
X140592056Y-47096566D01*
X140568846Y-47129713D01*
X140566606Y-47134517D01*
X140559629Y-47151361D01*
X140557810Y-47156359D01*
X140550783Y-47196211D01*
X140549612Y-47201491D01*
X140539135Y-47240591D01*
X140542664Y-47280913D01*
X140542900Y-47286320D01*
X140542900Y-50808478D01*
X140542664Y-50813885D01*
X140539135Y-50854208D01*
X140549612Y-50893310D01*
X140550783Y-50898590D01*
X140557811Y-50938443D01*
X140559635Y-50943455D01*
X140566597Y-50960261D01*
X140568845Y-50965081D01*
X140568846Y-50965084D01*
X140582852Y-50985087D01*
X140592055Y-50998231D01*
X140594961Y-51002792D01*
X140615206Y-51037855D01*
X140646215Y-51063875D01*
X140650205Y-51067531D01*
X140914305Y-51331631D01*
X140947790Y-51392954D01*
X140942806Y-51462646D01*
X140900934Y-51518579D01*
X140835470Y-51542996D01*
X140767197Y-51528144D01*
X140766150Y-51527566D01*
X140671357Y-51474611D01*
X140446570Y-51395188D01*
X140211609Y-51354900D01*
X140211600Y-51354900D01*
X140032903Y-51354900D01*
X140032898Y-51354900D01*
X139854863Y-51370052D01*
X139624151Y-51430124D01*
X139406919Y-51528319D01*
X139406911Y-51528324D01*
X139209406Y-51661813D01*
X139209397Y-51661821D01*
X139037281Y-51826779D01*
X138895523Y-52018450D01*
X138895520Y-52018454D01*
X138788196Y-52231320D01*
X138788193Y-52231326D01*
X138718383Y-52459278D01*
X138688102Y-52695746D01*
X138022241Y-52695746D01*
X138054939Y-40695746D01*
X138688102Y-40695746D01*
X138698219Y-40933928D01*
X138698219Y-40933932D01*
X138748445Y-41166980D01*
X138837335Y-41388188D01*
X138837336Y-41388190D01*
X138962331Y-41591195D01*
X139119836Y-41770155D01*
X139305320Y-41919923D01*
X139513446Y-42036190D01*
X139545918Y-42047663D01*
X139738229Y-42115611D01*
X139973190Y-42155899D01*
X139973198Y-42155899D01*
X139973200Y-42155900D01*
X139973201Y-42155900D01*
X140151902Y-42155900D01*
X140329936Y-42140747D01*
X140329939Y-42140746D01*
X140329941Y-42140746D01*
X140560649Y-42080675D01*
X140693373Y-42020679D01*
X140777880Y-41982480D01*
X140777881Y-41982478D01*
X140777886Y-41982477D01*
X140975403Y-41848979D01*
X141147518Y-41684021D01*
X141289279Y-41492347D01*
X141396607Y-41279474D01*
X141466416Y-41051523D01*
X141496698Y-40815054D01*
X141486580Y-40576868D01*
X141436354Y-40343819D01*
X141347464Y-40122610D01*
X141222469Y-39919605D01*
X141064964Y-39740645D01*
X140879480Y-39590877D01*
X140765530Y-39527220D01*
X140671355Y-39474610D01*
X140446570Y-39395188D01*
X140211609Y-39354900D01*
X140211600Y-39354900D01*
X140032903Y-39354900D01*
X140032898Y-39354900D01*
X139854863Y-39370052D01*
X139624151Y-39430124D01*
X139406919Y-39528319D01*
X139406911Y-39528324D01*
X139209406Y-39661813D01*
X139209397Y-39661821D01*
X139037281Y-39826779D01*
X138895523Y-40018450D01*
X138895520Y-40018454D01*
X138788196Y-40231320D01*
X138788193Y-40231326D01*
X138718383Y-40459278D01*
X138688102Y-40695746D01*
X138054939Y-40695746D01*
X138066441Y-36474401D01*
X138404918Y-36474401D01*
X138424822Y-36752699D01*
X138484127Y-37025316D01*
X138484129Y-37025323D01*
X138530857Y-37150607D01*
X138581631Y-37286738D01*
X138581633Y-37286742D01*
X138715340Y-37531607D01*
X138715345Y-37531615D01*
X138882538Y-37754960D01*
X138882554Y-37754978D01*
X139079821Y-37952245D01*
X139079839Y-37952261D01*
X139303184Y-38119454D01*
X139303192Y-38119459D01*
X139548057Y-38253166D01*
X139548061Y-38253168D01*
X139548063Y-38253169D01*
X139809477Y-38350671D01*
X139945791Y-38380324D01*
X140082100Y-38409977D01*
X140082102Y-38409977D01*
X140082106Y-38409978D01*
X140329414Y-38427665D01*
X140360399Y-38429882D01*
X140360400Y-38429882D01*
X140360401Y-38429882D01*
X140388281Y-38427887D01*
X140638694Y-38409978D01*
X140911323Y-38350671D01*
X141172737Y-38253169D01*
X141417613Y-38119456D01*
X141640968Y-37952255D01*
X141838255Y-37754968D01*
X142005456Y-37531613D01*
X142139169Y-37286737D01*
X142236671Y-37025323D01*
X142295978Y-36752694D01*
X142315882Y-36474400D01*
X142295978Y-36196106D01*
X142236671Y-35923477D01*
X142139169Y-35662063D01*
X142005456Y-35417187D01*
X142005454Y-35417184D01*
X141838261Y-35193839D01*
X141838245Y-35193821D01*
X141640978Y-34996554D01*
X141640960Y-34996538D01*
X141417615Y-34829345D01*
X141417607Y-34829340D01*
X141172742Y-34695633D01*
X141172738Y-34695631D01*
X141073630Y-34658666D01*
X140911323Y-34598129D01*
X140911319Y-34598128D01*
X140911316Y-34598127D01*
X140638699Y-34538822D01*
X140360401Y-34518918D01*
X140360399Y-34518918D01*
X140082100Y-34538822D01*
X139809483Y-34598127D01*
X139809478Y-34598128D01*
X139809477Y-34598129D01*
X139762783Y-34615545D01*
X139548061Y-34695631D01*
X139548057Y-34695633D01*
X139303192Y-34829340D01*
X139303184Y-34829345D01*
X139079839Y-34996538D01*
X139079821Y-34996554D01*
X138882554Y-35193821D01*
X138882538Y-35193839D01*
X138715345Y-35417184D01*
X138715340Y-35417192D01*
X138581633Y-35662057D01*
X138581631Y-35662061D01*
X138484127Y-35923483D01*
X138424822Y-36196100D01*
X138404918Y-36474398D01*
X138404918Y-36474401D01*
X138066441Y-36474401D01*
X138074063Y-33677061D01*
X138093931Y-33610077D01*
X138146859Y-33564466D01*
X138198063Y-33553400D01*
X162461400Y-33553400D01*
X162528439Y-33573085D01*
X162574194Y-33625889D01*
X162585400Y-33677400D01*
X162585400Y-39903400D01*
X182905399Y-39903400D01*
X182905400Y-39903400D01*
X182980106Y-36093401D01*
X193522918Y-36093401D01*
X193542822Y-36371699D01*
X193602127Y-36644316D01*
X193602129Y-36644323D01*
X193642549Y-36752694D01*
X193699631Y-36905738D01*
X193699633Y-36905742D01*
X193833340Y-37150607D01*
X193833345Y-37150615D01*
X194000538Y-37373960D01*
X194000554Y-37373978D01*
X194197821Y-37571245D01*
X194197839Y-37571261D01*
X194421184Y-37738454D01*
X194421192Y-37738459D01*
X194666057Y-37872166D01*
X194666061Y-37872168D01*
X194666063Y-37872169D01*
X194927477Y-37969671D01*
X195063791Y-37999324D01*
X195200100Y-38028977D01*
X195200102Y-38028977D01*
X195200106Y-38028978D01*
X195447414Y-38046665D01*
X195478399Y-38048882D01*
X195478400Y-38048882D01*
X195478401Y-38048882D01*
X195506281Y-38046887D01*
X195756694Y-38028978D01*
X196029323Y-37969671D01*
X196290737Y-37872169D01*
X196535613Y-37738456D01*
X196758968Y-37571255D01*
X196956255Y-37373968D01*
X197123456Y-37150613D01*
X197257169Y-36905737D01*
X197354671Y-36644323D01*
X197413978Y-36371694D01*
X197433882Y-36093400D01*
X197413978Y-35815106D01*
X197354671Y-35542477D01*
X197257169Y-35281063D01*
X197123456Y-35036187D01*
X197123454Y-35036184D01*
X196956261Y-34812839D01*
X196956245Y-34812821D01*
X196758978Y-34615554D01*
X196758960Y-34615538D01*
X196535615Y-34448345D01*
X196535607Y-34448340D01*
X196290742Y-34314633D01*
X196290738Y-34314631D01*
X196191630Y-34277666D01*
X196029323Y-34217129D01*
X196029319Y-34217128D01*
X196029316Y-34217127D01*
X195756699Y-34157822D01*
X195478401Y-34137918D01*
X195478399Y-34137918D01*
X195200100Y-34157822D01*
X194927483Y-34217127D01*
X194927478Y-34217128D01*
X194927477Y-34217129D01*
X194864275Y-34240701D01*
X194666061Y-34314631D01*
X194666057Y-34314633D01*
X194421192Y-34448340D01*
X194421184Y-34448345D01*
X194197839Y-34615538D01*
X194197821Y-34615554D01*
X194000554Y-34812821D01*
X194000538Y-34812839D01*
X193833345Y-35036184D01*
X193833340Y-35036192D01*
X193699633Y-35281057D01*
X193699631Y-35281061D01*
X193602127Y-35542483D01*
X193542822Y-35815100D01*
X193522918Y-36093398D01*
X193522918Y-36093401D01*
X182980106Y-36093401D01*
X183030006Y-33548467D01*
X183051001Y-33481828D01*
X183104692Y-33437117D01*
X183153982Y-33426900D01*
X197640061Y-33426900D01*
X197707100Y-33446585D01*
G37*
%TD.AperFunction*%
%TD*%
M02*
