M48
; DRILL file {KiCad 7.0.6} date Sun May  5 09:17:59 2024
; FORMAT={-:-/ absolute / inch / decimal}
; #@! TF.CreationDate,2024-05-05T09:17:59-05:00
; #@! TF.GenerationSoftware,Kicad,Pcbnew,7.0.6
; #@! TF.FileFunction,Plated,1,2,PTH
FMAT,2
INCH
; #@! TA.AperFunction,Plated,PTH,ViaDrill
T1C0.0157
; #@! TA.AperFunction,Plated,PTH,ComponentDrill
T2C0.0315
; #@! TA.AperFunction,Plated,PTH,ComponentDrill
T3C0.0354
; #@! TA.AperFunction,Plated,PTH,ComponentDrill
T4C0.0394
; #@! TA.AperFunction,Plated,PTH,ComponentDrill
T5C0.0520
; #@! TA.AperFunction,Plated,PTH,ComponentDrill
T6C0.0866
%
G90
G05
T1
X6.031Y-3.446
X6.12Y-3.762
X6.21Y-3.836
X6.213Y-2.192
X6.241Y-2.621
X6.29Y-3.758
X6.356Y-2.536
X6.381Y-1.776
X6.471Y-3.076
X6.5Y-4.111
X6.5357Y-3.076
X6.536Y-1.981
X6.536Y-4.442
X6.541Y-1.926
X6.551Y-1.826
X6.596Y-2.026
X6.596Y-3.076
X6.711Y-2.071
X6.848Y-3.912
X6.873Y-3.012
X7.005Y-2.741
X7.04Y-1.6761
X7.061Y-2.1761
X7.062Y-2.126
X7.237Y-2.326
X7.346Y-2.381
T2
X6.116Y-2.6566
X6.116Y-2.7566
X6.116Y-2.8566
X6.346Y-4.216
X6.346Y-4.316
X6.346Y-4.416
T3
X5.606Y-1.7404
X5.606Y-1.8207
X5.606Y-1.901
X5.606Y-2.9802
X5.606Y-3.0605
X5.606Y-3.1408
X5.606Y-3.6008
X5.606Y-3.6812
X5.606Y-3.7615
X5.6069Y-2.3606
X5.6069Y-2.4409
X5.6069Y-2.5212
X5.706Y-1.7805
X5.706Y-1.8608
X5.706Y-1.9412
X5.706Y-3.0204
X5.706Y-3.1007
X5.706Y-3.181
X5.706Y-3.641
X5.706Y-3.7213
X5.706Y-3.8016
X5.7069Y-2.4008
X5.7069Y-2.4811
X5.7069Y-2.5614
X5.8644Y-4.8004
X5.9045Y-4.7004
X5.9447Y-4.8004
X5.9849Y-4.7004
X6.025Y-4.8004
X6.0652Y-4.7004
X6.4794Y-4.8004
X6.5195Y-4.7004
X6.5597Y-4.8004
X6.5999Y-4.7004
X6.64Y-4.8004
X6.6802Y-4.7004
X7.0956Y-4.8001
X7.1358Y-4.7001
X7.1759Y-4.8001
X7.2161Y-4.7001
X7.2562Y-4.8001
X7.2964Y-4.7001
T4
X6.326Y-2.836
X6.326Y-2.936
T5
X5.552Y-4.1991
X5.552Y-4.396
X7.616Y-3.5281
X7.616Y-3.725
X7.616Y-3.9741
X7.616Y-4.171
X7.64Y-1.6611
X7.64Y-1.858
T6
X5.521Y-4.891
X5.526Y-1.436
X7.686Y-4.886
X7.696Y-1.421
T0
M30
