%TF.GenerationSoftware,KiCad,Pcbnew,7.0.6*%
%TF.CreationDate,2024-05-05T09:17:33-05:00*%
%TF.ProjectId,BOARD_ESP32_S3,424f4152-445f-4455-9350-33325f53332e,rev?*%
%TF.SameCoordinates,Original*%
%TF.FileFunction,Legend,Top*%
%TF.FilePolarity,Positive*%
%FSLAX46Y46*%
G04 Gerber Fmt 4.6, Leading zero omitted, Abs format (unit mm)*
G04 Created by KiCad (PCBNEW 7.0.6) date 2024-05-05 09:17:33*
%MOMM*%
%LPD*%
G01*
G04 APERTURE LIST*
%ADD10C,0.150000*%
%ADD11C,0.250000*%
%ADD12C,0.125000*%
%ADD13C,0.120000*%
%ADD14C,0.127000*%
%ADD15C,0.200000*%
G04 APERTURE END LIST*
D10*
X186369438Y-46891411D02*
X186321819Y-46986649D01*
X186321819Y-46986649D02*
X186321819Y-47129506D01*
X186321819Y-47129506D02*
X186369438Y-47272363D01*
X186369438Y-47272363D02*
X186464676Y-47367601D01*
X186464676Y-47367601D02*
X186559914Y-47415220D01*
X186559914Y-47415220D02*
X186750390Y-47462839D01*
X186750390Y-47462839D02*
X186893247Y-47462839D01*
X186893247Y-47462839D02*
X187083723Y-47415220D01*
X187083723Y-47415220D02*
X187178961Y-47367601D01*
X187178961Y-47367601D02*
X187274200Y-47272363D01*
X187274200Y-47272363D02*
X187321819Y-47129506D01*
X187321819Y-47129506D02*
X187321819Y-47034268D01*
X187321819Y-47034268D02*
X187274200Y-46891411D01*
X187274200Y-46891411D02*
X187226580Y-46843792D01*
X187226580Y-46843792D02*
X186893247Y-46843792D01*
X186893247Y-46843792D02*
X186893247Y-47034268D01*
X187321819Y-46415220D02*
X186321819Y-46415220D01*
X186321819Y-46415220D02*
X187321819Y-45843792D01*
X187321819Y-45843792D02*
X186321819Y-45843792D01*
X187321819Y-45367601D02*
X186321819Y-45367601D01*
X186321819Y-45367601D02*
X186321819Y-45129506D01*
X186321819Y-45129506D02*
X186369438Y-44986649D01*
X186369438Y-44986649D02*
X186464676Y-44891411D01*
X186464676Y-44891411D02*
X186559914Y-44843792D01*
X186559914Y-44843792D02*
X186750390Y-44796173D01*
X186750390Y-44796173D02*
X186893247Y-44796173D01*
X186893247Y-44796173D02*
X187083723Y-44843792D01*
X187083723Y-44843792D02*
X187178961Y-44891411D01*
X187178961Y-44891411D02*
X187274200Y-44986649D01*
X187274200Y-44986649D02*
X187321819Y-45129506D01*
X187321819Y-45129506D02*
X187321819Y-45367601D01*
X186321819Y-43748553D02*
X187321819Y-43415220D01*
X187321819Y-43415220D02*
X186321819Y-43081887D01*
X186798009Y-42415220D02*
X186845628Y-42272363D01*
X186845628Y-42272363D02*
X186893247Y-42224744D01*
X186893247Y-42224744D02*
X186988485Y-42177125D01*
X186988485Y-42177125D02*
X187131342Y-42177125D01*
X187131342Y-42177125D02*
X187226580Y-42224744D01*
X187226580Y-42224744D02*
X187274200Y-42272363D01*
X187274200Y-42272363D02*
X187321819Y-42367601D01*
X187321819Y-42367601D02*
X187321819Y-42748553D01*
X187321819Y-42748553D02*
X186321819Y-42748553D01*
X186321819Y-42748553D02*
X186321819Y-42415220D01*
X186321819Y-42415220D02*
X186369438Y-42319982D01*
X186369438Y-42319982D02*
X186417057Y-42272363D01*
X186417057Y-42272363D02*
X186512295Y-42224744D01*
X186512295Y-42224744D02*
X186607533Y-42224744D01*
X186607533Y-42224744D02*
X186702771Y-42272363D01*
X186702771Y-42272363D02*
X186750390Y-42319982D01*
X186750390Y-42319982D02*
X186798009Y-42415220D01*
X186798009Y-42415220D02*
X186798009Y-42748553D01*
X187036104Y-41796172D02*
X187036104Y-41319982D01*
X187321819Y-41891410D02*
X186321819Y-41558077D01*
X186321819Y-41558077D02*
X187321819Y-41224744D01*
X186321819Y-41034267D02*
X186321819Y-40462839D01*
X187321819Y-40748553D02*
X186321819Y-40748553D01*
D11*
X185521257Y-95593622D02*
X185449828Y-95688860D01*
X185449828Y-95688860D02*
X185449828Y-95831717D01*
X185449828Y-95831717D02*
X185521257Y-95974574D01*
X185521257Y-95974574D02*
X185664114Y-96069812D01*
X185664114Y-96069812D02*
X185806971Y-96117431D01*
X185806971Y-96117431D02*
X186092685Y-96165050D01*
X186092685Y-96165050D02*
X186306971Y-96165050D01*
X186306971Y-96165050D02*
X186592685Y-96117431D01*
X186592685Y-96117431D02*
X186735542Y-96069812D01*
X186735542Y-96069812D02*
X186878400Y-95974574D01*
X186878400Y-95974574D02*
X186949828Y-95831717D01*
X186949828Y-95831717D02*
X186949828Y-95736479D01*
X186949828Y-95736479D02*
X186878400Y-95593622D01*
X186878400Y-95593622D02*
X186806971Y-95546003D01*
X186806971Y-95546003D02*
X186306971Y-95546003D01*
X186306971Y-95546003D02*
X186306971Y-95736479D01*
X186949828Y-95117431D02*
X185449828Y-95117431D01*
X185449828Y-95117431D02*
X186949828Y-94546003D01*
X186949828Y-94546003D02*
X185449828Y-94546003D01*
X186949828Y-94069812D02*
X185449828Y-94069812D01*
X185449828Y-94069812D02*
X185449828Y-93831717D01*
X185449828Y-93831717D02*
X185521257Y-93688860D01*
X185521257Y-93688860D02*
X185664114Y-93593622D01*
X185664114Y-93593622D02*
X185806971Y-93546003D01*
X185806971Y-93546003D02*
X186092685Y-93498384D01*
X186092685Y-93498384D02*
X186306971Y-93498384D01*
X186306971Y-93498384D02*
X186592685Y-93546003D01*
X186592685Y-93546003D02*
X186735542Y-93593622D01*
X186735542Y-93593622D02*
X186878400Y-93688860D01*
X186878400Y-93688860D02*
X186949828Y-93831717D01*
X186949828Y-93831717D02*
X186949828Y-94069812D01*
X186378400Y-92307907D02*
X186378400Y-91546003D01*
X186949828Y-91926955D02*
X185806971Y-91926955D01*
X185449828Y-91212669D02*
X186949828Y-90879336D01*
X186949828Y-90879336D02*
X185449828Y-90546003D01*
X168435714Y-101197431D02*
X168435714Y-100864098D01*
X169221428Y-100721241D02*
X169221428Y-101197431D01*
X169221428Y-101197431D02*
X167721428Y-101197431D01*
X167721428Y-101197431D02*
X167721428Y-100721241D01*
X169150000Y-100340288D02*
X169221428Y-100197431D01*
X169221428Y-100197431D02*
X169221428Y-99959336D01*
X169221428Y-99959336D02*
X169150000Y-99864098D01*
X169150000Y-99864098D02*
X169078571Y-99816479D01*
X169078571Y-99816479D02*
X168935714Y-99768860D01*
X168935714Y-99768860D02*
X168792857Y-99768860D01*
X168792857Y-99768860D02*
X168650000Y-99816479D01*
X168650000Y-99816479D02*
X168578571Y-99864098D01*
X168578571Y-99864098D02*
X168507142Y-99959336D01*
X168507142Y-99959336D02*
X168435714Y-100149812D01*
X168435714Y-100149812D02*
X168364285Y-100245050D01*
X168364285Y-100245050D02*
X168292857Y-100292669D01*
X168292857Y-100292669D02*
X168150000Y-100340288D01*
X168150000Y-100340288D02*
X168007142Y-100340288D01*
X168007142Y-100340288D02*
X167864285Y-100292669D01*
X167864285Y-100292669D02*
X167792857Y-100245050D01*
X167792857Y-100245050D02*
X167721428Y-100149812D01*
X167721428Y-100149812D02*
X167721428Y-99911717D01*
X167721428Y-99911717D02*
X167792857Y-99768860D01*
X167721428Y-99483145D02*
X167721428Y-98911717D01*
X169221428Y-99197431D02*
X167721428Y-99197431D01*
X168792857Y-98626002D02*
X168792857Y-98149812D01*
X169221428Y-98721240D02*
X167721428Y-98387907D01*
X167721428Y-98387907D02*
X169221428Y-98054574D01*
X169078571Y-97149812D02*
X169150000Y-97197431D01*
X169150000Y-97197431D02*
X169221428Y-97340288D01*
X169221428Y-97340288D02*
X169221428Y-97435526D01*
X169221428Y-97435526D02*
X169150000Y-97578383D01*
X169150000Y-97578383D02*
X169007142Y-97673621D01*
X169007142Y-97673621D02*
X168864285Y-97721240D01*
X168864285Y-97721240D02*
X168578571Y-97768859D01*
X168578571Y-97768859D02*
X168364285Y-97768859D01*
X168364285Y-97768859D02*
X168078571Y-97721240D01*
X168078571Y-97721240D02*
X167935714Y-97673621D01*
X167935714Y-97673621D02*
X167792857Y-97578383D01*
X167792857Y-97578383D02*
X167721428Y-97435526D01*
X167721428Y-97435526D02*
X167721428Y-97340288D01*
X167721428Y-97340288D02*
X167792857Y-97197431D01*
X167792857Y-97197431D02*
X167864285Y-97149812D01*
X169221428Y-96721240D02*
X167721428Y-96721240D01*
X167721428Y-96054574D02*
X167721428Y-95864098D01*
X167721428Y-95864098D02*
X167792857Y-95768860D01*
X167792857Y-95768860D02*
X167935714Y-95673622D01*
X167935714Y-95673622D02*
X168221428Y-95626003D01*
X168221428Y-95626003D02*
X168721428Y-95626003D01*
X168721428Y-95626003D02*
X169007142Y-95673622D01*
X169007142Y-95673622D02*
X169150000Y-95768860D01*
X169150000Y-95768860D02*
X169221428Y-95864098D01*
X169221428Y-95864098D02*
X169221428Y-96054574D01*
X169221428Y-96054574D02*
X169150000Y-96149812D01*
X169150000Y-96149812D02*
X169007142Y-96245050D01*
X169007142Y-96245050D02*
X168721428Y-96292669D01*
X168721428Y-96292669D02*
X168221428Y-96292669D01*
X168221428Y-96292669D02*
X167935714Y-96245050D01*
X167935714Y-96245050D02*
X167792857Y-96149812D01*
X167792857Y-96149812D02*
X167721428Y-96054574D01*
X169221428Y-95197431D02*
X167721428Y-95197431D01*
X167721428Y-95197431D02*
X169221428Y-94626003D01*
X169221428Y-94626003D02*
X167721428Y-94626003D01*
X169221428Y-93387907D02*
X167721428Y-93387907D01*
X167721428Y-93387907D02*
X168792857Y-93054574D01*
X168792857Y-93054574D02*
X167721428Y-92721241D01*
X167721428Y-92721241D02*
X169221428Y-92721241D01*
X168435714Y-92245050D02*
X168435714Y-91911717D01*
X169221428Y-91768860D02*
X169221428Y-92245050D01*
X169221428Y-92245050D02*
X167721428Y-92245050D01*
X167721428Y-92245050D02*
X167721428Y-91768860D01*
X167721428Y-91483145D02*
X167721428Y-90911717D01*
X169221428Y-91197431D02*
X167721428Y-91197431D01*
X168435714Y-90578383D02*
X168435714Y-90245050D01*
X169221428Y-90102193D02*
X169221428Y-90578383D01*
X169221428Y-90578383D02*
X167721428Y-90578383D01*
X167721428Y-90578383D02*
X167721428Y-90102193D01*
X167721428Y-89483145D02*
X167721428Y-89292669D01*
X167721428Y-89292669D02*
X167792857Y-89197431D01*
X167792857Y-89197431D02*
X167935714Y-89102193D01*
X167935714Y-89102193D02*
X168221428Y-89054574D01*
X168221428Y-89054574D02*
X168721428Y-89054574D01*
X168721428Y-89054574D02*
X169007142Y-89102193D01*
X169007142Y-89102193D02*
X169150000Y-89197431D01*
X169150000Y-89197431D02*
X169221428Y-89292669D01*
X169221428Y-89292669D02*
X169221428Y-89483145D01*
X169221428Y-89483145D02*
X169150000Y-89578383D01*
X169150000Y-89578383D02*
X169007142Y-89673621D01*
X169007142Y-89673621D02*
X168721428Y-89721240D01*
X168721428Y-89721240D02*
X168221428Y-89721240D01*
X168221428Y-89721240D02*
X167935714Y-89673621D01*
X167935714Y-89673621D02*
X167792857Y-89578383D01*
X167792857Y-89578383D02*
X167721428Y-89483145D01*
X169221428Y-88054574D02*
X168507142Y-88387907D01*
X169221428Y-88626002D02*
X167721428Y-88626002D01*
X167721428Y-88626002D02*
X167721428Y-88245050D01*
X167721428Y-88245050D02*
X167792857Y-88149812D01*
X167792857Y-88149812D02*
X167864285Y-88102193D01*
X167864285Y-88102193D02*
X168007142Y-88054574D01*
X168007142Y-88054574D02*
X168221428Y-88054574D01*
X168221428Y-88054574D02*
X168364285Y-88102193D01*
X168364285Y-88102193D02*
X168435714Y-88149812D01*
X168435714Y-88149812D02*
X168507142Y-88245050D01*
X168507142Y-88245050D02*
X168507142Y-88626002D01*
X167721428Y-87435526D02*
X167721428Y-87245050D01*
X167721428Y-87245050D02*
X167792857Y-87149812D01*
X167792857Y-87149812D02*
X167935714Y-87054574D01*
X167935714Y-87054574D02*
X168221428Y-87006955D01*
X168221428Y-87006955D02*
X168721428Y-87006955D01*
X168721428Y-87006955D02*
X169007142Y-87054574D01*
X169007142Y-87054574D02*
X169150000Y-87149812D01*
X169150000Y-87149812D02*
X169221428Y-87245050D01*
X169221428Y-87245050D02*
X169221428Y-87435526D01*
X169221428Y-87435526D02*
X169150000Y-87530764D01*
X169150000Y-87530764D02*
X169007142Y-87626002D01*
X169007142Y-87626002D02*
X168721428Y-87673621D01*
X168721428Y-87673621D02*
X168221428Y-87673621D01*
X168221428Y-87673621D02*
X167935714Y-87626002D01*
X167935714Y-87626002D02*
X167792857Y-87530764D01*
X167792857Y-87530764D02*
X167721428Y-87435526D01*
X169221428Y-86102193D02*
X169221428Y-86578383D01*
X169221428Y-86578383D02*
X167721428Y-86578383D01*
X167721428Y-85578383D02*
X167721428Y-85387907D01*
X167721428Y-85387907D02*
X167792857Y-85292669D01*
X167792857Y-85292669D02*
X167935714Y-85197431D01*
X167935714Y-85197431D02*
X168221428Y-85149812D01*
X168221428Y-85149812D02*
X168721428Y-85149812D01*
X168721428Y-85149812D02*
X169007142Y-85197431D01*
X169007142Y-85197431D02*
X169150000Y-85292669D01*
X169150000Y-85292669D02*
X169221428Y-85387907D01*
X169221428Y-85387907D02*
X169221428Y-85578383D01*
X169221428Y-85578383D02*
X169150000Y-85673621D01*
X169150000Y-85673621D02*
X169007142Y-85768859D01*
X169007142Y-85768859D02*
X168721428Y-85816478D01*
X168721428Y-85816478D02*
X168221428Y-85816478D01*
X168221428Y-85816478D02*
X167935714Y-85768859D01*
X167935714Y-85768859D02*
X167792857Y-85673621D01*
X167792857Y-85673621D02*
X167721428Y-85578383D01*
X167792857Y-84197431D02*
X167721428Y-84292669D01*
X167721428Y-84292669D02*
X167721428Y-84435526D01*
X167721428Y-84435526D02*
X167792857Y-84578383D01*
X167792857Y-84578383D02*
X167935714Y-84673621D01*
X167935714Y-84673621D02*
X168078571Y-84721240D01*
X168078571Y-84721240D02*
X168364285Y-84768859D01*
X168364285Y-84768859D02*
X168578571Y-84768859D01*
X168578571Y-84768859D02*
X168864285Y-84721240D01*
X168864285Y-84721240D02*
X169007142Y-84673621D01*
X169007142Y-84673621D02*
X169150000Y-84578383D01*
X169150000Y-84578383D02*
X169221428Y-84435526D01*
X169221428Y-84435526D02*
X169221428Y-84340288D01*
X169221428Y-84340288D02*
X169150000Y-84197431D01*
X169150000Y-84197431D02*
X169078571Y-84149812D01*
X169078571Y-84149812D02*
X168578571Y-84149812D01*
X168578571Y-84149812D02*
X168578571Y-84340288D01*
X169221428Y-83721240D02*
X167721428Y-83721240D01*
X169078571Y-82673622D02*
X169150000Y-82721241D01*
X169150000Y-82721241D02*
X169221428Y-82864098D01*
X169221428Y-82864098D02*
X169221428Y-82959336D01*
X169221428Y-82959336D02*
X169150000Y-83102193D01*
X169150000Y-83102193D02*
X169007142Y-83197431D01*
X169007142Y-83197431D02*
X168864285Y-83245050D01*
X168864285Y-83245050D02*
X168578571Y-83292669D01*
X168578571Y-83292669D02*
X168364285Y-83292669D01*
X168364285Y-83292669D02*
X168078571Y-83245050D01*
X168078571Y-83245050D02*
X167935714Y-83197431D01*
X167935714Y-83197431D02*
X167792857Y-83102193D01*
X167792857Y-83102193D02*
X167721428Y-82959336D01*
X167721428Y-82959336D02*
X167721428Y-82864098D01*
X167721428Y-82864098D02*
X167792857Y-82721241D01*
X167792857Y-82721241D02*
X167864285Y-82673622D01*
X168792857Y-82292669D02*
X168792857Y-81816479D01*
X169221428Y-82387907D02*
X167721428Y-82054574D01*
X167721428Y-82054574D02*
X169221428Y-81721241D01*
X166149714Y-96292098D02*
X166221142Y-96149241D01*
X166221142Y-96149241D02*
X166292571Y-96101622D01*
X166292571Y-96101622D02*
X166435428Y-96054003D01*
X166435428Y-96054003D02*
X166649714Y-96054003D01*
X166649714Y-96054003D02*
X166792571Y-96101622D01*
X166792571Y-96101622D02*
X166864000Y-96149241D01*
X166864000Y-96149241D02*
X166935428Y-96244479D01*
X166935428Y-96244479D02*
X166935428Y-96625431D01*
X166935428Y-96625431D02*
X165435428Y-96625431D01*
X165435428Y-96625431D02*
X165435428Y-96292098D01*
X165435428Y-96292098D02*
X165506857Y-96196860D01*
X165506857Y-96196860D02*
X165578285Y-96149241D01*
X165578285Y-96149241D02*
X165721142Y-96101622D01*
X165721142Y-96101622D02*
X165864000Y-96101622D01*
X165864000Y-96101622D02*
X166006857Y-96149241D01*
X166006857Y-96149241D02*
X166078285Y-96196860D01*
X166078285Y-96196860D02*
X166149714Y-96292098D01*
X166149714Y-96292098D02*
X166149714Y-96625431D01*
X165435428Y-95434955D02*
X165435428Y-95244479D01*
X165435428Y-95244479D02*
X165506857Y-95149241D01*
X165506857Y-95149241D02*
X165649714Y-95054003D01*
X165649714Y-95054003D02*
X165935428Y-95006384D01*
X165935428Y-95006384D02*
X166435428Y-95006384D01*
X166435428Y-95006384D02*
X166721142Y-95054003D01*
X166721142Y-95054003D02*
X166864000Y-95149241D01*
X166864000Y-95149241D02*
X166935428Y-95244479D01*
X166935428Y-95244479D02*
X166935428Y-95434955D01*
X166935428Y-95434955D02*
X166864000Y-95530193D01*
X166864000Y-95530193D02*
X166721142Y-95625431D01*
X166721142Y-95625431D02*
X166435428Y-95673050D01*
X166435428Y-95673050D02*
X165935428Y-95673050D01*
X165935428Y-95673050D02*
X165649714Y-95625431D01*
X165649714Y-95625431D02*
X165506857Y-95530193D01*
X165506857Y-95530193D02*
X165435428Y-95434955D01*
X166506857Y-94625431D02*
X166506857Y-94149241D01*
X166935428Y-94720669D02*
X165435428Y-94387336D01*
X165435428Y-94387336D02*
X166935428Y-94054003D01*
X166935428Y-93149241D02*
X166221142Y-93482574D01*
X166935428Y-93720669D02*
X165435428Y-93720669D01*
X165435428Y-93720669D02*
X165435428Y-93339717D01*
X165435428Y-93339717D02*
X165506857Y-93244479D01*
X165506857Y-93244479D02*
X165578285Y-93196860D01*
X165578285Y-93196860D02*
X165721142Y-93149241D01*
X165721142Y-93149241D02*
X165935428Y-93149241D01*
X165935428Y-93149241D02*
X166078285Y-93196860D01*
X166078285Y-93196860D02*
X166149714Y-93244479D01*
X166149714Y-93244479D02*
X166221142Y-93339717D01*
X166221142Y-93339717D02*
X166221142Y-93720669D01*
X166935428Y-92720669D02*
X165435428Y-92720669D01*
X165435428Y-92720669D02*
X165435428Y-92482574D01*
X165435428Y-92482574D02*
X165506857Y-92339717D01*
X165506857Y-92339717D02*
X165649714Y-92244479D01*
X165649714Y-92244479D02*
X165792571Y-92196860D01*
X165792571Y-92196860D02*
X166078285Y-92149241D01*
X166078285Y-92149241D02*
X166292571Y-92149241D01*
X166292571Y-92149241D02*
X166578285Y-92196860D01*
X166578285Y-92196860D02*
X166721142Y-92244479D01*
X166721142Y-92244479D02*
X166864000Y-92339717D01*
X166864000Y-92339717D02*
X166935428Y-92482574D01*
X166935428Y-92482574D02*
X166935428Y-92720669D01*
X166149714Y-90625431D02*
X166221142Y-90482574D01*
X166221142Y-90482574D02*
X166292571Y-90434955D01*
X166292571Y-90434955D02*
X166435428Y-90387336D01*
X166435428Y-90387336D02*
X166649714Y-90387336D01*
X166649714Y-90387336D02*
X166792571Y-90434955D01*
X166792571Y-90434955D02*
X166864000Y-90482574D01*
X166864000Y-90482574D02*
X166935428Y-90577812D01*
X166935428Y-90577812D02*
X166935428Y-90958764D01*
X166935428Y-90958764D02*
X165435428Y-90958764D01*
X165435428Y-90958764D02*
X165435428Y-90625431D01*
X165435428Y-90625431D02*
X165506857Y-90530193D01*
X165506857Y-90530193D02*
X165578285Y-90482574D01*
X165578285Y-90482574D02*
X165721142Y-90434955D01*
X165721142Y-90434955D02*
X165864000Y-90434955D01*
X165864000Y-90434955D02*
X166006857Y-90482574D01*
X166006857Y-90482574D02*
X166078285Y-90530193D01*
X166078285Y-90530193D02*
X166149714Y-90625431D01*
X166149714Y-90625431D02*
X166149714Y-90958764D01*
X166506857Y-90006383D02*
X166506857Y-89530193D01*
X166935428Y-90101621D02*
X165435428Y-89768288D01*
X165435428Y-89768288D02*
X166935428Y-89434955D01*
X166864000Y-89149240D02*
X166935428Y-89006383D01*
X166935428Y-89006383D02*
X166935428Y-88768288D01*
X166935428Y-88768288D02*
X166864000Y-88673050D01*
X166864000Y-88673050D02*
X166792571Y-88625431D01*
X166792571Y-88625431D02*
X166649714Y-88577812D01*
X166649714Y-88577812D02*
X166506857Y-88577812D01*
X166506857Y-88577812D02*
X166364000Y-88625431D01*
X166364000Y-88625431D02*
X166292571Y-88673050D01*
X166292571Y-88673050D02*
X166221142Y-88768288D01*
X166221142Y-88768288D02*
X166149714Y-88958764D01*
X166149714Y-88958764D02*
X166078285Y-89054002D01*
X166078285Y-89054002D02*
X166006857Y-89101621D01*
X166006857Y-89101621D02*
X165864000Y-89149240D01*
X165864000Y-89149240D02*
X165721142Y-89149240D01*
X165721142Y-89149240D02*
X165578285Y-89101621D01*
X165578285Y-89101621D02*
X165506857Y-89054002D01*
X165506857Y-89054002D02*
X165435428Y-88958764D01*
X165435428Y-88958764D02*
X165435428Y-88720669D01*
X165435428Y-88720669D02*
X165506857Y-88577812D01*
X166149714Y-88149240D02*
X166149714Y-87815907D01*
X166935428Y-87673050D02*
X166935428Y-88149240D01*
X166935428Y-88149240D02*
X165435428Y-88149240D01*
X165435428Y-88149240D02*
X165435428Y-87673050D01*
D10*
X173482095Y-80988819D02*
X173482095Y-81798342D01*
X173482095Y-81798342D02*
X173529714Y-81893580D01*
X173529714Y-81893580D02*
X173577333Y-81941200D01*
X173577333Y-81941200D02*
X173672571Y-81988819D01*
X173672571Y-81988819D02*
X173863047Y-81988819D01*
X173863047Y-81988819D02*
X173958285Y-81941200D01*
X173958285Y-81941200D02*
X174005904Y-81893580D01*
X174005904Y-81893580D02*
X174053523Y-81798342D01*
X174053523Y-81798342D02*
X174053523Y-80988819D01*
X174434476Y-80988819D02*
X175053523Y-80988819D01*
X175053523Y-80988819D02*
X174720190Y-81369771D01*
X174720190Y-81369771D02*
X174863047Y-81369771D01*
X174863047Y-81369771D02*
X174958285Y-81417390D01*
X174958285Y-81417390D02*
X175005904Y-81465009D01*
X175005904Y-81465009D02*
X175053523Y-81560247D01*
X175053523Y-81560247D02*
X175053523Y-81798342D01*
X175053523Y-81798342D02*
X175005904Y-81893580D01*
X175005904Y-81893580D02*
X174958285Y-81941200D01*
X174958285Y-81941200D02*
X174863047Y-81988819D01*
X174863047Y-81988819D02*
X174577333Y-81988819D01*
X174577333Y-81988819D02*
X174482095Y-81941200D01*
X174482095Y-81941200D02*
X174434476Y-81893580D01*
X152931905Y-107896819D02*
X152931905Y-106896819D01*
X152931905Y-106896819D02*
X153170000Y-106896819D01*
X153170000Y-106896819D02*
X153312857Y-106944438D01*
X153312857Y-106944438D02*
X153408095Y-107039676D01*
X153408095Y-107039676D02*
X153455714Y-107134914D01*
X153455714Y-107134914D02*
X153503333Y-107325390D01*
X153503333Y-107325390D02*
X153503333Y-107468247D01*
X153503333Y-107468247D02*
X153455714Y-107658723D01*
X153455714Y-107658723D02*
X153408095Y-107753961D01*
X153408095Y-107753961D02*
X153312857Y-107849200D01*
X153312857Y-107849200D02*
X153170000Y-107896819D01*
X153170000Y-107896819D02*
X152931905Y-107896819D01*
X154360476Y-107230152D02*
X154360476Y-107896819D01*
X154122381Y-106849200D02*
X153884286Y-107563485D01*
X153884286Y-107563485D02*
X154503333Y-107563485D01*
X153439905Y-41324419D02*
X153439905Y-40324419D01*
X153439905Y-40324419D02*
X153678000Y-40324419D01*
X153678000Y-40324419D02*
X153820857Y-40372038D01*
X153820857Y-40372038D02*
X153916095Y-40467276D01*
X153916095Y-40467276D02*
X153963714Y-40562514D01*
X153963714Y-40562514D02*
X154011333Y-40752990D01*
X154011333Y-40752990D02*
X154011333Y-40895847D01*
X154011333Y-40895847D02*
X153963714Y-41086323D01*
X153963714Y-41086323D02*
X153916095Y-41181561D01*
X153916095Y-41181561D02*
X153820857Y-41276800D01*
X153820857Y-41276800D02*
X153678000Y-41324419D01*
X153678000Y-41324419D02*
X153439905Y-41324419D01*
X154344667Y-40324419D02*
X154963714Y-40324419D01*
X154963714Y-40324419D02*
X154630381Y-40705371D01*
X154630381Y-40705371D02*
X154773238Y-40705371D01*
X154773238Y-40705371D02*
X154868476Y-40752990D01*
X154868476Y-40752990D02*
X154916095Y-40800609D01*
X154916095Y-40800609D02*
X154963714Y-40895847D01*
X154963714Y-40895847D02*
X154963714Y-41133942D01*
X154963714Y-41133942D02*
X154916095Y-41229180D01*
X154916095Y-41229180D02*
X154868476Y-41276800D01*
X154868476Y-41276800D02*
X154773238Y-41324419D01*
X154773238Y-41324419D02*
X154487524Y-41324419D01*
X154487524Y-41324419D02*
X154392286Y-41276800D01*
X154392286Y-41276800D02*
X154344667Y-41229180D01*
X149198219Y-68613257D02*
X148722028Y-68946590D01*
X149198219Y-69184685D02*
X148198219Y-69184685D01*
X148198219Y-69184685D02*
X148198219Y-68803733D01*
X148198219Y-68803733D02*
X148245838Y-68708495D01*
X148245838Y-68708495D02*
X148293457Y-68660876D01*
X148293457Y-68660876D02*
X148388695Y-68613257D01*
X148388695Y-68613257D02*
X148531552Y-68613257D01*
X148531552Y-68613257D02*
X148626790Y-68660876D01*
X148626790Y-68660876D02*
X148674409Y-68708495D01*
X148674409Y-68708495D02*
X148722028Y-68803733D01*
X148722028Y-68803733D02*
X148722028Y-69184685D01*
X149198219Y-67660876D02*
X149198219Y-68232304D01*
X149198219Y-67946590D02*
X148198219Y-67946590D01*
X148198219Y-67946590D02*
X148341076Y-68041828D01*
X148341076Y-68041828D02*
X148436314Y-68137066D01*
X148436314Y-68137066D02*
X148483933Y-68232304D01*
X148198219Y-67041828D02*
X148198219Y-66946590D01*
X148198219Y-66946590D02*
X148245838Y-66851352D01*
X148245838Y-66851352D02*
X148293457Y-66803733D01*
X148293457Y-66803733D02*
X148388695Y-66756114D01*
X148388695Y-66756114D02*
X148579171Y-66708495D01*
X148579171Y-66708495D02*
X148817266Y-66708495D01*
X148817266Y-66708495D02*
X149007742Y-66756114D01*
X149007742Y-66756114D02*
X149102980Y-66803733D01*
X149102980Y-66803733D02*
X149150600Y-66851352D01*
X149150600Y-66851352D02*
X149198219Y-66946590D01*
X149198219Y-66946590D02*
X149198219Y-67041828D01*
X149198219Y-67041828D02*
X149150600Y-67137066D01*
X149150600Y-67137066D02*
X149102980Y-67184685D01*
X149102980Y-67184685D02*
X149007742Y-67232304D01*
X149007742Y-67232304D02*
X148817266Y-67279923D01*
X148817266Y-67279923D02*
X148579171Y-67279923D01*
X148579171Y-67279923D02*
X148388695Y-67232304D01*
X148388695Y-67232304D02*
X148293457Y-67184685D01*
X148293457Y-67184685D02*
X148245838Y-67137066D01*
X148245838Y-67137066D02*
X148198219Y-67041828D01*
X194462495Y-120856838D02*
X194367257Y-120809219D01*
X194367257Y-120809219D02*
X194224400Y-120809219D01*
X194224400Y-120809219D02*
X194081543Y-120856838D01*
X194081543Y-120856838D02*
X193986305Y-120952076D01*
X193986305Y-120952076D02*
X193938686Y-121047314D01*
X193938686Y-121047314D02*
X193891067Y-121237790D01*
X193891067Y-121237790D02*
X193891067Y-121380647D01*
X193891067Y-121380647D02*
X193938686Y-121571123D01*
X193938686Y-121571123D02*
X193986305Y-121666361D01*
X193986305Y-121666361D02*
X194081543Y-121761600D01*
X194081543Y-121761600D02*
X194224400Y-121809219D01*
X194224400Y-121809219D02*
X194319638Y-121809219D01*
X194319638Y-121809219D02*
X194462495Y-121761600D01*
X194462495Y-121761600D02*
X194510114Y-121713980D01*
X194510114Y-121713980D02*
X194510114Y-121380647D01*
X194510114Y-121380647D02*
X194319638Y-121380647D01*
X194938686Y-121809219D02*
X194938686Y-120809219D01*
X194938686Y-120809219D02*
X195510114Y-121809219D01*
X195510114Y-121809219D02*
X195510114Y-120809219D01*
X195986305Y-121809219D02*
X195986305Y-120809219D01*
X195986305Y-120809219D02*
X196224400Y-120809219D01*
X196224400Y-120809219D02*
X196367257Y-120856838D01*
X196367257Y-120856838D02*
X196462495Y-120952076D01*
X196462495Y-120952076D02*
X196510114Y-121047314D01*
X196510114Y-121047314D02*
X196557733Y-121237790D01*
X196557733Y-121237790D02*
X196557733Y-121380647D01*
X196557733Y-121380647D02*
X196510114Y-121571123D01*
X196510114Y-121571123D02*
X196462495Y-121666361D01*
X196462495Y-121666361D02*
X196367257Y-121761600D01*
X196367257Y-121761600D02*
X196224400Y-121809219D01*
X196224400Y-121809219D02*
X195986305Y-121809219D01*
X139471495Y-120983838D02*
X139376257Y-120936219D01*
X139376257Y-120936219D02*
X139233400Y-120936219D01*
X139233400Y-120936219D02*
X139090543Y-120983838D01*
X139090543Y-120983838D02*
X138995305Y-121079076D01*
X138995305Y-121079076D02*
X138947686Y-121174314D01*
X138947686Y-121174314D02*
X138900067Y-121364790D01*
X138900067Y-121364790D02*
X138900067Y-121507647D01*
X138900067Y-121507647D02*
X138947686Y-121698123D01*
X138947686Y-121698123D02*
X138995305Y-121793361D01*
X138995305Y-121793361D02*
X139090543Y-121888600D01*
X139090543Y-121888600D02*
X139233400Y-121936219D01*
X139233400Y-121936219D02*
X139328638Y-121936219D01*
X139328638Y-121936219D02*
X139471495Y-121888600D01*
X139471495Y-121888600D02*
X139519114Y-121840980D01*
X139519114Y-121840980D02*
X139519114Y-121507647D01*
X139519114Y-121507647D02*
X139328638Y-121507647D01*
X139947686Y-121936219D02*
X139947686Y-120936219D01*
X139947686Y-120936219D02*
X140519114Y-121936219D01*
X140519114Y-121936219D02*
X140519114Y-120936219D01*
X140995305Y-121936219D02*
X140995305Y-120936219D01*
X140995305Y-120936219D02*
X141233400Y-120936219D01*
X141233400Y-120936219D02*
X141376257Y-120983838D01*
X141376257Y-120983838D02*
X141471495Y-121079076D01*
X141471495Y-121079076D02*
X141519114Y-121174314D01*
X141519114Y-121174314D02*
X141566733Y-121364790D01*
X141566733Y-121364790D02*
X141566733Y-121507647D01*
X141566733Y-121507647D02*
X141519114Y-121698123D01*
X141519114Y-121698123D02*
X141471495Y-121793361D01*
X141471495Y-121793361D02*
X141376257Y-121888600D01*
X141376257Y-121888600D02*
X141233400Y-121936219D01*
X141233400Y-121936219D02*
X140995305Y-121936219D01*
X156826819Y-102054904D02*
X157636342Y-102054904D01*
X157636342Y-102054904D02*
X157731580Y-102007285D01*
X157731580Y-102007285D02*
X157779200Y-101959666D01*
X157779200Y-101959666D02*
X157826819Y-101864428D01*
X157826819Y-101864428D02*
X157826819Y-101673952D01*
X157826819Y-101673952D02*
X157779200Y-101578714D01*
X157779200Y-101578714D02*
X157731580Y-101531095D01*
X157731580Y-101531095D02*
X157636342Y-101483476D01*
X157636342Y-101483476D02*
X156826819Y-101483476D01*
X156826819Y-100578714D02*
X156826819Y-100769190D01*
X156826819Y-100769190D02*
X156874438Y-100864428D01*
X156874438Y-100864428D02*
X156922057Y-100912047D01*
X156922057Y-100912047D02*
X157064914Y-101007285D01*
X157064914Y-101007285D02*
X157255390Y-101054904D01*
X157255390Y-101054904D02*
X157636342Y-101054904D01*
X157636342Y-101054904D02*
X157731580Y-101007285D01*
X157731580Y-101007285D02*
X157779200Y-100959666D01*
X157779200Y-100959666D02*
X157826819Y-100864428D01*
X157826819Y-100864428D02*
X157826819Y-100673952D01*
X157826819Y-100673952D02*
X157779200Y-100578714D01*
X157779200Y-100578714D02*
X157731580Y-100531095D01*
X157731580Y-100531095D02*
X157636342Y-100483476D01*
X157636342Y-100483476D02*
X157398247Y-100483476D01*
X157398247Y-100483476D02*
X157303009Y-100531095D01*
X157303009Y-100531095D02*
X157255390Y-100578714D01*
X157255390Y-100578714D02*
X157207771Y-100673952D01*
X157207771Y-100673952D02*
X157207771Y-100864428D01*
X157207771Y-100864428D02*
X157255390Y-100959666D01*
X157255390Y-100959666D02*
X157303009Y-101007285D01*
X157303009Y-101007285D02*
X157398247Y-101054904D01*
X165046819Y-103282476D02*
X165046819Y-103758666D01*
X165046819Y-103758666D02*
X164046819Y-103758666D01*
X165046819Y-102949142D02*
X164046819Y-102949142D01*
X164046819Y-102949142D02*
X164761104Y-102615809D01*
X164761104Y-102615809D02*
X164046819Y-102282476D01*
X164046819Y-102282476D02*
X165046819Y-102282476D01*
X164046819Y-101901523D02*
X164046819Y-101282476D01*
X164046819Y-101282476D02*
X164427771Y-101615809D01*
X164427771Y-101615809D02*
X164427771Y-101472952D01*
X164427771Y-101472952D02*
X164475390Y-101377714D01*
X164475390Y-101377714D02*
X164523009Y-101330095D01*
X164523009Y-101330095D02*
X164618247Y-101282476D01*
X164618247Y-101282476D02*
X164856342Y-101282476D01*
X164856342Y-101282476D02*
X164951580Y-101330095D01*
X164951580Y-101330095D02*
X164999200Y-101377714D01*
X164999200Y-101377714D02*
X165046819Y-101472952D01*
X165046819Y-101472952D02*
X165046819Y-101758666D01*
X165046819Y-101758666D02*
X164999200Y-101853904D01*
X164999200Y-101853904D02*
X164951580Y-101901523D01*
X165046819Y-100806285D02*
X165046819Y-100615809D01*
X165046819Y-100615809D02*
X164999200Y-100520571D01*
X164999200Y-100520571D02*
X164951580Y-100472952D01*
X164951580Y-100472952D02*
X164808723Y-100377714D01*
X164808723Y-100377714D02*
X164618247Y-100330095D01*
X164618247Y-100330095D02*
X164237295Y-100330095D01*
X164237295Y-100330095D02*
X164142057Y-100377714D01*
X164142057Y-100377714D02*
X164094438Y-100425333D01*
X164094438Y-100425333D02*
X164046819Y-100520571D01*
X164046819Y-100520571D02*
X164046819Y-100711047D01*
X164046819Y-100711047D02*
X164094438Y-100806285D01*
X164094438Y-100806285D02*
X164142057Y-100853904D01*
X164142057Y-100853904D02*
X164237295Y-100901523D01*
X164237295Y-100901523D02*
X164475390Y-100901523D01*
X164475390Y-100901523D02*
X164570628Y-100853904D01*
X164570628Y-100853904D02*
X164618247Y-100806285D01*
X164618247Y-100806285D02*
X164665866Y-100711047D01*
X164665866Y-100711047D02*
X164665866Y-100520571D01*
X164665866Y-100520571D02*
X164618247Y-100425333D01*
X164618247Y-100425333D02*
X164570628Y-100377714D01*
X164570628Y-100377714D02*
X164475390Y-100330095D01*
X164046819Y-99996761D02*
X164046819Y-99377714D01*
X164046819Y-99377714D02*
X164427771Y-99711047D01*
X164427771Y-99711047D02*
X164427771Y-99568190D01*
X164427771Y-99568190D02*
X164475390Y-99472952D01*
X164475390Y-99472952D02*
X164523009Y-99425333D01*
X164523009Y-99425333D02*
X164618247Y-99377714D01*
X164618247Y-99377714D02*
X164856342Y-99377714D01*
X164856342Y-99377714D02*
X164951580Y-99425333D01*
X164951580Y-99425333D02*
X164999200Y-99472952D01*
X164999200Y-99472952D02*
X165046819Y-99568190D01*
X165046819Y-99568190D02*
X165046819Y-99853904D01*
X165046819Y-99853904D02*
X164999200Y-99949142D01*
X164999200Y-99949142D02*
X164951580Y-99996761D01*
X165046819Y-98949142D02*
X164046819Y-98949142D01*
X164046819Y-98949142D02*
X164046819Y-98711047D01*
X164046819Y-98711047D02*
X164094438Y-98568190D01*
X164094438Y-98568190D02*
X164189676Y-98472952D01*
X164189676Y-98472952D02*
X164284914Y-98425333D01*
X164284914Y-98425333D02*
X164475390Y-98377714D01*
X164475390Y-98377714D02*
X164618247Y-98377714D01*
X164618247Y-98377714D02*
X164808723Y-98425333D01*
X164808723Y-98425333D02*
X164903961Y-98472952D01*
X164903961Y-98472952D02*
X164999200Y-98568190D01*
X164999200Y-98568190D02*
X165046819Y-98711047D01*
X165046819Y-98711047D02*
X165046819Y-98949142D01*
X150060819Y-98686285D02*
X149060819Y-98686285D01*
X149060819Y-98686285D02*
X149060819Y-98305333D01*
X149060819Y-98305333D02*
X149108438Y-98210095D01*
X149108438Y-98210095D02*
X149156057Y-98162476D01*
X149156057Y-98162476D02*
X149251295Y-98114857D01*
X149251295Y-98114857D02*
X149394152Y-98114857D01*
X149394152Y-98114857D02*
X149489390Y-98162476D01*
X149489390Y-98162476D02*
X149537009Y-98210095D01*
X149537009Y-98210095D02*
X149584628Y-98305333D01*
X149584628Y-98305333D02*
X149584628Y-98686285D01*
X150060819Y-97210095D02*
X150060819Y-97686285D01*
X150060819Y-97686285D02*
X149060819Y-97686285D01*
X149060819Y-96876761D02*
X149870342Y-96876761D01*
X149870342Y-96876761D02*
X149965580Y-96829142D01*
X149965580Y-96829142D02*
X150013200Y-96781523D01*
X150013200Y-96781523D02*
X150060819Y-96686285D01*
X150060819Y-96686285D02*
X150060819Y-96495809D01*
X150060819Y-96495809D02*
X150013200Y-96400571D01*
X150013200Y-96400571D02*
X149965580Y-96352952D01*
X149965580Y-96352952D02*
X149870342Y-96305333D01*
X149870342Y-96305333D02*
X149060819Y-96305333D01*
X149060819Y-95971999D02*
X150060819Y-95638666D01*
X150060819Y-95638666D02*
X149060819Y-95305333D01*
X150060819Y-94971999D02*
X149060819Y-94971999D01*
X149060819Y-94305333D02*
X149060819Y-94114857D01*
X149060819Y-94114857D02*
X149108438Y-94019619D01*
X149108438Y-94019619D02*
X149203676Y-93924381D01*
X149203676Y-93924381D02*
X149394152Y-93876762D01*
X149394152Y-93876762D02*
X149727485Y-93876762D01*
X149727485Y-93876762D02*
X149917961Y-93924381D01*
X149917961Y-93924381D02*
X150013200Y-94019619D01*
X150013200Y-94019619D02*
X150060819Y-94114857D01*
X150060819Y-94114857D02*
X150060819Y-94305333D01*
X150060819Y-94305333D02*
X150013200Y-94400571D01*
X150013200Y-94400571D02*
X149917961Y-94495809D01*
X149917961Y-94495809D02*
X149727485Y-94543428D01*
X149727485Y-94543428D02*
X149394152Y-94543428D01*
X149394152Y-94543428D02*
X149203676Y-94495809D01*
X149203676Y-94495809D02*
X149108438Y-94400571D01*
X149108438Y-94400571D02*
X149060819Y-94305333D01*
X150060819Y-93448190D02*
X149060819Y-93448190D01*
X149060819Y-93448190D02*
X149775104Y-93114857D01*
X149775104Y-93114857D02*
X149060819Y-92781524D01*
X149060819Y-92781524D02*
X150060819Y-92781524D01*
X149537009Y-92305333D02*
X149537009Y-91972000D01*
X150060819Y-91829143D02*
X150060819Y-92305333D01*
X150060819Y-92305333D02*
X149060819Y-92305333D01*
X149060819Y-92305333D02*
X149060819Y-91829143D01*
X149060819Y-91543428D02*
X149060819Y-90972000D01*
X150060819Y-91257714D02*
X149060819Y-91257714D01*
X149537009Y-90638666D02*
X149537009Y-90305333D01*
X150060819Y-90162476D02*
X150060819Y-90638666D01*
X150060819Y-90638666D02*
X149060819Y-90638666D01*
X149060819Y-90638666D02*
X149060819Y-90162476D01*
X150060819Y-89162476D02*
X149584628Y-89495809D01*
X150060819Y-89733904D02*
X149060819Y-89733904D01*
X149060819Y-89733904D02*
X149060819Y-89352952D01*
X149060819Y-89352952D02*
X149108438Y-89257714D01*
X149108438Y-89257714D02*
X149156057Y-89210095D01*
X149156057Y-89210095D02*
X149251295Y-89162476D01*
X149251295Y-89162476D02*
X149394152Y-89162476D01*
X149394152Y-89162476D02*
X149489390Y-89210095D01*
X149489390Y-89210095D02*
X149537009Y-89257714D01*
X149537009Y-89257714D02*
X149584628Y-89352952D01*
X149584628Y-89352952D02*
X149584628Y-89733904D01*
X150060819Y-88210095D02*
X150060819Y-88781523D01*
X150060819Y-88495809D02*
X149060819Y-88495809D01*
X149060819Y-88495809D02*
X149203676Y-88591047D01*
X149203676Y-88591047D02*
X149298914Y-88686285D01*
X149298914Y-88686285D02*
X149346533Y-88781523D01*
X194825580Y-59073166D02*
X194873200Y-59120785D01*
X194873200Y-59120785D02*
X194920819Y-59263642D01*
X194920819Y-59263642D02*
X194920819Y-59358880D01*
X194920819Y-59358880D02*
X194873200Y-59501737D01*
X194873200Y-59501737D02*
X194777961Y-59596975D01*
X194777961Y-59596975D02*
X194682723Y-59644594D01*
X194682723Y-59644594D02*
X194492247Y-59692213D01*
X194492247Y-59692213D02*
X194349390Y-59692213D01*
X194349390Y-59692213D02*
X194158914Y-59644594D01*
X194158914Y-59644594D02*
X194063676Y-59596975D01*
X194063676Y-59596975D02*
X193968438Y-59501737D01*
X193968438Y-59501737D02*
X193920819Y-59358880D01*
X193920819Y-59358880D02*
X193920819Y-59263642D01*
X193920819Y-59263642D02*
X193968438Y-59120785D01*
X193968438Y-59120785D02*
X194016057Y-59073166D01*
X193920819Y-58216023D02*
X193920819Y-58406499D01*
X193920819Y-58406499D02*
X193968438Y-58501737D01*
X193968438Y-58501737D02*
X194016057Y-58549356D01*
X194016057Y-58549356D02*
X194158914Y-58644594D01*
X194158914Y-58644594D02*
X194349390Y-58692213D01*
X194349390Y-58692213D02*
X194730342Y-58692213D01*
X194730342Y-58692213D02*
X194825580Y-58644594D01*
X194825580Y-58644594D02*
X194873200Y-58596975D01*
X194873200Y-58596975D02*
X194920819Y-58501737D01*
X194920819Y-58501737D02*
X194920819Y-58311261D01*
X194920819Y-58311261D02*
X194873200Y-58216023D01*
X194873200Y-58216023D02*
X194825580Y-58168404D01*
X194825580Y-58168404D02*
X194730342Y-58120785D01*
X194730342Y-58120785D02*
X194492247Y-58120785D01*
X194492247Y-58120785D02*
X194397009Y-58168404D01*
X194397009Y-58168404D02*
X194349390Y-58216023D01*
X194349390Y-58216023D02*
X194301771Y-58311261D01*
X194301771Y-58311261D02*
X194301771Y-58501737D01*
X194301771Y-58501737D02*
X194349390Y-58596975D01*
X194349390Y-58596975D02*
X194397009Y-58644594D01*
X194397009Y-58644594D02*
X194492247Y-58692213D01*
D12*
X158520790Y-94860228D02*
X158544600Y-94884037D01*
X158544600Y-94884037D02*
X158568409Y-94955466D01*
X158568409Y-94955466D02*
X158568409Y-95003085D01*
X158568409Y-95003085D02*
X158544600Y-95074513D01*
X158544600Y-95074513D02*
X158496980Y-95122132D01*
X158496980Y-95122132D02*
X158449361Y-95145942D01*
X158449361Y-95145942D02*
X158354123Y-95169751D01*
X158354123Y-95169751D02*
X158282695Y-95169751D01*
X158282695Y-95169751D02*
X158187457Y-95145942D01*
X158187457Y-95145942D02*
X158139838Y-95122132D01*
X158139838Y-95122132D02*
X158092219Y-95074513D01*
X158092219Y-95074513D02*
X158068409Y-95003085D01*
X158068409Y-95003085D02*
X158068409Y-94955466D01*
X158068409Y-94955466D02*
X158092219Y-94884037D01*
X158092219Y-94884037D02*
X158116028Y-94860228D01*
X158568409Y-94384037D02*
X158568409Y-94669751D01*
X158568409Y-94526894D02*
X158068409Y-94526894D01*
X158068409Y-94526894D02*
X158139838Y-94574513D01*
X158139838Y-94574513D02*
X158187457Y-94622132D01*
X158187457Y-94622132D02*
X158211266Y-94669751D01*
X158068409Y-93955466D02*
X158068409Y-94050704D01*
X158068409Y-94050704D02*
X158092219Y-94098323D01*
X158092219Y-94098323D02*
X158116028Y-94122133D01*
X158116028Y-94122133D02*
X158187457Y-94169752D01*
X158187457Y-94169752D02*
X158282695Y-94193561D01*
X158282695Y-94193561D02*
X158473171Y-94193561D01*
X158473171Y-94193561D02*
X158520790Y-94169752D01*
X158520790Y-94169752D02*
X158544600Y-94145942D01*
X158544600Y-94145942D02*
X158568409Y-94098323D01*
X158568409Y-94098323D02*
X158568409Y-94003085D01*
X158568409Y-94003085D02*
X158544600Y-93955466D01*
X158544600Y-93955466D02*
X158520790Y-93931657D01*
X158520790Y-93931657D02*
X158473171Y-93907847D01*
X158473171Y-93907847D02*
X158354123Y-93907847D01*
X158354123Y-93907847D02*
X158306504Y-93931657D01*
X158306504Y-93931657D02*
X158282695Y-93955466D01*
X158282695Y-93955466D02*
X158258885Y-94003085D01*
X158258885Y-94003085D02*
X158258885Y-94098323D01*
X158258885Y-94098323D02*
X158282695Y-94145942D01*
X158282695Y-94145942D02*
X158306504Y-94169752D01*
X158306504Y-94169752D02*
X158354123Y-94193561D01*
D10*
X147899905Y-115532819D02*
X148471333Y-115532819D01*
X148185619Y-116532819D02*
X148185619Y-115532819D01*
X148804667Y-116009009D02*
X149138000Y-116009009D01*
X149280857Y-116532819D02*
X148804667Y-116532819D01*
X148804667Y-116532819D02*
X148804667Y-115532819D01*
X148804667Y-115532819D02*
X149280857Y-115532819D01*
X149709429Y-116532819D02*
X149709429Y-115532819D01*
X149709429Y-115532819D02*
X150042762Y-116247104D01*
X150042762Y-116247104D02*
X150376095Y-115532819D01*
X150376095Y-115532819D02*
X150376095Y-116532819D01*
X150852286Y-116532819D02*
X150852286Y-115532819D01*
X150852286Y-115532819D02*
X151233238Y-115532819D01*
X151233238Y-115532819D02*
X151328476Y-115580438D01*
X151328476Y-115580438D02*
X151376095Y-115628057D01*
X151376095Y-115628057D02*
X151423714Y-115723295D01*
X151423714Y-115723295D02*
X151423714Y-115866152D01*
X151423714Y-115866152D02*
X151376095Y-115961390D01*
X151376095Y-115961390D02*
X151328476Y-116009009D01*
X151328476Y-116009009D02*
X151233238Y-116056628D01*
X151233238Y-116056628D02*
X150852286Y-116056628D01*
X151614191Y-116628057D02*
X152376095Y-116628057D01*
X153090381Y-115532819D02*
X152614191Y-115532819D01*
X152614191Y-115532819D02*
X152566572Y-116009009D01*
X152566572Y-116009009D02*
X152614191Y-115961390D01*
X152614191Y-115961390D02*
X152709429Y-115913771D01*
X152709429Y-115913771D02*
X152947524Y-115913771D01*
X152947524Y-115913771D02*
X153042762Y-115961390D01*
X153042762Y-115961390D02*
X153090381Y-116009009D01*
X153090381Y-116009009D02*
X153138000Y-116104247D01*
X153138000Y-116104247D02*
X153138000Y-116342342D01*
X153138000Y-116342342D02*
X153090381Y-116437580D01*
X153090381Y-116437580D02*
X153042762Y-116485200D01*
X153042762Y-116485200D02*
X152947524Y-116532819D01*
X152947524Y-116532819D02*
X152709429Y-116532819D01*
X152709429Y-116532819D02*
X152614191Y-116485200D01*
X152614191Y-116485200D02*
X152566572Y-116437580D01*
X154138000Y-116437580D02*
X154090381Y-116485200D01*
X154090381Y-116485200D02*
X153947524Y-116532819D01*
X153947524Y-116532819D02*
X153852286Y-116532819D01*
X153852286Y-116532819D02*
X153709429Y-116485200D01*
X153709429Y-116485200D02*
X153614191Y-116389961D01*
X153614191Y-116389961D02*
X153566572Y-116294723D01*
X153566572Y-116294723D02*
X153518953Y-116104247D01*
X153518953Y-116104247D02*
X153518953Y-115961390D01*
X153518953Y-115961390D02*
X153566572Y-115770914D01*
X153566572Y-115770914D02*
X153614191Y-115675676D01*
X153614191Y-115675676D02*
X153709429Y-115580438D01*
X153709429Y-115580438D02*
X153852286Y-115532819D01*
X153852286Y-115532819D02*
X153947524Y-115532819D01*
X153947524Y-115532819D02*
X154090381Y-115580438D01*
X154090381Y-115580438D02*
X154138000Y-115628057D01*
X154566572Y-116532819D02*
X154566572Y-115532819D01*
X154566572Y-115532819D02*
X154899905Y-116247104D01*
X154899905Y-116247104D02*
X155233238Y-115532819D01*
X155233238Y-115532819D02*
X155233238Y-116532819D01*
D12*
X160702009Y-94760528D02*
X160463914Y-94927194D01*
X160702009Y-95046242D02*
X160202009Y-95046242D01*
X160202009Y-95046242D02*
X160202009Y-94855766D01*
X160202009Y-94855766D02*
X160225819Y-94808147D01*
X160225819Y-94808147D02*
X160249628Y-94784337D01*
X160249628Y-94784337D02*
X160297247Y-94760528D01*
X160297247Y-94760528D02*
X160368676Y-94760528D01*
X160368676Y-94760528D02*
X160416295Y-94784337D01*
X160416295Y-94784337D02*
X160440104Y-94808147D01*
X160440104Y-94808147D02*
X160463914Y-94855766D01*
X160463914Y-94855766D02*
X160463914Y-95046242D01*
X160702009Y-94284337D02*
X160702009Y-94570051D01*
X160702009Y-94427194D02*
X160202009Y-94427194D01*
X160202009Y-94427194D02*
X160273438Y-94474813D01*
X160273438Y-94474813D02*
X160321057Y-94522432D01*
X160321057Y-94522432D02*
X160344866Y-94570051D01*
X160202009Y-94117671D02*
X160202009Y-93808147D01*
X160202009Y-93808147D02*
X160392485Y-93974814D01*
X160392485Y-93974814D02*
X160392485Y-93903385D01*
X160392485Y-93903385D02*
X160416295Y-93855766D01*
X160416295Y-93855766D02*
X160440104Y-93831957D01*
X160440104Y-93831957D02*
X160487723Y-93808147D01*
X160487723Y-93808147D02*
X160606771Y-93808147D01*
X160606771Y-93808147D02*
X160654390Y-93831957D01*
X160654390Y-93831957D02*
X160678200Y-93855766D01*
X160678200Y-93855766D02*
X160702009Y-93903385D01*
X160702009Y-93903385D02*
X160702009Y-94046242D01*
X160702009Y-94046242D02*
X160678200Y-94093861D01*
X160678200Y-94093861D02*
X160654390Y-94117671D01*
D10*
X154608419Y-104987957D02*
X154132228Y-105321290D01*
X154608419Y-105559385D02*
X153608419Y-105559385D01*
X153608419Y-105559385D02*
X153608419Y-105178433D01*
X153608419Y-105178433D02*
X153656038Y-105083195D01*
X153656038Y-105083195D02*
X153703657Y-105035576D01*
X153703657Y-105035576D02*
X153798895Y-104987957D01*
X153798895Y-104987957D02*
X153941752Y-104987957D01*
X153941752Y-104987957D02*
X154036990Y-105035576D01*
X154036990Y-105035576D02*
X154084609Y-105083195D01*
X154084609Y-105083195D02*
X154132228Y-105178433D01*
X154132228Y-105178433D02*
X154132228Y-105559385D01*
X154608419Y-104035576D02*
X154608419Y-104607004D01*
X154608419Y-104321290D02*
X153608419Y-104321290D01*
X153608419Y-104321290D02*
X153751276Y-104416528D01*
X153751276Y-104416528D02*
X153846514Y-104511766D01*
X153846514Y-104511766D02*
X153894133Y-104607004D01*
X153941752Y-103178433D02*
X154608419Y-103178433D01*
X153560800Y-103416528D02*
X154275085Y-103654623D01*
X154275085Y-103654623D02*
X154275085Y-103035576D01*
X171602495Y-42025219D02*
X171602495Y-42834742D01*
X171602495Y-42834742D02*
X171650114Y-42929980D01*
X171650114Y-42929980D02*
X171697733Y-42977600D01*
X171697733Y-42977600D02*
X171792971Y-43025219D01*
X171792971Y-43025219D02*
X171983447Y-43025219D01*
X171983447Y-43025219D02*
X172078685Y-42977600D01*
X172078685Y-42977600D02*
X172126304Y-42929980D01*
X172126304Y-42929980D02*
X172173923Y-42834742D01*
X172173923Y-42834742D02*
X172173923Y-42025219D01*
X173173923Y-43025219D02*
X172602495Y-43025219D01*
X172888209Y-43025219D02*
X172888209Y-42025219D01*
X172888209Y-42025219D02*
X172792971Y-42168076D01*
X172792971Y-42168076D02*
X172697733Y-42263314D01*
X172697733Y-42263314D02*
X172602495Y-42310933D01*
X168135894Y-36981304D02*
X168612084Y-36981304D01*
X168040656Y-37267019D02*
X168373989Y-36267019D01*
X168373989Y-36267019D02*
X168707322Y-37267019D01*
X169040656Y-36600352D02*
X169040656Y-37267019D01*
X169040656Y-36695590D02*
X169088275Y-36647971D01*
X169088275Y-36647971D02*
X169183513Y-36600352D01*
X169183513Y-36600352D02*
X169326370Y-36600352D01*
X169326370Y-36600352D02*
X169421608Y-36647971D01*
X169421608Y-36647971D02*
X169469227Y-36743209D01*
X169469227Y-36743209D02*
X169469227Y-37267019D01*
X169802561Y-36600352D02*
X170183513Y-36600352D01*
X169945418Y-36267019D02*
X169945418Y-37124161D01*
X169945418Y-37124161D02*
X169993037Y-37219400D01*
X169993037Y-37219400D02*
X170088275Y-37267019D01*
X170088275Y-37267019D02*
X170183513Y-37267019D01*
X170897799Y-37219400D02*
X170802561Y-37267019D01*
X170802561Y-37267019D02*
X170612085Y-37267019D01*
X170612085Y-37267019D02*
X170516847Y-37219400D01*
X170516847Y-37219400D02*
X170469228Y-37124161D01*
X170469228Y-37124161D02*
X170469228Y-36743209D01*
X170469228Y-36743209D02*
X170516847Y-36647971D01*
X170516847Y-36647971D02*
X170612085Y-36600352D01*
X170612085Y-36600352D02*
X170802561Y-36600352D01*
X170802561Y-36600352D02*
X170897799Y-36647971D01*
X170897799Y-36647971D02*
X170945418Y-36743209D01*
X170945418Y-36743209D02*
X170945418Y-36838447D01*
X170945418Y-36838447D02*
X170469228Y-36933685D01*
X171373990Y-36600352D02*
X171373990Y-37267019D01*
X171373990Y-36695590D02*
X171421609Y-36647971D01*
X171421609Y-36647971D02*
X171516847Y-36600352D01*
X171516847Y-36600352D02*
X171659704Y-36600352D01*
X171659704Y-36600352D02*
X171754942Y-36647971D01*
X171754942Y-36647971D02*
X171802561Y-36743209D01*
X171802561Y-36743209D02*
X171802561Y-37267019D01*
X172278752Y-36600352D02*
X172278752Y-37267019D01*
X172278752Y-36695590D02*
X172326371Y-36647971D01*
X172326371Y-36647971D02*
X172421609Y-36600352D01*
X172421609Y-36600352D02*
X172564466Y-36600352D01*
X172564466Y-36600352D02*
X172659704Y-36647971D01*
X172659704Y-36647971D02*
X172707323Y-36743209D01*
X172707323Y-36743209D02*
X172707323Y-37267019D01*
X173612085Y-37267019D02*
X173612085Y-36743209D01*
X173612085Y-36743209D02*
X173564466Y-36647971D01*
X173564466Y-36647971D02*
X173469228Y-36600352D01*
X173469228Y-36600352D02*
X173278752Y-36600352D01*
X173278752Y-36600352D02*
X173183514Y-36647971D01*
X173612085Y-37219400D02*
X173516847Y-37267019D01*
X173516847Y-37267019D02*
X173278752Y-37267019D01*
X173278752Y-37267019D02*
X173183514Y-37219400D01*
X173183514Y-37219400D02*
X173135895Y-37124161D01*
X173135895Y-37124161D02*
X173135895Y-37028923D01*
X173135895Y-37028923D02*
X173183514Y-36933685D01*
X173183514Y-36933685D02*
X173278752Y-36886066D01*
X173278752Y-36886066D02*
X173516847Y-36886066D01*
X173516847Y-36886066D02*
X173612085Y-36838447D01*
X174802562Y-36981304D02*
X175278752Y-36981304D01*
X174707324Y-37267019D02*
X175040657Y-36267019D01*
X175040657Y-36267019D02*
X175373990Y-37267019D01*
X175707324Y-37267019D02*
X175707324Y-36600352D01*
X175707324Y-36790828D02*
X175754943Y-36695590D01*
X175754943Y-36695590D02*
X175802562Y-36647971D01*
X175802562Y-36647971D02*
X175897800Y-36600352D01*
X175897800Y-36600352D02*
X175993038Y-36600352D01*
X176707324Y-37219400D02*
X176612086Y-37267019D01*
X176612086Y-37267019D02*
X176421610Y-37267019D01*
X176421610Y-37267019D02*
X176326372Y-37219400D01*
X176326372Y-37219400D02*
X176278753Y-37124161D01*
X176278753Y-37124161D02*
X176278753Y-36743209D01*
X176278753Y-36743209D02*
X176326372Y-36647971D01*
X176326372Y-36647971D02*
X176421610Y-36600352D01*
X176421610Y-36600352D02*
X176612086Y-36600352D01*
X176612086Y-36600352D02*
X176707324Y-36647971D01*
X176707324Y-36647971D02*
X176754943Y-36743209D01*
X176754943Y-36743209D02*
X176754943Y-36838447D01*
X176754943Y-36838447D02*
X176278753Y-36933685D01*
X177612086Y-37267019D02*
X177612086Y-36743209D01*
X177612086Y-36743209D02*
X177564467Y-36647971D01*
X177564467Y-36647971D02*
X177469229Y-36600352D01*
X177469229Y-36600352D02*
X177278753Y-36600352D01*
X177278753Y-36600352D02*
X177183515Y-36647971D01*
X177612086Y-37219400D02*
X177516848Y-37267019D01*
X177516848Y-37267019D02*
X177278753Y-37267019D01*
X177278753Y-37267019D02*
X177183515Y-37219400D01*
X177183515Y-37219400D02*
X177135896Y-37124161D01*
X177135896Y-37124161D02*
X177135896Y-37028923D01*
X177135896Y-37028923D02*
X177183515Y-36933685D01*
X177183515Y-36933685D02*
X177278753Y-36886066D01*
X177278753Y-36886066D02*
X177516848Y-36886066D01*
X177516848Y-36886066D02*
X177612086Y-36838447D01*
X157821333Y-41253580D02*
X157773714Y-41301200D01*
X157773714Y-41301200D02*
X157630857Y-41348819D01*
X157630857Y-41348819D02*
X157535619Y-41348819D01*
X157535619Y-41348819D02*
X157392762Y-41301200D01*
X157392762Y-41301200D02*
X157297524Y-41205961D01*
X157297524Y-41205961D02*
X157249905Y-41110723D01*
X157249905Y-41110723D02*
X157202286Y-40920247D01*
X157202286Y-40920247D02*
X157202286Y-40777390D01*
X157202286Y-40777390D02*
X157249905Y-40586914D01*
X157249905Y-40586914D02*
X157297524Y-40491676D01*
X157297524Y-40491676D02*
X157392762Y-40396438D01*
X157392762Y-40396438D02*
X157535619Y-40348819D01*
X157535619Y-40348819D02*
X157630857Y-40348819D01*
X157630857Y-40348819D02*
X157773714Y-40396438D01*
X157773714Y-40396438D02*
X157821333Y-40444057D01*
X158392762Y-40777390D02*
X158297524Y-40729771D01*
X158297524Y-40729771D02*
X158249905Y-40682152D01*
X158249905Y-40682152D02*
X158202286Y-40586914D01*
X158202286Y-40586914D02*
X158202286Y-40539295D01*
X158202286Y-40539295D02*
X158249905Y-40444057D01*
X158249905Y-40444057D02*
X158297524Y-40396438D01*
X158297524Y-40396438D02*
X158392762Y-40348819D01*
X158392762Y-40348819D02*
X158583238Y-40348819D01*
X158583238Y-40348819D02*
X158678476Y-40396438D01*
X158678476Y-40396438D02*
X158726095Y-40444057D01*
X158726095Y-40444057D02*
X158773714Y-40539295D01*
X158773714Y-40539295D02*
X158773714Y-40586914D01*
X158773714Y-40586914D02*
X158726095Y-40682152D01*
X158726095Y-40682152D02*
X158678476Y-40729771D01*
X158678476Y-40729771D02*
X158583238Y-40777390D01*
X158583238Y-40777390D02*
X158392762Y-40777390D01*
X158392762Y-40777390D02*
X158297524Y-40825009D01*
X158297524Y-40825009D02*
X158249905Y-40872628D01*
X158249905Y-40872628D02*
X158202286Y-40967866D01*
X158202286Y-40967866D02*
X158202286Y-41158342D01*
X158202286Y-41158342D02*
X158249905Y-41253580D01*
X158249905Y-41253580D02*
X158297524Y-41301200D01*
X158297524Y-41301200D02*
X158392762Y-41348819D01*
X158392762Y-41348819D02*
X158583238Y-41348819D01*
X158583238Y-41348819D02*
X158678476Y-41301200D01*
X158678476Y-41301200D02*
X158726095Y-41253580D01*
X158726095Y-41253580D02*
X158773714Y-41158342D01*
X158773714Y-41158342D02*
X158773714Y-40967866D01*
X158773714Y-40967866D02*
X158726095Y-40872628D01*
X158726095Y-40872628D02*
X158678476Y-40825009D01*
X158678476Y-40825009D02*
X158583238Y-40777390D01*
X187031333Y-64208819D02*
X186698000Y-63732628D01*
X186459905Y-64208819D02*
X186459905Y-63208819D01*
X186459905Y-63208819D02*
X186840857Y-63208819D01*
X186840857Y-63208819D02*
X186936095Y-63256438D01*
X186936095Y-63256438D02*
X186983714Y-63304057D01*
X186983714Y-63304057D02*
X187031333Y-63399295D01*
X187031333Y-63399295D02*
X187031333Y-63542152D01*
X187031333Y-63542152D02*
X186983714Y-63637390D01*
X186983714Y-63637390D02*
X186936095Y-63685009D01*
X186936095Y-63685009D02*
X186840857Y-63732628D01*
X186840857Y-63732628D02*
X186459905Y-63732628D01*
X187412286Y-63304057D02*
X187459905Y-63256438D01*
X187459905Y-63256438D02*
X187555143Y-63208819D01*
X187555143Y-63208819D02*
X187793238Y-63208819D01*
X187793238Y-63208819D02*
X187888476Y-63256438D01*
X187888476Y-63256438D02*
X187936095Y-63304057D01*
X187936095Y-63304057D02*
X187983714Y-63399295D01*
X187983714Y-63399295D02*
X187983714Y-63494533D01*
X187983714Y-63494533D02*
X187936095Y-63637390D01*
X187936095Y-63637390D02*
X187364667Y-64208819D01*
X187364667Y-64208819D02*
X187983714Y-64208819D01*
X173894761Y-76750057D02*
X173799523Y-76702438D01*
X173799523Y-76702438D02*
X173704285Y-76607200D01*
X173704285Y-76607200D02*
X173561428Y-76464342D01*
X173561428Y-76464342D02*
X173466190Y-76416723D01*
X173466190Y-76416723D02*
X173370952Y-76416723D01*
X173418571Y-76654819D02*
X173323333Y-76607200D01*
X173323333Y-76607200D02*
X173228095Y-76511961D01*
X173228095Y-76511961D02*
X173180476Y-76321485D01*
X173180476Y-76321485D02*
X173180476Y-75988152D01*
X173180476Y-75988152D02*
X173228095Y-75797676D01*
X173228095Y-75797676D02*
X173323333Y-75702438D01*
X173323333Y-75702438D02*
X173418571Y-75654819D01*
X173418571Y-75654819D02*
X173609047Y-75654819D01*
X173609047Y-75654819D02*
X173704285Y-75702438D01*
X173704285Y-75702438D02*
X173799523Y-75797676D01*
X173799523Y-75797676D02*
X173847142Y-75988152D01*
X173847142Y-75988152D02*
X173847142Y-76321485D01*
X173847142Y-76321485D02*
X173799523Y-76511961D01*
X173799523Y-76511961D02*
X173704285Y-76607200D01*
X173704285Y-76607200D02*
X173609047Y-76654819D01*
X173609047Y-76654819D02*
X173418571Y-76654819D01*
X174799523Y-76654819D02*
X174228095Y-76654819D01*
X174513809Y-76654819D02*
X174513809Y-75654819D01*
X174513809Y-75654819D02*
X174418571Y-75797676D01*
X174418571Y-75797676D02*
X174323333Y-75892914D01*
X174323333Y-75892914D02*
X174228095Y-75940533D01*
X161135219Y-57960971D02*
X160659028Y-58294304D01*
X161135219Y-58532399D02*
X160135219Y-58532399D01*
X160135219Y-58532399D02*
X160135219Y-58151447D01*
X160135219Y-58151447D02*
X160182838Y-58056209D01*
X160182838Y-58056209D02*
X160230457Y-58008590D01*
X160230457Y-58008590D02*
X160325695Y-57960971D01*
X160325695Y-57960971D02*
X160468552Y-57960971D01*
X160468552Y-57960971D02*
X160563790Y-58008590D01*
X160563790Y-58008590D02*
X160611409Y-58056209D01*
X160611409Y-58056209D02*
X160659028Y-58151447D01*
X160659028Y-58151447D02*
X160659028Y-58532399D01*
X160611409Y-57532399D02*
X160611409Y-57199066D01*
X161135219Y-57056209D02*
X161135219Y-57532399D01*
X161135219Y-57532399D02*
X160135219Y-57532399D01*
X160135219Y-57532399D02*
X160135219Y-57056209D01*
X161087600Y-56675256D02*
X161135219Y-56532399D01*
X161135219Y-56532399D02*
X161135219Y-56294304D01*
X161135219Y-56294304D02*
X161087600Y-56199066D01*
X161087600Y-56199066D02*
X161039980Y-56151447D01*
X161039980Y-56151447D02*
X160944742Y-56103828D01*
X160944742Y-56103828D02*
X160849504Y-56103828D01*
X160849504Y-56103828D02*
X160754266Y-56151447D01*
X160754266Y-56151447D02*
X160706647Y-56199066D01*
X160706647Y-56199066D02*
X160659028Y-56294304D01*
X160659028Y-56294304D02*
X160611409Y-56484780D01*
X160611409Y-56484780D02*
X160563790Y-56580018D01*
X160563790Y-56580018D02*
X160516171Y-56627637D01*
X160516171Y-56627637D02*
X160420933Y-56675256D01*
X160420933Y-56675256D02*
X160325695Y-56675256D01*
X160325695Y-56675256D02*
X160230457Y-56627637D01*
X160230457Y-56627637D02*
X160182838Y-56580018D01*
X160182838Y-56580018D02*
X160135219Y-56484780D01*
X160135219Y-56484780D02*
X160135219Y-56246685D01*
X160135219Y-56246685D02*
X160182838Y-56103828D01*
X160611409Y-55675256D02*
X160611409Y-55341923D01*
X161135219Y-55199066D02*
X161135219Y-55675256D01*
X161135219Y-55675256D02*
X160135219Y-55675256D01*
X160135219Y-55675256D02*
X160135219Y-55199066D01*
X160135219Y-54913351D02*
X160135219Y-54341923D01*
X161135219Y-54627637D02*
X160135219Y-54627637D01*
X161135219Y-53484780D02*
X161135219Y-54056208D01*
X161135219Y-53770494D02*
X160135219Y-53770494D01*
X160135219Y-53770494D02*
X160278076Y-53865732D01*
X160278076Y-53865732D02*
X160373314Y-53960970D01*
X160373314Y-53960970D02*
X160420933Y-54056208D01*
X169872819Y-67222666D02*
X169396628Y-67555999D01*
X169872819Y-67794094D02*
X168872819Y-67794094D01*
X168872819Y-67794094D02*
X168872819Y-67413142D01*
X168872819Y-67413142D02*
X168920438Y-67317904D01*
X168920438Y-67317904D02*
X168968057Y-67270285D01*
X168968057Y-67270285D02*
X169063295Y-67222666D01*
X169063295Y-67222666D02*
X169206152Y-67222666D01*
X169206152Y-67222666D02*
X169301390Y-67270285D01*
X169301390Y-67270285D02*
X169349009Y-67317904D01*
X169349009Y-67317904D02*
X169396628Y-67413142D01*
X169396628Y-67413142D02*
X169396628Y-67794094D01*
X169206152Y-66365523D02*
X169872819Y-66365523D01*
X168825200Y-66603618D02*
X169539485Y-66841713D01*
X169539485Y-66841713D02*
X169539485Y-66222666D01*
D12*
X156336390Y-94860228D02*
X156360200Y-94884037D01*
X156360200Y-94884037D02*
X156384009Y-94955466D01*
X156384009Y-94955466D02*
X156384009Y-95003085D01*
X156384009Y-95003085D02*
X156360200Y-95074513D01*
X156360200Y-95074513D02*
X156312580Y-95122132D01*
X156312580Y-95122132D02*
X156264961Y-95145942D01*
X156264961Y-95145942D02*
X156169723Y-95169751D01*
X156169723Y-95169751D02*
X156098295Y-95169751D01*
X156098295Y-95169751D02*
X156003057Y-95145942D01*
X156003057Y-95145942D02*
X155955438Y-95122132D01*
X155955438Y-95122132D02*
X155907819Y-95074513D01*
X155907819Y-95074513D02*
X155884009Y-95003085D01*
X155884009Y-95003085D02*
X155884009Y-94955466D01*
X155884009Y-94955466D02*
X155907819Y-94884037D01*
X155907819Y-94884037D02*
X155931628Y-94860228D01*
X156384009Y-94384037D02*
X156384009Y-94669751D01*
X156384009Y-94526894D02*
X155884009Y-94526894D01*
X155884009Y-94526894D02*
X155955438Y-94574513D01*
X155955438Y-94574513D02*
X156003057Y-94622132D01*
X156003057Y-94622132D02*
X156026866Y-94669751D01*
X155884009Y-93931657D02*
X155884009Y-94169752D01*
X155884009Y-94169752D02*
X156122104Y-94193561D01*
X156122104Y-94193561D02*
X156098295Y-94169752D01*
X156098295Y-94169752D02*
X156074485Y-94122133D01*
X156074485Y-94122133D02*
X156074485Y-94003085D01*
X156074485Y-94003085D02*
X156098295Y-93955466D01*
X156098295Y-93955466D02*
X156122104Y-93931657D01*
X156122104Y-93931657D02*
X156169723Y-93907847D01*
X156169723Y-93907847D02*
X156288771Y-93907847D01*
X156288771Y-93907847D02*
X156336390Y-93931657D01*
X156336390Y-93931657D02*
X156360200Y-93955466D01*
X156360200Y-93955466D02*
X156384009Y-94003085D01*
X156384009Y-94003085D02*
X156384009Y-94122133D01*
X156384009Y-94122133D02*
X156360200Y-94169752D01*
X156360200Y-94169752D02*
X156336390Y-94193561D01*
D10*
X191986819Y-76191904D02*
X192796342Y-76191904D01*
X192796342Y-76191904D02*
X192891580Y-76144285D01*
X192891580Y-76144285D02*
X192939200Y-76096666D01*
X192939200Y-76096666D02*
X192986819Y-76001428D01*
X192986819Y-76001428D02*
X192986819Y-75810952D01*
X192986819Y-75810952D02*
X192939200Y-75715714D01*
X192939200Y-75715714D02*
X192891580Y-75668095D01*
X192891580Y-75668095D02*
X192796342Y-75620476D01*
X192796342Y-75620476D02*
X191986819Y-75620476D01*
X192939200Y-75191904D02*
X192986819Y-75049047D01*
X192986819Y-75049047D02*
X192986819Y-74810952D01*
X192986819Y-74810952D02*
X192939200Y-74715714D01*
X192939200Y-74715714D02*
X192891580Y-74668095D01*
X192891580Y-74668095D02*
X192796342Y-74620476D01*
X192796342Y-74620476D02*
X192701104Y-74620476D01*
X192701104Y-74620476D02*
X192605866Y-74668095D01*
X192605866Y-74668095D02*
X192558247Y-74715714D01*
X192558247Y-74715714D02*
X192510628Y-74810952D01*
X192510628Y-74810952D02*
X192463009Y-75001428D01*
X192463009Y-75001428D02*
X192415390Y-75096666D01*
X192415390Y-75096666D02*
X192367771Y-75144285D01*
X192367771Y-75144285D02*
X192272533Y-75191904D01*
X192272533Y-75191904D02*
X192177295Y-75191904D01*
X192177295Y-75191904D02*
X192082057Y-75144285D01*
X192082057Y-75144285D02*
X192034438Y-75096666D01*
X192034438Y-75096666D02*
X191986819Y-75001428D01*
X191986819Y-75001428D02*
X191986819Y-74763333D01*
X191986819Y-74763333D02*
X192034438Y-74620476D01*
X192463009Y-73858571D02*
X192510628Y-73715714D01*
X192510628Y-73715714D02*
X192558247Y-73668095D01*
X192558247Y-73668095D02*
X192653485Y-73620476D01*
X192653485Y-73620476D02*
X192796342Y-73620476D01*
X192796342Y-73620476D02*
X192891580Y-73668095D01*
X192891580Y-73668095D02*
X192939200Y-73715714D01*
X192939200Y-73715714D02*
X192986819Y-73810952D01*
X192986819Y-73810952D02*
X192986819Y-74191904D01*
X192986819Y-74191904D02*
X191986819Y-74191904D01*
X191986819Y-74191904D02*
X191986819Y-73858571D01*
X191986819Y-73858571D02*
X192034438Y-73763333D01*
X192034438Y-73763333D02*
X192082057Y-73715714D01*
X192082057Y-73715714D02*
X192177295Y-73668095D01*
X192177295Y-73668095D02*
X192272533Y-73668095D01*
X192272533Y-73668095D02*
X192367771Y-73715714D01*
X192367771Y-73715714D02*
X192415390Y-73763333D01*
X192415390Y-73763333D02*
X192463009Y-73858571D01*
X192463009Y-73858571D02*
X192463009Y-74191904D01*
X143154495Y-35976838D02*
X143059257Y-35929219D01*
X143059257Y-35929219D02*
X142916400Y-35929219D01*
X142916400Y-35929219D02*
X142773543Y-35976838D01*
X142773543Y-35976838D02*
X142678305Y-36072076D01*
X142678305Y-36072076D02*
X142630686Y-36167314D01*
X142630686Y-36167314D02*
X142583067Y-36357790D01*
X142583067Y-36357790D02*
X142583067Y-36500647D01*
X142583067Y-36500647D02*
X142630686Y-36691123D01*
X142630686Y-36691123D02*
X142678305Y-36786361D01*
X142678305Y-36786361D02*
X142773543Y-36881600D01*
X142773543Y-36881600D02*
X142916400Y-36929219D01*
X142916400Y-36929219D02*
X143011638Y-36929219D01*
X143011638Y-36929219D02*
X143154495Y-36881600D01*
X143154495Y-36881600D02*
X143202114Y-36833980D01*
X143202114Y-36833980D02*
X143202114Y-36500647D01*
X143202114Y-36500647D02*
X143011638Y-36500647D01*
X143630686Y-36929219D02*
X143630686Y-35929219D01*
X143630686Y-35929219D02*
X144202114Y-36929219D01*
X144202114Y-36929219D02*
X144202114Y-35929219D01*
X144678305Y-36929219D02*
X144678305Y-35929219D01*
X144678305Y-35929219D02*
X144916400Y-35929219D01*
X144916400Y-35929219D02*
X145059257Y-35976838D01*
X145059257Y-35976838D02*
X145154495Y-36072076D01*
X145154495Y-36072076D02*
X145202114Y-36167314D01*
X145202114Y-36167314D02*
X145249733Y-36357790D01*
X145249733Y-36357790D02*
X145249733Y-36500647D01*
X145249733Y-36500647D02*
X145202114Y-36691123D01*
X145202114Y-36691123D02*
X145154495Y-36786361D01*
X145154495Y-36786361D02*
X145059257Y-36881600D01*
X145059257Y-36881600D02*
X144916400Y-36929219D01*
X144916400Y-36929219D02*
X144678305Y-36929219D01*
X148314409Y-64792199D02*
X148362028Y-64649342D01*
X148362028Y-64649342D02*
X148409647Y-64601723D01*
X148409647Y-64601723D02*
X148504885Y-64554104D01*
X148504885Y-64554104D02*
X148647742Y-64554104D01*
X148647742Y-64554104D02*
X148742980Y-64601723D01*
X148742980Y-64601723D02*
X148790600Y-64649342D01*
X148790600Y-64649342D02*
X148838219Y-64744580D01*
X148838219Y-64744580D02*
X148838219Y-65125532D01*
X148838219Y-65125532D02*
X147838219Y-65125532D01*
X147838219Y-65125532D02*
X147838219Y-64792199D01*
X147838219Y-64792199D02*
X147885838Y-64696961D01*
X147885838Y-64696961D02*
X147933457Y-64649342D01*
X147933457Y-64649342D02*
X148028695Y-64601723D01*
X148028695Y-64601723D02*
X148123933Y-64601723D01*
X148123933Y-64601723D02*
X148219171Y-64649342D01*
X148219171Y-64649342D02*
X148266790Y-64696961D01*
X148266790Y-64696961D02*
X148314409Y-64792199D01*
X148314409Y-64792199D02*
X148314409Y-65125532D01*
X147838219Y-64125532D02*
X148647742Y-64125532D01*
X148647742Y-64125532D02*
X148742980Y-64077913D01*
X148742980Y-64077913D02*
X148790600Y-64030294D01*
X148790600Y-64030294D02*
X148838219Y-63935056D01*
X148838219Y-63935056D02*
X148838219Y-63744580D01*
X148838219Y-63744580D02*
X148790600Y-63649342D01*
X148790600Y-63649342D02*
X148742980Y-63601723D01*
X148742980Y-63601723D02*
X148647742Y-63554104D01*
X148647742Y-63554104D02*
X147838219Y-63554104D01*
X148790600Y-63125532D02*
X148838219Y-62982675D01*
X148838219Y-62982675D02*
X148838219Y-62744580D01*
X148838219Y-62744580D02*
X148790600Y-62649342D01*
X148790600Y-62649342D02*
X148742980Y-62601723D01*
X148742980Y-62601723D02*
X148647742Y-62554104D01*
X148647742Y-62554104D02*
X148552504Y-62554104D01*
X148552504Y-62554104D02*
X148457266Y-62601723D01*
X148457266Y-62601723D02*
X148409647Y-62649342D01*
X148409647Y-62649342D02*
X148362028Y-62744580D01*
X148362028Y-62744580D02*
X148314409Y-62935056D01*
X148314409Y-62935056D02*
X148266790Y-63030294D01*
X148266790Y-63030294D02*
X148219171Y-63077913D01*
X148219171Y-63077913D02*
X148123933Y-63125532D01*
X148123933Y-63125532D02*
X148028695Y-63125532D01*
X148028695Y-63125532D02*
X147933457Y-63077913D01*
X147933457Y-63077913D02*
X147885838Y-63030294D01*
X147885838Y-63030294D02*
X147838219Y-62935056D01*
X147838219Y-62935056D02*
X147838219Y-62696961D01*
X147838219Y-62696961D02*
X147885838Y-62554104D01*
X148933457Y-62363628D02*
X148933457Y-61601723D01*
X148838219Y-61363627D02*
X147838219Y-61363627D01*
X147933457Y-60935056D02*
X147885838Y-60887437D01*
X147885838Y-60887437D02*
X147838219Y-60792199D01*
X147838219Y-60792199D02*
X147838219Y-60554104D01*
X147838219Y-60554104D02*
X147885838Y-60458866D01*
X147885838Y-60458866D02*
X147933457Y-60411247D01*
X147933457Y-60411247D02*
X148028695Y-60363628D01*
X148028695Y-60363628D02*
X148123933Y-60363628D01*
X148123933Y-60363628D02*
X148266790Y-60411247D01*
X148266790Y-60411247D02*
X148838219Y-60982675D01*
X148838219Y-60982675D02*
X148838219Y-60363628D01*
X148742980Y-59363628D02*
X148790600Y-59411247D01*
X148790600Y-59411247D02*
X148838219Y-59554104D01*
X148838219Y-59554104D02*
X148838219Y-59649342D01*
X148838219Y-59649342D02*
X148790600Y-59792199D01*
X148790600Y-59792199D02*
X148695361Y-59887437D01*
X148695361Y-59887437D02*
X148600123Y-59935056D01*
X148600123Y-59935056D02*
X148409647Y-59982675D01*
X148409647Y-59982675D02*
X148266790Y-59982675D01*
X148266790Y-59982675D02*
X148076314Y-59935056D01*
X148076314Y-59935056D02*
X147981076Y-59887437D01*
X147981076Y-59887437D02*
X147885838Y-59792199D01*
X147885838Y-59792199D02*
X147838219Y-59649342D01*
X147838219Y-59649342D02*
X147838219Y-59554104D01*
X147838219Y-59554104D02*
X147885838Y-59411247D01*
X147885838Y-59411247D02*
X147933457Y-59363628D01*
X148838219Y-58411247D02*
X148838219Y-58982675D01*
X148838219Y-58696961D02*
X147838219Y-58696961D01*
X147838219Y-58696961D02*
X147981076Y-58792199D01*
X147981076Y-58792199D02*
X148076314Y-58887437D01*
X148076314Y-58887437D02*
X148123933Y-58982675D01*
X177379333Y-71733580D02*
X177331714Y-71781200D01*
X177331714Y-71781200D02*
X177188857Y-71828819D01*
X177188857Y-71828819D02*
X177093619Y-71828819D01*
X177093619Y-71828819D02*
X176950762Y-71781200D01*
X176950762Y-71781200D02*
X176855524Y-71685961D01*
X176855524Y-71685961D02*
X176807905Y-71590723D01*
X176807905Y-71590723D02*
X176760286Y-71400247D01*
X176760286Y-71400247D02*
X176760286Y-71257390D01*
X176760286Y-71257390D02*
X176807905Y-71066914D01*
X176807905Y-71066914D02*
X176855524Y-70971676D01*
X176855524Y-70971676D02*
X176950762Y-70876438D01*
X176950762Y-70876438D02*
X177093619Y-70828819D01*
X177093619Y-70828819D02*
X177188857Y-70828819D01*
X177188857Y-70828819D02*
X177331714Y-70876438D01*
X177331714Y-70876438D02*
X177379333Y-70924057D01*
X177712667Y-70828819D02*
X178379333Y-70828819D01*
X178379333Y-70828819D02*
X177950762Y-71828819D01*
X186377990Y-54108666D02*
X186330371Y-54251523D01*
X186330371Y-54251523D02*
X186282752Y-54299142D01*
X186282752Y-54299142D02*
X186187514Y-54346761D01*
X186187514Y-54346761D02*
X186044657Y-54346761D01*
X186044657Y-54346761D02*
X185949419Y-54299142D01*
X185949419Y-54299142D02*
X185901800Y-54251523D01*
X185901800Y-54251523D02*
X185854180Y-54156285D01*
X185854180Y-54156285D02*
X185854180Y-53775333D01*
X185854180Y-53775333D02*
X186854180Y-53775333D01*
X186854180Y-53775333D02*
X186854180Y-54108666D01*
X186854180Y-54108666D02*
X186806561Y-54203904D01*
X186806561Y-54203904D02*
X186758942Y-54251523D01*
X186758942Y-54251523D02*
X186663704Y-54299142D01*
X186663704Y-54299142D02*
X186568466Y-54299142D01*
X186568466Y-54299142D02*
X186473228Y-54251523D01*
X186473228Y-54251523D02*
X186425609Y-54203904D01*
X186425609Y-54203904D02*
X186377990Y-54108666D01*
X186377990Y-54108666D02*
X186377990Y-53775333D01*
X186854180Y-54965809D02*
X186854180Y-55156285D01*
X186854180Y-55156285D02*
X186806561Y-55251523D01*
X186806561Y-55251523D02*
X186711323Y-55346761D01*
X186711323Y-55346761D02*
X186520847Y-55394380D01*
X186520847Y-55394380D02*
X186187514Y-55394380D01*
X186187514Y-55394380D02*
X185997038Y-55346761D01*
X185997038Y-55346761D02*
X185901800Y-55251523D01*
X185901800Y-55251523D02*
X185854180Y-55156285D01*
X185854180Y-55156285D02*
X185854180Y-54965809D01*
X185854180Y-54965809D02*
X185901800Y-54870571D01*
X185901800Y-54870571D02*
X185997038Y-54775333D01*
X185997038Y-54775333D02*
X186187514Y-54727714D01*
X186187514Y-54727714D02*
X186520847Y-54727714D01*
X186520847Y-54727714D02*
X186711323Y-54775333D01*
X186711323Y-54775333D02*
X186806561Y-54870571D01*
X186806561Y-54870571D02*
X186854180Y-54965809D01*
X186854180Y-56013428D02*
X186854180Y-56203904D01*
X186854180Y-56203904D02*
X186806561Y-56299142D01*
X186806561Y-56299142D02*
X186711323Y-56394380D01*
X186711323Y-56394380D02*
X186520847Y-56441999D01*
X186520847Y-56441999D02*
X186187514Y-56441999D01*
X186187514Y-56441999D02*
X185997038Y-56394380D01*
X185997038Y-56394380D02*
X185901800Y-56299142D01*
X185901800Y-56299142D02*
X185854180Y-56203904D01*
X185854180Y-56203904D02*
X185854180Y-56013428D01*
X185854180Y-56013428D02*
X185901800Y-55918190D01*
X185901800Y-55918190D02*
X185997038Y-55822952D01*
X185997038Y-55822952D02*
X186187514Y-55775333D01*
X186187514Y-55775333D02*
X186520847Y-55775333D01*
X186520847Y-55775333D02*
X186711323Y-55822952D01*
X186711323Y-55822952D02*
X186806561Y-55918190D01*
X186806561Y-55918190D02*
X186854180Y-56013428D01*
X186854180Y-56727714D02*
X186854180Y-57299142D01*
X185854180Y-57013428D02*
X186854180Y-57013428D01*
X185854180Y-58156285D02*
X185854180Y-57584857D01*
X185854180Y-57870571D02*
X186854180Y-57870571D01*
X186854180Y-57870571D02*
X186711323Y-57775333D01*
X186711323Y-57775333D02*
X186616085Y-57680095D01*
X186616085Y-57680095D02*
X186568466Y-57584857D01*
X155988980Y-77735757D02*
X156036600Y-77783376D01*
X156036600Y-77783376D02*
X156084219Y-77926233D01*
X156084219Y-77926233D02*
X156084219Y-78021471D01*
X156084219Y-78021471D02*
X156036600Y-78164328D01*
X156036600Y-78164328D02*
X155941361Y-78259566D01*
X155941361Y-78259566D02*
X155846123Y-78307185D01*
X155846123Y-78307185D02*
X155655647Y-78354804D01*
X155655647Y-78354804D02*
X155512790Y-78354804D01*
X155512790Y-78354804D02*
X155322314Y-78307185D01*
X155322314Y-78307185D02*
X155227076Y-78259566D01*
X155227076Y-78259566D02*
X155131838Y-78164328D01*
X155131838Y-78164328D02*
X155084219Y-78021471D01*
X155084219Y-78021471D02*
X155084219Y-77926233D01*
X155084219Y-77926233D02*
X155131838Y-77783376D01*
X155131838Y-77783376D02*
X155179457Y-77735757D01*
X156084219Y-76783376D02*
X156084219Y-77354804D01*
X156084219Y-77069090D02*
X155084219Y-77069090D01*
X155084219Y-77069090D02*
X155227076Y-77164328D01*
X155227076Y-77164328D02*
X155322314Y-77259566D01*
X155322314Y-77259566D02*
X155369933Y-77354804D01*
X156084219Y-75830995D02*
X156084219Y-76402423D01*
X156084219Y-76116709D02*
X155084219Y-76116709D01*
X155084219Y-76116709D02*
X155227076Y-76211947D01*
X155227076Y-76211947D02*
X155322314Y-76307185D01*
X155322314Y-76307185D02*
X155369933Y-76402423D01*
X163430114Y-115532819D02*
X164001542Y-115532819D01*
X163715828Y-116532819D02*
X163715828Y-115532819D01*
X164334876Y-116009009D02*
X164668209Y-116009009D01*
X164811066Y-116532819D02*
X164334876Y-116532819D01*
X164334876Y-116532819D02*
X164334876Y-115532819D01*
X164334876Y-115532819D02*
X164811066Y-115532819D01*
X165239638Y-116532819D02*
X165239638Y-115532819D01*
X165239638Y-115532819D02*
X165572971Y-116247104D01*
X165572971Y-116247104D02*
X165906304Y-115532819D01*
X165906304Y-115532819D02*
X165906304Y-116532819D01*
X166382495Y-116532819D02*
X166382495Y-115532819D01*
X166382495Y-115532819D02*
X166763447Y-115532819D01*
X166763447Y-115532819D02*
X166858685Y-115580438D01*
X166858685Y-115580438D02*
X166906304Y-115628057D01*
X166906304Y-115628057D02*
X166953923Y-115723295D01*
X166953923Y-115723295D02*
X166953923Y-115866152D01*
X166953923Y-115866152D02*
X166906304Y-115961390D01*
X166906304Y-115961390D02*
X166858685Y-116009009D01*
X166858685Y-116009009D02*
X166763447Y-116056628D01*
X166763447Y-116056628D02*
X166382495Y-116056628D01*
X167144400Y-116628057D02*
X167906304Y-116628057D01*
X168668209Y-116532819D02*
X168096781Y-116532819D01*
X168382495Y-116532819D02*
X168382495Y-115532819D01*
X168382495Y-115532819D02*
X168287257Y-115675676D01*
X168287257Y-115675676D02*
X168192019Y-115770914D01*
X168192019Y-115770914D02*
X168096781Y-115818533D01*
X169287257Y-115532819D02*
X169382495Y-115532819D01*
X169382495Y-115532819D02*
X169477733Y-115580438D01*
X169477733Y-115580438D02*
X169525352Y-115628057D01*
X169525352Y-115628057D02*
X169572971Y-115723295D01*
X169572971Y-115723295D02*
X169620590Y-115913771D01*
X169620590Y-115913771D02*
X169620590Y-116151866D01*
X169620590Y-116151866D02*
X169572971Y-116342342D01*
X169572971Y-116342342D02*
X169525352Y-116437580D01*
X169525352Y-116437580D02*
X169477733Y-116485200D01*
X169477733Y-116485200D02*
X169382495Y-116532819D01*
X169382495Y-116532819D02*
X169287257Y-116532819D01*
X169287257Y-116532819D02*
X169192019Y-116485200D01*
X169192019Y-116485200D02*
X169144400Y-116437580D01*
X169144400Y-116437580D02*
X169096781Y-116342342D01*
X169096781Y-116342342D02*
X169049162Y-116151866D01*
X169049162Y-116151866D02*
X169049162Y-115913771D01*
X169049162Y-115913771D02*
X169096781Y-115723295D01*
X169096781Y-115723295D02*
X169144400Y-115628057D01*
X169144400Y-115628057D02*
X169192019Y-115580438D01*
X169192019Y-115580438D02*
X169287257Y-115532819D01*
X170620590Y-116437580D02*
X170572971Y-116485200D01*
X170572971Y-116485200D02*
X170430114Y-116532819D01*
X170430114Y-116532819D02*
X170334876Y-116532819D01*
X170334876Y-116532819D02*
X170192019Y-116485200D01*
X170192019Y-116485200D02*
X170096781Y-116389961D01*
X170096781Y-116389961D02*
X170049162Y-116294723D01*
X170049162Y-116294723D02*
X170001543Y-116104247D01*
X170001543Y-116104247D02*
X170001543Y-115961390D01*
X170001543Y-115961390D02*
X170049162Y-115770914D01*
X170049162Y-115770914D02*
X170096781Y-115675676D01*
X170096781Y-115675676D02*
X170192019Y-115580438D01*
X170192019Y-115580438D02*
X170334876Y-115532819D01*
X170334876Y-115532819D02*
X170430114Y-115532819D01*
X170430114Y-115532819D02*
X170572971Y-115580438D01*
X170572971Y-115580438D02*
X170620590Y-115628057D01*
X171049162Y-116532819D02*
X171049162Y-115532819D01*
X171049162Y-115532819D02*
X171382495Y-116247104D01*
X171382495Y-116247104D02*
X171715828Y-115532819D01*
X171715828Y-115532819D02*
X171715828Y-116532819D01*
X166570819Y-66968666D02*
X166094628Y-67301999D01*
X166570819Y-67540094D02*
X165570819Y-67540094D01*
X165570819Y-67540094D02*
X165570819Y-67159142D01*
X165570819Y-67159142D02*
X165618438Y-67063904D01*
X165618438Y-67063904D02*
X165666057Y-67016285D01*
X165666057Y-67016285D02*
X165761295Y-66968666D01*
X165761295Y-66968666D02*
X165904152Y-66968666D01*
X165904152Y-66968666D02*
X165999390Y-67016285D01*
X165999390Y-67016285D02*
X166047009Y-67063904D01*
X166047009Y-67063904D02*
X166094628Y-67159142D01*
X166094628Y-67159142D02*
X166094628Y-67540094D01*
X165570819Y-66063904D02*
X165570819Y-66540094D01*
X165570819Y-66540094D02*
X166047009Y-66587713D01*
X166047009Y-66587713D02*
X165999390Y-66540094D01*
X165999390Y-66540094D02*
X165951771Y-66444856D01*
X165951771Y-66444856D02*
X165951771Y-66206761D01*
X165951771Y-66206761D02*
X165999390Y-66111523D01*
X165999390Y-66111523D02*
X166047009Y-66063904D01*
X166047009Y-66063904D02*
X166142247Y-66016285D01*
X166142247Y-66016285D02*
X166380342Y-66016285D01*
X166380342Y-66016285D02*
X166475580Y-66063904D01*
X166475580Y-66063904D02*
X166523200Y-66111523D01*
X166523200Y-66111523D02*
X166570819Y-66206761D01*
X166570819Y-66206761D02*
X166570819Y-66444856D01*
X166570819Y-66444856D02*
X166523200Y-66540094D01*
X166523200Y-66540094D02*
X166475580Y-66587713D01*
X184620819Y-46092856D02*
X185620819Y-45759523D01*
X185620819Y-45759523D02*
X184620819Y-45426190D01*
X185097009Y-44759523D02*
X185144628Y-44616666D01*
X185144628Y-44616666D02*
X185192247Y-44569047D01*
X185192247Y-44569047D02*
X185287485Y-44521428D01*
X185287485Y-44521428D02*
X185430342Y-44521428D01*
X185430342Y-44521428D02*
X185525580Y-44569047D01*
X185525580Y-44569047D02*
X185573200Y-44616666D01*
X185573200Y-44616666D02*
X185620819Y-44711904D01*
X185620819Y-44711904D02*
X185620819Y-45092856D01*
X185620819Y-45092856D02*
X184620819Y-45092856D01*
X184620819Y-45092856D02*
X184620819Y-44759523D01*
X184620819Y-44759523D02*
X184668438Y-44664285D01*
X184668438Y-44664285D02*
X184716057Y-44616666D01*
X184716057Y-44616666D02*
X184811295Y-44569047D01*
X184811295Y-44569047D02*
X184906533Y-44569047D01*
X184906533Y-44569047D02*
X185001771Y-44616666D01*
X185001771Y-44616666D02*
X185049390Y-44664285D01*
X185049390Y-44664285D02*
X185097009Y-44759523D01*
X185097009Y-44759523D02*
X185097009Y-45092856D01*
X185335104Y-44140475D02*
X185335104Y-43664285D01*
X185620819Y-44235713D02*
X184620819Y-43902380D01*
X184620819Y-43902380D02*
X185620819Y-43569047D01*
X184620819Y-43378570D02*
X184620819Y-42807142D01*
X185620819Y-43092856D02*
X184620819Y-43092856D01*
X147943219Y-84892351D02*
X148943219Y-84654256D01*
X148943219Y-84654256D02*
X148228933Y-84463780D01*
X148228933Y-84463780D02*
X148943219Y-84273304D01*
X148943219Y-84273304D02*
X147943219Y-84035209D01*
X149038457Y-83892352D02*
X149038457Y-83130447D01*
X148895600Y-82939970D02*
X148943219Y-82797113D01*
X148943219Y-82797113D02*
X148943219Y-82559018D01*
X148943219Y-82559018D02*
X148895600Y-82463780D01*
X148895600Y-82463780D02*
X148847980Y-82416161D01*
X148847980Y-82416161D02*
X148752742Y-82368542D01*
X148752742Y-82368542D02*
X148657504Y-82368542D01*
X148657504Y-82368542D02*
X148562266Y-82416161D01*
X148562266Y-82416161D02*
X148514647Y-82463780D01*
X148514647Y-82463780D02*
X148467028Y-82559018D01*
X148467028Y-82559018D02*
X148419409Y-82749494D01*
X148419409Y-82749494D02*
X148371790Y-82844732D01*
X148371790Y-82844732D02*
X148324171Y-82892351D01*
X148324171Y-82892351D02*
X148228933Y-82939970D01*
X148228933Y-82939970D02*
X148133695Y-82939970D01*
X148133695Y-82939970D02*
X148038457Y-82892351D01*
X148038457Y-82892351D02*
X147990838Y-82844732D01*
X147990838Y-82844732D02*
X147943219Y-82749494D01*
X147943219Y-82749494D02*
X147943219Y-82511399D01*
X147943219Y-82511399D02*
X147990838Y-82368542D01*
X148943219Y-81939970D02*
X147943219Y-81939970D01*
X147943219Y-81939970D02*
X147943219Y-81559018D01*
X147943219Y-81559018D02*
X147990838Y-81463780D01*
X147990838Y-81463780D02*
X148038457Y-81416161D01*
X148038457Y-81416161D02*
X148133695Y-81368542D01*
X148133695Y-81368542D02*
X148276552Y-81368542D01*
X148276552Y-81368542D02*
X148371790Y-81416161D01*
X148371790Y-81416161D02*
X148419409Y-81463780D01*
X148419409Y-81463780D02*
X148467028Y-81559018D01*
X148467028Y-81559018D02*
X148467028Y-81939970D01*
X148419409Y-80939970D02*
X148419409Y-80606637D01*
X148943219Y-80463780D02*
X148943219Y-80939970D01*
X148943219Y-80939970D02*
X147943219Y-80939970D01*
X147943219Y-80939970D02*
X147943219Y-80463780D01*
X148419409Y-80035208D02*
X148419409Y-79701875D01*
X148943219Y-79559018D02*
X148943219Y-80035208D01*
X148943219Y-80035208D02*
X147943219Y-80035208D01*
X147943219Y-80035208D02*
X147943219Y-79559018D01*
X148943219Y-79130446D02*
X147943219Y-79130446D01*
X147943219Y-79130446D02*
X147943219Y-78892351D01*
X147943219Y-78892351D02*
X147990838Y-78749494D01*
X147990838Y-78749494D02*
X148086076Y-78654256D01*
X148086076Y-78654256D02*
X148181314Y-78606637D01*
X148181314Y-78606637D02*
X148371790Y-78559018D01*
X148371790Y-78559018D02*
X148514647Y-78559018D01*
X148514647Y-78559018D02*
X148705123Y-78606637D01*
X148705123Y-78606637D02*
X148800361Y-78654256D01*
X148800361Y-78654256D02*
X148895600Y-78749494D01*
X148895600Y-78749494D02*
X148943219Y-78892351D01*
X148943219Y-78892351D02*
X148943219Y-79130446D01*
X147895600Y-77416161D02*
X149181314Y-78273303D01*
X147943219Y-77178065D02*
X148943219Y-76939970D01*
X148943219Y-76939970D02*
X148228933Y-76749494D01*
X148228933Y-76749494D02*
X148943219Y-76559018D01*
X148943219Y-76559018D02*
X147943219Y-76320923D01*
X149038457Y-76178066D02*
X149038457Y-75416161D01*
X148943219Y-75178065D02*
X147943219Y-75178065D01*
X147943219Y-75178065D02*
X147943219Y-74939970D01*
X147943219Y-74939970D02*
X147990838Y-74797113D01*
X147990838Y-74797113D02*
X148086076Y-74701875D01*
X148086076Y-74701875D02*
X148181314Y-74654256D01*
X148181314Y-74654256D02*
X148371790Y-74606637D01*
X148371790Y-74606637D02*
X148514647Y-74606637D01*
X148514647Y-74606637D02*
X148705123Y-74654256D01*
X148705123Y-74654256D02*
X148800361Y-74701875D01*
X148800361Y-74701875D02*
X148895600Y-74797113D01*
X148895600Y-74797113D02*
X148943219Y-74939970D01*
X148943219Y-74939970D02*
X148943219Y-75178065D01*
X148943219Y-74178065D02*
X147943219Y-74178065D01*
X148943219Y-73130447D02*
X148467028Y-73463780D01*
X148943219Y-73701875D02*
X147943219Y-73701875D01*
X147943219Y-73701875D02*
X147943219Y-73320923D01*
X147943219Y-73320923D02*
X147990838Y-73225685D01*
X147990838Y-73225685D02*
X148038457Y-73178066D01*
X148038457Y-73178066D02*
X148133695Y-73130447D01*
X148133695Y-73130447D02*
X148276552Y-73130447D01*
X148276552Y-73130447D02*
X148371790Y-73178066D01*
X148371790Y-73178066D02*
X148419409Y-73225685D01*
X148419409Y-73225685D02*
X148467028Y-73320923D01*
X148467028Y-73320923D02*
X148467028Y-73701875D01*
X148943219Y-72178066D02*
X148943219Y-72749494D01*
X148943219Y-72463780D02*
X147943219Y-72463780D01*
X147943219Y-72463780D02*
X148086076Y-72559018D01*
X148086076Y-72559018D02*
X148181314Y-72654256D01*
X148181314Y-72654256D02*
X148228933Y-72749494D01*
X184777142Y-38808819D02*
X184443809Y-38332628D01*
X184205714Y-38808819D02*
X184205714Y-37808819D01*
X184205714Y-37808819D02*
X184586666Y-37808819D01*
X184586666Y-37808819D02*
X184681904Y-37856438D01*
X184681904Y-37856438D02*
X184729523Y-37904057D01*
X184729523Y-37904057D02*
X184777142Y-37999295D01*
X184777142Y-37999295D02*
X184777142Y-38142152D01*
X184777142Y-38142152D02*
X184729523Y-38237390D01*
X184729523Y-38237390D02*
X184681904Y-38285009D01*
X184681904Y-38285009D02*
X184586666Y-38332628D01*
X184586666Y-38332628D02*
X184205714Y-38332628D01*
X185729523Y-38808819D02*
X185158095Y-38808819D01*
X185443809Y-38808819D02*
X185443809Y-37808819D01*
X185443809Y-37808819D02*
X185348571Y-37951676D01*
X185348571Y-37951676D02*
X185253333Y-38046914D01*
X185253333Y-38046914D02*
X185158095Y-38094533D01*
X186110476Y-37904057D02*
X186158095Y-37856438D01*
X186158095Y-37856438D02*
X186253333Y-37808819D01*
X186253333Y-37808819D02*
X186491428Y-37808819D01*
X186491428Y-37808819D02*
X186586666Y-37856438D01*
X186586666Y-37856438D02*
X186634285Y-37904057D01*
X186634285Y-37904057D02*
X186681904Y-37999295D01*
X186681904Y-37999295D02*
X186681904Y-38094533D01*
X186681904Y-38094533D02*
X186634285Y-38237390D01*
X186634285Y-38237390D02*
X186062857Y-38808819D01*
X186062857Y-38808819D02*
X186681904Y-38808819D01*
X183021295Y-74435619D02*
X183021295Y-75245142D01*
X183021295Y-75245142D02*
X183068914Y-75340380D01*
X183068914Y-75340380D02*
X183116533Y-75388000D01*
X183116533Y-75388000D02*
X183211771Y-75435619D01*
X183211771Y-75435619D02*
X183402247Y-75435619D01*
X183402247Y-75435619D02*
X183497485Y-75388000D01*
X183497485Y-75388000D02*
X183545104Y-75340380D01*
X183545104Y-75340380D02*
X183592723Y-75245142D01*
X183592723Y-75245142D02*
X183592723Y-74435619D01*
X184021295Y-74530857D02*
X184068914Y-74483238D01*
X184068914Y-74483238D02*
X184164152Y-74435619D01*
X184164152Y-74435619D02*
X184402247Y-74435619D01*
X184402247Y-74435619D02*
X184497485Y-74483238D01*
X184497485Y-74483238D02*
X184545104Y-74530857D01*
X184545104Y-74530857D02*
X184592723Y-74626095D01*
X184592723Y-74626095D02*
X184592723Y-74721333D01*
X184592723Y-74721333D02*
X184545104Y-74864190D01*
X184545104Y-74864190D02*
X183973676Y-75435619D01*
X183973676Y-75435619D02*
X184592723Y-75435619D01*
X183754733Y-81639580D02*
X183707114Y-81687200D01*
X183707114Y-81687200D02*
X183564257Y-81734819D01*
X183564257Y-81734819D02*
X183469019Y-81734819D01*
X183469019Y-81734819D02*
X183326162Y-81687200D01*
X183326162Y-81687200D02*
X183230924Y-81591961D01*
X183230924Y-81591961D02*
X183183305Y-81496723D01*
X183183305Y-81496723D02*
X183135686Y-81306247D01*
X183135686Y-81306247D02*
X183135686Y-81163390D01*
X183135686Y-81163390D02*
X183183305Y-80972914D01*
X183183305Y-80972914D02*
X183230924Y-80877676D01*
X183230924Y-80877676D02*
X183326162Y-80782438D01*
X183326162Y-80782438D02*
X183469019Y-80734819D01*
X183469019Y-80734819D02*
X183564257Y-80734819D01*
X183564257Y-80734819D02*
X183707114Y-80782438D01*
X183707114Y-80782438D02*
X183754733Y-80830057D01*
X184611876Y-81068152D02*
X184611876Y-81734819D01*
X184373781Y-80687200D02*
X184135686Y-81401485D01*
X184135686Y-81401485D02*
X184754733Y-81401485D01*
X160601066Y-76823219D02*
X160601066Y-77537504D01*
X160601066Y-77537504D02*
X160553447Y-77680361D01*
X160553447Y-77680361D02*
X160458209Y-77775600D01*
X160458209Y-77775600D02*
X160315352Y-77823219D01*
X160315352Y-77823219D02*
X160220114Y-77823219D01*
X160982019Y-76823219D02*
X161601066Y-76823219D01*
X161601066Y-76823219D02*
X161267733Y-77204171D01*
X161267733Y-77204171D02*
X161410590Y-77204171D01*
X161410590Y-77204171D02*
X161505828Y-77251790D01*
X161505828Y-77251790D02*
X161553447Y-77299409D01*
X161553447Y-77299409D02*
X161601066Y-77394647D01*
X161601066Y-77394647D02*
X161601066Y-77632742D01*
X161601066Y-77632742D02*
X161553447Y-77727980D01*
X161553447Y-77727980D02*
X161505828Y-77775600D01*
X161505828Y-77775600D02*
X161410590Y-77823219D01*
X161410590Y-77823219D02*
X161124876Y-77823219D01*
X161124876Y-77823219D02*
X161029638Y-77775600D01*
X161029638Y-77775600D02*
X160982019Y-77727980D01*
X177411142Y-93831580D02*
X177363523Y-93879200D01*
X177363523Y-93879200D02*
X177220666Y-93926819D01*
X177220666Y-93926819D02*
X177125428Y-93926819D01*
X177125428Y-93926819D02*
X176982571Y-93879200D01*
X176982571Y-93879200D02*
X176887333Y-93783961D01*
X176887333Y-93783961D02*
X176839714Y-93688723D01*
X176839714Y-93688723D02*
X176792095Y-93498247D01*
X176792095Y-93498247D02*
X176792095Y-93355390D01*
X176792095Y-93355390D02*
X176839714Y-93164914D01*
X176839714Y-93164914D02*
X176887333Y-93069676D01*
X176887333Y-93069676D02*
X176982571Y-92974438D01*
X176982571Y-92974438D02*
X177125428Y-92926819D01*
X177125428Y-92926819D02*
X177220666Y-92926819D01*
X177220666Y-92926819D02*
X177363523Y-92974438D01*
X177363523Y-92974438D02*
X177411142Y-93022057D01*
X178363523Y-93926819D02*
X177792095Y-93926819D01*
X178077809Y-93926819D02*
X178077809Y-92926819D01*
X178077809Y-92926819D02*
X177982571Y-93069676D01*
X177982571Y-93069676D02*
X177887333Y-93164914D01*
X177887333Y-93164914D02*
X177792095Y-93212533D01*
X178696857Y-92926819D02*
X179315904Y-92926819D01*
X179315904Y-92926819D02*
X178982571Y-93307771D01*
X178982571Y-93307771D02*
X179125428Y-93307771D01*
X179125428Y-93307771D02*
X179220666Y-93355390D01*
X179220666Y-93355390D02*
X179268285Y-93403009D01*
X179268285Y-93403009D02*
X179315904Y-93498247D01*
X179315904Y-93498247D02*
X179315904Y-93736342D01*
X179315904Y-93736342D02*
X179268285Y-93831580D01*
X179268285Y-93831580D02*
X179220666Y-93879200D01*
X179220666Y-93879200D02*
X179125428Y-93926819D01*
X179125428Y-93926819D02*
X178839714Y-93926819D01*
X178839714Y-93926819D02*
X178744476Y-93879200D01*
X178744476Y-93879200D02*
X178696857Y-93831580D01*
X180967142Y-93831580D02*
X180919523Y-93879200D01*
X180919523Y-93879200D02*
X180776666Y-93926819D01*
X180776666Y-93926819D02*
X180681428Y-93926819D01*
X180681428Y-93926819D02*
X180538571Y-93879200D01*
X180538571Y-93879200D02*
X180443333Y-93783961D01*
X180443333Y-93783961D02*
X180395714Y-93688723D01*
X180395714Y-93688723D02*
X180348095Y-93498247D01*
X180348095Y-93498247D02*
X180348095Y-93355390D01*
X180348095Y-93355390D02*
X180395714Y-93164914D01*
X180395714Y-93164914D02*
X180443333Y-93069676D01*
X180443333Y-93069676D02*
X180538571Y-92974438D01*
X180538571Y-92974438D02*
X180681428Y-92926819D01*
X180681428Y-92926819D02*
X180776666Y-92926819D01*
X180776666Y-92926819D02*
X180919523Y-92974438D01*
X180919523Y-92974438D02*
X180967142Y-93022057D01*
X181919523Y-93926819D02*
X181348095Y-93926819D01*
X181633809Y-93926819D02*
X181633809Y-92926819D01*
X181633809Y-92926819D02*
X181538571Y-93069676D01*
X181538571Y-93069676D02*
X181443333Y-93164914D01*
X181443333Y-93164914D02*
X181348095Y-93212533D01*
X182776666Y-93260152D02*
X182776666Y-93926819D01*
X182538571Y-92879200D02*
X182300476Y-93593485D01*
X182300476Y-93593485D02*
X182919523Y-93593485D01*
X160615333Y-47190819D02*
X160282000Y-46714628D01*
X160043905Y-47190819D02*
X160043905Y-46190819D01*
X160043905Y-46190819D02*
X160424857Y-46190819D01*
X160424857Y-46190819D02*
X160520095Y-46238438D01*
X160520095Y-46238438D02*
X160567714Y-46286057D01*
X160567714Y-46286057D02*
X160615333Y-46381295D01*
X160615333Y-46381295D02*
X160615333Y-46524152D01*
X160615333Y-46524152D02*
X160567714Y-46619390D01*
X160567714Y-46619390D02*
X160520095Y-46667009D01*
X160520095Y-46667009D02*
X160424857Y-46714628D01*
X160424857Y-46714628D02*
X160043905Y-46714628D01*
X160948667Y-46190819D02*
X161615333Y-46190819D01*
X161615333Y-46190819D02*
X161186762Y-47190819D01*
X152773142Y-110182819D02*
X152439809Y-109706628D01*
X152201714Y-110182819D02*
X152201714Y-109182819D01*
X152201714Y-109182819D02*
X152582666Y-109182819D01*
X152582666Y-109182819D02*
X152677904Y-109230438D01*
X152677904Y-109230438D02*
X152725523Y-109278057D01*
X152725523Y-109278057D02*
X152773142Y-109373295D01*
X152773142Y-109373295D02*
X152773142Y-109516152D01*
X152773142Y-109516152D02*
X152725523Y-109611390D01*
X152725523Y-109611390D02*
X152677904Y-109659009D01*
X152677904Y-109659009D02*
X152582666Y-109706628D01*
X152582666Y-109706628D02*
X152201714Y-109706628D01*
X153725523Y-110182819D02*
X153154095Y-110182819D01*
X153439809Y-110182819D02*
X153439809Y-109182819D01*
X153439809Y-109182819D02*
X153344571Y-109325676D01*
X153344571Y-109325676D02*
X153249333Y-109420914D01*
X153249333Y-109420914D02*
X153154095Y-109468533D01*
X154630285Y-109182819D02*
X154154095Y-109182819D01*
X154154095Y-109182819D02*
X154106476Y-109659009D01*
X154106476Y-109659009D02*
X154154095Y-109611390D01*
X154154095Y-109611390D02*
X154249333Y-109563771D01*
X154249333Y-109563771D02*
X154487428Y-109563771D01*
X154487428Y-109563771D02*
X154582666Y-109611390D01*
X154582666Y-109611390D02*
X154630285Y-109659009D01*
X154630285Y-109659009D02*
X154677904Y-109754247D01*
X154677904Y-109754247D02*
X154677904Y-109992342D01*
X154677904Y-109992342D02*
X154630285Y-110087580D01*
X154630285Y-110087580D02*
X154582666Y-110135200D01*
X154582666Y-110135200D02*
X154487428Y-110182819D01*
X154487428Y-110182819D02*
X154249333Y-110182819D01*
X154249333Y-110182819D02*
X154154095Y-110135200D01*
X154154095Y-110135200D02*
X154106476Y-110087580D01*
X173640761Y-68114057D02*
X173545523Y-68066438D01*
X173545523Y-68066438D02*
X173450285Y-67971200D01*
X173450285Y-67971200D02*
X173307428Y-67828342D01*
X173307428Y-67828342D02*
X173212190Y-67780723D01*
X173212190Y-67780723D02*
X173116952Y-67780723D01*
X173164571Y-68018819D02*
X173069333Y-67971200D01*
X173069333Y-67971200D02*
X172974095Y-67875961D01*
X172974095Y-67875961D02*
X172926476Y-67685485D01*
X172926476Y-67685485D02*
X172926476Y-67352152D01*
X172926476Y-67352152D02*
X172974095Y-67161676D01*
X172974095Y-67161676D02*
X173069333Y-67066438D01*
X173069333Y-67066438D02*
X173164571Y-67018819D01*
X173164571Y-67018819D02*
X173355047Y-67018819D01*
X173355047Y-67018819D02*
X173450285Y-67066438D01*
X173450285Y-67066438D02*
X173545523Y-67161676D01*
X173545523Y-67161676D02*
X173593142Y-67352152D01*
X173593142Y-67352152D02*
X173593142Y-67685485D01*
X173593142Y-67685485D02*
X173545523Y-67875961D01*
X173545523Y-67875961D02*
X173450285Y-67971200D01*
X173450285Y-67971200D02*
X173355047Y-68018819D01*
X173355047Y-68018819D02*
X173164571Y-68018819D01*
X173974095Y-67114057D02*
X174021714Y-67066438D01*
X174021714Y-67066438D02*
X174116952Y-67018819D01*
X174116952Y-67018819D02*
X174355047Y-67018819D01*
X174355047Y-67018819D02*
X174450285Y-67066438D01*
X174450285Y-67066438D02*
X174497904Y-67114057D01*
X174497904Y-67114057D02*
X174545523Y-67209295D01*
X174545523Y-67209295D02*
X174545523Y-67304533D01*
X174545523Y-67304533D02*
X174497904Y-67447390D01*
X174497904Y-67447390D02*
X173926476Y-68018819D01*
X173926476Y-68018819D02*
X174545523Y-68018819D01*
X154011333Y-46936819D02*
X153678000Y-46460628D01*
X153439905Y-46936819D02*
X153439905Y-45936819D01*
X153439905Y-45936819D02*
X153820857Y-45936819D01*
X153820857Y-45936819D02*
X153916095Y-45984438D01*
X153916095Y-45984438D02*
X153963714Y-46032057D01*
X153963714Y-46032057D02*
X154011333Y-46127295D01*
X154011333Y-46127295D02*
X154011333Y-46270152D01*
X154011333Y-46270152D02*
X153963714Y-46365390D01*
X153963714Y-46365390D02*
X153916095Y-46413009D01*
X153916095Y-46413009D02*
X153820857Y-46460628D01*
X153820857Y-46460628D02*
X153439905Y-46460628D01*
X154344667Y-45936819D02*
X154963714Y-45936819D01*
X154963714Y-45936819D02*
X154630381Y-46317771D01*
X154630381Y-46317771D02*
X154773238Y-46317771D01*
X154773238Y-46317771D02*
X154868476Y-46365390D01*
X154868476Y-46365390D02*
X154916095Y-46413009D01*
X154916095Y-46413009D02*
X154963714Y-46508247D01*
X154963714Y-46508247D02*
X154963714Y-46746342D01*
X154963714Y-46746342D02*
X154916095Y-46841580D01*
X154916095Y-46841580D02*
X154868476Y-46889200D01*
X154868476Y-46889200D02*
X154773238Y-46936819D01*
X154773238Y-46936819D02*
X154487524Y-46936819D01*
X154487524Y-46936819D02*
X154392286Y-46889200D01*
X154392286Y-46889200D02*
X154344667Y-46841580D01*
X191609286Y-85195580D02*
X191555714Y-85243200D01*
X191555714Y-85243200D02*
X191406905Y-85290819D01*
X191406905Y-85290819D02*
X191311667Y-85290819D01*
X191311667Y-85290819D02*
X191174762Y-85243200D01*
X191174762Y-85243200D02*
X191091429Y-85147961D01*
X191091429Y-85147961D02*
X191055714Y-85052723D01*
X191055714Y-85052723D02*
X191031905Y-84862247D01*
X191031905Y-84862247D02*
X191049762Y-84719390D01*
X191049762Y-84719390D02*
X191121190Y-84528914D01*
X191121190Y-84528914D02*
X191180714Y-84433676D01*
X191180714Y-84433676D02*
X191287857Y-84338438D01*
X191287857Y-84338438D02*
X191436667Y-84290819D01*
X191436667Y-84290819D02*
X191531905Y-84290819D01*
X191531905Y-84290819D02*
X191668810Y-84338438D01*
X191668810Y-84338438D02*
X191710476Y-84386057D01*
X192055714Y-84290819D02*
X192674762Y-84290819D01*
X192674762Y-84290819D02*
X192293810Y-84671771D01*
X192293810Y-84671771D02*
X192436667Y-84671771D01*
X192436667Y-84671771D02*
X192525952Y-84719390D01*
X192525952Y-84719390D02*
X192567619Y-84767009D01*
X192567619Y-84767009D02*
X192603333Y-84862247D01*
X192603333Y-84862247D02*
X192573571Y-85100342D01*
X192573571Y-85100342D02*
X192514048Y-85195580D01*
X192514048Y-85195580D02*
X192460476Y-85243200D01*
X192460476Y-85243200D02*
X192359286Y-85290819D01*
X192359286Y-85290819D02*
X192073571Y-85290819D01*
X192073571Y-85290819D02*
X191984286Y-85243200D01*
X191984286Y-85243200D02*
X191942619Y-85195580D01*
X154852761Y-65986819D02*
X154519428Y-65510628D01*
X154281333Y-65986819D02*
X154281333Y-64986819D01*
X154281333Y-64986819D02*
X154662285Y-64986819D01*
X154662285Y-64986819D02*
X154757523Y-65034438D01*
X154757523Y-65034438D02*
X154805142Y-65082057D01*
X154805142Y-65082057D02*
X154852761Y-65177295D01*
X154852761Y-65177295D02*
X154852761Y-65320152D01*
X154852761Y-65320152D02*
X154805142Y-65415390D01*
X154805142Y-65415390D02*
X154757523Y-65463009D01*
X154757523Y-65463009D02*
X154662285Y-65510628D01*
X154662285Y-65510628D02*
X154281333Y-65510628D01*
X155138476Y-64986819D02*
X155471809Y-65986819D01*
X155471809Y-65986819D02*
X155805142Y-64986819D01*
X156662285Y-65986819D02*
X156090857Y-65986819D01*
X156376571Y-65986819D02*
X156376571Y-64986819D01*
X156376571Y-64986819D02*
X156281333Y-65129676D01*
X156281333Y-65129676D02*
X156186095Y-65224914D01*
X156186095Y-65224914D02*
X156090857Y-65272533D01*
X184491333Y-64208819D02*
X184158000Y-63732628D01*
X183919905Y-64208819D02*
X183919905Y-63208819D01*
X183919905Y-63208819D02*
X184300857Y-63208819D01*
X184300857Y-63208819D02*
X184396095Y-63256438D01*
X184396095Y-63256438D02*
X184443714Y-63304057D01*
X184443714Y-63304057D02*
X184491333Y-63399295D01*
X184491333Y-63399295D02*
X184491333Y-63542152D01*
X184491333Y-63542152D02*
X184443714Y-63637390D01*
X184443714Y-63637390D02*
X184396095Y-63685009D01*
X184396095Y-63685009D02*
X184300857Y-63732628D01*
X184300857Y-63732628D02*
X183919905Y-63732628D01*
X185443714Y-64208819D02*
X184872286Y-64208819D01*
X185158000Y-64208819D02*
X185158000Y-63208819D01*
X185158000Y-63208819D02*
X185062762Y-63351676D01*
X185062762Y-63351676D02*
X184967524Y-63446914D01*
X184967524Y-63446914D02*
X184872286Y-63494533D01*
X160615333Y-45158819D02*
X160282000Y-44682628D01*
X160043905Y-45158819D02*
X160043905Y-44158819D01*
X160043905Y-44158819D02*
X160424857Y-44158819D01*
X160424857Y-44158819D02*
X160520095Y-44206438D01*
X160520095Y-44206438D02*
X160567714Y-44254057D01*
X160567714Y-44254057D02*
X160615333Y-44349295D01*
X160615333Y-44349295D02*
X160615333Y-44492152D01*
X160615333Y-44492152D02*
X160567714Y-44587390D01*
X160567714Y-44587390D02*
X160520095Y-44635009D01*
X160520095Y-44635009D02*
X160424857Y-44682628D01*
X160424857Y-44682628D02*
X160043905Y-44682628D01*
X161472476Y-44158819D02*
X161282000Y-44158819D01*
X161282000Y-44158819D02*
X161186762Y-44206438D01*
X161186762Y-44206438D02*
X161139143Y-44254057D01*
X161139143Y-44254057D02*
X161043905Y-44396914D01*
X161043905Y-44396914D02*
X160996286Y-44587390D01*
X160996286Y-44587390D02*
X160996286Y-44968342D01*
X160996286Y-44968342D02*
X161043905Y-45063580D01*
X161043905Y-45063580D02*
X161091524Y-45111200D01*
X161091524Y-45111200D02*
X161186762Y-45158819D01*
X161186762Y-45158819D02*
X161377238Y-45158819D01*
X161377238Y-45158819D02*
X161472476Y-45111200D01*
X161472476Y-45111200D02*
X161520095Y-45063580D01*
X161520095Y-45063580D02*
X161567714Y-44968342D01*
X161567714Y-44968342D02*
X161567714Y-44730247D01*
X161567714Y-44730247D02*
X161520095Y-44635009D01*
X161520095Y-44635009D02*
X161472476Y-44587390D01*
X161472476Y-44587390D02*
X161377238Y-44539771D01*
X161377238Y-44539771D02*
X161186762Y-44539771D01*
X161186762Y-44539771D02*
X161091524Y-44587390D01*
X161091524Y-44587390D02*
X161043905Y-44635009D01*
X161043905Y-44635009D02*
X160996286Y-44730247D01*
D12*
X153999590Y-94911028D02*
X154023400Y-94934837D01*
X154023400Y-94934837D02*
X154047209Y-95006266D01*
X154047209Y-95006266D02*
X154047209Y-95053885D01*
X154047209Y-95053885D02*
X154023400Y-95125313D01*
X154023400Y-95125313D02*
X153975780Y-95172932D01*
X153975780Y-95172932D02*
X153928161Y-95196742D01*
X153928161Y-95196742D02*
X153832923Y-95220551D01*
X153832923Y-95220551D02*
X153761495Y-95220551D01*
X153761495Y-95220551D02*
X153666257Y-95196742D01*
X153666257Y-95196742D02*
X153618638Y-95172932D01*
X153618638Y-95172932D02*
X153571019Y-95125313D01*
X153571019Y-95125313D02*
X153547209Y-95053885D01*
X153547209Y-95053885D02*
X153547209Y-95006266D01*
X153547209Y-95006266D02*
X153571019Y-94934837D01*
X153571019Y-94934837D02*
X153594828Y-94911028D01*
X154047209Y-94434837D02*
X154047209Y-94720551D01*
X154047209Y-94577694D02*
X153547209Y-94577694D01*
X153547209Y-94577694D02*
X153618638Y-94625313D01*
X153618638Y-94625313D02*
X153666257Y-94672932D01*
X153666257Y-94672932D02*
X153690066Y-94720551D01*
X153594828Y-94244361D02*
X153571019Y-94220552D01*
X153571019Y-94220552D02*
X153547209Y-94172933D01*
X153547209Y-94172933D02*
X153547209Y-94053885D01*
X153547209Y-94053885D02*
X153571019Y-94006266D01*
X153571019Y-94006266D02*
X153594828Y-93982457D01*
X153594828Y-93982457D02*
X153642447Y-93958647D01*
X153642447Y-93958647D02*
X153690066Y-93958647D01*
X153690066Y-93958647D02*
X153761495Y-93982457D01*
X153761495Y-93982457D02*
X154047209Y-94268171D01*
X154047209Y-94268171D02*
X154047209Y-93958647D01*
D10*
X173315905Y-92479019D02*
X173315905Y-91479019D01*
X173315905Y-91479019D02*
X173554000Y-91479019D01*
X173554000Y-91479019D02*
X173696857Y-91526638D01*
X173696857Y-91526638D02*
X173792095Y-91621876D01*
X173792095Y-91621876D02*
X173839714Y-91717114D01*
X173839714Y-91717114D02*
X173887333Y-91907590D01*
X173887333Y-91907590D02*
X173887333Y-92050447D01*
X173887333Y-92050447D02*
X173839714Y-92240923D01*
X173839714Y-92240923D02*
X173792095Y-92336161D01*
X173792095Y-92336161D02*
X173696857Y-92431400D01*
X173696857Y-92431400D02*
X173554000Y-92479019D01*
X173554000Y-92479019D02*
X173315905Y-92479019D01*
X174839714Y-92479019D02*
X174268286Y-92479019D01*
X174554000Y-92479019D02*
X174554000Y-91479019D01*
X174554000Y-91479019D02*
X174458762Y-91621876D01*
X174458762Y-91621876D02*
X174363524Y-91717114D01*
X174363524Y-91717114D02*
X174268286Y-91764733D01*
X191033495Y-35595838D02*
X190938257Y-35548219D01*
X190938257Y-35548219D02*
X190795400Y-35548219D01*
X190795400Y-35548219D02*
X190652543Y-35595838D01*
X190652543Y-35595838D02*
X190557305Y-35691076D01*
X190557305Y-35691076D02*
X190509686Y-35786314D01*
X190509686Y-35786314D02*
X190462067Y-35976790D01*
X190462067Y-35976790D02*
X190462067Y-36119647D01*
X190462067Y-36119647D02*
X190509686Y-36310123D01*
X190509686Y-36310123D02*
X190557305Y-36405361D01*
X190557305Y-36405361D02*
X190652543Y-36500600D01*
X190652543Y-36500600D02*
X190795400Y-36548219D01*
X190795400Y-36548219D02*
X190890638Y-36548219D01*
X190890638Y-36548219D02*
X191033495Y-36500600D01*
X191033495Y-36500600D02*
X191081114Y-36452980D01*
X191081114Y-36452980D02*
X191081114Y-36119647D01*
X191081114Y-36119647D02*
X190890638Y-36119647D01*
X191509686Y-36548219D02*
X191509686Y-35548219D01*
X191509686Y-35548219D02*
X192081114Y-36548219D01*
X192081114Y-36548219D02*
X192081114Y-35548219D01*
X192557305Y-36548219D02*
X192557305Y-35548219D01*
X192557305Y-35548219D02*
X192795400Y-35548219D01*
X192795400Y-35548219D02*
X192938257Y-35595838D01*
X192938257Y-35595838D02*
X193033495Y-35691076D01*
X193033495Y-35691076D02*
X193081114Y-35786314D01*
X193081114Y-35786314D02*
X193128733Y-35976790D01*
X193128733Y-35976790D02*
X193128733Y-36119647D01*
X193128733Y-36119647D02*
X193081114Y-36310123D01*
X193081114Y-36310123D02*
X193033495Y-36405361D01*
X193033495Y-36405361D02*
X192938257Y-36500600D01*
X192938257Y-36500600D02*
X192795400Y-36548219D01*
X192795400Y-36548219D02*
X192557305Y-36548219D01*
X164792819Y-109561238D02*
X164316628Y-109894571D01*
X164792819Y-110132666D02*
X163792819Y-110132666D01*
X163792819Y-110132666D02*
X163792819Y-109751714D01*
X163792819Y-109751714D02*
X163840438Y-109656476D01*
X163840438Y-109656476D02*
X163888057Y-109608857D01*
X163888057Y-109608857D02*
X163983295Y-109561238D01*
X163983295Y-109561238D02*
X164126152Y-109561238D01*
X164126152Y-109561238D02*
X164221390Y-109608857D01*
X164221390Y-109608857D02*
X164269009Y-109656476D01*
X164269009Y-109656476D02*
X164316628Y-109751714D01*
X164316628Y-109751714D02*
X164316628Y-110132666D01*
X163792819Y-109275523D02*
X164792819Y-108942190D01*
X164792819Y-108942190D02*
X163792819Y-108608857D01*
X163888057Y-108323142D02*
X163840438Y-108275523D01*
X163840438Y-108275523D02*
X163792819Y-108180285D01*
X163792819Y-108180285D02*
X163792819Y-107942190D01*
X163792819Y-107942190D02*
X163840438Y-107846952D01*
X163840438Y-107846952D02*
X163888057Y-107799333D01*
X163888057Y-107799333D02*
X163983295Y-107751714D01*
X163983295Y-107751714D02*
X164078533Y-107751714D01*
X164078533Y-107751714D02*
X164221390Y-107799333D01*
X164221390Y-107799333D02*
X164792819Y-108370761D01*
X164792819Y-108370761D02*
X164792819Y-107751714D01*
X166062819Y-109656476D02*
X166062819Y-110227904D01*
X166062819Y-109942190D02*
X165062819Y-109942190D01*
X165062819Y-109942190D02*
X165205676Y-110037428D01*
X165205676Y-110037428D02*
X165300914Y-110132666D01*
X165300914Y-110132666D02*
X165348533Y-110227904D01*
X165062819Y-109037428D02*
X165062819Y-108942190D01*
X165062819Y-108942190D02*
X165110438Y-108846952D01*
X165110438Y-108846952D02*
X165158057Y-108799333D01*
X165158057Y-108799333D02*
X165253295Y-108751714D01*
X165253295Y-108751714D02*
X165443771Y-108704095D01*
X165443771Y-108704095D02*
X165681866Y-108704095D01*
X165681866Y-108704095D02*
X165872342Y-108751714D01*
X165872342Y-108751714D02*
X165967580Y-108799333D01*
X165967580Y-108799333D02*
X166015200Y-108846952D01*
X166015200Y-108846952D02*
X166062819Y-108942190D01*
X166062819Y-108942190D02*
X166062819Y-109037428D01*
X166062819Y-109037428D02*
X166015200Y-109132666D01*
X166015200Y-109132666D02*
X165967580Y-109180285D01*
X165967580Y-109180285D02*
X165872342Y-109227904D01*
X165872342Y-109227904D02*
X165681866Y-109275523D01*
X165681866Y-109275523D02*
X165443771Y-109275523D01*
X165443771Y-109275523D02*
X165253295Y-109227904D01*
X165253295Y-109227904D02*
X165158057Y-109180285D01*
X165158057Y-109180285D02*
X165110438Y-109132666D01*
X165110438Y-109132666D02*
X165062819Y-109037428D01*
X166062819Y-108275523D02*
X165062819Y-108275523D01*
X166062819Y-107704095D02*
X165491390Y-108132666D01*
X165062819Y-107704095D02*
X165634247Y-108275523D01*
X179563733Y-81508980D02*
X179516114Y-81556600D01*
X179516114Y-81556600D02*
X179373257Y-81604219D01*
X179373257Y-81604219D02*
X179278019Y-81604219D01*
X179278019Y-81604219D02*
X179135162Y-81556600D01*
X179135162Y-81556600D02*
X179039924Y-81461361D01*
X179039924Y-81461361D02*
X178992305Y-81366123D01*
X178992305Y-81366123D02*
X178944686Y-81175647D01*
X178944686Y-81175647D02*
X178944686Y-81032790D01*
X178944686Y-81032790D02*
X178992305Y-80842314D01*
X178992305Y-80842314D02*
X179039924Y-80747076D01*
X179039924Y-80747076D02*
X179135162Y-80651838D01*
X179135162Y-80651838D02*
X179278019Y-80604219D01*
X179278019Y-80604219D02*
X179373257Y-80604219D01*
X179373257Y-80604219D02*
X179516114Y-80651838D01*
X179516114Y-80651838D02*
X179563733Y-80699457D01*
X180039924Y-81604219D02*
X180230400Y-81604219D01*
X180230400Y-81604219D02*
X180325638Y-81556600D01*
X180325638Y-81556600D02*
X180373257Y-81508980D01*
X180373257Y-81508980D02*
X180468495Y-81366123D01*
X180468495Y-81366123D02*
X180516114Y-81175647D01*
X180516114Y-81175647D02*
X180516114Y-80794695D01*
X180516114Y-80794695D02*
X180468495Y-80699457D01*
X180468495Y-80699457D02*
X180420876Y-80651838D01*
X180420876Y-80651838D02*
X180325638Y-80604219D01*
X180325638Y-80604219D02*
X180135162Y-80604219D01*
X180135162Y-80604219D02*
X180039924Y-80651838D01*
X180039924Y-80651838D02*
X179992305Y-80699457D01*
X179992305Y-80699457D02*
X179944686Y-80794695D01*
X179944686Y-80794695D02*
X179944686Y-81032790D01*
X179944686Y-81032790D02*
X179992305Y-81128028D01*
X179992305Y-81128028D02*
X180039924Y-81175647D01*
X180039924Y-81175647D02*
X180135162Y-81223266D01*
X180135162Y-81223266D02*
X180325638Y-81223266D01*
X180325638Y-81223266D02*
X180420876Y-81175647D01*
X180420876Y-81175647D02*
X180468495Y-81128028D01*
X180468495Y-81128028D02*
X180516114Y-81032790D01*
X187825142Y-38808819D02*
X187491809Y-38332628D01*
X187253714Y-38808819D02*
X187253714Y-37808819D01*
X187253714Y-37808819D02*
X187634666Y-37808819D01*
X187634666Y-37808819D02*
X187729904Y-37856438D01*
X187729904Y-37856438D02*
X187777523Y-37904057D01*
X187777523Y-37904057D02*
X187825142Y-37999295D01*
X187825142Y-37999295D02*
X187825142Y-38142152D01*
X187825142Y-38142152D02*
X187777523Y-38237390D01*
X187777523Y-38237390D02*
X187729904Y-38285009D01*
X187729904Y-38285009D02*
X187634666Y-38332628D01*
X187634666Y-38332628D02*
X187253714Y-38332628D01*
X188777523Y-38808819D02*
X188206095Y-38808819D01*
X188491809Y-38808819D02*
X188491809Y-37808819D01*
X188491809Y-37808819D02*
X188396571Y-37951676D01*
X188396571Y-37951676D02*
X188301333Y-38046914D01*
X188301333Y-38046914D02*
X188206095Y-38094533D01*
X189729904Y-38808819D02*
X189158476Y-38808819D01*
X189444190Y-38808819D02*
X189444190Y-37808819D01*
X189444190Y-37808819D02*
X189348952Y-37951676D01*
X189348952Y-37951676D02*
X189253714Y-38046914D01*
X189253714Y-38046914D02*
X189158476Y-38094533D01*
X191603333Y-83163580D02*
X191555714Y-83211200D01*
X191555714Y-83211200D02*
X191412857Y-83258819D01*
X191412857Y-83258819D02*
X191317619Y-83258819D01*
X191317619Y-83258819D02*
X191174762Y-83211200D01*
X191174762Y-83211200D02*
X191079524Y-83115961D01*
X191079524Y-83115961D02*
X191031905Y-83020723D01*
X191031905Y-83020723D02*
X190984286Y-82830247D01*
X190984286Y-82830247D02*
X190984286Y-82687390D01*
X190984286Y-82687390D02*
X191031905Y-82496914D01*
X191031905Y-82496914D02*
X191079524Y-82401676D01*
X191079524Y-82401676D02*
X191174762Y-82306438D01*
X191174762Y-82306438D02*
X191317619Y-82258819D01*
X191317619Y-82258819D02*
X191412857Y-82258819D01*
X191412857Y-82258819D02*
X191555714Y-82306438D01*
X191555714Y-82306438D02*
X191603333Y-82354057D01*
X191984286Y-82354057D02*
X192031905Y-82306438D01*
X192031905Y-82306438D02*
X192127143Y-82258819D01*
X192127143Y-82258819D02*
X192365238Y-82258819D01*
X192365238Y-82258819D02*
X192460476Y-82306438D01*
X192460476Y-82306438D02*
X192508095Y-82354057D01*
X192508095Y-82354057D02*
X192555714Y-82449295D01*
X192555714Y-82449295D02*
X192555714Y-82544533D01*
X192555714Y-82544533D02*
X192508095Y-82687390D01*
X192508095Y-82687390D02*
X191936667Y-83258819D01*
X191936667Y-83258819D02*
X192555714Y-83258819D01*
X189458980Y-79053113D02*
X189506600Y-79106685D01*
X189506600Y-79106685D02*
X189554219Y-79255494D01*
X189554219Y-79255494D02*
X189554219Y-79350732D01*
X189554219Y-79350732D02*
X189506600Y-79487637D01*
X189506600Y-79487637D02*
X189411361Y-79570970D01*
X189411361Y-79570970D02*
X189316123Y-79606685D01*
X189316123Y-79606685D02*
X189125647Y-79630494D01*
X189125647Y-79630494D02*
X188982790Y-79612637D01*
X188982790Y-79612637D02*
X188792314Y-79541209D01*
X188792314Y-79541209D02*
X188697076Y-79481685D01*
X188697076Y-79481685D02*
X188601838Y-79374542D01*
X188601838Y-79374542D02*
X188554219Y-79225732D01*
X188554219Y-79225732D02*
X188554219Y-79130494D01*
X188554219Y-79130494D02*
X188601838Y-78993590D01*
X188601838Y-78993590D02*
X188649457Y-78951923D01*
X189554219Y-78112637D02*
X189554219Y-78684066D01*
X189554219Y-78398351D02*
X188554219Y-78273351D01*
X188554219Y-78273351D02*
X188697076Y-78386447D01*
X188697076Y-78386447D02*
X188792314Y-78493590D01*
X188792314Y-78493590D02*
X188839933Y-78594780D01*
X180390895Y-105191419D02*
X180390895Y-106000942D01*
X180390895Y-106000942D02*
X180438514Y-106096180D01*
X180438514Y-106096180D02*
X180486133Y-106143800D01*
X180486133Y-106143800D02*
X180581371Y-106191419D01*
X180581371Y-106191419D02*
X180771847Y-106191419D01*
X180771847Y-106191419D02*
X180867085Y-106143800D01*
X180867085Y-106143800D02*
X180914704Y-106096180D01*
X180914704Y-106096180D02*
X180962323Y-106000942D01*
X180962323Y-106000942D02*
X180962323Y-105191419D01*
X181914704Y-105191419D02*
X181438514Y-105191419D01*
X181438514Y-105191419D02*
X181390895Y-105667609D01*
X181390895Y-105667609D02*
X181438514Y-105619990D01*
X181438514Y-105619990D02*
X181533752Y-105572371D01*
X181533752Y-105572371D02*
X181771847Y-105572371D01*
X181771847Y-105572371D02*
X181867085Y-105619990D01*
X181867085Y-105619990D02*
X181914704Y-105667609D01*
X181914704Y-105667609D02*
X181962323Y-105762847D01*
X181962323Y-105762847D02*
X181962323Y-106000942D01*
X181962323Y-106000942D02*
X181914704Y-106096180D01*
X181914704Y-106096180D02*
X181867085Y-106143800D01*
X181867085Y-106143800D02*
X181771847Y-106191419D01*
X181771847Y-106191419D02*
X181533752Y-106191419D01*
X181533752Y-106191419D02*
X181438514Y-106143800D01*
X181438514Y-106143800D02*
X181390895Y-106096180D01*
X178509943Y-107357104D02*
X178986133Y-107357104D01*
X178414705Y-107642819D02*
X178748038Y-106642819D01*
X178748038Y-106642819D02*
X179081371Y-107642819D01*
X179986133Y-107547580D02*
X179938514Y-107595200D01*
X179938514Y-107595200D02*
X179795657Y-107642819D01*
X179795657Y-107642819D02*
X179700419Y-107642819D01*
X179700419Y-107642819D02*
X179557562Y-107595200D01*
X179557562Y-107595200D02*
X179462324Y-107499961D01*
X179462324Y-107499961D02*
X179414705Y-107404723D01*
X179414705Y-107404723D02*
X179367086Y-107214247D01*
X179367086Y-107214247D02*
X179367086Y-107071390D01*
X179367086Y-107071390D02*
X179414705Y-106880914D01*
X179414705Y-106880914D02*
X179462324Y-106785676D01*
X179462324Y-106785676D02*
X179557562Y-106690438D01*
X179557562Y-106690438D02*
X179700419Y-106642819D01*
X179700419Y-106642819D02*
X179795657Y-106642819D01*
X179795657Y-106642819D02*
X179938514Y-106690438D01*
X179938514Y-106690438D02*
X179986133Y-106738057D01*
X180367086Y-107595200D02*
X180509943Y-107642819D01*
X180509943Y-107642819D02*
X180748038Y-107642819D01*
X180748038Y-107642819D02*
X180843276Y-107595200D01*
X180843276Y-107595200D02*
X180890895Y-107547580D01*
X180890895Y-107547580D02*
X180938514Y-107452342D01*
X180938514Y-107452342D02*
X180938514Y-107357104D01*
X180938514Y-107357104D02*
X180890895Y-107261866D01*
X180890895Y-107261866D02*
X180843276Y-107214247D01*
X180843276Y-107214247D02*
X180748038Y-107166628D01*
X180748038Y-107166628D02*
X180557562Y-107119009D01*
X180557562Y-107119009D02*
X180462324Y-107071390D01*
X180462324Y-107071390D02*
X180414705Y-107023771D01*
X180414705Y-107023771D02*
X180367086Y-106928533D01*
X180367086Y-106928533D02*
X180367086Y-106833295D01*
X180367086Y-106833295D02*
X180414705Y-106738057D01*
X180414705Y-106738057D02*
X180462324Y-106690438D01*
X180462324Y-106690438D02*
X180557562Y-106642819D01*
X180557562Y-106642819D02*
X180795657Y-106642819D01*
X180795657Y-106642819D02*
X180938514Y-106690438D01*
X181271848Y-106642819D02*
X181938514Y-106642819D01*
X181938514Y-106642819D02*
X181509943Y-107642819D01*
X182843276Y-107642819D02*
X182271848Y-107642819D01*
X182557562Y-107642819D02*
X182557562Y-106642819D01*
X182557562Y-106642819D02*
X182462324Y-106785676D01*
X182462324Y-106785676D02*
X182367086Y-106880914D01*
X182367086Y-106880914D02*
X182271848Y-106928533D01*
X183224229Y-106738057D02*
X183271848Y-106690438D01*
X183271848Y-106690438D02*
X183367086Y-106642819D01*
X183367086Y-106642819D02*
X183605181Y-106642819D01*
X183605181Y-106642819D02*
X183700419Y-106690438D01*
X183700419Y-106690438D02*
X183748038Y-106738057D01*
X183748038Y-106738057D02*
X183795657Y-106833295D01*
X183795657Y-106833295D02*
X183795657Y-106928533D01*
X183795657Y-106928533D02*
X183748038Y-107071390D01*
X183748038Y-107071390D02*
X183176610Y-107642819D01*
X183176610Y-107642819D02*
X183795657Y-107642819D01*
X178066114Y-115536219D02*
X178637542Y-115536219D01*
X178351828Y-116536219D02*
X178351828Y-115536219D01*
X178970876Y-116012409D02*
X179304209Y-116012409D01*
X179447066Y-116536219D02*
X178970876Y-116536219D01*
X178970876Y-116536219D02*
X178970876Y-115536219D01*
X178970876Y-115536219D02*
X179447066Y-115536219D01*
X179875638Y-116536219D02*
X179875638Y-115536219D01*
X179875638Y-115536219D02*
X180208971Y-116250504D01*
X180208971Y-116250504D02*
X180542304Y-115536219D01*
X180542304Y-115536219D02*
X180542304Y-116536219D01*
X181018495Y-116536219D02*
X181018495Y-115536219D01*
X181018495Y-115536219D02*
X181399447Y-115536219D01*
X181399447Y-115536219D02*
X181494685Y-115583838D01*
X181494685Y-115583838D02*
X181542304Y-115631457D01*
X181542304Y-115631457D02*
X181589923Y-115726695D01*
X181589923Y-115726695D02*
X181589923Y-115869552D01*
X181589923Y-115869552D02*
X181542304Y-115964790D01*
X181542304Y-115964790D02*
X181494685Y-116012409D01*
X181494685Y-116012409D02*
X181399447Y-116060028D01*
X181399447Y-116060028D02*
X181018495Y-116060028D01*
X181780400Y-116631457D02*
X182542304Y-116631457D01*
X183304209Y-116536219D02*
X182732781Y-116536219D01*
X183018495Y-116536219D02*
X183018495Y-115536219D01*
X183018495Y-115536219D02*
X182923257Y-115679076D01*
X182923257Y-115679076D02*
X182828019Y-115774314D01*
X182828019Y-115774314D02*
X182732781Y-115821933D01*
X184208971Y-115536219D02*
X183732781Y-115536219D01*
X183732781Y-115536219D02*
X183685162Y-116012409D01*
X183685162Y-116012409D02*
X183732781Y-115964790D01*
X183732781Y-115964790D02*
X183828019Y-115917171D01*
X183828019Y-115917171D02*
X184066114Y-115917171D01*
X184066114Y-115917171D02*
X184161352Y-115964790D01*
X184161352Y-115964790D02*
X184208971Y-116012409D01*
X184208971Y-116012409D02*
X184256590Y-116107647D01*
X184256590Y-116107647D02*
X184256590Y-116345742D01*
X184256590Y-116345742D02*
X184208971Y-116440980D01*
X184208971Y-116440980D02*
X184161352Y-116488600D01*
X184161352Y-116488600D02*
X184066114Y-116536219D01*
X184066114Y-116536219D02*
X183828019Y-116536219D01*
X183828019Y-116536219D02*
X183732781Y-116488600D01*
X183732781Y-116488600D02*
X183685162Y-116440980D01*
X185256590Y-116440980D02*
X185208971Y-116488600D01*
X185208971Y-116488600D02*
X185066114Y-116536219D01*
X185066114Y-116536219D02*
X184970876Y-116536219D01*
X184970876Y-116536219D02*
X184828019Y-116488600D01*
X184828019Y-116488600D02*
X184732781Y-116393361D01*
X184732781Y-116393361D02*
X184685162Y-116298123D01*
X184685162Y-116298123D02*
X184637543Y-116107647D01*
X184637543Y-116107647D02*
X184637543Y-115964790D01*
X184637543Y-115964790D02*
X184685162Y-115774314D01*
X184685162Y-115774314D02*
X184732781Y-115679076D01*
X184732781Y-115679076D02*
X184828019Y-115583838D01*
X184828019Y-115583838D02*
X184970876Y-115536219D01*
X184970876Y-115536219D02*
X185066114Y-115536219D01*
X185066114Y-115536219D02*
X185208971Y-115583838D01*
X185208971Y-115583838D02*
X185256590Y-115631457D01*
X185685162Y-116536219D02*
X185685162Y-115536219D01*
X185685162Y-115536219D02*
X186018495Y-116250504D01*
X186018495Y-116250504D02*
X186351828Y-115536219D01*
X186351828Y-115536219D02*
X186351828Y-116536219D01*
X193002819Y-103711333D02*
X193717104Y-103711333D01*
X193717104Y-103711333D02*
X193859961Y-103758952D01*
X193859961Y-103758952D02*
X193955200Y-103854190D01*
X193955200Y-103854190D02*
X194002819Y-103997047D01*
X194002819Y-103997047D02*
X194002819Y-104092285D01*
X193336152Y-102806571D02*
X194002819Y-102806571D01*
X192955200Y-103044666D02*
X193669485Y-103282761D01*
X193669485Y-103282761D02*
X193669485Y-102663714D01*
X186687619Y-105155714D02*
X186687619Y-105631904D01*
X186687619Y-105631904D02*
X185687619Y-105631904D01*
X185687619Y-104631904D02*
X185687619Y-104441428D01*
X185687619Y-104441428D02*
X185735238Y-104346190D01*
X185735238Y-104346190D02*
X185830476Y-104250952D01*
X185830476Y-104250952D02*
X186020952Y-104203333D01*
X186020952Y-104203333D02*
X186354285Y-104203333D01*
X186354285Y-104203333D02*
X186544761Y-104250952D01*
X186544761Y-104250952D02*
X186640000Y-104346190D01*
X186640000Y-104346190D02*
X186687619Y-104441428D01*
X186687619Y-104441428D02*
X186687619Y-104631904D01*
X186687619Y-104631904D02*
X186640000Y-104727142D01*
X186640000Y-104727142D02*
X186544761Y-104822380D01*
X186544761Y-104822380D02*
X186354285Y-104869999D01*
X186354285Y-104869999D02*
X186020952Y-104869999D01*
X186020952Y-104869999D02*
X185830476Y-104822380D01*
X185830476Y-104822380D02*
X185735238Y-104727142D01*
X185735238Y-104727142D02*
X185687619Y-104631904D01*
X186401904Y-103822380D02*
X186401904Y-103346190D01*
X186687619Y-103917618D02*
X185687619Y-103584285D01*
X185687619Y-103584285D02*
X186687619Y-103250952D01*
X186687619Y-102917618D02*
X185687619Y-102917618D01*
X185687619Y-102917618D02*
X185687619Y-102679523D01*
X185687619Y-102679523D02*
X185735238Y-102536666D01*
X185735238Y-102536666D02*
X185830476Y-102441428D01*
X185830476Y-102441428D02*
X185925714Y-102393809D01*
X185925714Y-102393809D02*
X186116190Y-102346190D01*
X186116190Y-102346190D02*
X186259047Y-102346190D01*
X186259047Y-102346190D02*
X186449523Y-102393809D01*
X186449523Y-102393809D02*
X186544761Y-102441428D01*
X186544761Y-102441428D02*
X186640000Y-102536666D01*
X186640000Y-102536666D02*
X186687619Y-102679523D01*
X186687619Y-102679523D02*
X186687619Y-102917618D01*
X186687619Y-101155713D02*
X185687619Y-101155713D01*
X186687619Y-100679523D02*
X185687619Y-100679523D01*
X185687619Y-100679523D02*
X186687619Y-100108095D01*
X186687619Y-100108095D02*
X185687619Y-100108095D01*
X133485619Y-113911733D02*
X134199904Y-113911733D01*
X134199904Y-113911733D02*
X134342761Y-113959352D01*
X134342761Y-113959352D02*
X134438000Y-114054590D01*
X134438000Y-114054590D02*
X134485619Y-114197447D01*
X134485619Y-114197447D02*
X134485619Y-114292685D01*
X133485619Y-112959352D02*
X133485619Y-113435542D01*
X133485619Y-113435542D02*
X133961809Y-113483161D01*
X133961809Y-113483161D02*
X133914190Y-113435542D01*
X133914190Y-113435542D02*
X133866571Y-113340304D01*
X133866571Y-113340304D02*
X133866571Y-113102209D01*
X133866571Y-113102209D02*
X133914190Y-113006971D01*
X133914190Y-113006971D02*
X133961809Y-112959352D01*
X133961809Y-112959352D02*
X134057047Y-112911733D01*
X134057047Y-112911733D02*
X134295142Y-112911733D01*
X134295142Y-112911733D02*
X134390380Y-112959352D01*
X134390380Y-112959352D02*
X134438000Y-113006971D01*
X134438000Y-113006971D02*
X134485619Y-113102209D01*
X134485619Y-113102209D02*
X134485619Y-113340304D01*
X134485619Y-113340304D02*
X134438000Y-113435542D01*
X134438000Y-113435542D02*
X134390380Y-113483161D01*
X148790819Y-113276256D02*
X147790819Y-113276256D01*
X148267009Y-113276256D02*
X148267009Y-112704828D01*
X148790819Y-112704828D02*
X147790819Y-112704828D01*
X147790819Y-112228637D02*
X148600342Y-112228637D01*
X148600342Y-112228637D02*
X148695580Y-112181018D01*
X148695580Y-112181018D02*
X148743200Y-112133399D01*
X148743200Y-112133399D02*
X148790819Y-112038161D01*
X148790819Y-112038161D02*
X148790819Y-111847685D01*
X148790819Y-111847685D02*
X148743200Y-111752447D01*
X148743200Y-111752447D02*
X148695580Y-111704828D01*
X148695580Y-111704828D02*
X148600342Y-111657209D01*
X148600342Y-111657209D02*
X147790819Y-111657209D01*
X148790819Y-111181018D02*
X147790819Y-111181018D01*
X147790819Y-111181018D02*
X148505104Y-110847685D01*
X148505104Y-110847685D02*
X147790819Y-110514352D01*
X147790819Y-110514352D02*
X148790819Y-110514352D01*
X148743200Y-109323875D02*
X148790819Y-109181018D01*
X148790819Y-109181018D02*
X148790819Y-108942923D01*
X148790819Y-108942923D02*
X148743200Y-108847685D01*
X148743200Y-108847685D02*
X148695580Y-108800066D01*
X148695580Y-108800066D02*
X148600342Y-108752447D01*
X148600342Y-108752447D02*
X148505104Y-108752447D01*
X148505104Y-108752447D02*
X148409866Y-108800066D01*
X148409866Y-108800066D02*
X148362247Y-108847685D01*
X148362247Y-108847685D02*
X148314628Y-108942923D01*
X148314628Y-108942923D02*
X148267009Y-109133399D01*
X148267009Y-109133399D02*
X148219390Y-109228637D01*
X148219390Y-109228637D02*
X148171771Y-109276256D01*
X148171771Y-109276256D02*
X148076533Y-109323875D01*
X148076533Y-109323875D02*
X147981295Y-109323875D01*
X147981295Y-109323875D02*
X147886057Y-109276256D01*
X147886057Y-109276256D02*
X147838438Y-109228637D01*
X147838438Y-109228637D02*
X147790819Y-109133399D01*
X147790819Y-109133399D02*
X147790819Y-108895304D01*
X147790819Y-108895304D02*
X147838438Y-108752447D01*
X147790819Y-108323875D02*
X148600342Y-108323875D01*
X148600342Y-108323875D02*
X148695580Y-108276256D01*
X148695580Y-108276256D02*
X148743200Y-108228637D01*
X148743200Y-108228637D02*
X148790819Y-108133399D01*
X148790819Y-108133399D02*
X148790819Y-107942923D01*
X148790819Y-107942923D02*
X148743200Y-107847685D01*
X148743200Y-107847685D02*
X148695580Y-107800066D01*
X148695580Y-107800066D02*
X148600342Y-107752447D01*
X148600342Y-107752447D02*
X147790819Y-107752447D01*
X148267009Y-107276256D02*
X148267009Y-106942923D01*
X148790819Y-106800066D02*
X148790819Y-107276256D01*
X148790819Y-107276256D02*
X147790819Y-107276256D01*
X147790819Y-107276256D02*
X147790819Y-106800066D01*
X148790819Y-105895304D02*
X148790819Y-106371494D01*
X148790819Y-106371494D02*
X147790819Y-106371494D01*
X147790819Y-105371494D02*
X147790819Y-105181018D01*
X147790819Y-105181018D02*
X147838438Y-105085780D01*
X147838438Y-105085780D02*
X147933676Y-104990542D01*
X147933676Y-104990542D02*
X148124152Y-104942923D01*
X148124152Y-104942923D02*
X148457485Y-104942923D01*
X148457485Y-104942923D02*
X148647961Y-104990542D01*
X148647961Y-104990542D02*
X148743200Y-105085780D01*
X148743200Y-105085780D02*
X148790819Y-105181018D01*
X148790819Y-105181018D02*
X148790819Y-105371494D01*
X148790819Y-105371494D02*
X148743200Y-105466732D01*
X148743200Y-105466732D02*
X148647961Y-105561970D01*
X148647961Y-105561970D02*
X148457485Y-105609589D01*
X148457485Y-105609589D02*
X148124152Y-105609589D01*
X148124152Y-105609589D02*
X147933676Y-105561970D01*
X147933676Y-105561970D02*
X147838438Y-105466732D01*
X147838438Y-105466732D02*
X147790819Y-105371494D01*
X148114609Y-51608180D02*
X148114609Y-51274847D01*
X148638419Y-51131990D02*
X148638419Y-51608180D01*
X148638419Y-51608180D02*
X147638419Y-51608180D01*
X147638419Y-51608180D02*
X147638419Y-51131990D01*
X147638419Y-50798656D02*
X148638419Y-50131990D01*
X147638419Y-50131990D02*
X148638419Y-50798656D01*
X147638419Y-49893894D02*
X147638419Y-49322466D01*
X148638419Y-49608180D02*
X147638419Y-49608180D01*
X148114609Y-48989132D02*
X148114609Y-48655799D01*
X148638419Y-48512942D02*
X148638419Y-48989132D01*
X148638419Y-48989132D02*
X147638419Y-48989132D01*
X147638419Y-48989132D02*
X147638419Y-48512942D01*
X148638419Y-47512942D02*
X148162228Y-47846275D01*
X148638419Y-48084370D02*
X147638419Y-48084370D01*
X147638419Y-48084370D02*
X147638419Y-47703418D01*
X147638419Y-47703418D02*
X147686038Y-47608180D01*
X147686038Y-47608180D02*
X147733657Y-47560561D01*
X147733657Y-47560561D02*
X147828895Y-47512942D01*
X147828895Y-47512942D02*
X147971752Y-47512942D01*
X147971752Y-47512942D02*
X148066990Y-47560561D01*
X148066990Y-47560561D02*
X148114609Y-47608180D01*
X148114609Y-47608180D02*
X148162228Y-47703418D01*
X148162228Y-47703418D02*
X148162228Y-48084370D01*
X148638419Y-47084370D02*
X147638419Y-47084370D01*
X147638419Y-47084370D02*
X148638419Y-46512942D01*
X148638419Y-46512942D02*
X147638419Y-46512942D01*
X148352704Y-46084370D02*
X148352704Y-45608180D01*
X148638419Y-46179608D02*
X147638419Y-45846275D01*
X147638419Y-45846275D02*
X148638419Y-45512942D01*
X148638419Y-44703418D02*
X148638419Y-45179608D01*
X148638419Y-45179608D02*
X147638419Y-45179608D01*
X148733657Y-44608180D02*
X148733657Y-43846275D01*
X148638419Y-43608179D02*
X147638419Y-43608179D01*
X147733657Y-43179608D02*
X147686038Y-43131989D01*
X147686038Y-43131989D02*
X147638419Y-43036751D01*
X147638419Y-43036751D02*
X147638419Y-42798656D01*
X147638419Y-42798656D02*
X147686038Y-42703418D01*
X147686038Y-42703418D02*
X147733657Y-42655799D01*
X147733657Y-42655799D02*
X147828895Y-42608180D01*
X147828895Y-42608180D02*
X147924133Y-42608180D01*
X147924133Y-42608180D02*
X148066990Y-42655799D01*
X148066990Y-42655799D02*
X148638419Y-43227227D01*
X148638419Y-43227227D02*
X148638419Y-42608180D01*
X148543180Y-41608180D02*
X148590800Y-41655799D01*
X148590800Y-41655799D02*
X148638419Y-41798656D01*
X148638419Y-41798656D02*
X148638419Y-41893894D01*
X148638419Y-41893894D02*
X148590800Y-42036751D01*
X148590800Y-42036751D02*
X148495561Y-42131989D01*
X148495561Y-42131989D02*
X148400323Y-42179608D01*
X148400323Y-42179608D02*
X148209847Y-42227227D01*
X148209847Y-42227227D02*
X148066990Y-42227227D01*
X148066990Y-42227227D02*
X147876514Y-42179608D01*
X147876514Y-42179608D02*
X147781276Y-42131989D01*
X147781276Y-42131989D02*
X147686038Y-42036751D01*
X147686038Y-42036751D02*
X147638419Y-41893894D01*
X147638419Y-41893894D02*
X147638419Y-41798656D01*
X147638419Y-41798656D02*
X147686038Y-41655799D01*
X147686038Y-41655799D02*
X147733657Y-41608180D01*
X148638419Y-40655799D02*
X148638419Y-41227227D01*
X148638419Y-40941513D02*
X147638419Y-40941513D01*
X147638419Y-40941513D02*
X147781276Y-41036751D01*
X147781276Y-41036751D02*
X147876514Y-41131989D01*
X147876514Y-41131989D02*
X147924133Y-41227227D01*
X183754733Y-87154980D02*
X183707114Y-87202600D01*
X183707114Y-87202600D02*
X183564257Y-87250219D01*
X183564257Y-87250219D02*
X183469019Y-87250219D01*
X183469019Y-87250219D02*
X183326162Y-87202600D01*
X183326162Y-87202600D02*
X183230924Y-87107361D01*
X183230924Y-87107361D02*
X183183305Y-87012123D01*
X183183305Y-87012123D02*
X183135686Y-86821647D01*
X183135686Y-86821647D02*
X183135686Y-86678790D01*
X183135686Y-86678790D02*
X183183305Y-86488314D01*
X183183305Y-86488314D02*
X183230924Y-86393076D01*
X183230924Y-86393076D02*
X183326162Y-86297838D01*
X183326162Y-86297838D02*
X183469019Y-86250219D01*
X183469019Y-86250219D02*
X183564257Y-86250219D01*
X183564257Y-86250219D02*
X183707114Y-86297838D01*
X183707114Y-86297838D02*
X183754733Y-86345457D01*
X184659495Y-86250219D02*
X184183305Y-86250219D01*
X184183305Y-86250219D02*
X184135686Y-86726409D01*
X184135686Y-86726409D02*
X184183305Y-86678790D01*
X184183305Y-86678790D02*
X184278543Y-86631171D01*
X184278543Y-86631171D02*
X184516638Y-86631171D01*
X184516638Y-86631171D02*
X184611876Y-86678790D01*
X184611876Y-86678790D02*
X184659495Y-86726409D01*
X184659495Y-86726409D02*
X184707114Y-86821647D01*
X184707114Y-86821647D02*
X184707114Y-87059742D01*
X184707114Y-87059742D02*
X184659495Y-87154980D01*
X184659495Y-87154980D02*
X184611876Y-87202600D01*
X184611876Y-87202600D02*
X184516638Y-87250219D01*
X184516638Y-87250219D02*
X184278543Y-87250219D01*
X184278543Y-87250219D02*
X184183305Y-87202600D01*
X184183305Y-87202600D02*
X184135686Y-87154980D01*
X192494819Y-92281333D02*
X193209104Y-92281333D01*
X193209104Y-92281333D02*
X193351961Y-92328952D01*
X193351961Y-92328952D02*
X193447200Y-92424190D01*
X193447200Y-92424190D02*
X193494819Y-92567047D01*
X193494819Y-92567047D02*
X193494819Y-92662285D01*
X193494819Y-91281333D02*
X193494819Y-91852761D01*
X193494819Y-91567047D02*
X192494819Y-91567047D01*
X192494819Y-91567047D02*
X192637676Y-91662285D01*
X192637676Y-91662285D02*
X192732914Y-91757523D01*
X192732914Y-91757523D02*
X192780533Y-91852761D01*
X153162380Y-55532257D02*
X153210000Y-55579876D01*
X153210000Y-55579876D02*
X153257619Y-55722733D01*
X153257619Y-55722733D02*
X153257619Y-55817971D01*
X153257619Y-55817971D02*
X153210000Y-55960828D01*
X153210000Y-55960828D02*
X153114761Y-56056066D01*
X153114761Y-56056066D02*
X153019523Y-56103685D01*
X153019523Y-56103685D02*
X152829047Y-56151304D01*
X152829047Y-56151304D02*
X152686190Y-56151304D01*
X152686190Y-56151304D02*
X152495714Y-56103685D01*
X152495714Y-56103685D02*
X152400476Y-56056066D01*
X152400476Y-56056066D02*
X152305238Y-55960828D01*
X152305238Y-55960828D02*
X152257619Y-55817971D01*
X152257619Y-55817971D02*
X152257619Y-55722733D01*
X152257619Y-55722733D02*
X152305238Y-55579876D01*
X152305238Y-55579876D02*
X152352857Y-55532257D01*
X153257619Y-54579876D02*
X153257619Y-55151304D01*
X153257619Y-54865590D02*
X152257619Y-54865590D01*
X152257619Y-54865590D02*
X152400476Y-54960828D01*
X152400476Y-54960828D02*
X152495714Y-55056066D01*
X152495714Y-55056066D02*
X152543333Y-55151304D01*
X152257619Y-53960828D02*
X152257619Y-53865590D01*
X152257619Y-53865590D02*
X152305238Y-53770352D01*
X152305238Y-53770352D02*
X152352857Y-53722733D01*
X152352857Y-53722733D02*
X152448095Y-53675114D01*
X152448095Y-53675114D02*
X152638571Y-53627495D01*
X152638571Y-53627495D02*
X152876666Y-53627495D01*
X152876666Y-53627495D02*
X153067142Y-53675114D01*
X153067142Y-53675114D02*
X153162380Y-53722733D01*
X153162380Y-53722733D02*
X153210000Y-53770352D01*
X153210000Y-53770352D02*
X153257619Y-53865590D01*
X153257619Y-53865590D02*
X153257619Y-53960828D01*
X153257619Y-53960828D02*
X153210000Y-54056066D01*
X153210000Y-54056066D02*
X153162380Y-54103685D01*
X153162380Y-54103685D02*
X153067142Y-54151304D01*
X153067142Y-54151304D02*
X152876666Y-54198923D01*
X152876666Y-54198923D02*
X152638571Y-54198923D01*
X152638571Y-54198923D02*
X152448095Y-54151304D01*
X152448095Y-54151304D02*
X152352857Y-54103685D01*
X152352857Y-54103685D02*
X152305238Y-54056066D01*
X152305238Y-54056066D02*
X152257619Y-53960828D01*
D13*
%TO.C,U3*%
X170707000Y-86878600D02*
X170707000Y-80868600D01*
X177527000Y-84628600D02*
X177527000Y-80868600D01*
X170707000Y-80868600D02*
X171967000Y-80868600D01*
X177527000Y-80868600D02*
X176267000Y-80868600D01*
%TO.C,D4*%
X158172100Y-108275000D02*
X158172100Y-106355000D01*
X158172100Y-106355000D02*
X155487100Y-106355000D01*
X155487100Y-108275000D02*
X158172100Y-108275000D01*
%TO.C,D2*%
X178303200Y-87885000D02*
X178303200Y-91185000D01*
X178303200Y-87885000D02*
X183813200Y-87885000D01*
X178303200Y-91185000D02*
X183813200Y-91185000D01*
%TO.C,D3*%
X152848600Y-41559600D02*
X152848600Y-43479600D01*
X152848600Y-43479600D02*
X155533600Y-43479600D01*
X155533600Y-41559600D02*
X152848600Y-41559600D01*
%TO.C,R10*%
X149658400Y-68197464D02*
X149658400Y-67743336D01*
X151128400Y-68197464D02*
X151128400Y-67743336D01*
D14*
%TO.C,U6*%
X158384000Y-102858000D02*
X158384000Y-98958000D01*
X163434000Y-102858000D02*
X163434000Y-98958000D01*
D15*
X158704000Y-104948000D02*
G75*
G03*
X158704000Y-104948000I-100000J0D01*
G01*
D13*
%TO.C,PLUVIOMETER1*%
X147202400Y-87801400D02*
X141462400Y-87801400D01*
X147202400Y-87801400D02*
X147202400Y-100221400D01*
X138712400Y-87801400D02*
X133982400Y-87801400D01*
X133982400Y-87801400D02*
X133982400Y-100221400D01*
X147202400Y-100221400D02*
X141462400Y-100221400D01*
X138712400Y-100221400D02*
X133982400Y-100221400D01*
X144932400Y-100381400D02*
X144432400Y-100881400D01*
X145432400Y-100881400D02*
X144932400Y-100381400D01*
X145432400Y-100881400D02*
X144432400Y-100881400D01*
%TO.C,C6*%
X193521000Y-58645248D02*
X193521000Y-59167752D01*
X192051000Y-58645248D02*
X192051000Y-59167752D01*
%TO.C,C16*%
X158469000Y-91585148D02*
X158469000Y-92107652D01*
X156999000Y-91585148D02*
X156999000Y-92107652D01*
%TO.C,TEMP_5CM*%
X145295400Y-117121400D02*
X145295400Y-122861400D01*
X145295400Y-117121400D02*
X157715400Y-117121400D01*
X145295400Y-125611400D02*
X145295400Y-130341400D01*
X145295400Y-130341400D02*
X157715400Y-130341400D01*
X157715400Y-117121400D02*
X157715400Y-122861400D01*
X157715400Y-125611400D02*
X157715400Y-130341400D01*
X157875400Y-119391400D02*
X158375400Y-119891400D01*
X158375400Y-118891400D02*
X157875400Y-119391400D01*
X158375400Y-118891400D02*
X158375400Y-119891400D01*
%TO.C,R13*%
X160653400Y-91773636D02*
X160653400Y-92227764D01*
X159183400Y-91773636D02*
X159183400Y-92227764D01*
%TO.C,R14*%
X155068600Y-104572164D02*
X155068600Y-104118036D01*
X156538600Y-104572164D02*
X156538600Y-104118036D01*
%TO.C,U1*%
X163897800Y-33812200D02*
X163897800Y-40562200D01*
X163897800Y-33812200D02*
X181897800Y-33812200D01*
X163897800Y-58562200D02*
X163897800Y-59312200D01*
X163897800Y-59312200D02*
X164897800Y-59312200D01*
X181897800Y-33812200D02*
X181897800Y-40562200D01*
X181897800Y-39752200D02*
X163897800Y-39752200D01*
X181897800Y-58562200D02*
X181897800Y-59312200D01*
X181897800Y-59312200D02*
X180897800Y-59312200D01*
%TO.C,C8*%
X158536452Y-43280000D02*
X158013948Y-43280000D01*
X158536452Y-41810000D02*
X158013948Y-41810000D01*
%TO.C,R2*%
X186107400Y-66343264D02*
X186107400Y-65889136D01*
X187577400Y-66343264D02*
X187577400Y-65889136D01*
%TO.C,Q1*%
X173837600Y-72176200D02*
X172037600Y-72176200D01*
X173837600Y-72176200D02*
X174637600Y-72176200D01*
X173837600Y-75296200D02*
X173037600Y-75296200D01*
X173837600Y-75296200D02*
X174637600Y-75296200D01*
%TO.C,RESET1*%
X155886400Y-59537200D02*
X157086400Y-59537200D01*
X158686400Y-59537200D02*
X159886400Y-59537200D01*
X159886400Y-59537200D02*
X159886400Y-53137200D01*
X155886400Y-53137200D02*
X155886400Y-59537200D01*
X157086400Y-53137200D02*
X155886400Y-53137200D01*
X159886400Y-53137200D02*
X158686400Y-53137200D01*
%TO.C,R4*%
X170203800Y-69368936D02*
X170203800Y-69823064D01*
X168733800Y-69368936D02*
X168733800Y-69823064D01*
%TO.C,C15*%
X156233800Y-91585148D02*
X156233800Y-92107652D01*
X154763800Y-91585148D02*
X154763800Y-92107652D01*
%TO.C,USB*%
X193958400Y-79497400D02*
X193958400Y-79117400D01*
X195728400Y-79497400D02*
X193958400Y-79497400D01*
X198268400Y-79497400D02*
X198008400Y-79497400D01*
X193958400Y-71877400D02*
X193958400Y-72257400D01*
X193958400Y-71877400D02*
X195728400Y-71877400D01*
X198008400Y-71877400D02*
X198268400Y-71877400D01*
%TO.C,BUS_I2C1*%
X147224400Y-56299400D02*
X141484400Y-56299400D01*
X147224400Y-56299400D02*
X147224400Y-68719400D01*
X138734400Y-56299400D02*
X134004400Y-56299400D01*
X134004400Y-56299400D02*
X134004400Y-68719400D01*
X147224400Y-68719400D02*
X141484400Y-68719400D01*
X138734400Y-68719400D02*
X134004400Y-68719400D01*
X144954400Y-68879400D02*
X144454400Y-69379400D01*
X145454400Y-69379400D02*
X144954400Y-68879400D01*
X145454400Y-69379400D02*
X144454400Y-69379400D01*
%TO.C,C7*%
X176811000Y-74175252D02*
X176811000Y-73652748D01*
X178281000Y-74175252D02*
X178281000Y-73652748D01*
%TO.C,BOOT1*%
X191230000Y-52869000D02*
X190030000Y-52869000D01*
X188430000Y-52869000D02*
X187230000Y-52869000D01*
X187230000Y-52869000D02*
X187230000Y-59269000D01*
X191230000Y-59269000D02*
X191230000Y-52869000D01*
X190030000Y-59269000D02*
X191230000Y-59269000D01*
X187230000Y-59269000D02*
X188430000Y-59269000D01*
%TO.C,C11*%
X154684400Y-76831648D02*
X154684400Y-77354152D01*
X153214400Y-76831648D02*
X153214400Y-77354152D01*
%TO.C,TEMP_10CM*%
X160916400Y-117121400D02*
X160916400Y-122861400D01*
X160916400Y-117121400D02*
X173336400Y-117121400D01*
X160916400Y-125611400D02*
X160916400Y-130341400D01*
X160916400Y-130341400D02*
X173336400Y-130341400D01*
X173336400Y-117121400D02*
X173336400Y-122861400D01*
X173336400Y-125611400D02*
X173336400Y-130341400D01*
X173496400Y-119391400D02*
X173996400Y-119891400D01*
X173996400Y-118891400D02*
X173496400Y-119391400D01*
X173996400Y-118891400D02*
X173996400Y-119891400D01*
%TO.C,R5*%
X165558800Y-69619864D02*
X165558800Y-69165736D01*
X167028800Y-69619864D02*
X167028800Y-69165736D01*
%TO.C,VBAT*%
X200356000Y-39543000D02*
X187756000Y-39543000D01*
X187756000Y-39543000D02*
X187756000Y-49893000D01*
X195556000Y-49893000D02*
X195256000Y-50393000D01*
X190156000Y-49893000D02*
X195556000Y-49893000D01*
X188706000Y-49893000D02*
X188456000Y-50393000D01*
X187756000Y-49893000D02*
X188706000Y-49893000D01*
X200356000Y-50393000D02*
X200356000Y-39543000D01*
X195256000Y-50393000D02*
X200356000Y-50393000D01*
X190406000Y-50393000D02*
X190156000Y-49893000D01*
X190356000Y-50393000D02*
X190406000Y-50393000D01*
X188456000Y-50393000D02*
X190356000Y-50393000D01*
%TO.C,W_SPEED/W_DIR1*%
X147202400Y-72037400D02*
X141462400Y-72037400D01*
X147202400Y-72037400D02*
X147202400Y-84457400D01*
X138712400Y-72037400D02*
X133982400Y-72037400D01*
X133982400Y-72037400D02*
X133982400Y-84457400D01*
X147202400Y-84457400D02*
X141462400Y-84457400D01*
X138712400Y-84457400D02*
X133982400Y-84457400D01*
X144932400Y-84617400D02*
X144432400Y-85117400D01*
X145432400Y-85117400D02*
X144932400Y-84617400D01*
X145432400Y-85117400D02*
X144432400Y-85117400D01*
%TO.C,R12*%
X186459800Y-35840936D02*
X186459800Y-36295064D01*
X184989800Y-35840936D02*
X184989800Y-36295064D01*
%TO.C,U2*%
X183769000Y-80066200D02*
X187219000Y-80066200D01*
X183769000Y-80066200D02*
X181819000Y-80066200D01*
X183769000Y-69946200D02*
X185719000Y-69946200D01*
X183769000Y-69946200D02*
X181819000Y-69946200D01*
%TO.C,C4*%
X184182652Y-83564400D02*
X183660148Y-83564400D01*
X184182652Y-82094400D02*
X183660148Y-82094400D01*
%TO.C,J3*%
X162010400Y-75904400D02*
X160680400Y-75904400D01*
X162010400Y-74574400D02*
X162010400Y-75904400D01*
X162010400Y-73304400D02*
X162010400Y-70704400D01*
X162010400Y-73304400D02*
X159350400Y-73304400D01*
X162010400Y-70704400D02*
X159350400Y-70704400D01*
X159350400Y-73304400D02*
X159350400Y-70704400D01*
%TO.C,C13*%
X178182600Y-96400252D02*
X178182600Y-95877748D01*
X179652600Y-96400252D02*
X179652600Y-95877748D01*
%TO.C,C14*%
X181735400Y-95877748D02*
X181735400Y-96400252D01*
X180265400Y-95877748D02*
X180265400Y-96400252D01*
%TO.C,R7*%
X158375264Y-47572600D02*
X157921136Y-47572600D01*
X158375264Y-46102600D02*
X157921136Y-46102600D01*
%TO.C,R15*%
X156235036Y-108815200D02*
X156689164Y-108815200D01*
X156235036Y-110285200D02*
X156689164Y-110285200D01*
%TO.C,Q2*%
X173812200Y-68391600D02*
X172012200Y-68391600D01*
X173812200Y-68391600D02*
X174612200Y-68391600D01*
X173812200Y-71511600D02*
X173012200Y-71511600D01*
X173812200Y-71511600D02*
X174612200Y-71511600D01*
%TO.C,R3*%
X154709864Y-45439000D02*
X154255736Y-45439000D01*
X154709864Y-43969000D02*
X154255736Y-43969000D01*
%TO.C,C3*%
X189135652Y-85723400D02*
X188613148Y-85723400D01*
X189135652Y-84253400D02*
X188613148Y-84253400D01*
%TO.C,RV1*%
X155842400Y-66542400D02*
X157806400Y-66542400D01*
X153066400Y-66542400D02*
X154852400Y-66542400D01*
X157806400Y-73492400D02*
X157806400Y-66542400D01*
X155842400Y-73492400D02*
X157806400Y-73492400D01*
X153066400Y-73492400D02*
X153066400Y-66542400D01*
X153066400Y-73492400D02*
X154852400Y-73492400D01*
%TO.C,R1*%
X184050000Y-66343264D02*
X184050000Y-65889136D01*
X185520000Y-66343264D02*
X185520000Y-65889136D01*
%TO.C,R6*%
X157946536Y-43994400D02*
X158400664Y-43994400D01*
X157946536Y-45464400D02*
X158400664Y-45464400D01*
%TO.C,C12*%
X153922400Y-91606648D02*
X153922400Y-92129152D01*
X152452400Y-91606648D02*
X152452400Y-92129152D01*
%TO.C,D1*%
X170512000Y-87885000D02*
X170512000Y-91185000D01*
X170512000Y-87885000D02*
X176022000Y-87885000D01*
X170512000Y-91185000D02*
X176022000Y-91185000D01*
%TO.C,RV2*%
X163468400Y-106151400D02*
X161682400Y-106151400D01*
X163468400Y-106151400D02*
X163468400Y-113101400D01*
X160692400Y-106151400D02*
X158728400Y-106151400D01*
X158728400Y-106151400D02*
X158728400Y-113101400D01*
X163468400Y-113101400D02*
X161682400Y-113101400D01*
X160692400Y-113101400D02*
X158728400Y-113101400D01*
%TO.C,C9*%
X179469148Y-82094400D02*
X179991652Y-82094400D01*
X179469148Y-83564400D02*
X179991652Y-83564400D01*
%TO.C,R11*%
X187123400Y-36345864D02*
X187123400Y-35891736D01*
X188593400Y-36345864D02*
X188593400Y-35891736D01*
%TO.C,C2*%
X189114152Y-83488200D02*
X188591648Y-83488200D01*
X189114152Y-82018200D02*
X188591648Y-82018200D01*
%TO.C,C1*%
X190044400Y-79153652D02*
X190044400Y-78631148D01*
X191514400Y-79153652D02*
X191514400Y-78631148D01*
%TO.C,U5*%
X181152800Y-104896600D02*
X184602800Y-104896600D01*
X181152800Y-104896600D02*
X179202800Y-104896600D01*
X181152800Y-99776600D02*
X183102800Y-99776600D01*
X181152800Y-99776600D02*
X179202800Y-99776600D01*
%TO.C,TEMP_15CM*%
X176568400Y-117113400D02*
X176568400Y-122853400D01*
X176568400Y-117113400D02*
X188988400Y-117113400D01*
X176568400Y-125603400D02*
X176568400Y-130333400D01*
X176568400Y-130333400D02*
X188988400Y-130333400D01*
X188988400Y-117113400D02*
X188988400Y-122853400D01*
X188988400Y-125603400D02*
X188988400Y-130333400D01*
X189148400Y-119383400D02*
X189648400Y-119883400D01*
X189648400Y-118883400D02*
X189148400Y-119383400D01*
X189648400Y-118883400D02*
X189648400Y-119883400D01*
%TO.C,J4*%
X199746400Y-98293200D02*
X187146400Y-98293200D01*
X187146400Y-98293200D02*
X187146400Y-108643200D01*
X194946400Y-108643200D02*
X194646400Y-109143200D01*
X189546400Y-108643200D02*
X194946400Y-108643200D01*
X188096400Y-108643200D02*
X187846400Y-109143200D01*
X187146400Y-108643200D02*
X188096400Y-108643200D01*
X199746400Y-109143200D02*
X199746400Y-98293200D01*
X194646400Y-109143200D02*
X199746400Y-109143200D01*
X189796400Y-109143200D02*
X189546400Y-108643200D01*
X189746400Y-109143200D02*
X189796400Y-109143200D01*
X187846400Y-109143200D02*
X189746400Y-109143200D01*
%TO.C,J5*%
X146620800Y-103458400D02*
X144720800Y-103458400D01*
X144720800Y-103458400D02*
X144670800Y-103458400D01*
X144670800Y-103458400D02*
X144920800Y-103958400D01*
X139820800Y-103458400D02*
X134720800Y-103458400D01*
X134720800Y-103458400D02*
X134720800Y-114308400D01*
X147320800Y-103958400D02*
X146370800Y-103958400D01*
X146370800Y-103958400D02*
X146620800Y-103458400D01*
X144920800Y-103958400D02*
X139520800Y-103958400D01*
X139520800Y-103958400D02*
X139820800Y-103458400D01*
X147320800Y-114308400D02*
X147320800Y-103958400D01*
X134720800Y-114308400D02*
X147320800Y-114308400D01*
%TO.C,EXTERNAL_I2C1*%
X147202400Y-40545400D02*
X141462400Y-40545400D01*
X147202400Y-40545400D02*
X147202400Y-52965400D01*
X138712400Y-40545400D02*
X133982400Y-40545400D01*
X133982400Y-40545400D02*
X133982400Y-52965400D01*
X147202400Y-52965400D02*
X141462400Y-52965400D01*
X138712400Y-52965400D02*
X133982400Y-52965400D01*
X144932400Y-53125400D02*
X144432400Y-53625400D01*
X145432400Y-53625400D02*
X144932400Y-53125400D01*
X145432400Y-53625400D02*
X144432400Y-53625400D01*
%TO.C,C5*%
X184182652Y-85850400D02*
X183660148Y-85850400D01*
X184182652Y-84380400D02*
X183660148Y-84380400D01*
%TO.C,J1*%
X187846400Y-97814800D02*
X189746400Y-97814800D01*
X189746400Y-97814800D02*
X189796400Y-97814800D01*
X189796400Y-97814800D02*
X189546400Y-97314800D01*
X194646400Y-97814800D02*
X199746400Y-97814800D01*
X199746400Y-97814800D02*
X199746400Y-86964800D01*
X187146400Y-97314800D02*
X188096400Y-97314800D01*
X188096400Y-97314800D02*
X187846400Y-97814800D01*
X189546400Y-97314800D02*
X194946400Y-97314800D01*
X194946400Y-97314800D02*
X194646400Y-97814800D01*
X187146400Y-86964800D02*
X187146400Y-97314800D01*
X199746400Y-86964800D02*
X187146400Y-86964800D01*
%TO.C,C10*%
X153747800Y-55150652D02*
X153747800Y-54628148D01*
X155217800Y-55150652D02*
X155217800Y-54628148D01*
%TD*%
M02*
